<?xml version="1.0" encoding="UTF-8"?>
<svg xmlns="http://www.w3.org/2000/svg" viewBox="0 0 180 220" width="180" height="220">
  <defs>
    <linearGradient id="g_glove_epic" x1="0" y1="0" x2="0" y2="1">
      <stop offset="0%" stop-color="#8f6a44"/>
      <stop offset="100%" stop-color="#5e442d"/>
    </linearGradient>
    <linearGradient id="g_cuff_epic" x1="0" y1="0" x2="1" y2="0">
      <stop offset="0%" stop-color="#9C27B0"/>
      <stop offset="100%" stop-color="#f2f2f2"/>
    </linearGradient>
  </defs>
  <!-- Zoo Worker gauntlets (epic): Rescue Mitts -->
  <g id="gauntlets_epic" transform="translate(90 128) scale(1.0) translate(-90 -128)">
    <ellipse cx="72.6" cy="141.0" rx="3.2" ry="2.1" fill="#2b2118" opacity="0.28"/>
    <ellipse cx="107.4" cy="141.0" rx="3.2" ry="2.1" fill="#2b2118" opacity="0.28"/>

    <rect x="69.6" y="136.2" width="6.1" height="4.5" rx="1.2" fill="url(#g_glove_epic)" stroke="#453221" stroke-width="0.55"/>
    <rect x="69.4" y="139.8" width="6.5" height="1.2" rx="0.5" fill="url(#g_cuff_epic)" opacity="0.95"/>

    <rect x="104.3" y="136.2" width="6.1" height="4.5" rx="1.2" fill="url(#g_glove_epic)" stroke="#453221" stroke-width="0.55"/>
    <rect x="104.1" y="139.8" width="6.5" height="1.2" rx="0.5" fill="url(#g_cuff_epic)" opacity="0.95"/>
    <path d="M70.6 138.0 L73.8 138.0 M105.6 138.0 L108.8 138.0" stroke="#d9c49f" stroke-width="0.38"/><circle cx="71.6" cy="137.4" r="0.9" fill="#9C27B0"/><circle cx="106.8" cy="137.4" r="0.9" fill="#9C27B0"/><path d="M70.8 136.8 L74.8 136.8 M105.2 136.8 L109.2 136.8" stroke="#9C27B0" stroke-width="0.55"/>
  </g>
</svg>
