<svg xmlns="http://www.w3.org/2000/svg" viewBox="0 0 180 220" width="180" height="220">

  <g id="cloak_legendary" opacity="0.86">
    <path d="M63 74 L117 74 L124 92 L117 191 L63 191 L56 92 Z" fill="#dce3ed" opacity="0.36"/>
    <path d="M68 82 L112 82 L116 97 L112 186 L68 186 L64 97 Z" fill="#5a6f92" opacity="0.34"/>
    <path d="M70 150 L62 191 L74 191 Z" fill="#415a80" opacity="0.5"/>
    <path d="M108 150 L120 189 L106 190 Z" fill="#415a80" opacity="0.5"/>
    <path d="M72 94 L68 182 M108 94 L112 182" stroke="#9fb3d1" stroke-width="0.8" opacity="0.45"/><path d="M68 83 Q90 96 112 83" stroke="#FF9800" stroke-width="0.95" fill="none" opacity="0.82"/><rect x="74" y="106" width="32" height="1.6" rx="0.8" fill="#FF9800" opacity="0.73"/><rect x="74" y="124" width="32" height="1.6" rx="0.8" fill="#FF9800" opacity="0.73"/><rect x="74" y="142" width="32" height="1.6" rx="0.8" fill="#FF9800" opacity="0.73"/><path d="M66 112 Q90 96 114 112" stroke="#FF9800" stroke-width="1.25" fill="none" opacity="0.85"/><path d="M66 150 Q90 136 114 150" stroke="#FF9800" stroke-width="1.05" fill="none" opacity="0.67"/>
  </g>

</svg>
