<svg xmlns="http://www.w3.org/2000/svg" viewBox="0 0 180 220" width="180" height="220">
  <defs>
    <linearGradient id="wAmu3Plate" x1="0" y1="0" x2="0" y2="1">
      <stop offset="0%" stop-color="#a08cc4"/>
      <stop offset="45%" stop-color="#52476b"/>
      <stop offset="100%" stop-color="#392f4e"/>
    </linearGradient>
    <linearGradient id="wAmu3Deep" x1="0" y1="0" x2="0" y2="1">
      <stop offset="0%" stop-color="#52476b"/>
      <stop offset="100%" stop-color="#271f38"/>
    </linearGradient>
    <radialGradient id="wAmu3Aura" cx="0.5" cy="0.5" r="0.5">
      <stop offset="0%" stop-color="#9C27B0" stop-opacity="0.5"/>
      <stop offset="70%" stop-color="#9C27B0" stop-opacity="0.16"/>
      <stop offset="100%" stop-color="#9C27B0" stop-opacity="0.0"/>
    </radialGradient>
  </defs>

  <g id="amulet_epic">
    <path d="M83 88.5 Q90 84.5 97 88.5" stroke="#a08cc4" stroke-width="1.1" fill="none" opacity="0.95"/>
    <path d="M85.5 89.7 Q90 87 94.5 89.7" stroke="#271f38" stroke-width="0.6" fill="none" opacity="0.7"/>
    <path d="M90 92.8 L95.8 96.4 L95.8 103.6 L90 107.2 L84.2 103.6 L84.2 96.4 Z"
          fill="url(#wAmu3Plate)" stroke="#271f38" stroke-width="1"/>
    <path d="M90 95.6 L93.4 97.8 L93.4 102.2 L90 104.4 L86.6 102.2 L86.6 97.8 Z" fill="url(#wAmu3Deep)"/>
    <path d="M90 97.2 L92 100 L90 102.8 L88 100 Z" fill="#9C27B0" opacity="0.98"/>
    <path d="M89.2 97.9 L90 99 L89 99.8 Z" fill="#ce93d8" opacity="0.9"/>
    <path d="M90 94.2 L94.6 97 L94.6 103 L90 105.8 L85.4 103 L85.4 97 Z" fill="none" stroke="#b167d6" stroke-width="0.9" opacity="0.9"/><circle cx="90" cy="100" r="9.6" fill="none" stroke="#9C27B0" stroke-width="0.7" opacity="0.5"><animateTransform attributeName="transform" type="rotate" values="0 90 100;360 90 100" dur="9s" repeatCount="indefinite"/></circle><path d="M90 90.4 L91 92.4 L90 94 L89 92.4 Z" fill="#ce93d8" opacity="0.9"/><path d="M83 100 L78.6 97.6 L80 102.6 Z" fill="#9C27B0" opacity="0.9"/><path d="M97 100 L101.4 97.6 L100 102.6 Z" fill="#9C27B0" opacity="0.9"/>
  </g>

</svg>
