<?xml version="1.0" encoding="UTF-8"?>
<svg xmlns="http://www.w3.org/2000/svg" viewBox="0 0 180 220" width="180" height="220">
  <defs>
    <linearGradient id="e_back" x1="0" y1="0" x2="0" y2="1">
      <stop offset="0%" stop-color="#445869"/>
      <stop offset="100%" stop-color="#1f2c38"/>
    </linearGradient>
    <linearGradient id="e_side" x1="0" y1="0" x2="0" y2="1">
      <stop offset="0%" stop-color="#394c5a"/>
      <stop offset="100%" stop-color="#182129"/>
    </linearGradient>
    <filter id="e_glow" x="-40%" y="-40%" width="180%" height="180%">
      <feGaussianBlur stdDeviation="0.9"/>
    </filter>
  </defs>

  <!-- Epic cloak: fitted drape + purple energetic trim -->
  <g id="cloak_epic">
    <path d="M70 84 Q90 76 110 84 L121 176 Q90 189 59 176 Z" fill="url(#e_back)" opacity="0.55"/>
    <path d="M68 84 L82 90 L76 183 L52 176 Z" fill="url(#e_side)" opacity="0.82"/>
    <path d="M112 84 L98 90 L104 183 L128 176 Z" fill="url(#e_side)" opacity="0.82"/>

    <path d="M68 85 Q90 79 112 85" fill="none" stroke="#9c27b0" stroke-width="1.1" opacity="0.92"/>
    <path d="M73.6 94.2 L66.5 173.1" fill="none" stroke="#ba68c8" stroke-width="0.85" opacity="0.8" filter="url(#e_glow)"/>
    <path d="M106.4 94.2 L113.5 173.1" fill="none" stroke="#ba68c8" stroke-width="0.85" opacity="0.8" filter="url(#e_glow)"/>
    <path d="M80.5 100.6 Q90 105.4 99.5 100.6" fill="none" stroke="#ce93d8" stroke-width="0.95" opacity="0.86"/>
    <path d="M90 88.5 L90 100" fill="none" stroke="#9c27b0" stroke-width="1.0" opacity="0.85"/>
    <circle cx="90" cy="88.5" r="2.0" fill="#9c27b0" opacity="0.95">
      <animate attributeName="opacity" values="0.55;1;0.55" dur="2.4s" repeatCount="indefinite"/>
    </circle>
  </g>
</svg>
