<?xml version="1.0" encoding="UTF-8"?>
<svg xmlns="http://www.w3.org/2000/svg" viewBox="0 0 180 220" width="180" height="220">
  <defs>
    <linearGradient id="r_back" x1="0" y1="0" x2="0" y2="1">
      <stop offset="0%" stop-color="#425666"/>
      <stop offset="100%" stop-color="#1f2c37"/>
    </linearGradient>
    <linearGradient id="r_side" x1="0" y1="0" x2="0" y2="1">
      <stop offset="0%" stop-color="#384a58"/>
      <stop offset="100%" stop-color="#182129"/>
    </linearGradient>
  </defs>

  <!-- Rare cloak: fitted drape + blue field lines and insignia accents -->
  <g id="cloak_rare">
    <path d="M70 84 Q90 76 110 84 L121 176 Q90 189 59 176 Z" fill="url(#r_back)" opacity="0.54"/>
    <path d="M68 84 L82 90 L76 183 L52 176 Z" fill="url(#r_side)" opacity="0.8"/>
    <path d="M112 84 L98 90 L104 183 L128 176 Z" fill="url(#r_side)" opacity="0.8"/>

    <path d="M68 85 Q90 79 112 85" fill="none" stroke="#2196f3" stroke-width="1.05" opacity="0.9"/>
    <path d="M74 94 L67 173" fill="none" stroke="#2196f3" stroke-width="0.75" opacity="0.65"/>
    <path d="M106 94 L113 173" fill="none" stroke="#2196f3" stroke-width="0.75" opacity="0.65"/>
    <path d="M84 99 Q90 103 96 99" fill="none" stroke="#64b5f6" stroke-width="0.85" opacity="0.85"/>
    <circle cx="68.8" cy="112" r="1.1" fill="#64b5f6" opacity="0.9"/>
    <circle cx="111.2" cy="112" r="1.1" fill="#64b5f6" opacity="0.9"/>
    <circle cx="90" cy="88.5" r="1.7" fill="#2196f3" opacity="0.92"/>
  </g>
</svg>
