<svg xmlns="http://www.w3.org/2000/svg" viewBox="0 0 180 220" width="180" height="220">

  <g id="cloak_celestial" opacity="0.9">
    <path d="M63 74 L117 74 L124 91 L118 191 L62 191 L56 91 Z" fill="#1b2b44" opacity="0.52"/>
    <path d="M68 82 L112 82 L116 97 L112 186 L68 186 L64 97 Z" fill="#2f466d" opacity="0.45"/>
    <path d="M68 82 Q90 90 112 82" stroke="#00E5FF" stroke-width="1.05" opacity="0.82" fill="none"/>
    <path d="M74 96 L69 181 M106 96 L111 181" stroke="#94aed6" stroke-width="0.82" opacity="0.42"/>
    <path d="M70 160 L62 190 L74 190 Z" fill="#1f314d" opacity="0.65"/><path d="M110 160 L118 190 L106 190 Z" fill="#1f314d" opacity="0.65"/>
    <circle cx="76" cy="118" r="1.2" fill="#00E5FF" opacity="0.75"/><circle cx="104" cy="125" r="1" fill="#00E5FF" opacity="0.75"/><circle cx="96" cy="146" r="1.2" fill="#00E5FF" opacity="0.7"/><circle cx="83" cy="139" r="0.9" fill="#00E5FF" opacity="0.7"/>
    <path d="M69 112 Q90 96 111 112" stroke="#00E5FF" stroke-width="1.45" fill="none" opacity="0.8"/><path d="M68 151 Q90 137 112 151" stroke="#00E5FF" stroke-width="1.15" fill="none" opacity="0.62"/>
    <ellipse cx="90" cy="136" rx="34" ry="19" fill="none" stroke="#00E5FF" stroke-width="1.1" opacity="0.5"/>
  </g>

</svg>
