<?xml version="1.0" encoding="UTF-8"?><svg xmlns="http://www.w3.org/2000/svg" viewBox="0 0 180 220"><defs><linearGradient id="holoHood" x1="0%" y1="0%" x2="0%" y2="100%"><stop offset="0%" stop-color="#006064"/><stop offset="100%" stop-color="#00BCD4" stop-opacity="0.8"/></linearGradient><filter id="glitchScan"><feFlood flood-color="#00E5FF" flood-opacity="0.2" result="flood"/><feComposite operator="in" in="flood" in2="SourceGraphic" result="mask"/><feMerge><feMergeNode in="SourceGraphic"/><feMergeNode in="mask"/></feMerge></filter><radialGradient id="humanIrisBlue" cx="50%" cy="50%" r="50%">
<stop offset="60%" stop-color="#42A5F5"/>
<stop offset="100%" stop-color="#0D47A1"/>
</radialGradient>
<radialGradient id="humanIrisGreen" cx="50%" cy="50%" r="50%">
<stop offset="60%" stop-color="#66BB6A"/>
<stop offset="100%" stop-color="#1B5E20"/>
</radialGradient>
<radialGradient id="humanIrisBrown" cx="50%" cy="50%" r="50%">
<stop offset="60%" stop-color="#8D6E63"/>
<stop offset="100%" stop-color="#3E2723"/>
</radialGradient>
<radialGradient id="humanIrisPurple" cx="50%" cy="50%" r="50%">
<stop offset="60%" stop-color="#AB47BC"/>
<stop offset="100%" stop-color="#4A148C"/>
</radialGradient>
<radialGradient id="humanIrisRed" cx="50%" cy="50%" r="50%">
<stop offset="60%" stop-color="#EF5350"/>
<stop offset="100%" stop-color="#B71C1C"/>
</radialGradient>
<radialGradient id="humanIrisGold" cx="50%" cy="50%" r="50%">
<stop offset="60%" stop-color="#FFEE58"/>
<stop offset="100%" stop-color="#F57F17"/>
</radialGradient>
</defs><g transform="translate(90, 61) scale(0.22)"><path d="M0 -150 C-100 -150 -130 -50 -130 0 C-130 80 -80 100 -50 110 C-20 120 20 120 50 110 C80 100 130 80 130 0 C130 -50 100 -150 0 -150 Z" fill="url(#holoHood)" stroke="#00E5FF" stroke-width="2" stroke-dasharray="4,2"/><ellipse cx="0" cy="10" rx="60" ry="70" fill="#000"/>

    <!-- Human Eyes Group -->
    <g transform="translate(0, -5)">
        <!-- Animation for looking around (group shift) -->
        <!-- NOT moving the whole head, moving pupils inside the eyes -->
        
        <!-- Mask/Clip Definition for eyelids (shared) -->
        <!-- NOTE: Inline clipPath often cleaner to avoid ID collisions if defined inside defs but referenced locally. 
             However, standard SVG practice puts clipPath in defs. I will use a simple rect/path overlay for eyelids to simulate blinking 
             instead of clipPath to avoid complex browser rendering issues with transforms. -->
             
        <!-- Left Eye Container -->
        <g transform="translate(-22, 0)"> 
            <!-- Sclera -->
            <path d="M-14 0 Q0 -10 14 0 Q0 10 -14 0 Z" fill="#F5F5F5"/>
            <!-- Iris & Pupil -->
            <g>
                <animateTransform attributeName="transform" type="translate" 
                    values="0,0; 5,0; 0,0; -5,0; 0,0; 0,3; 0,0" 
                    dur="8s" repeatCount="indefinite" 
                    keyTimes="0; 0.1; 0.2; 0.3; 0.4; 0.5; 1"
                    calcMode="discrete"/>
                <circle cx="0" cy="0" r="6" fill="url(#humanIrisGold)" /> <!-- Iris -->
                <circle cx="0" cy="0" r="2.5" fill="#1A1A1A" /> <!-- Pupil -->
                <circle cx="2" cy="-2" r="1.5" fill="#FFFFFF" opacity="0.8" /> <!-- Glint -->
            </g>
            <!-- Eyelids (Blinking) -->
            <!-- Top Lid -->
            <path d="M-14 0 Q0 -12 14 0 Q0 0 -14 0 Z" fill="#006064"> <!-- Skin tone matching face shadow or slightly lighter? Face is shadow #000. Let's use dark grey -->
                 <animate attributeName="d" 
                    values="M-14 0 Q0 -12 14 0 Q0 0 -14 0 Z; M-14 0 Q0 0 14 0 Q0 0 -14 0 Z; M-14 0 Q0 -12 14 0 Q0 0 -14 0 Z"
                    keyTimes="0; 0.05; 0.1"
                    dur="4s"
                    repeatCount="indefinite"
                    begin="0s"/>
            </path>
        </g>

        <!-- Right Eye Container -->
        <g transform="translate(22, 0)"> 
            <!-- Sclera -->
            <path d="M-14 0 Q0 -10 14 0 Q0 10 -14 0 Z" fill="#F5F5F5"/>
            <!-- Iris & Pupil -->
            <g>
                <animateTransform attributeName="transform" type="translate" 
                    values="0,0; 5,0; 0,0; -5,0; 0,0; 0,3; 0,0" 
                    dur="8s" repeatCount="indefinite" 
                    keyTimes="0; 0.1; 0.2; 0.3; 0.4; 0.5; 1"
                    calcMode="discrete"/>
                <circle cx="0" cy="0" r="6" fill="url(#humanIrisGold)" />
                <circle cx="0" cy="0" r="2.5" fill="#1A1A1A" />
                <circle cx="2" cy="-2" r="1.5" fill="#FFFFFF" opacity="0.8" />
            </g>
            <!-- Eyelids (Blinking) -->
            <path d="M-14 0 Q0 -12 14 0 Q0 0 -14 0 Z" fill="#006064">
                 <animate attributeName="d" 
                    values="M-14 0 Q0 -12 14 0 Q0 0 -14 0 Z; M-14 0 Q0 0 14 0 Q0 0 -14 0 Z; M-14 0 Q0 -12 14 0 Q0 0 -14 0 Z"
                    keyTimes="0; 0.05; 0.1"
                    dur="4s"
                    repeatCount="indefinite"
                    begin="0s"/>
            </path>
        </g>
    </g>
<rect x="-50" y="-30" width="100" height="60" fill="url(#holoHood)" opacity="0.8"><animate attributeName="height" values="60;10;60" dur="0.2s" repeatCount="indefinite"/></rect><path d="M-40 80 L-50 150" stroke="#84FFFF" stroke-width="2" opacity="0.5"/><path d="M40 80 L50 150" stroke="#84FFFF" stroke-width="2" opacity="0.5"/></g></svg>

