<?xml version="1.0" encoding="UTF-8"?>
<svg xmlns="http://www.w3.org/2000/svg" viewBox="0 0 180 220" width="180" height="220">
  <defs>
    <linearGradient id="belt_celestial_shade" x1="0" y1="0" x2="0" y2="1">
      <stop offset="0%" stop-color="#76F4FF"/>
      <stop offset="100%" stop-color="#00BFD4"/>
    </linearGradient>
    <linearGradient id="celestial_wave" x1="0" y1="0" x2="1" y2="0">
      <stop offset="0%" stop-color="#CBFBFF"/>
      <stop offset="50%" stop-color="#00E5FF"/>
      <stop offset="100%" stop-color="#8EF7FF"/>
    </linearGradient>
    <radialGradient id="celestial_core" cx="50%" cy="50%" r="50%">
      <stop offset="0%" stop-color="#E6FDFF" stop-opacity="0.98"/>
      <stop offset="100%" stop-color="#4FEAFF" stop-opacity="0"/>
    </radialGradient>
    <filter id="celestial_belt_glow" x="-45%" y="-45%" width="190%" height="190%">
      <feGaussianBlur stdDeviation="0.84" result="g"/>
      <feMerge>
        <feMergeNode in="g"/>
        <feMergeNode in="SourceGraphic"/>
      </feMerge>
    </filter>
  </defs>

  <g id="gauntlets_celestial_belt">
    <rect x="73.7" y="139.8" width="32.6" height="9.8" rx="2.4" fill="#00E5FF" stroke="#0092A6" stroke-width="0.86"/>
    <rect x="74.9" y="141.0" width="30.4" height="7.3" rx="1.8" fill="url(#belt_celestial_shade)" opacity="0.68"/>
    <path d="M75.8 143.4 Q79.0 141.5 82.2 143.4 Q85.4 145.3 88.6 143.4 Q91.8 141.5 95.0 143.4 Q98.2 145.3 101.4 143.4 Q103.4 142.2 105.1 142.9"
          fill="none" stroke="url(#celestial_wave)" stroke-width="0.82" filter="url(#celestial_belt_glow)"/>
    <path d="M75.8 146.2 Q79.0 144.3 82.2 146.2 Q85.4 148.1 88.6 146.2 Q91.8 144.3 95.0 146.2 Q98.2 148.1 101.4 146.2 Q103.4 145.0 105.1 145.7"
          fill="none" stroke="#D8FBFF" stroke-opacity="0.8" stroke-width="0.56"/>
    <rect x="86.2" y="140.4" width="7.6" height="8.8" rx="1.3" fill="#ECFCFF" stroke="#28A5B6" stroke-width="0.68"/>
    <circle cx="90.0" cy="144.8" r="1.35" fill="url(#celestial_core)" filter="url(#celestial_belt_glow)">
      <animate attributeName="r" values="1.0;2.2;1.0" dur="1.6s" repeatCount="indefinite"/>
      <animate attributeName="opacity" values="0.35;1;0.35" dur="1.6s" repeatCount="indefinite"/>
    </circle>
    <path d="M89.0 144.8 H91.0 M90.0 143.8 V145.8" stroke="#00B6CC" stroke-width="0.45" stroke-linecap="round"/>
  </g>
</svg>
