<?xml version="1.0" encoding="UTF-8"?>
<svg xmlns="http://www.w3.org/2000/svg" viewBox="0 0 180 220" width="180" height="220">
  <defs>
    <linearGradient id="pantBaseEpic" x1="0" y1="0" x2="0" y2="1">
      <stop offset="0%" stop-color="#273243"/>
      <stop offset="100%" stop-color="#1A212D"/>
    </linearGradient>
    <linearGradient id="epicAccent" x1="0" y1="0" x2="1" y2="0">
      <stop offset="0%" stop-color="#D48BE5"/>
      <stop offset="100%" stop-color="#9C27B0"/>
    </linearGradient>
    <filter id="epicGlow" x="-35%" y="-35%" width="170%" height="170%">
      <feGaussianBlur stdDeviation="0.75" result="g"/>
      <feMerge>
        <feMergeNode in="g"/>
        <feMergeNode in="SourceGraphic"/>
      </feMerge>
    </filter>
  </defs>

  <!-- Underdog trousers: epic -->
  <g id="cloak_epic_trousers">
    <path d="M73.8 137.8 Q70.0 165.0 71.0 197.0 L87.8 197.0 Q89.0 164.2 89.5 138.0 Z"
          fill="url(#pantBaseEpic)" stroke="#101721" stroke-width="0.92"/>
    <path d="M89.5 138.0 Q91.0 164.0 92.2 197.0 L109.2 197.0 Q110.5 166.0 106.5 138.0 Z"
          fill="url(#pantBaseEpic)" stroke="#101721" stroke-width="0.92"/>

    <path d="M74.6 142.0 L72.2 195.2 M105.8 142.0 L108.2 195.2" stroke="#384657" stroke-width="0.62" opacity="0.72"/>
    <path d="M80.9 138.6 L82.0 197.0 M98.1 138.6 L97.0 197.0" stroke="#0C121A" stroke-width="0.68" opacity="0.56"/>
    <path d="M72.0 195.0 L87.6 195.0 M92.4 195.0 L109.0 195.0" stroke="#556577" stroke-width="0.78" opacity="0.8"/>

    <path d="M75.0 145.4 L84.0 145.4 M96.0 145.4 L105.0 145.4" stroke="url(#epicAccent)" stroke-width="0.82" filter="url(#epicGlow)"/>
    <path d="M76.1 161.0 L82.2 167.0 M82.2 161.0 L76.1 167.0" stroke="#9C27B0" stroke-width="0.7"/>
    <path d="M97.2 161.0 L103.3 167.0 M103.3 161.0 L97.2 167.0" stroke="#9C27B0" stroke-width="0.7"/>

    <rect x="75.1" y="159.0" width="8.0" height="8.8" rx="1.4" fill="#231A2D" stroke="#9C27B0" stroke-width="0.78"/>
    <rect x="96.9" y="159.0" width="8.0" height="8.8" rx="1.4" fill="#231A2D" stroke="#9C27B0" stroke-width="0.78"/>
    <path d="M74.9 171.6 Q90.0 168.8 105.1 171.6" stroke="#CF86E1" stroke-width="0.74" stroke-dasharray="1.2 1.2" opacity="0">
      <animate attributeName="opacity" values="0;0.9;0" dur="2.0s" repeatCount="indefinite"/>
      <animate attributeName="stroke-dashoffset" values="0;6" dur="2.0s" repeatCount="indefinite"/>
    </path>
  </g>
</svg>
