<?xml version="1.0" encoding="UTF-8"?>
<svg xmlns="http://www.w3.org/2000/svg" viewBox="0 0 180 220" width="180" height="220">
  <defs>
    <linearGradient id="pantBaseUncommon" x1="0" y1="0" x2="0" y2="1">
      <stop offset="0%" stop-color="#2B3A48"/>
      <stop offset="100%" stop-color="#1D2731"/>
    </linearGradient>
  </defs>

  <!-- Underdog trousers: uncommon -->
  <g id="cloak_uncommon_trousers">
    <path d="M73.8 137.8 Q70.0 165.0 71.0 197.0 L87.8 197.0 Q89.0 164.2 89.5 138.0 Z"
          fill="url(#pantBaseUncommon)" stroke="#121A22" stroke-width="0.9"/>
    <path d="M89.5 138.0 Q91.0 164.0 92.2 197.0 L109.2 197.0 Q110.5 166.0 106.5 138.0 Z"
          fill="url(#pantBaseUncommon)" stroke="#121A22" stroke-width="0.9"/>

    <path d="M74.5 142.0 L72.2 195.2 M105.8 142.0 L108.2 195.2" stroke="#3E4D5C" stroke-width="0.62" opacity="0.72"/>
    <path d="M80.9 138.6 L82.0 197.0 M98.1 138.6 L97.0 197.0" stroke="#0E141C" stroke-width="0.68" opacity="0.56"/>
    <path d="M72.0 195.0 L87.6 195.0 M92.4 195.0 L109.0 195.0" stroke="#5E707F" stroke-width="0.78" opacity="0.8"/>

    <path d="M74.7 146.5 Q77.2 145.2 79.7 146.5" stroke="#4CAF50" stroke-width="0.8" stroke-linecap="round"/>
    <path d="M101.0 146.4 Q103.2 145.0 105.8 146.2" stroke="#4CAF50" stroke-width="0.8" stroke-linecap="round"/>

    <rect x="94.3" y="159.4" width="8.2" height="9.0" rx="1.3" fill="#24313C" stroke="#4CAF50" stroke-width="0.76"/>
    <path d="M95.5 161.5 L101.2 161.5 M95.5 163.7 L101.2 163.7 M95.5 165.9 L101.2 165.9" stroke="#9BE7A0" stroke-width="0.44" opacity="0.8"/>
  </g>
</svg>
