<?xml version="1.0" encoding="UTF-8"?>
<svg xmlns="http://www.w3.org/2000/svg" viewBox="0 0 180 220" width="180" height="220">
  <defs>
    <linearGradient id="pantBaseLegendary" x1="90" y1="119" x2="90" y2="197" gradientUnits="userSpaceOnUse">
      <stop offset="0%" stop-color="#25303F"/>
      <stop offset="100%" stop-color="#181F2A"/>
    </linearGradient>
    <linearGradient id="legendTrim" x1="0" y1="0" x2="1" y2="0">
      <stop offset="0%" stop-color="#FFD58A"/>
      <stop offset="100%" stop-color="#FF9800"/>
    </linearGradient>
    <filter id="legendGlow" x="-35%" y="-35%" width="170%" height="170%">
      <feGaussianBlur stdDeviation="0.85" result="g"/>
      <feMerge>
        <feMergeNode in="g"/>
        <feMergeNode in="SourceGraphic"/>
      </feMerge>
    </filter>
  </defs>

  <g id="qt_anim_driver">
    <animateTransform attributeName="transform" type="translate" values="0 0; 0 -0.9; 0 0" dur="2.6s" repeatCount="indefinite"/>


  <!-- Underdog trousers: legendary -->
  <g id="cloak_legendary_trousers">
    <path d="M76.0 120.6 Q90.0 126.0 104.0 120.6 L103.6 136.0 Q97.4 141.0 90.0 141.6 Q82.6 141.0 76.4 136.0 Z M82.6 122.2 Q90.0 125.3 97.4 122.2 Q90.0 121.2 82.6 122.2 Z"
          fill="url(#pantBaseLegendary)" fill-rule="evenodd"/>
        <g id="waistbandDetail" opacity="0.95">
      <path d="M82.6 122.4 Q90.0 125.8 97.4 122.4" stroke="#C8D2DE" stroke-opacity="0.32" stroke-width="0.54"/>
      <path d="M83.6 123.0 Q90.0 125.3 96.4 123.0" stroke="#101A24" stroke-opacity="0.22" stroke-width="0.48"/>

      <rect x="82.0" y="121.6" width="1.0" height="3.9" rx="0.33" fill="#C7D0DB" opacity="0.60"/>
      <rect x="97.0" y="121.6" width="1.0" height="3.9" rx="0.33" fill="#C7D0DB" opacity="0.60"/>
      <rect x="88.2" y="122.5" width="3.6" height="2.2" rx="0.40" fill="none" stroke="#CFD8E2" stroke-width="0.44" opacity="0.82"/>
      <path d="M89.2 123.6 H90.8" stroke="#CFD8E2" stroke-width="0.40" opacity="0.72" stroke-linecap="round"/>
    </g>
    <path d="M76.4 133.8 Q73.8 151.0 75.9 197.0 L88.5 197.0 Q89.8 154.5 90.1 133.8 Q86.8 137.7 83.0 136.9 Q79.4 136.1 76.4 133.8 Z"
          fill="url(#pantBaseLegendary)"/>
    <path d="M89.9 133.8 Q90.2 154.5 91.5 197.0 L104.1 197.0 Q106.2 151.0 103.6 133.8 Q100.6 136.1 97.0 136.9 Q93.2 137.7 89.9 133.8 Z"
          fill="url(#pantBaseLegendary)"/>
    <path d="M90.0 123.2 L90.0 138.4 M90.0 129.0 Q88.2 130.9 87.2 133.4"
          stroke="#0F1822" stroke-width="0.52" opacity="0.48"/>

    <path d="M77.8 141.2 Q76.4 162.0 76.9 195.2 M102.2 141.2 Q103.6 162.0 103.1 195.2" stroke="#1A2430" stroke-width="0.58" fill="none" stroke-linecap="round"/>
    <path d="M84.4 140.6 L84.9 197.0 M95.6 140.6 L95.1 197.0" stroke="#101821" stroke-width="0.54" opacity="0.36"/>
    <path d="M78.2 143.0 L77.2 195.2 M101.8 143.0 L102.8 195.2" stroke="#4A5B6A" stroke-width="0.52" opacity="0.46"/>
    <path d="M77.2 195.0 L88.3 195.0 M91.7 195.0 L102.8 195.0" stroke="#6D7A87" stroke-width="0.64" opacity="0.66"/>

    <path d="M77.2 145.0 L85.4 145.0 M94.4 145.0 L102.8 145.0" stroke="url(#legendTrim)" stroke-width="0.86" filter="url(#legendGlow)"/>
    <path d="M77.6 176.3 L85.2 176.3 M94.6 176.3 L102.4 176.3" stroke="url(#legendTrim)" stroke-width="0.86" filter="url(#legendGlow)"/>

    <rect x="77.2" y="158.6" width="8.5" height="9.5" rx="1.5" fill="#2A2010" stroke="#FF9800" stroke-width="0.82"/>
    <rect x="94.9" y="158.6" width="8.5" height="9.5" rx="1.5" fill="#2A2010" stroke="#FF9800" stroke-width="0.82"/>
    <path d="M80.4 162.6 L81.5 160.8 L82.6 162.6 L84.4 162.8 L83.1 164.1 L83.4 166.0 L81.5 165.1 L79.6 166.0 L79.9 164.1 L78.6 162.8 Z"
          fill="#FFD166" stroke="#714A00" stroke-width="0.45"/>
    <circle cx="99.8" cy="162.8" r="1.2" fill="#FFD166"/>
    <path d="M99.8 161.0 L99.8 164.6 M98.0 162.8 L101.6 162.8" stroke="#714A00" stroke-width="0.45" stroke-linecap="round"/>

    <path d="M77.0 170.8 L103.0 170.8" stroke="#FFC466" stroke-width="0.78" stroke-dasharray="1.3 1.0" opacity="0">
      <animate attributeName="opacity" values="0;0.95;0" dur="1.6s" repeatCount="indefinite"/>
      <animate attributeName="stroke-dashoffset" values="0;7" dur="1.6s" repeatCount="indefinite"/>
    </path>
  </g>
  </g>
</svg>
