<?xml version="1.0" encoding="UTF-8"?>
<svg xmlns="http://www.w3.org/2000/svg" viewBox="0 0 180 220" width="180" height="220">
  <defs>
    <linearGradient id="pantBaseLegendary" x1="0" y1="0" x2="0" y2="1">
      <stop offset="0%" stop-color="#25303F"/>
      <stop offset="100%" stop-color="#181F2A"/>
    </linearGradient>
    <linearGradient id="legendTrim" x1="0" y1="0" x2="1" y2="0">
      <stop offset="0%" stop-color="#FFD58A"/>
      <stop offset="100%" stop-color="#FF9800"/>
    </linearGradient>
    <filter id="legendGlow" x="-35%" y="-35%" width="170%" height="170%">
      <feGaussianBlur stdDeviation="0.85" result="g"/>
      <feMerge>
        <feMergeNode in="g"/>
        <feMergeNode in="SourceGraphic"/>
      </feMerge>
    </filter>
  </defs>

  <!-- Underdog trousers: legendary -->
  <g id="cloak_legendary_trousers">
    <path d="M73.8 137.8 Q70.0 165.0 71.0 197.0 L87.8 197.0 Q89.0 164.2 89.5 138.0 Z"
          fill="url(#pantBaseLegendary)" stroke="#0F151D" stroke-width="0.94"/>
    <path d="M89.5 138.0 Q91.0 164.0 92.2 197.0 L109.2 197.0 Q110.5 166.0 106.5 138.0 Z"
          fill="url(#pantBaseLegendary)" stroke="#0F151D" stroke-width="0.94"/>

    <path d="M74.6 142.0 L72.2 195.2 M105.8 142.0 L108.2 195.2" stroke="#364455" stroke-width="0.62" opacity="0.72"/>
    <path d="M80.9 138.6 L82.0 197.0 M98.1 138.6 L97.0 197.0" stroke="#0B1119" stroke-width="0.68" opacity="0.56"/>
    <path d="M72.0 195.0 L87.6 195.0 M92.4 195.0 L109.0 195.0" stroke="#536273" stroke-width="0.78" opacity="0.8"/>

    <path d="M74.8 145.0 L84.1 145.0 M95.9 145.0 L105.2 145.0" stroke="url(#legendTrim)" stroke-width="0.86" filter="url(#legendGlow)"/>
    <path d="M75.2 176.3 L84.0 176.3 M96.0 176.3 L104.8 176.3" stroke="url(#legendTrim)" stroke-width="0.86" filter="url(#legendGlow)"/>

    <rect x="74.8" y="158.6" width="8.5" height="9.5" rx="1.5" fill="#2A2010" stroke="#FF9800" stroke-width="0.82"/>
    <rect x="96.7" y="158.6" width="8.5" height="9.5" rx="1.5" fill="#2A2010" stroke="#FF9800" stroke-width="0.82"/>
    <path d="M78.0 162.6 L79.1 160.8 L80.2 162.6 L82.0 162.8 L80.7 164.1 L81.0 166.0 L79.1 165.1 L77.2 166.0 L77.5 164.1 L76.2 162.8 Z"
          fill="#FFD166" stroke="#714A00" stroke-width="0.45"/>
    <circle cx="99.8" cy="162.8" r="1.2" fill="#FFD166"/>
    <path d="M99.8 161.0 L99.8 164.6 M98.0 162.8 L101.6 162.8" stroke="#714A00" stroke-width="0.45" stroke-linecap="round"/>

    <path d="M75.0 170.8 L105.0 170.8" stroke="#FFC466" stroke-width="0.78" stroke-dasharray="1.3 1.0" opacity="0">
      <animate attributeName="opacity" values="0;0.95;0" dur="1.6s" repeatCount="indefinite"/>
      <animate attributeName="stroke-dashoffset" values="0;7" dur="1.6s" repeatCount="indefinite"/>
    </path>
  </g>
</svg>
