<?xml version="1.0" encoding="UTF-8"?>
<svg xmlns="http://www.w3.org/2000/svg" viewBox="0 0 180 220" width="180" height="220">
  <defs>
    <linearGradient id="pantBaseUncommon" x1="90" y1="119" x2="90" y2="197" gradientUnits="userSpaceOnUse">
      <stop offset="0%" stop-color="#2B3A48"/>
      <stop offset="100%" stop-color="#1D2731"/>
    </linearGradient>
  </defs>

  <!-- Underdog trousers: uncommon -->
  <g id="cloak_uncommon_trousers">
    <path d="M76.0 120.6 Q90.0 126.0 104.0 120.6 L103.6 136.0 Q97.4 141.0 90.0 141.6 Q82.6 141.0 76.4 136.0 Z M82.6 122.2 Q90.0 125.3 97.4 122.2 Q90.0 121.2 82.6 122.2 Z"
          fill="url(#pantBaseUncommon)" fill-rule="evenodd"/>
        <g id="waistbandDetail" opacity="0.95">
      <path d="M82.6 122.4 Q90.0 125.8 97.4 122.4" stroke="#C8D2DE" stroke-opacity="0.32" stroke-width="0.54"/>
      <path d="M83.6 123.0 Q90.0 125.3 96.4 123.0" stroke="#101A24" stroke-opacity="0.22" stroke-width="0.48"/>

      <rect x="82.0" y="121.6" width="1.0" height="3.9" rx="0.33" fill="#C7D0DB" opacity="0.60"/>
      <rect x="97.0" y="121.6" width="1.0" height="3.9" rx="0.33" fill="#C7D0DB" opacity="0.60"/>
      <rect x="88.2" y="122.5" width="3.6" height="2.2" rx="0.40" fill="none" stroke="#CFD8E2" stroke-width="0.44" opacity="0.82"/>
      <path d="M89.2 123.6 H90.8" stroke="#CFD8E2" stroke-width="0.40" opacity="0.72" stroke-linecap="round"/>
    </g>
    <path d="M76.4 133.8 Q73.8 151.0 75.9 197.0 L88.5 197.0 Q89.8 154.5 90.1 133.8 Q86.8 137.7 83.0 136.9 Q79.4 136.1 76.4 133.8 Z"
          fill="url(#pantBaseUncommon)"/>
    <path d="M89.9 133.8 Q90.2 154.5 91.5 197.0 L104.1 197.0 Q106.2 151.0 103.6 133.8 Q100.6 136.1 97.0 136.9 Q93.2 137.7 89.9 133.8 Z"
          fill="url(#pantBaseUncommon)"/>
    <path d="M90.0 123.2 L90.0 138.4 M90.0 129.0 Q88.2 130.9 87.2 133.4"
          stroke="#0F1822" stroke-width="0.52" opacity="0.48"/>

    <path d="M77.8 141.2 Q76.4 162.0 76.9 195.2 M102.2 141.2 Q103.6 162.0 103.1 195.2" stroke="#1A2430" stroke-width="0.58" fill="none" stroke-linecap="round"/>
    <path d="M84.4 140.6 L84.9 197.0 M95.6 140.6 L95.1 197.0" stroke="#101821" stroke-width="0.54" opacity="0.36"/>
    <path d="M78.2 143.0 L77.2 195.2 M101.8 143.0 L102.8 195.2" stroke="#4A5B6A" stroke-width="0.52" opacity="0.46"/>
    <path d="M77.2 195.0 L88.3 195.0 M91.7 195.0 L102.8 195.0" stroke="#6D7A87" stroke-width="0.64" opacity="0.66"/>

    <path d="M77.2 146.5 Q79.6 145.1 82.1 146.5" stroke="#4CAF50" stroke-width="0.8" stroke-linecap="round"/>
    <path d="M97.6 146.4 Q99.8 145.0 102.2 146.2" stroke="#4CAF50" stroke-width="0.8" stroke-linecap="round"/>

    <rect x="94.3" y="159.4" width="8.2" height="9.0" rx="1.3" fill="#24313C" stroke="#4CAF50" stroke-width="0.76"/>
    <path d="M95.5 161.5 L101.2 161.5 M95.5 163.7 L101.2 163.7 M95.5 165.9 L101.2 165.9" stroke="#9BE7A0" stroke-width="0.44" opacity="0.8"/>
  </g>
</svg>
