<?xml version="1.0" encoding="UTF-8"?>
<svg xmlns="http://www.w3.org/2000/svg" viewBox="0 0 180 220" width="180" height="220">
  <defs>
    <linearGradient id="pantBaseRare" x1="0" y1="0" x2="0" y2="1">
      <stop offset="0%" stop-color="#2A3746"/>
      <stop offset="100%" stop-color="#1C2530"/>
    </linearGradient>
    <radialGradient id="rarePatchGlow" cx="50%" cy="50%" r="50%">
      <stop offset="0%" stop-color="#9FD8FF" stop-opacity="0.55"/>
      <stop offset="100%" stop-color="#9FD8FF" stop-opacity="0"/>
    </radialGradient>
  </defs>

  <!-- Underdog trousers: rare -->
  <g id="cloak_rare_trousers">
    <path d="M73.8 137.8 Q70.0 165.0 71.0 197.0 L87.8 197.0 Q89.0 164.2 89.5 138.0 Z"
          fill="url(#pantBaseRare)" stroke="#111821" stroke-width="0.92"/>
    <path d="M89.5 138.0 Q91.0 164.0 92.2 197.0 L109.2 197.0 Q110.5 166.0 106.5 138.0 Z"
          fill="url(#pantBaseRare)" stroke="#111821" stroke-width="0.92"/>

    <path d="M74.5 142.0 L72.2 195.2 M105.8 142.0 L108.2 195.2" stroke="#3C4A58" stroke-width="0.62" opacity="0.72"/>
    <path d="M80.9 138.6 L82.0 197.0 M98.1 138.6 L97.0 197.0" stroke="#0D131A" stroke-width="0.68" opacity="0.56"/>
    <path d="M72.0 195.0 L87.6 195.0 M92.4 195.0 L109.0 195.0" stroke="#5A6B7A" stroke-width="0.78" opacity="0.8"/>

    <path d="M74.8 145.8 L79.8 143.9 L84.0 146.0 L79.0 148.0 Z" fill="none" stroke="#2196F3" stroke-width="0.78"/>
    <path d="M96.0 145.8 L101.0 143.9 L105.2 146.0 L100.2 148.0 Z" fill="none" stroke="#2196F3" stroke-width="0.78"/>

    <rect x="75.0" y="160.0" width="8.3" height="9.2" rx="1.4" fill="#233241" stroke="#2196F3" stroke-width="0.78"/>
    <circle cx="79.1" cy="164.6" r="1.5" fill="url(#rarePatchGlow)"/>
    <path d="M78.0 164.6 L80.2 164.6 M79.1 163.5 L79.1 165.7" stroke="#D6EEFF" stroke-width="0.45" stroke-linecap="round"/>
  </g>
</svg>
