<?xml version="1.0" encoding="UTF-8"?>
<svg xmlns="http://www.w3.org/2000/svg" viewBox="0 0 180 220" width="180" height="220">
  <defs>
    <linearGradient id="pantBaseCommon" x1="0" y1="0" x2="0" y2="1">
      <stop offset="0%" stop-color="#2E3D4D"/>
      <stop offset="100%" stop-color="#1F2A36"/>
    </linearGradient>
    <pattern id="stitchCommon" width="4" height="4" patternUnits="userSpaceOnUse">
      <path d="M0 2 L4 2 M2 0 L2 4" stroke="#FFFFFF" stroke-opacity="0.07" stroke-width="0.45"/>
    </pattern>
  </defs>

  <!-- Underdog trousers: common -->
  <g id="cloak_common_trousers">
    <path d="M73.8 137.8 Q70.0 165.0 71.0 197.0 L87.8 197.0 Q89.0 164.2 89.5 138.0 Z"
          fill="url(#pantBaseCommon)" stroke="#151D27" stroke-width="0.88"/>
    <path d="M89.5 138.0 Q91.0 164.0 92.2 197.0 L109.2 197.0 Q110.5 166.0 106.5 138.0 Z"
          fill="url(#pantBaseCommon)" stroke="#151D27" stroke-width="0.88"/>

    <path d="M74.6 141.8 L72.3 195.0 M105.8 141.8 L108.2 195.0" stroke="#415264" stroke-width="0.62" opacity="0.72"/>
    <path d="M81.0 138.6 L82.0 197.0 M98.0 138.6 L97.0 197.0" stroke="#0F151E" stroke-width="0.68" opacity="0.55"/>
    <path d="M72.0 195.0 L87.6 195.0 M92.4 195.0 L109.0 195.0" stroke="#6D7A87" stroke-width="0.78" opacity="0.8"/>

    <!-- Patch and rarity accent -->
    <rect x="75.1" y="159.0" width="7.4" height="8.2" rx="1.2" fill="#2B3642" stroke="#9E9E9E" stroke-width="0.72"/>
    <path d="M76.1 160.2 L81.5 166.2 M81.5 160.2 L76.1 166.2" stroke="#9E9E9E" stroke-width="0.52" opacity="0.82"/>
    <path d="M95.0 170.0 Q97.0 169.0 99.0 170.0" stroke="#9E9E9E" stroke-width="0.72" stroke-linecap="round" opacity="0.9"/>
  </g>
</svg>
