<?xml version="1.0" encoding="UTF-8"?>
<svg xmlns="http://www.w3.org/2000/svg" viewBox="0 0 180 220" width="180" height="220">
  <defs>
    <linearGradient id="s_wood_uncommon" x1="0" y1="0" x2="1" y2="0">
      <stop offset="0%" stop-color="#8d6e63"/>
      <stop offset="20%" stop-color="#a1887f"/>
      <stop offset="40%" stop-color="#8d6e63"/>
      <stop offset="60%" stop-color="#6d4c41"/>
      <stop offset="80%" stop-color="#8d6e63"/>
      <stop offset="100%" stop-color="#a1887f"/>
    </linearGradient>
  </defs>
  <!-- Zoo Worker shield (uncommon): Pallet Sign -->
  <g id="shield_uncommon" transform="translate(95 132) scale(0.80) translate(-90 -126)">
    <!-- Shadow -->
    <ellipse cx="55" cy="155" rx="22" ry="3.5" fill="#000000" opacity="0.2"/>
    
    <!-- Wooden Planks -->
    <rect x="35" y="100" width="40" height="55" rx="2" fill="#5d4037"/> <!-- Backing -->
    
    <!-- Individual Planks -->
    <rect x="36" y="102" width="38" height="10" fill="url(#s_wood_uncommon)" stroke="#4e342e" stroke-width="0.5"/>
    <rect x="36" y="113" width="38" height="10" fill="url(#s_wood_uncommon)" stroke="#4e342e" stroke-width="0.5"/>
    <rect x="36" y="124" width="38" height="10" fill="url(#s_wood_uncommon)" stroke="#4e342e" stroke-width="0.5"/>
    <rect x="36" y="135" width="38" height="10" fill="url(#s_wood_uncommon)" stroke="#4e342e" stroke-width="0.5"/>
    <rect x="36" y="146" width="38" height="8" fill="url(#s_wood_uncommon)" stroke="#4e342e" stroke-width="0.5"/>
    
    <!-- Cross Bracing (diagonal screws) -->
    <circle cx="38" cy="106" r="1" fill="#3e2723"/> <circle cx="72" cy="106" r="1" fill="#3e2723"/>
    <circle cx="38" cy="150" r="1" fill="#3e2723"/> <circle cx="72" cy="150" r="1" fill="#3e2723"/>
    
    <!-- Faded "ZOO" Paint -->
    <path d="M45 115 L55 115 L45 125 L55 125" fill="none" stroke="#e57373" stroke-width="2.5" opacity="0.7" stroke-linecap="round" stroke-linejoin="round"/>
    <circle cx="65" cy="120" r="4" fill="none" stroke="#e57373" stroke-width="2.5" opacity="0.7"/>
  </g>
</svg>
