<?xml version="1.0" encoding="UTF-8"?>
<svg xmlns="http://www.w3.org/2000/svg" viewBox="0 0 180 220" width="180" height="220">
  <defs>
    <linearGradient id="s_frame_celestial" x1="0" y1="0" x2="0" y2="1">
      <stop offset="0%" stop-color="#8e9a94"/>
      <stop offset="100%" stop-color="#5d6863"/>
    </linearGradient>
    <linearGradient id="s_panel_celestial" x1="0" y1="0" x2="0" y2="1">
      <stop offset="0%" stop-color="#d5ddd8"/>
      <stop offset="100%" stop-color="#aeb9b3"/>
    </linearGradient>
  </defs>
  <!-- Zoo Worker shield (celestial): Dragonproof Screen -->
  <g id="shield_celestial" transform="translate(95 132) scale(0.85) translate(-90 -126)">
    <ellipse cx="54.5" cy="153.0" rx="18.4" ry="2.8" fill="#000000" opacity="0.16"/>
    <path d="M41.2 100.8 L67.8 100.8 L74.0 108.8 L74.0 145.2 L67.6 152.0 L41.4 152.0 L35.0 145.2 L35.0 108.8 Z"
          fill="url(#s_frame_celestial)" stroke="#4d5652" stroke-width="0.9"/>
    <rect x="38.8" y="105.4" width="31.2" height="40.8" rx="2.2" fill="url(#s_panel_celestial)" stroke="#7f8b85" stroke-width="0.55"/>
    <path d="M46.0 109.8 L46.0 144.2 M54.0 109.8 L54.0 144.2 M62.0 109.8 L62.0 144.2" stroke="#7b857f" stroke-width="0.8" stroke-linecap="round"/><path d="M40.8 118.8 L68.0 118.8 M40.8 136.8 L68.0 136.8" stroke="#bfc9c3" stroke-width="0.7" stroke-linecap="round"/><rect x="45.0" y="112.8" width="18.0" height="16.0" rx="2.0" fill="#2c4850" opacity="0.35" stroke="#00E5FF" stroke-width="0.62"/><path d="M45.2 121.0 L62.8 121.0 M54.0 112.8 L54.0 128.8" stroke="#00E5FF" stroke-width="0.85"/><path d="M42.4 114.4 C46.4 110.8 50.8 110.8 54.0 114.4 C57.2 110.8 61.6 110.8 65.6 114.4" fill="none" stroke="#00E5FF" stroke-width="0.86"/><ellipse cx="54.0" cy="121.2" rx="10.8" ry="2.2" fill="none" stroke="#00E5FF" stroke-width="0.74" stroke-dasharray="1.2 1.8" opacity="0.86">
      <animate attributeName="stroke-dashoffset" values="0;8" dur="1.5s" repeatCount="indefinite"/>
    </ellipse>
    <rect x="66.3" y="118.8" width="3.8" height="17.0" rx="1.3" fill="#4a514d"/>
    <circle cx="42.6" cy="108.7" r="1.1" fill="#00E5FF" opacity="0.9"/>
    <circle cx="66.2" cy="108.7" r="1.1" fill="#00E5FF" opacity="0.9"/>
  </g>
</svg>
