<svg xmlns="http://www.w3.org/2000/svg" viewBox="0 0 180 220" width="180" height="220">

  <g id="cloak_celestial" opacity="0.9">
    <path d="M63 74 L117 74 L124 92 L117 191 L63 191 L56 92 Z" fill="#1a2941" opacity="0.52"/>
    <path d="M68 82 L112 82 L116 97 L112 186 L68 186 L64 97 Z" fill="#2d4267" opacity="0.45"/>
    <path d="M68 150 L60 192 L73 191 Z" fill="#1b2b44" opacity="0.72"/><path d="M109 150 L121 189 L106 190 Z" fill="#1b2b44" opacity="0.72"/>
    <path d="M72 95 L66 183 M108 95 L114 183" stroke="#9bb6dd" stroke-width="0.82" opacity="0.45"/><path d="M68 84 Q90 96 112 84" stroke="#00E5FF" stroke-width="1.05" fill="none" opacity="0.82"/><circle cx="76" cy="118" r="1.1" fill="#00E5FF" opacity="0.72"/><circle cx="104" cy="125" r="1" fill="#00E5FF" opacity="0.72"/><circle cx="95" cy="145" r="1.1" fill="#00E5FF" opacity="0.68"/><circle cx="84" cy="138" r="0.9" fill="#00E5FF" opacity="0.68"/><path d="M67 110 Q90 95 113 110" stroke="#00E5FF" stroke-width="1.4" fill="none" opacity="0.8"/><path d="M66 152 Q90 136 114 152" stroke="#00E5FF" stroke-width="1.15" fill="none" opacity="0.62"/><ellipse cx="90" cy="135" rx="33" ry="18" fill="none" stroke="#00E5FF" stroke-width="1.05" opacity="0.5"/>
  </g>

</svg>
