<?xml version="1.0" encoding="UTF-8"?>
<svg xmlns="http://www.w3.org/2000/svg" viewBox="0 0 180 220" width="180" height="220">
  <defs>
    <linearGradient id="a_frame_rare" x1="0" y1="0" x2="0" y2="1">
      <stop offset="0%" stop-color="#c69a5c"/>
      <stop offset="100%" stop-color="#8e6838"/>
    </linearGradient>
    <linearGradient id="a_panel_rare" x1="0" y1="0" x2="0" y2="1">
      <stop offset="0%" stop-color="#f1e7d3"/>
      <stop offset="100%" stop-color="#d8c6a5"/>
    </linearGradient>
  </defs>
  <!-- Zoo Worker amulet (rare): Sanctuary Charm -->
  <g id="amulet_rare" transform="translate(90 88) scale(0.96) translate(-90 -110)">
    <path d="M86.8 98.0 L90.0 102.2 L93.2 98.0" fill="none" stroke="#6e5031" stroke-width="0.85" stroke-linecap="round"/>
    <rect x="88.6" y="101.6" width="2.8" height="2.3" rx="0.45" fill="#886340" stroke="#5f432b" stroke-width="0.45"/>
    <rect x="83.6" y="103.6" width="12.8" height="14.9" rx="1.8" fill="url(#a_frame_rare)" stroke="#6e5031" stroke-width="0.86"/>
    <rect x="84.5" y="104.7" width="11.0" height="12.9" rx="1.35" fill="url(#a_panel_rare)" stroke="#b99966" stroke-width="0.4"/>
    <rect x="85.3" y="107.8" width="9.2" height="1.0" rx="0.35" fill="#a78758" opacity="0.78"/>
    <rect x="85.3" y="109.6" width="7.0" height="0.95" rx="0.35" fill="#a78758" opacity="0.7"/>
    <path d="M89.2 112.2 C90.0 110.6 92.1 111.3 92.0 113.2 C91.9 114.6 90.2 115.3 89.1 114.0 C87.9 112.5 88.4 110.8 90.0 110.5" fill="none" stroke="#2196F3" stroke-width="0.75" stroke-linecap="round"/>
  </g>
</svg>
