<svg xmlns="http://www.w3.org/2000/svg" viewBox="0 0 180 220" width="180" height="220">

  <g id="helmet_legendary">
    <path d="M66 40 L114 40 L109 48 L71 48 Z" fill="#1f2f49" stroke="#132138" stroke-width="1.1"/>
    <rect x="75" y="48" width="30" height="3.8" rx="1.7" fill="#314565" stroke="#1a2b45" stroke-width="0.8"/>
    <path d="M79 41 L101 41 L101 47 L79 47 Z" fill="#3f577d" stroke="#1f304a" stroke-width="0.8"/>
    <path d="M79 42 L101 42" stroke="#FF9800" stroke-width="1" opacity="0.72"/>
    <circle cx="90" cy="45.1" r="1.5" fill="#FF9800" opacity="0.9"/>
    <path d="M101 39 L109 47 Q110 50 108 52" stroke="#FF9800" stroke-width="1.1" fill="none"/><circle cx="108" cy="52" r="1.6" fill="#FF9800"/>
    <circle cx="84" cy="48" r="2.5" fill="none" stroke="#FF9800" stroke-width="0.9"/><circle cx="96" cy="48" r="2.5" fill="none" stroke="#FF9800" stroke-width="0.9"/>
    <path d="M90 37.2 L92.2 40.8 L90 44.4 L87.8 40.8 Z" fill="#FF9800" opacity="0.95"/>
    <path d="M72 32 L79 28 L86 32 L93 28 L100 32 L107 28 L114 32 L114 36 L72 36 Z" fill="#273a59" stroke="#FF9800" stroke-width="0.9"/><path d="M74 33.4 L112 33.4" stroke="#FF9800" stroke-width="0.9" opacity="0.85"/>
    
  </g>

</svg>
