<svg xmlns="http://www.w3.org/2000/svg" viewBox="0 0 180 220" width="180" height="220">
  <defs>
    <linearGradient id="sHelm4Cloth" x1="0" y1="0" x2="0" y2="1">
      <stop offset="0%" stop-color="#cfa75f"/>
      <stop offset="45%" stop-color="#5f4f35"/>
      <stop offset="100%" stop-color="#443821"/>
    </linearGradient>
    <linearGradient id="sHelm4Deep" x1="0" y1="0" x2="0" y2="1">
      <stop offset="0%" stop-color="#5f4f35"/>
      <stop offset="100%" stop-color="#2f2715"/>
    </linearGradient>
    <radialGradient id="sHelm4Aura" cx="0.5" cy="0.5" r="0.5">
      <stop offset="0%" stop-color="#FF9800" stop-opacity="0.5"/>
      <stop offset="70%" stop-color="#FF9800" stop-opacity="0.16"/>
      <stop offset="100%" stop-color="#FF9800" stop-opacity="0.0"/>
    </radialGradient>
  </defs>

  <g id="helmet_legendary">
    <path d="M66 40 L114 40 L109 48 L71 48 Z" fill="url(#sHelm4Deep)" stroke="#2f2715" stroke-width="1.05"/>
    <rect x="75" y="48" width="30" height="3.8" rx="1.7" fill="url(#sHelm4Cloth)" stroke="#2f2715" stroke-width="0.8"/>
    <path d="M62 33 L90 26.5 L118 33 L90 39.5 Z" fill="url(#sHelm4Cloth)" stroke="#2f2715" stroke-width="1.1"/>
    <path d="M66 33.6 L90 28.4 L114 33.6 L90 38.6 Z" fill="url(#sHelm4Deep)" opacity="0.65"/>
    <path d="M62 33 L90 39.5 L90 42.2 L62 35.4 Z" fill="#443821" stroke="#2f2715" stroke-width="0.7"/>
    <path d="M118 33 L90 39.5 L90 42.2 L118 35.4 Z" fill="#2f2715" stroke="#2f2715" stroke-width="0.7"/>
    <circle cx="90" cy="31" r="1.5" fill="#ffc066"/>
    <path d="M68 33.4 Q79 30.6 88 30" stroke="#cfa75f" stroke-width="0.7" fill="none" opacity="0.6"/>
    <g><animateTransform attributeName="transform" type="rotate" values="-4 90 31;5 90 31;-4 90 31" dur="3.6s" repeatCount="indefinite"/><path d="M90 31 Q101 32.5 106.5 41 Q108 45 107 49" stroke="#ffc066" stroke-width="1.1" fill="none"/><path d="M105.6 48.6 L108.4 48.6 L108.7 54 L105.3 54 Z" fill="#ffc066"/><circle cx="107" cy="48.4" r="1.3" fill="#ffcc80"/></g><path d="M78.0 44.4 L78.0 46.6 M78.0 45.5 L79.8 44.4 M82.1 44.4 L83.9 46.6 M83.9 44.4 L82.1 46.6 M86.2 46.6 L86.2 44.4 L88.0 44.4 M90.3 44.4 L92.1 44.4 L90.3 46.6 L92.1 46.6 M94.4 44.4 L94.4 46.6 M94.4 45.5 L96.2 44.4 M98.5 44.4 L100.3 46.6 M100.3 44.4 L98.5 46.6" stroke="#FF9800" stroke-width="0.55" fill="none" opacity="0.85" stroke-linecap="round"/><path d="M64 31.5 L116 31.5" stroke="#ffcc80" stroke-width="0.6" stroke-linecap="round" opacity="0.425"><animate attributeName="opacity" values="0.425;0.65;0.2;0.425" dur="3.8s" repeatCount="indefinite"/></path><path d="M76 24.5 L78 27.5 L76 30.5 L74 27.5 Z" fill="#FF9800" opacity="0.85"><animateTransform attributeName="transform" type="translate" values="0 0;0 -2.4;0 0" dur="3.1s" repeatCount="indefinite"/></path><path d="M103 23.5 L105 26.5 L103 29.5 L101 26.5 Z" fill="#FF9800" opacity="0.75"><animateTransform attributeName="transform" type="translate" values="0 0;0 -3;0 0" dur="3.9s" repeatCount="indefinite"/></path><path d="M68 36.5 Q76 33.5 84 35.5 M112 36.5 Q104 33.5 96 35.5" stroke="#ffc066" stroke-width="1.1" fill="none" opacity="0.95"/><circle cx="73" cy="35.2" r="1.0" fill="#ffc066"/><circle cx="80" cy="34.4" r="0.85" fill="#ffc066"/><circle cx="107" cy="35.2" r="1.0" fill="#ffc066"/><circle cx="100" cy="34.4" r="0.85" fill="#ffc066"/><circle cx="86" cy="28" r="0.7" fill="#ffcc80" opacity="0.75"><animateTransform attributeName="transform" type="translate" values="0 0;0 -6" dur="2.8s" begin="0s" repeatCount="indefinite"/><animate attributeName="opacity" values="0.75;0.9;0" dur="2.8s" begin="0s" repeatCount="indefinite"/></circle>
  </g>

</svg>
