<?xml version="1.0" encoding="UTF-8"?>
<svg xmlns="http://www.w3.org/2000/svg" viewBox="0 0 180 220" width="180" height="220">
  <defs>
    <linearGradient id="r_barrel" x1="0" y1="0" x2="0" y2="1">
      <stop offset="0%" stop-color="#b8c6cd"/>
      <stop offset="100%" stop-color="#7e8d95"/>
    </linearGradient>
    <linearGradient id="r_grip" x1="0" y1="0" x2="0" y2="1">
      <stop offset="0%" stop-color="#75634f"/>
      <stop offset="100%" stop-color="#4a3a2d"/>
    </linearGradient>
  </defs>

  <!-- Zoo Worker weapon (rare): Calming Baton -->
  <g id="weapon_rare" transform="translate(90 122) scale(1.0) translate(-90 -122)">
    <g transform="rotate(18 108 138)">
      <rect x="106.2" y="104.2" width="4.2" height="32.2" rx="2.0" fill="url(#r_barrel)" stroke="#66757d" stroke-width="0.68"/>
      <rect x="105.4" y="127.8" width="5.8" height="11.0" rx="1.7" fill="url(#r_grip)" stroke="#3f3024" stroke-width="0.6"/>
      <rect x="106.0" y="132.2" width="4.6" height="1.3" rx="0.5" fill="#2196F3"/>

      <rect x="105.5" y="109.6" width="5.6" height="14.0" rx="2.2" fill="#9ab8cc" opacity="0.45"/>
      <circle cx="108.3" cy="116.8" r="2.2" fill="#d8ecfb" stroke="#2196F3" stroke-width="0.72"/>
      <path d="M107.6 116.9 C108.1 116.0 109.2 116.4 109.1 117.4 C109.0 118.1 108.1 118.5 107.5 117.8 C106.8 117.0 107.1 116.1 108.0 115.9" fill="none" stroke="#2196F3" stroke-width="0.56" stroke-linecap="round"/>
    </g>
  </g>
</svg>
