<?xml version="1.0" encoding="UTF-8"?>
<svg xmlns="http://www.w3.org/2000/svg" viewBox="0 0 64 64" width="64" height="64">
  <!-- Battle Dragon Crimson - Full-grown adult dragon, massive and magnificent -->
  <defs>
    <linearGradient id="crimsonBody" x1="0%" y1="0%" x2="100%" y2="100%">
      <stop offset="0%" style="stop-color:#B71C1C"/>
      <stop offset="100%" style="stop-color:#7F0000"/>
    </linearGradient>
    <linearGradient id="crimsonBelly" x1="0%" y1="0%" x2="0%" y2="100%">
      <stop offset="0%" style="stop-color:#FF8A80"/>
      <stop offset="100%" style="stop-color:#FF5252"/>
    </linearGradient>
    <linearGradient id="crimsonWing" x1="0%" y1="0%" x2="100%" y2="100%">
      <stop offset="0%" style="stop-color:#D32F2F"/>
      <stop offset="100%" style="stop-color:#B71C1C"/>
    </linearGradient>
    <radialGradient id="dragonGlow" cx="50%" cy="50%" r="50%">
      <stop offset="0%" style="stop-color:#FF5722" stop-opacity="0.6"/>
      <stop offset="100%" style="stop-color:#FF5722" stop-opacity="0"/>
    </radialGradient>
    <linearGradient id="goldAccent" x1="0%" y1="0%" x2="100%" y2="100%">
      <stop offset="0%" style="stop-color:#FFD54F"/>
      <stop offset="100%" style="stop-color:#FF8F00"/>
    </linearGradient>
  </defs>
  
  <!-- Massive wing (spread majestically) -->
  <path d="M6 8 
           Q2 16, 4 24 
           Q2 32, 6 40
           Q10 36, 14 32
           Q12 24, 16 20
           Q14 14, 18 10
           Q12 8, 6 8 Z" 
        fill="url(#crimsonWing)" stroke="#7F0000" stroke-width="0.5"/>
  
  <!-- Wing membrane details -->
  <path d="M6 16 L14 20" stroke="#B71C1C" stroke-width="1"/>
  <path d="M6 24 L14 26" stroke="#B71C1C" stroke-width="1"/>
  <path d="M6 32 L14 32" stroke="#B71C1C" stroke-width="1"/>
  
  <!-- Tail (powerful, curling) -->
  <path d="M52 44 Q58 48, 60 44 Q62 38, 58 36 Q62 32, 58 28" 
        stroke="url(#crimsonBody)" stroke-width="6" fill="none" stroke-linecap="round"/>
  <!-- Tail spade -->
  <path d="M56 26 L54 22 L58 28 L62 22 L60 26" fill="#B71C1C"/>
  
  <!-- Back leg -->
  <ellipse cx="44" cy="48" rx="5" ry="7" fill="#7F0000"/>
  <path d="M40 52 L38 58 M44 52 L44 59 M48 52 L50 58" stroke="#7F0000" stroke-width="3" stroke-linecap="round"/>
  <!-- Claws -->
  <path d="M38 58 L36 61 M44 59 L44 62 M50 58 L52 61" stroke="#1A1A1A" stroke-width="2" stroke-linecap="round"/>
  
  <!-- Body (massive, muscular) -->
  <ellipse cx="34" cy="40" rx="16" ry="12" fill="url(#crimsonBody)"/>
  
  <!-- Belly plates -->
  <ellipse cx="34" cy="44" rx="10" ry="8" fill="url(#crimsonBelly)"/>
  <path d="M26 42 L28 46 L26 50 M32 40 L34 46 L32 52 M40 42 L38 46 L40 50" 
        stroke="#FF8A80" stroke-width="0.5" fill="none"/>
  
  <!-- Front leg -->
  <ellipse cx="24" cy="48" rx="5" ry="7" fill="url(#crimsonBody)"/>
  <path d="M20 52 L18 58 M24 52 L24 59 M28 52 L30 58" stroke="#7F0000" stroke-width="3" stroke-linecap="round"/>
  <path d="M18 58 L16 61 M24 59 L24 62 M30 58 L32 61" stroke="#1A1A1A" stroke-width="2" stroke-linecap="round"/>
  
  <!-- Neck (powerful, long) -->
  <path d="M20 36 Q14 28, 18 20 Q20 14, 24 16" fill="url(#crimsonBody)"/>
  
  <!-- Neck spines -->
  <path d="M16 18 L12 14 L18 20 M18 24 L14 22 L20 26 M20 30 L16 30 L22 32" fill="#D32F2F"/>
  
  <!-- Head (noble, fierce) -->
  <ellipse cx="20" cy="16" rx="9" ry="8" fill="url(#crimsonBody)"/>
  
  <!-- Horns (magnificent, crown-like) -->
  <path d="M12 12 L6 4 L10 10" fill="#7F0000"/>
  <path d="M16 10 L12 2 L18 8" fill="#7F0000"/>
  <path d="M22 8 L24 0 L24 8" fill="#7F0000"/>
  <path d="M26 10 L30 4 L26 10" fill="#7F0000"/>
  
  <!-- Golden accents on horns -->
  <path d="M6 4 L8 6" stroke="url(#goldAccent)" stroke-width="1"/>
  <path d="M12 2 L14 5" stroke="url(#goldAccent)" stroke-width="1"/>
  <path d="M24 0 L24 4" stroke="url(#goldAccent)" stroke-width="1"/>
  
  <!-- Eyes (ancient wisdom, fierce loyalty) -->
  <ellipse cx="16" cy="14" rx="3" ry="2.5" fill="#FFF8E1"/>
  <ellipse cx="16" cy="14" rx="2" ry="2" fill="#FF6F00"/>
  <ellipse cx="16" cy="14" rx="1" ry="1.5" fill="#1A1A1A"/>
  <circle cx="16.5" cy="13.5" r="0.5" fill="white"/>
  
  <!-- Fierce but noble brow ridge -->
  <path d="M12 11 L18 12" stroke="#7F0000" stroke-width="2" stroke-linecap="round"/>
  
  <!-- Snout -->
  <ellipse cx="12" cy="18" rx="5" ry="4" fill="#B71C1C"/>
  <circle cx="9" cy="16" r="1" fill="#7F0000"/>
  <circle cx="9" cy="19" r="1" fill="#7F0000"/>
  
  <!-- Slight fire glow from nostrils -->
  <circle cx="8" cy="17" r="2" fill="url(#dragonGlow)"/>
  
  <!-- Teeth hint -->
  <path d="M10 20 L8 22 L12 20 L10 22 L14 20" fill="#FAFAFA"/>
  
  <!-- Back spines -->
  <path d="M26 28 L24 22 L28 28 M32 28 L32 24 L34 28 M38 30 L40 26 L40 30" fill="#D32F2F"/>
  
  <!-- Right wing (folded behind) -->
  <path d="M46 24 Q54 20, 56 28 Q54 34, 48 32 Q46 28, 46 24" fill="url(#crimsonWing)" opacity="0.7"/>
  
  <!-- Ground shadow -->
  <ellipse cx="34" cy="62" rx="20" ry="2" fill="#1A1A1A" opacity="0.4"/>
</svg>
