<svg xmlns="http://www.w3.org/2000/svg" viewBox="0 0 180 220" width="180" height="220">
  <defs>
    <linearGradient id="h_steel_sleek" x1="0" y1="0" x2="1" y2="1">
      <stop offset="0%" stop-color="#ECEFF1"/>
      <stop offset="100%" stop-color="#B0BEC5"/>
    </linearGradient>
    <radialGradient id="h_eye_blue" cx="0.5" cy="0.5" r="0.5">
      <stop offset="0%" stop-color="#40C4FF"/>
      <stop offset="100%" stop-color="#01579B"/>
    </radialGradient>
    <filter id="h_glow_blue">
      <feGaussianBlur stdDeviation="1.5" result="coloredBlur"/>
      <feMerge>
        <feMergeNode in="coloredBlur"/>
        <feMergeNode in="SourceGraphic"/>
      </feMerge>
    </filter>
  </defs>
  <g id="helmet_rare" transform="translate(15, 10)">
    <!-- Base Chassis: Sleek Alloy (Same shape + smooth) -->
    <rect x="55" y="45" width="70" height="80" rx="15" fill="url(#h_steel_sleek)" stroke="#78909C" stroke-width="2"/>
    
    <!-- High Gloss Highlight -->
    <path d="M60 50 Q75 48 90 50 T120 50" fill="none" stroke="#FFFFFF" stroke-width="2" opacity="0.4"/>
    
    <!-- Faceplate (Visor) -->
    <path d="M65 65 L115 65 L115 95 L100 105 L80 105 L65 95 Z" fill="#263238" stroke="#37474F"/>
    
    <!-- Advanced Ears (Sensor Arrays) -->
    <path d="M45 60 L55 60 L55 90 L45 85 Z" fill="#90A4AE" stroke="#607D8B"/>
    <path d="M135 60 L125 60 L125 90 L135 85 Z" fill="#90A4AE" stroke="#607D8B"/>
    
    <!-- Connectivity Status Light -->
    <circle cx="48" cy="65" r="1.5" fill="#00E676"/> <!-- GPS Linked -->
    <circle cx="48" cy="70" r="1.5" fill="#FF1744"/> <!-- No Signal -->
    
    <!-- WiFi Symbol (1 Bar - Funny) -->
    <path d="M130 75 L132 73" stroke="#455A64" stroke-width="1"/>
    <circle cx="130" cy="78" r="0.5" fill="#455A64"/>
    
    <!-- Cyclops Eye (Pulse Blue) -->
    <circle cx="90" cy="80" r="16" fill="none" stroke="#00B0FF" stroke-width="2"  filter="url(#h_glow_blue)">
        <animate attributeName="stroke-opacity" values="0.5;1;0.5" dur="1s" repeatCount="indefinite"/>
    </circle>
    <circle cx="90" cy="80" r="8" fill="url(#h_eye_blue)">
       <animate attributeName="r" values="8;9;8" dur="0.2s" repeatCount="indefinite"/> <!-- Rapid scanning -->
    </circle>
    
    <!-- Loading Circle Hologram -->
    <circle cx="90" cy="80" r="12" fill="none" stroke="#00B0FF" stroke-width="1" stroke-dasharray="10, 5" opacity="0.5">
          <animateTransform attributeName="transform" type="rotate" from="0 90 80" to="360 90 80" dur="2s" repeatCount="indefinite"/>
    </circle>
    
    <!-- Top Intake Vent -->
    <rect x="80" y="40" width="20" height="5" fill="#455A64"/>
    <line x1="85" y1="40" x2="85" y2="45" stroke="#78909C"/>
    <line x1="95" y1="40" x2="95" y2="45" stroke="#78909C"/>
    
    <!-- Decal text -->
    <text x="135" y="85" font-family="Arial" font-size="3" fill="#546E7A" transform="rotate(-90 135 85)">MK-II</text>
  </g>
</svg>
