<svg xmlns="http://www.w3.org/2000/svg" viewBox="0 0 180 220" width="180" height="220">

  <g id="chestplate_epic">
    <path d="M70 79 L110 79 Q115 86 115 97 L112 145 L68 145 L65 97 Q65 86 70 79 Z" fill="#4b596e" stroke="#253547" stroke-width="1.05"/>
    <path d="M76 84 L104 84 L105 143 L75 143 Z" fill="#384a62" opacity="0.92"/>
    <path d="M76 84 L83 94 L80 143 L74 143 Z" fill="#283649" opacity="0.75"/>
    <path d="M104 84 L97 94 L100 143 L106 143 Z" fill="#283649" opacity="0.75"/>
    <path d="M90 84 L90 143" stroke="#1f2b3d" stroke-width="1.02"/>
    <path d="M74 92 L106 92 M74 103 L106 103 M74 114 L106 114" stroke="#8b98aa" stroke-width="0.82" opacity="0.72"/><path d="M72 82 L80 76 L100 76 L108 82" stroke="#9C27B0" stroke-width="0.98" fill="none" opacity="0.82"/><path d="M90 95 L92.3 99.9 L97.5 100.2 L93.6 103.5 L94.8 108.7 L90 106 L85.2 108.7 L86.4 103.5 L82.5 100.2 L87.7 99.9 Z" fill="#9C27B0" opacity="0.9"/>
  </g>

</svg>
