<svg xmlns="http://www.w3.org/2000/svg" viewBox="0 0 180 220" width="180" height="220">

  <g id="chestplate_celestial">
    <path d="M70 79 L110 79 Q115 86 115 97 L112 145 L68 145 L65 97 Q65 86 70 79 Z" fill="#354d73" stroke="#182942" stroke-width="1.1"/>
    <path d="M76 84 L104 84 L105 143 L75 143 Z" fill="#4f6794" opacity="0.9"/>
    <path d="M76 84 L83 94 L80 143 L74 143 Z" fill="#314766" opacity="0.74"/>
    <path d="M104 84 L97 94 L100 143 L106 143 Z" fill="#314766" opacity="0.74"/>
    <path d="M90 84 L90 143" stroke="#243654" stroke-width="1"/>
    <path d="M74 92 L106 92 M74 103 L106 103 M74 114 L106 114" stroke="#7991bc" stroke-width="0.85" opacity="0.72"/><path d="M72 82 L80 76 L100 76 L108 82" stroke="#00E5FF" stroke-width="1" fill="none" opacity="0.82"/><path d="M90 94 L92.2 99 L97.5 99.4 L93.5 102.8 L94.8 108 L90 105.2 L85.2 108 L86.5 102.8 L82.5 99.4 L87.8 99 Z" fill="#00E5FF" opacity="0.9"/><path d="M68 86 Q90 70 112 86" stroke="#00E5FF" stroke-width="1.25" fill="none" opacity="0.84"/><path d="M70 130 Q90 141 110 130" stroke="#00E5FF" stroke-width="1.1" fill="none" opacity="0.7"/><ellipse cx="90" cy="103" rx="18" ry="7.2" fill="none" stroke="#00E5FF" stroke-width="0.95" opacity="0.54"/><ellipse cx="90" cy="103" rx="12.5" ry="5.2" fill="none" stroke="#bcf8ff" stroke-width="0.8" opacity="0.58"/>
  </g>

</svg>
