<svg xmlns="http://www.w3.org/2000/svg" viewBox="0 0 180 220" width="180" height="220">
  <defs>
    <linearGradient id="sWatch4Cloth" x1="0" y1="0" x2="0" y2="1">
      <stop offset="0%" stop-color="#cfa75f"/>
      <stop offset="45%" stop-color="#5f4f35"/>
      <stop offset="100%" stop-color="#443821"/>
    </linearGradient>
    <linearGradient id="sWatch4Deep" x1="0" y1="0" x2="0" y2="1">
      <stop offset="0%" stop-color="#5f4f35"/>
      <stop offset="100%" stop-color="#2f2715"/>
    </linearGradient>
    <radialGradient id="sWatch4Aura" cx="0.5" cy="0.5" r="0.5">
      <stop offset="0%" stop-color="#FF9800" stop-opacity="0.5"/>
      <stop offset="70%" stop-color="#FF9800" stop-opacity="0.16"/>
      <stop offset="100%" stop-color="#FF9800" stop-opacity="0.0"/>
    </radialGradient>
  </defs>

  <g id="amulet_legendary">
    <path d="M82 88 Q86 92.5 90 92.8 Q94 92.5 98 88" stroke="#ffc066" stroke-width="1.1" fill="none" opacity="0.95"/>
    <circle cx="82" cy="88" r="0.9" fill="#ffc066"/>
    <circle cx="98" cy="88" r="0.9" fill="#ffc066"/>
    <rect x="88.9" y="92.4" width="2.2" height="2.2" rx="0.6" fill="#ffc066"/>
    <circle cx="90" cy="101" r="6.2" fill="url(#sWatch4Cloth)" stroke="#2f2715" stroke-width="1"/>
    <circle cx="90" cy="101" r="4.6" fill="#e9e2ce" opacity="0.95"/>
    <path d="M90 97.4 L90 98.6 M93.6 101 L92.4 101 M90 104.6 L90 103.4 M86.4 101 L87.6 101"
          stroke="#2f2715" stroke-width="0.6" opacity="0.9"/>
    <path d="M90 101 L90 98.2 M90 101 L92 101" stroke="#2f2715" stroke-width="0.8" stroke-linecap="round"/>
    <circle cx="90" cy="101" r="0.7" fill="#2f2715"/>
    <circle cx="90" cy="101" r="7.6" fill="none" stroke="#ffc066" stroke-width="0.9" opacity="0.95"/><path d="M90 101 L90 96.4" stroke="#ffcc80" stroke-width="0.9" stroke-linecap="round"><animateTransform attributeName="transform" type="rotate" values="0 90 101;360 90 101" dur="12s" repeatCount="indefinite"/></path><path d="M90 101 L93.2 101" stroke="#ffcc80" stroke-width="0.7" stroke-linecap="round"><animateTransform attributeName="transform" type="rotate" values="0 90 101;360 90 101" dur="60s" repeatCount="indefinite"/></path><path d="M84.8 96 L83 94.2 M95.2 96 L97 94.2 M84.8 106 L83 107.8 M95.2 106 L97 107.8" stroke="#FF9800" stroke-width="0.7" opacity="0.85"/><circle cx="90" cy="101" r="3" fill="#FF9800" opacity="0.28"><animate attributeName="r" values="2.4;4.8;2.4" dur="2.5s" repeatCount="indefinite"/><animate attributeName="opacity" values="0.28;0.1;0.28" dur="2.5s" repeatCount="indefinite"/></circle><circle cx="86" cy="95.5" r="0.5" fill="#ffcc80" opacity="0.75"><animateTransform attributeName="transform" type="translate" values="0 0;0 -5" dur="2.7s" begin="0s" repeatCount="indefinite"/><animate attributeName="opacity" values="0.75;0.9;0" dur="2.7s" begin="0s" repeatCount="indefinite"/></circle>
  </g>

</svg>
