<svg xmlns="http://www.w3.org/2000/svg" viewBox="0 0 180 220" width="180" height="220">

  <g id="chestplate_epic">
    <path d="M70 79 L110 79 Q115 86 115 97 L112 145 L68 145 L65 97 Q65 86 70 79 Z" fill="#354d71" stroke="#182941" stroke-width="1.2"/>
    <path d="M76 84 L104 84 L105 143 L75 143 Z" fill="#4a638d" opacity="0.88"/>
    <path d="M76 84 L83 94 L80 143 L74 143 Z" fill="#2a3e5f" opacity="0.72"/>
    <path d="M104 84 L97 94 L100 143 L106 143 Z" fill="#2a3e5f" opacity="0.72"/>
    <path d="M90 84 L90 143" stroke="#223654" stroke-width="1.05" opacity="0.72"/>
    <path d="M75 136 Q90 141 105 136" stroke="#9C27B0" stroke-width="1.2" opacity="0.82" fill="none"/>
    <path d="M73 88 L107 88 L104.5 135 L75.5 135 Z" fill="#556d95" opacity="0.7"/><path d="M74 96 L106 96 M74 106 L106 106 M74 116 L106 116" stroke="#6e87b0" stroke-width="0.95" opacity="0.72"/><path d="M70 82 L79 76 L101 76 L110 82" stroke="#9C27B0" stroke-width="1" fill="none" opacity="0.85"/><rect x="84.2" y="94.5" width="11.6" height="17.6" rx="2.4" fill="#1a2b44" stroke="#9C27B0" stroke-width="1"/><path d="M87 103.2 L93 103.2" stroke="#9C27B0" stroke-width="0.95"/>
  </g>

</svg>
