<?xml version="1.0" encoding="UTF-8"?>
<svg xmlns="http://www.w3.org/2000/svg" viewBox="0 0 180 220" width="180" height="220">
  <defs>
    <linearGradient id="ud_skin" x1="0" y1="0" x2="1" y2="1">
      <stop offset="0%" stop-color="#F2C8B1"/>
      <stop offset="100%" stop-color="#D0A088"/>
    </linearGradient>
    <linearGradient id="ud_hair" x1="0" y1="0" x2="0" y2="1">
      <stop offset="0%" stop-color="#4B3A3F"/>
      <stop offset="100%" stop-color="#231B22"/>
    </linearGradient>
    <linearGradient id="ud_hair_shine" x1="0" y1="0" x2="1" y2="0">
      <stop offset="0%" stop-color="#8A6D77"/>
      <stop offset="100%" stop-color="#4B3A3F"/>
    </linearGradient>
    <linearGradient id="ud_jacket" x1="0" y1="0" x2="0.9" y2="1">
      <stop offset="0%" stop-color="#607590"/>
      <stop offset="50%" stop-color="#3B5068"/>
      <stop offset="100%" stop-color="#25364A"/>
    </linearGradient>
    <linearGradient id="ud_shirt" x1="0" y1="0" x2="0" y2="1">
      <stop offset="0%" stop-color="#A8BBCF"/>
      <stop offset="100%" stop-color="#7D95AD"/>
    </linearGradient>
    <linearGradient id="ud_tie" x1="0" y1="0" x2="0" y2="1">
      <stop offset="0%" stop-color="#3D5168"/>
      <stop offset="100%" stop-color="#213244"/>
    </linearGradient>
    <linearGradient id="ud_pants" x1="0" y1="0" x2="0" y2="1">
      <stop offset="0%" stop-color="#2A3E52"/>
      <stop offset="100%" stop-color="#1A2A39"/>
    </linearGradient>
    <linearGradient id="ud_shoe" x1="0" y1="0" x2="0" y2="1">
      <stop offset="0%" stop-color="#8A99A8"/>
      <stop offset="100%" stop-color="#4B5967"/>
    </linearGradient>
    <radialGradient id="ud_shadow" cx="50%" cy="50%" r="50%">
      <stop offset="0%" stop-color="#000000" stop-opacity="0.42"/>
      <stop offset="100%" stop-color="#000000" stop-opacity="0"/>
    </radialGradient>
  </defs>

  <ellipse cx="90" cy="208" rx="43" ry="6.8" fill="url(#ud_shadow)"/>

  <g id="hero_body" transform="translate(0 0)">
    <animateTransform attributeName="transform" type="translate" values="0 0;0 -1;0 0" dur="4.6s" repeatCount="indefinite"/>

    <!-- Legs: tuned to trouser overlay area (y 138..197) -->
    <path d="M74 149 Q70 170 71.4 197 L87.5 197 Q89.1 167 90.1 149 Z" fill="url(#ud_pants)"/>
    <path d="M90.1 149 Q91.1 167 92.7 197 L108.8 197 Q110.2 170 106.2 149 Z" fill="url(#ud_pants)"/>
    <path d="M76.1 163.2 Q80.4 164.4 84.8 163.1 M95.2 163.1 Q99.6 164.4 104.0 163.2" stroke="#1A2736" stroke-width="0.7" opacity="0.55"/>

    <!-- Shoes -->
    <path d="M69.0 195.1 L88.0 195.1 L86.1 206.0 L66.0 206.0 Z" fill="url(#ud_shoe)" stroke="#2C3A48" stroke-width="0.8"/>
    <path d="M92.1 195.1 L111.8 195.1 L114.0 206.0 L90.8 206.0 Z" fill="url(#ud_shoe)" stroke="#2C3A48" stroke-width="0.8"/>
    <path d="M70.9 199.2 L84.6 199.2 M70.4 201.6 L84.2 201.6" stroke="#D4DEE8" stroke-width="0.58" opacity="0.85"/>
    <path d="M94.0 199.2 L108.0 199.2 M94.5 201.6 L108.5 201.6" stroke="#D4DEE8" stroke-width="0.58" opacity="0.85"/>

    <!-- Torso: tuned to chest overlay area (x 68..112, y 92..147) -->
    <path d="M66 92 Q62 121 66 149 L114 149 Q118 121 114 92 Q90 82 66 92 Z" fill="url(#ud_jacket)"/>
    <path d="M74 95 Q72.6 116 74.6 139 L105.4 139 Q107.4 116 106 95 Q90 89 74 95 Z" fill="url(#ud_shirt)" opacity="0.93"/>
    <path d="M90 95.0 L90 149.0" stroke="#A6BACF" stroke-width="0.95" opacity="0.6"/>
    <path d="M82.0 97.0 Q90.0 92.7 98.0 97.0" stroke="#334A62" stroke-width="1.4" fill="none"/>
    <path d="M88.6 97.2 L91.4 97.2 L90.0 104.4 Z" fill="url(#ud_tie)"/>
    <path d="M90.0 104.4 L91.2 112.1 L90.0 114.0 L88.8 112.1 Z" fill="url(#ud_tie)" opacity="0.95"/>
    <path d="M90.0 114.0 L91.5 124.5 L90.0 128.5 L88.5 124.5 Z" fill="url(#ud_tie)" opacity="0.92"/>

    <!-- Arms: slim, lowered -->
    <path d="M66.2 101.0 Q62.3 103.7 61.4 108.2 L67.6 109.0 Q68.6 105.2 71.2 103.0 Z" fill="url(#ud_jacket)"/>
    <path d="M67.6 108.3 Q63.3 117.6 64.0 129.9 L69.7 130.7 Q70.8 117.7 73.3 109.9 Z" fill="url(#ud_jacket)"/>
    <path d="M64.1 129.5 Q64.0 140.2 65.2 149.4 L70.6 148.7 Q70.8 139.0 69.8 130.3 Z" fill="url(#ud_jacket)"/>
    <ellipse cx="68.0" cy="152.2" rx="2.7" ry="3.1" fill="url(#ud_skin)"/>
    <path d="M64.3 129.1 Q67.2 127.4 70.0 128.8" fill="none" stroke="#6D8298" stroke-width="0.7" opacity="0.72"/>

    <path d="M113.8 101.0 Q117.7 103.7 118.6 108.2 L112.4 109.0 Q111.4 105.2 108.8 103.0 Z" fill="url(#ud_jacket)"/>
    <path d="M112.4 108.3 Q116.7 117.6 116.0 129.9 L110.3 130.7 Q109.2 117.7 106.7 109.9 Z" fill="url(#ud_jacket)"/>
    <path d="M115.9 129.5 Q116.0 140.2 114.8 149.4 L109.4 148.7 Q109.2 139.0 110.2 130.3 Z" fill="url(#ud_jacket)"/>
    <ellipse cx="112.0" cy="152.2" rx="2.7" ry="3.1" fill="url(#ud_skin)"/>
    <path d="M115.7 129.1 Q112.8 127.4 110.0 128.8" fill="none" stroke="#6D8298" stroke-width="0.7" opacity="0.72"/>

    <!-- Neck and head -->
    <rect x="83.1" y="74.0" width="13.8" height="10.5" rx="2.2" fill="url(#ud_skin)"/>
    <path d="M79.5 53.8 L79.5 68.2 Q79.5 80.8 90.0 82.8 Q100.5 80.8 100.5 68.2 L100.5 53.8 Q90.0 45.4 79.5 53.8 Z" fill="url(#ud_skin)"/>
    <ellipse cx="79.3" cy="66.8" rx="1.7" ry="2.4" fill="url(#ud_skin)" stroke="#B68472" stroke-width="0.42"/>
    <ellipse cx="100.7" cy="66.8" rx="1.7" ry="2.4" fill="url(#ud_skin)" stroke="#B68472" stroke-width="0.42"/>
    <ellipse cx="83.9" cy="71.7" rx="1.15" ry="0.75" fill="#E5B29E" opacity="0.34"/>
    <ellipse cx="96.1" cy="71.7" rx="1.15" ry="0.75" fill="#E5B29E" opacity="0.34"/>

    <!-- Hair: executive side-part -->
    <path d="M79.3 56.5 Q82.0 48.8 89.9 47.3 Q97.8 48.0 101.1 54.6 L100.9 60.4 Q96.9 58.7 93.4 58.1 Q90.0 57.6 86.6 58.0 Q83.2 58.4 79.3 60.8 Z" fill="url(#ud_hair)"/>
    <path d="M90.3 47.8 Q89.1 54.0 90.8 60.2" fill="none" stroke="url(#ud_hair_shine)" stroke-width="1.05" stroke-linecap="round" opacity="0.9"/>
    <path d="M79.7 59.3 Q83.7 57.0 87.1 56.6 Q90.7 56.1 94.0 56.8 Q96.9 57.3 100.3 59.1" fill="none" stroke="#2C232A" stroke-width="0.9" opacity="0.78"/>

    <!-- Face -->
    <path d="M89.8 66.8 L89.2 70.1 L90.8 70.1" fill="#D39F8A" opacity="0.82"/>
    <path d="M88.8 70.7 Q90.0 71.4 91.2 70.7" stroke="#B17F70" stroke-width="0.5" fill="none" stroke-linecap="round" opacity="0.8"/>
    <path d="M86.7 73.5 Q90.0 75.7 93.3 73.5" stroke="#8D5D52" stroke-width="0.95" fill="none" stroke-linecap="round"/>
    <path d="M87.2 74.5 Q90.0 75.8 92.8 74.5" stroke="#A67265" stroke-width="0.45" fill="none" stroke-linecap="round" opacity="0.8"/>

    <!-- Eyes with blink and saccades -->
    <g id="eye_open_group" opacity="1">
      <animate attributeName="opacity" values="1;1;1;0;0;1;1;1;0;0;1" dur="8s" repeatCount="indefinite"/>
      <path d="M83.6 62.1 Q85.7 60.5 87.8 61.9" stroke="#51393F" stroke-width="0.72" fill="none" stroke-linecap="round"/>
      <path d="M92.2 61.9 Q94.3 60.5 96.4 62.1" stroke="#51393F" stroke-width="0.72" fill="none" stroke-linecap="round"/>
      <ellipse cx="85.8" cy="66.0" rx="2.05" ry="1.65" fill="#F5F9FC" stroke="#A5B5C2" stroke-width="0.32"/>
      <ellipse cx="94.2" cy="66.0" rx="2.05" ry="1.65" fill="#F5F9FC" stroke="#A5B5C2" stroke-width="0.32"/>
      <g transform="translate(0 0)">
        <animateTransform attributeName="transform" type="translate" values="0 0;0.8 -0.4;-0.8 0.3;0 0;0.7 0;-0.6 -0.3;0 0" dur="5.4s" repeatCount="indefinite"/>
        <circle cx="85.8" cy="66.0" r="0.78" fill="#1F2A36"/>
        <circle cx="94.2" cy="66.0" r="0.78" fill="#1F2A36"/>
        <circle cx="86.2" cy="65.6" r="0.2" fill="#EAF6FF"/>
        <circle cx="94.6" cy="65.6" r="0.2" fill="#EAF6FF"/>
      </g>
    </g>
    <g id="eye_blink_group" opacity="0">
      <animate attributeName="opacity" values="0;0;0;1;1;0;0;0;1;1;0" dur="8s" repeatCount="indefinite"/>
      <path d="M84.0 66.0 L87.6 66.0" stroke="#3A2D33" stroke-width="1.0" stroke-linecap="round"/>
      <path d="M92.4 66.0 L96.0 66.0" stroke="#3A2D33" stroke-width="1.0" stroke-linecap="round"/>
    </g>

    <!-- Glasses -->
    <rect x="82.6" y="64.4" width="6.5" height="3.8" rx="1.4" fill="none" stroke="#4B5D6F" stroke-width="0.64"/>
    <rect x="90.9" y="64.4" width="6.5" height="3.8" rx="1.4" fill="none" stroke="#4B5D6F" stroke-width="0.64"/>
    <path d="M89.1 66.3 L90.9 66.3" stroke="#4B5D6F" stroke-width="0.62"/>
    <path d="M82.5 66.3 L80.7 66.1 M97.5 66.3 L99.3 66.1" stroke="#4B5D6F" stroke-width="0.55" opacity="0.7"/>

    <!-- Waist hint (kept subtle so belts remain dominant) -->
    <rect x="77.2" y="141.6" width="25.6" height="7.0" rx="1.4" fill="#6F4A41" opacity="0.82"/>
    <rect x="88.0" y="141.6" width="4.0" height="7.0" fill="#B78A78" opacity="0.9"/>
  </g>
</svg>
