<svg xmlns="http://www.w3.org/2000/svg" viewBox="0 0 180 220" width="180" height="220">

  <g id="chestplate_epic">
    <path d="M70 79 L110 79 Q115 86 115 97 L112 145 L68 145 L65 97 Q65 86 70 79 Z" fill="#dae0ea" stroke="#97a3b4" stroke-width="1.1"/>
    <path d="M76 84 L104 84 L105 143 L75 143 Z" fill="#4b5c79" opacity="0.92"/>
    <path d="M76 84 L83 94 L80 143 L74 143 Z" fill="#303f5b" opacity="0.75"/>
    <path d="M104 84 L97 94 L100 143 L106 143 Z" fill="#303f5b" opacity="0.75"/>
    <path d="M90 84 L90 143" stroke="#24324a" stroke-width="1.02"/>
    <path d="M79 86 L86 92 M101 86 L94 92" stroke="#dce4f0" stroke-width="1.05" opacity="0.7"/>
    <path d="M74 90 L106 90 M74 100 L106 100 M74 110 L106 110 M74 120 L106 120" stroke="#7c8da7" stroke-width="0.85" opacity="0.72"/><path d="M72 82 L80 76 L100 76 L108 82" stroke="#9C27B0" stroke-width="1" fill="none" opacity="0.82"/><path d="M76 134 Q90 139 104 134" stroke="#9C27B0" stroke-width="1.05" fill="none" opacity="0.75"/><rect x="84.5" y="94.5" width="11" height="16.5" rx="2.3" fill="#183048" stroke="#9C27B0" stroke-width="1"/><path d="M87 103 L93 103" stroke="#9C27B0" stroke-width="0.92"/>
  </g>

</svg>
