<svg xmlns="http://www.w3.org/2000/svg" viewBox="0 0 180 220" width="180" height="220">

  <defs>
    <!-- Skin tone -->
    <linearGradient id="skinGrad" x1="0%" y1="0%" x2="100%" y2="100%">
      <stop offset="0%" stop-color="#c8956c"/>
      <stop offset="100%" stop-color="#b07a55"/>
    </linearGradient>
    <!-- Fingernail anatomy -->
    <linearGradient id="nailPlate" x1="0%" y1="0%" x2="0%" y2="100%">
      <stop offset="0%" stop-color="#e8c8b0"/>
      <stop offset="40%" stop-color="#f0d4be"/>
      <stop offset="75%" stop-color="#e8c8b0"/>
      <stop offset="100%" stop-color="#dbb8a0"/>
    </linearGradient>
    <radialGradient id="lunulaGrad" cx="50%" cy="80%" r="60%">
      <stop offset="0%" stop-color="#f5e8e0"/>
      <stop offset="100%" stop-color="#e8c8b0" stop-opacity="0"/>
    </radialGradient>
  </defs>

  <g id="gauntlets_legendary">
    <!-- Left hand copied from hero_base.svg and scaled from 600x900 to 180x220 -->
    <g id="handReference" transform="scale(0.3,0.2444444444)">
      <!-- Left hand (anatomically detailed, relaxed, hanging) -->
      <g id="leftHand" transform="translate(0,-5)">
        <!-- Palm -->
        <path d="M180,538 C178,542 175,550 174,558 C173,564 174,568 176,570 L204,570 C206,568 208,564 208,558 C207,550 206,542 206,538 Z" fill="url(#skinGrad)" stroke="#a06a48" stroke-width="0.6"/>

        <!-- Thumb (stays in place, no x-shift) -->
        <path d="M204,550 C208,552 212,556 215,562 C217,566 218,572 216,576 C214,580 210,581 207,578 C204,574 203,568 203,564 C203,560 204,555 204,550 Z" fill="url(#skinGrad)" stroke="#a06a48" stroke-width="0.6"/>
        <path d="M207,560 C210,561 213,563 214,566" fill="none" stroke="#a06a48" stroke-width="0.4" opacity="0.3"/>
        <!-- Thumb nail -->
        <g class="nail">
          <path d="M210.6,571.0 C210.1,570.2 214.9,570.2 214.4,571.0 L214.8,574.0 C214.8,575.5 210.2,575.5 210.2,574.0 Z" fill="url(#nailPlate)" stroke="#c0a090" stroke-width="0.3" opacity="0.85"/>
          <path d="M211.0,571.5 L214.3,573.5 C214.3,574.5 210.7,574.5 210.7,573.5 Z" fill="#d4a088" opacity="0.15"/>
          <path d="M210.9,572.2 C210.9,570.7 214.1,570.7 214.1,572.2 C213.6,571.9 211.4,571.9 210.9,572.2 Z" fill="url(#lunulaGrad)" opacity="0.7"/>
          <path d="M210.4,574.4 L214.6,574.4 L214.8,574.0 C214.8,575.5 210.2,575.5 210.2,574.0 Z" fill="#f0e8e0" opacity="0.5"/>
          <path d="M210.3,571.3 C211.8,570.0 213.2,570.0 214.7,571.3" fill="none" stroke="#b89478" stroke-width="0.4" opacity="0.6"/>
          <path d="M209.9,571.8 L210.1,573.5" fill="none" stroke="#b89478" stroke-width="0.3" opacity="0.35"/>
          <path d="M215.1,571.8 L214.9,573.5" fill="none" stroke="#b89478" stroke-width="0.3" opacity="0.35"/>
          <path d="M212.0,571.8 L212.7,573.8" fill="none" stroke="#ffffff" stroke-width="0.5" opacity="0.2" stroke-linecap="round"/>
        </g>

        <!-- Fingers shifted +6px toward center -->
        <g transform="translate(6,0)">
          <!-- Index finger -->
          <path d="M196,568 C197,574 198,582 198,588 C198,592 197,594 196,596 C194,598 192,597 191,594 C190,590 190,582 190,574 C190,570 192,568 196,568 Z" fill="url(#skinGrad)" stroke="#a06a48" stroke-width="0.5"/>
          <path d="M190,572 C192,570 196,570 198,572" fill="none" stroke="#a06a48" stroke-width="0.4" opacity="0.25"/>
          <path d="M191,582 C193,581 196,581 197,582" fill="none" stroke="#a06a48" stroke-width="0.35" opacity="0.3"/>
          <path d="M192,590 C193,589 195,589 196,590" fill="none" stroke="#a06a48" stroke-width="0.3" opacity="0.25"/>
          <!-- Index nail -->
          <g class="nail">
            <path d="M192.2,591.5 C191.7,590.7 196.3,590.7 195.8,591.5 L196.2,595.5 C196.2,597.0 191.8,597.0 191.8,595.5 Z" fill="url(#nailPlate)" stroke="#c0a090" stroke-width="0.3" opacity="0.85"/>
            <path d="M192.6,592.0 L195.8,595.0 C195.8,596.0 192.2,596.0 192.2,595.0 Z" fill="#d4a088" opacity="0.15"/>
            <path d="M192.5,593.0 C192.5,591.2 195.5,591.2 195.5,593.0 C195.0,592.6 193.0,592.6 192.5,593.0 Z" fill="url(#lunulaGrad)" opacity="0.7"/>
            <path d="M192.0,595.8 L196.0,595.8 L196.2,595.5 C196.2,597.0 191.8,597.0 191.8,595.5 Z" fill="#f0e8e0" opacity="0.5"/>
            <path d="M191.9,591.8 C193.3,590.5 194.7,590.5 196.1,591.8" fill="none" stroke="#b89478" stroke-width="0.4" opacity="0.6"/>
            <path d="M191.5,592.3 L191.6,595.0" fill="none" stroke="#b89478" stroke-width="0.3" opacity="0.35"/>
            <path d="M196.5,592.3 L196.4,595.0" fill="none" stroke="#b89478" stroke-width="0.3" opacity="0.35"/>
            <path d="M193.5,592.5 L194.2,595.0" fill="none" stroke="#ffffff" stroke-width="0.5" opacity="0.2" stroke-linecap="round"/>
          </g>

          <!-- Middle finger (longest) -->
          <path d="M190,568 C190,575 190,584 190,592 C189,596 189,599 188,601 C186,603 184,602 183,599 C182,596 182,584 183,575 C183,570 185,568 190,568 Z" fill="url(#skinGrad)" stroke="#a06a48" stroke-width="0.5"/>
          <path d="M183,572 C185,570 189,570 190,572" fill="none" stroke="#a06a48" stroke-width="0.4" opacity="0.25"/>
          <path d="M183,585 C185,584 188,584 189,585" fill="none" stroke="#a06a48" stroke-width="0.35" opacity="0.3"/>
          <path d="M184,594 C185,593 187,593 188,594" fill="none" stroke="#a06a48" stroke-width="0.3" opacity="0.25"/>
          <!-- Middle nail -->
          <g class="nail">
            <path d="M184.2,596.5 C183.7,595.7 188.3,595.7 187.8,596.5 L188.2,600.5 C188.2,602.0 183.8,602.0 183.8,600.5 Z" fill="url(#nailPlate)" stroke="#c0a090" stroke-width="0.3" opacity="0.85"/>
            <path d="M184.6,597.0 L187.8,600.0 C187.8,601.0 184.2,601.0 184.2,600.0 Z" fill="#d4a088" opacity="0.15"/>
            <path d="M184.5,598.0 C184.5,596.2 187.5,596.2 187.5,598.0 C187.0,597.6 185.0,597.6 184.5,598.0 Z" fill="url(#lunulaGrad)" opacity="0.7"/>
            <path d="M184.0,600.8 L188.0,600.8 L188.2,600.5 C188.2,602.0 183.8,602.0 183.8,600.5 Z" fill="#f0e8e0" opacity="0.5"/>
            <path d="M183.9,596.8 C185.3,595.5 186.7,595.5 188.1,596.8" fill="none" stroke="#b89478" stroke-width="0.4" opacity="0.6"/>
            <path d="M183.5,597.3 L183.6,600.0" fill="none" stroke="#b89478" stroke-width="0.3" opacity="0.35"/>
            <path d="M188.5,597.3 L188.4,600.0" fill="none" stroke="#b89478" stroke-width="0.3" opacity="0.35"/>
            <path d="M185.5,597.5 L186.2,600.0" fill="none" stroke="#ffffff" stroke-width="0.5" opacity="0.2" stroke-linecap="round"/>
          </g>

          <!-- Ring finger -->
          <path d="M183,568 C183,574 182,583 182,590 C181,594 181,596 180,598 C178,600 177,599 176,596 C175,593 176,583 176,574 C176,570 178,568 183,568 Z" fill="url(#skinGrad)" stroke="#a06a48" stroke-width="0.5"/>
          <path d="M176,572 C178,570 182,570 183,572" fill="none" stroke="#a06a48" stroke-width="0.4" opacity="0.25"/>
          <path d="M177,584 C178,583 181,583 182,584" fill="none" stroke="#a06a48" stroke-width="0.35" opacity="0.3"/>
          <!-- Ring nail -->
          <g class="nail">
            <path d="M177.3,593.6 C176.8,592.8 181.2,592.8 180.7,593.6 L181.0,597.4 C181.0,598.9 177.0,598.9 177.0,597.4 Z" fill="url(#nailPlate)" stroke="#c0a090" stroke-width="0.3" opacity="0.85"/>
            <path d="M177.7,594.1 L180.6,596.9 C180.6,597.9 177.4,597.9 177.4,596.9 Z" fill="#d4a088" opacity="0.15"/>
            <path d="M177.6,595.0 C177.6,593.3 180.4,593.3 180.4,595.0 C179.9,594.7 178.1,594.7 177.6,595.0 Z" fill="url(#lunulaGrad)" opacity="0.7"/>
            <path d="M177.2,597.7 L180.8,597.7 L181.0,597.4 C181.0,598.9 177.0,598.9 177.0,597.4 Z" fill="#f0e8e0" opacity="0.5"/>
            <path d="M177.0,593.9 C178.4,592.6 179.6,592.6 181.0,593.9" fill="none" stroke="#b89478" stroke-width="0.4" opacity="0.6"/>
            <path d="M176.7,594.4 L176.8,596.9" fill="none" stroke="#b89478" stroke-width="0.3" opacity="0.35"/>
            <path d="M181.3,594.4 L181.2,596.9" fill="none" stroke="#b89478" stroke-width="0.3" opacity="0.35"/>
            <path d="M178.5,594.6 L179.2,597.0" fill="none" stroke="#ffffff" stroke-width="0.5" opacity="0.2" stroke-linecap="round"/>
          </g>

          <!-- Pinky finger (shortest) -->
          <path d="M176,569 C176,574 175,580 175,586 C174,589 174,591 173,592 C172,594 170,593 170,590 C169,587 170,580 170,574 C170,571 172,569 176,569 Z" fill="url(#skinGrad)" stroke="#a06a48" stroke-width="0.5"/>
          <path d="M170,572 C172,570 175,570 176,572" fill="none" stroke="#a06a48" stroke-width="0.35" opacity="0.25"/>
          <path d="M170,581 C172,580 174,580 175,581" fill="none" stroke="#a06a48" stroke-width="0.3" opacity="0.3"/>
          <!-- Pinky nail -->
          <g class="nail">
            <path d="M171.5,587.9 C171.0,587.1 175.0,587.1 174.5,587.9 L174.8,591.1 C174.8,592.6 171.2,592.6 171.2,591.1 Z" fill="url(#nailPlate)" stroke="#c0a090" stroke-width="0.3" opacity="0.85"/>
            <path d="M171.9,588.4 L174.4,590.6 C174.4,591.6 171.6,591.6 171.6,590.6 Z" fill="#d4a088" opacity="0.15"/>
            <path d="M171.7,589.2 C171.7,587.6 174.3,587.6 174.3,589.2 C173.8,588.8 172.2,588.8 171.7,589.2 Z" fill="url(#lunulaGrad)" opacity="0.7"/>
            <path d="M171.4,591.5 L174.6,591.5 L174.8,591.1 C174.8,592.6 171.2,592.6 171.2,591.1 Z" fill="#f0e8e0" opacity="0.5"/>
            <path d="M171.2,588.2 C172.5,586.9 173.5,586.9 174.8,588.2" fill="none" stroke="#b89478" stroke-width="0.4" opacity="0.6"/>
            <path d="M170.9,588.7 L171.0,590.6" fill="none" stroke="#b89478" stroke-width="0.3" opacity="0.35"/>
            <path d="M175.1,588.7 L175.0,590.6" fill="none" stroke="#b89478" stroke-width="0.3" opacity="0.35"/>
            <path d="M172.6,588.7 L173.2,590.8" fill="none" stroke="#ffffff" stroke-width="0.5" opacity="0.2" stroke-linecap="round"/>
          </g>

          <!-- Knuckle ridge -->
          <path d="M171,570 C176,567 186,567 192,568 C196,568 198,569 200,570" fill="none" stroke="#a06a48" stroke-width="0.5" opacity="0.2"/>
        </g>

        <!-- Tendon lines (on palm, no x-shift) -->
        <path d="M194,544 C194,552 194,560 195,568" fill="none" stroke="#a06a48" stroke-width="0.3" opacity="0.15"/>
        <path d="M188,544 C187,552 186,560 186,568" fill="none" stroke="#a06a48" stroke-width="0.3" opacity="0.12"/>
        <path d="M182,544 C181,552 179,560 179,568" fill="none" stroke="#a06a48" stroke-width="0.3" opacity="0.12"/>
        <!-- Wrist crease -->
        <path d="M181,540 C188,538 198,537 205,539" fill="none" stroke="#a06a48" stroke-width="0.4" opacity="0.25"/>
      </g>
    </g>
  </g>

</svg>
