<svg xmlns="http://www.w3.org/2000/svg" viewBox="0 0 180 220" width="180" height="220">

  <g id="gauntlets_epic">
    <path d="M38 133 L62 133 L61 156 L39 156 Z" fill="#324968" stroke="#1a2b45" stroke-width="1.15"/>
    <path d="M118 133 L142 133 L141 156 L119 156 Z" fill="#324968" stroke="#1a2b45" stroke-width="1.15"/>
    <path d="M44 134 L56 134 L56 128 Q50 126 44 128 Z" fill="#253957" stroke="#15243a" stroke-width="0.9"/>
    <path d="M124 134 L136 134 L136 128 Q130 126 124 128 Z" fill="#253957" stroke="#15243a" stroke-width="0.9"/>
    <rect x="42.5" y="150.4" width="15" height="2.8" rx="1.2" fill="#d0b388" opacity="0.92"/>
    <rect x="122.5" y="150.4" width="15" height="2.8" rx="1.2" fill="#d0b388" opacity="0.92"/>
    <path d="M40 143 L60 143 M120 143 L140 143" stroke="#4e678f" stroke-width="1" opacity="0.8"/><circle cx="49.5" cy="147" r="1.5" fill="#9C27B0"/><circle cx="130.5" cy="147" r="1.5" fill="#9C27B0"/><path d="M44 151 L56 151 M124 151 L136 151" stroke="#9C27B0" stroke-width="1.1" opacity="0.9"/><path d="M40 138 Q49 132 58 138" stroke="#9C27B0" stroke-width="1.05" fill="none" opacity="0.8"/><path d="M122 138 Q131 132 140 138" stroke="#9C27B0" stroke-width="1.05" fill="none" opacity="0.8"/>
  </g>

</svg>
