<svg xmlns="http://www.w3.org/2000/svg" viewBox="0 0 180 220" width="180" height="220">

  <g id="cloak_epic" opacity="0.9">
    <path d="M63 74 L117 74 L124 92 L117 191 L63 191 L56 92 Z" fill="#2f4058" opacity="0.5"/>
    <path d="M68 82 L112 82 L116 97 L112 186 L68 186 L64 97 Z" fill="#465972" opacity="0.45"/>
    <path d="M70 150 L62 191 L74 191 Z" fill="#334862" opacity="0.68"/>
    <path d="M108 150 L120 189 L106 190 Z" fill="#334862" opacity="0.68"/>
    <path d="M72 94 L68 182 M108 94 L112 182" stroke="#8f9eb4" stroke-width="0.78" opacity="0.45"/><path d="M68 83 Q90 96 112 83" stroke="#9C27B0" stroke-width="0.92" fill="none" opacity="0.82"/><circle cx="76" cy="118" r="1" fill="#9C27B0" opacity="0.72"/><circle cx="104" cy="125" r="1" fill="#9C27B0" opacity="0.72"/><circle cx="95" cy="145" r="1" fill="#9C27B0" opacity="0.68"/><circle cx="84" cy="138" r="0.9" fill="#9C27B0" opacity="0.68"/>
  </g>

</svg>
