<?xml version="1.0" encoding="UTF-8"?>
<svg xmlns="http://www.w3.org/2000/svg" viewBox="0 0 180 220" width="180" height="220">
  <defs>
    <linearGradient id="cv_outer_epic" x1="0" y1="0" x2="0" y2="1">
      <stop offset="0%" stop-color="#c8b18d"/>
      <stop offset="100%" stop-color="#9f8969"/>
    </linearGradient>
    <linearGradient id="cv_inner_epic" x1="0" y1="0" x2="0" y2="1">
      <stop offset="0%" stop-color="#e6d5ba"/>
      <stop offset="100%" stop-color="#cbb08b"/>
    </linearGradient>
  </defs>
  <!-- Zoo Worker chestplate (epic): Field Harness -->
  <g id="chestplate_epic" transform="translate(90 108) scale(1.0) translate(-90 -108)">
    <path d="M69 83 L75 78 L105 78 L111 83 L108 136 L72 136 Z" fill="url(#cv_outer_epic)" stroke="#71614a" stroke-width="0.9"/>
    <path d="M73 85.5 L78.2 81.5 L101.8 81.5 L107 85.5 L105 133.5 L75 133.5 Z" fill="url(#cv_inner_epic)" opacity="0.95"/>
    <path d="M80 78.2 C84 83 96 83 100 78.2" fill="none" stroke="#7f6f56" stroke-width="0.85"/>
    <path d="M90 86 L90 133" stroke="#8b7a61" stroke-width="0.75"/>
    <rect x="73.8" y="100.8" width="10" height="12" rx="1.6" fill="#6c7a53" stroke="#4a5638" stroke-width="0.62"/>
    <rect x="96.2" y="100.8" width="10" height="12" rx="1.6" fill="#6c7a53" stroke="#4a5638" stroke-width="0.62"/>
    <path d="M74.8 103.8 L82.2 103.8 M97.2 103.8 L104.6 103.8" stroke="#a3b58a" stroke-width="0.5"/>
    <path d="M74.2 127 C79.4 125.4 100.6 125.4 105.8 127" fill="none" stroke="#8f7d61" stroke-width="0.55" opacity="0.8"/>
    <rect x="80" y="111" width="6.8" height="7.8" rx="1.2" fill="#7a8f66" stroke="#4f613f" stroke-width="0.55"/><rect x="93.2" y="111" width="6.8" height="7.8" rx="1.2" fill="#7a8f66" stroke="#4f613f" stroke-width="0.55"/><path d="M74 96 L84 96 M96 96 L106 96" stroke="#9C27B0" stroke-width="0.8" stroke-linecap="round"/><path d="M77 88 C81 85 87 85 90 88 C93 85 99 85 103 88" fill="none" stroke="#9C27B0" stroke-width="0.9"/>
  </g>
</svg>
