<svg xmlns="http://www.w3.org/2000/svg" viewBox="0 0 128 128" width="128" height="128">
  <defs>
    <linearGradient id="sky5" x1="0%" y1="0%" x2="0%" y2="100%"><stop offset="0%" style="stop-color:#1e2d3a"/><stop offset="100%" style="stop-color:#2a3d4a"/></linearGradient>
    <linearGradient id="grass5" x1="0%" y1="0%" x2="0%" y2="100%"><stop offset="0%" style="stop-color:#4a7a4a"/><stop offset="100%" style="stop-color:#3a5a3a"/></linearGradient>
  </defs>
  <rect width="128" height="128" fill="url(#sky5)"/>
  <path d="M-10,75 Q30,60 64,68 Q98,76 138,65 L138,85 L-10,85 Z" fill="#2a4a3a" opacity="0.5"/>
  <path d="M-10,128 L-10,88 Q30,82 64,85 Q98,88 138,82 L138,128 Z" fill="url(#grass5)"/>
  <g stroke="#5a8a5a" stroke-width="1.5" fill="none">
    <path d="M10,99 Q18,87 28,84"><animate attributeName="d" values="M10,99 Q18,87 28,84;M10,99 Q22,83 35,80;M10,99 Q18,87 28,84" dur="1.5s" repeatCount="indefinite"/></path>
    <path d="M25,97 Q33,85 43,82"><animate attributeName="d" values="M25,97 Q33,85 43,82;M25,97 Q37,81 50,78;M25,97 Q33,85 43,82" dur="1.3s" repeatCount="indefinite" begin="0.1s"/></path>
    <path d="M40,95 Q48,83 58,80"><animate attributeName="d" values="M40,95 Q48,83 58,80;M40,95 Q52,79 65,76;M40,95 Q48,83 58,80" dur="1.6s" repeatCount="indefinite" begin="0.2s"/></path>
    <path d="M55,96 Q63,84 73,81"><animate attributeName="d" values="M55,96 Q63,84 73,81;M55,96 Q67,80 80,77;M55,96 Q63,84 73,81" dur="1.4s" repeatCount="indefinite" begin="0.15s"/></path>
    <path d="M70,94 Q78,82 88,79"><animate attributeName="d" values="M70,94 Q78,82 88,79;M70,94 Q82,78 95,75;M70,94 Q78,82 88,79" dur="1.7s" repeatCount="indefinite" begin="0.25s"/></path>
    <path d="M85,96 Q93,84 103,81"><animate attributeName="d" values="M85,96 Q93,84 103,81;M85,96 Q97,80 110,77;M85,96 Q93,84 103,81" dur="1.2s" repeatCount="indefinite"/></path>
    <path d="M100,95 Q108,83 118,80"><animate attributeName="d" values="M100,95 Q108,83 118,80;M100,95 Q112,79 125,76;M100,95 Q108,83 118,80" dur="1.5s" repeatCount="indefinite" begin="0.1s"/></path>
  </g>
  <circle cx="30" cy="45" r="2" fill="#e8e8e8" opacity="0.7"><animate attributeName="cx" values="30;80;30" dur="10s" repeatCount="indefinite"/><animate attributeName="cy" values="45;35;45" dur="10s" repeatCount="indefinite"/></circle>
  <circle cx="70" cy="55" r="1.5" fill="#e8e8e8" opacity="0.5"><animate attributeName="cx" values="70;120;70" dur="8s" repeatCount="indefinite" begin="2s"/><animate attributeName="cy" values="55;48;55" dur="8s" repeatCount="indefinite" begin="2s"/></circle>
  <g opacity="0.35"><animate attributeName="opacity" values="0.25;0.45;0.25" dur="2.5s" repeatCount="indefinite"/>
    <rect x="61" y="55" width="6" height="18" rx="2" fill="#4CAF50"/>
    <rect x="55" y="61" width="18" height="6" rx="2" fill="#4CAF50"/>
  </g>
</svg>
