<svg xmlns="http://www.w3.org/2000/svg" viewBox="0 0 128 128" width="128" height="128">
  <defs>
    <linearGradient id="sky" x1="0%" y1="0%" x2="0%" y2="100%">
      <stop offset="0%" style="stop-color:#4da6ff"/>
      <stop offset="100%" style="stop-color:#87ceeb"/>
    </linearGradient>
    <linearGradient id="grass" x1="0%" y1="0%" x2="0%" y2="100%">
      <stop offset="0%" style="stop-color:#7cb342"/>
      <stop offset="100%" style="stop-color:#558b2f"/>
    </linearGradient>
  </defs>
  
  <!-- Beautiful blue sky -->
  <rect width="128" height="128" fill="url(#sky)"/>
  
  <!-- Very subtle cloud wisps -->
  <g fill="white" opacity="0.25">
    <ellipse cx="30" cy="25" rx="20" ry="6">
      <animate attributeName="cx" values="30;40;30" dur="30s" repeatCount="indefinite"/>
    </ellipse>
    <ellipse cx="100" cy="35" rx="18" ry="5">
      <animate attributeName="cx" values="100;110;100" dur="35s" repeatCount="indefinite"/>
    </ellipse>
  </g>
  
  <!-- Distant hills - seamless edges -->
  <path d="M-10,78 Q30,65 64,72 Q98,79 138,68 L138,88 L-10,88 Z" fill="#8bc34a" opacity="0.6"/>
  
  <!-- Main ground - extends past edges for seamless tiling -->
  <path d="M-10,128 L-10,88 Q30,82 64,85 Q98,88 138,82 L138,128 Z" fill="url(#grass)"/>
  
  <!-- Grass texture lines -->
  <g stroke="#689f38" stroke-width="1" fill="none" opacity="0.5">
    <path d="M10,95 Q12,88 10,82"/>
    <path d="M30,92 Q32,85 30,78"/>
    <path d="M50,94 Q52,87 50,80"/>
    <path d="M70,93 Q72,86 70,79"/>
    <path d="M90,95 Q92,88 90,81"/>
    <path d="M110,92 Q112,85 110,78"/>
  </g>
  
  <!-- Gentle grass sway -->
  <g stroke="#8bc34a" stroke-width="1.5" fill="none">
    <path d="M15,98 Q20,88 28,86">
      <animate attributeName="d" values="M15,98 Q20,88 28,86;M15,98 Q22,86 32,84;M15,98 Q20,88 28,86" dur="3s" repeatCount="indefinite"/>
    </path>
    <path d="M45,96 Q50,86 58,84">
      <animate attributeName="d" values="M45,96 Q50,86 58,84;M45,96 Q52,84 62,82;M45,96 Q50,86 58,84" dur="2.8s" repeatCount="indefinite" begin="0.3s"/>
    </path>
    <path d="M75,97 Q80,87 88,85">
      <animate attributeName="d" values="M75,97 Q80,87 88,85;M75,97 Q82,85 92,83;M75,97 Q80,87 88,85" dur="3.2s" repeatCount="indefinite" begin="0.5s"/>
    </path>
    <path d="M105,95 Q110,85 118,83">
      <animate attributeName="d" values="M105,95 Q110,85 118,83;M105,95 Q112,83 122,81;M105,95 Q110,85 118,83" dur="2.9s" repeatCount="indefinite" begin="0.2s"/>
    </path>
  </g>
  
  <!-- Build hint -->
  <g opacity="0.4">
    <animate attributeName="opacity" values="0.3;0.5;0.3" dur="2.5s" repeatCount="indefinite"/>
    <line x1="54" y1="54" x2="74" y2="54" stroke="#fff" stroke-width="3" stroke-linecap="round"/>
    <line x1="64" y1="44" x2="64" y2="64" stroke="#fff" stroke-width="3" stroke-linecap="round"/>
  </g>
</svg>
