<svg xmlns="http://www.w3.org/2000/svg" viewBox="0 0 128 128" width="128" height="128">
  <defs>
    <linearGradient id="sky6" x1="0%" y1="0%" x2="0%" y2="100%"><stop offset="0%" style="stop-color:#1e2d3a"/><stop offset="100%" style="stop-color:#2a3d4a"/></linearGradient>
    <linearGradient id="grass6" x1="0%" y1="0%" x2="0%" y2="100%"><stop offset="0%" style="stop-color:#4a7a4a"/><stop offset="100%" style="stop-color:#3a5a3a"/></linearGradient>
  </defs>
  <rect width="128" height="128" fill="url(#sky6)"/>
  <path d="M-10,75 Q30,60 64,68 Q98,76 138,65 L138,85 L-10,85 Z" fill="#2a4a3a" opacity="0.5"/>
  <path d="M-10,128 L-10,88 Q30,82 64,85 Q98,88 138,82 L138,128 Z" fill="url(#grass6)"/>
  <g stroke="#5a8a5a" stroke-width="1.5" fill="none">
    <path d="M10,100 Q15,90 23,88"><animate attributeName="d" values="M10,100 Q15,90 23,88;M10,100 Q17,88 27,86;M10,100 Q15,90 23,88" dur="2s" repeatCount="indefinite"/></path>
    <path d="M105,96 Q110,86 118,84"><animate attributeName="d" values="M105,96 Q110,86 118,84;M105,96 Q112,84 122,82;M105,96 Q110,86 118,84" dur="1.8s" repeatCount="indefinite"/></path>
  </g>
  <ellipse cx="64" cy="92" rx="28" ry="12" fill="#3a6a8a"/>
  <ellipse cx="64" cy="90" rx="22" ry="8" fill="#4a7a9a" opacity="0.6"><animate attributeName="opacity" values="0.5;0.7;0.5" dur="3s" repeatCount="indefinite"/></ellipse>
  <ellipse cx="55" cy="90" rx="5" ry="2" stroke="#6a9aba" stroke-width="0.5" fill="none" opacity="0.5"><animate attributeName="rx" values="3;8;3" dur="3s" repeatCount="indefinite"/><animate attributeName="opacity" values="0.6;0;0.6" dur="3s" repeatCount="indefinite"/></ellipse>
  <ellipse cx="70" cy="91" rx="5" ry="2.5" fill="#3a7a4a"/>
  <g opacity="0.35"><animate attributeName="opacity" values="0.25;0.45;0.25" dur="2.5s" repeatCount="indefinite"/>
    <rect x="61" y="50" width="6" height="18" rx="2" fill="#4CAF50"/>
    <rect x="55" y="56" width="18" height="6" rx="2" fill="#4CAF50"/>
  </g>
</svg>
