<svg xmlns="http://www.w3.org/2000/svg" viewBox="0 0 128 128" width="128" height="128">
  <defs>
    <linearGradient id="sky" x1="0%" y1="0%" x2="0%" y2="100%">
      <stop offset="0%" style="stop-color:#4da6ff"/>
      <stop offset="100%" style="stop-color:#87ceeb"/>
    </linearGradient>
    <linearGradient id="grass" x1="0%" y1="0%" x2="0%" y2="100%">
      <stop offset="0%" style="stop-color:#7cb342"/>
      <stop offset="100%" style="stop-color:#558b2f"/>
    </linearGradient>
  </defs>
  
  <!-- Beautiful blue sky -->
  <rect width="128" height="128" fill="url(#sky)"/>
  
  <!-- Distant hills -->
  <path d="M-10,78 Q30,65 64,72 Q98,79 138,68 L138,88 L-10,88 Z" fill="#8bc34a" opacity="0.6"/>
  
  <!-- Main ground -->
  <path d="M-10,128 L-10,88 Q30,82 64,85 Q98,88 138,82 L138,128 Z" fill="url(#grass)"/>
  
  <!-- Berry bush -->
  <g>
    <!-- Bush foliage -->
    <ellipse cx="64" cy="70" rx="22" ry="16" fill="#2e7d32">
      <animate attributeName="rx" values="22;23;22" dur="4s" repeatCount="indefinite"/>
    </ellipse>
    <ellipse cx="55" cy="66" rx="12" ry="10" fill="#388e3c"/>
    <ellipse cx="74" cy="68" rx="10" ry="8" fill="#388e3c"/>
    <ellipse cx="64" cy="62" rx="8" ry="6" fill="#43a047"/>
    
    <!-- Berries -->
    <circle cx="50" cy="72" r="3" fill="#c62828"/>
    <circle cx="58" cy="68" r="2.5" fill="#d32f2f"/>
    <circle cx="70" cy="70" r="3" fill="#c62828"/>
    <circle cx="76" cy="66" r="2" fill="#e53935"/>
    <circle cx="62" cy="75" r="2.5" fill="#d32f2f"/>
    
    <!-- Berry highlights -->
    <circle cx="49" cy="71" r="1" fill="#ef5350" opacity="0.7"/>
    <circle cx="69" cy="69" r="1" fill="#ef5350" opacity="0.7"/>
  </g>
  
  <!-- Grass texture -->
  <g stroke="#689f38" stroke-width="1" fill="none" opacity="0.5">
    <path d="M15,95 Q17,88 15,82">
      <animate attributeName="d" values="M15,95 Q17,88 15,82;M15,95 Q18,88 16,82;M15,95 Q17,88 15,82" dur="3s" repeatCount="indefinite"/>
    </path>
    <path d="M100,93 Q102,86 100,80"/>
    <path d="M115,94 Q117,87 115,81"/>
  </g>
  
  <!-- Build hint -->
  <g opacity="0.4">
    <animate attributeName="opacity" values="0.3;0.5;0.3" dur="2.5s" repeatCount="indefinite"/>
    <line x1="54" y1="44" x2="74" y2="44" stroke="#fff" stroke-width="3" stroke-linecap="round"/>
    <line x1="64" y1="34" x2="64" y2="54" stroke="#fff" stroke-width="3" stroke-linecap="round"/>
  </g>
</svg>
