<svg xmlns="http://www.w3.org/2000/svg" viewBox="0 0 128 128" width="128" height="128">
  <defs>
    <linearGradient id="sky1" x1="0%" y1="0%" x2="0%" y2="100%">
      <stop offset="0%" style="stop-color:#1e2d3a"/>
      <stop offset="100%" style="stop-color:#2a3d4a"/>
    </linearGradient>
    <linearGradient id="grass1" x1="0%" y1="0%" x2="0%" y2="100%">
      <stop offset="0%" style="stop-color:#4a7a4a"/>
      <stop offset="100%" style="stop-color:#3a5a3a"/>
    </linearGradient>
  </defs>
  <rect width="128" height="128" fill="url(#sky1)"/>
  <path d="M-10,75 Q30,60 64,68 Q98,76 138,65 L138,85 L-10,85 Z" fill="#2a4a3a" opacity="0.5"/>
  <path d="M-10,128 L-10,88 Q30,82 64,85 Q98,88 138,82 L138,128 Z" fill="url(#grass1)"/>
  <g stroke="#5a8a5a" stroke-width="1.5" fill="none">
    <path d="M15,98 Q20,88 28,86"><animate attributeName="d" values="M15,98 Q20,88 28,86;M15,98 Q22,86 32,84;M15,98 Q20,88 28,86" dur="2s" repeatCount="indefinite"/></path>
    <path d="M95,95 Q100,85 108,83"><animate attributeName="d" values="M95,95 Q100,85 108,83;M95,95 Q102,83 112,81;M95,95 Q100,85 108,83" dur="1.9s" repeatCount="indefinite"/></path>
  </g>
  <g transform-origin="35 90"><animateTransform attributeName="transform" type="rotate" values="-0.5;0.5;-0.5" dur="4s" repeatCount="indefinite"/>
    <rect x="33" y="75" width="4" height="18" fill="#3d2a1a"/>
    <polygon points="35,35 20,75 50,75" fill="#2d5a3d"/>
    <polygon points="35,45 23,68 47,68" fill="#3d6a4d"/>
    <polygon points="35,55 27,70 43,70" fill="#4d7a5d"/>
  </g>
  <g transform-origin="95 95"><animateTransform attributeName="transform" type="rotate" values="0.3;-0.3;0.3" dur="3.5s" repeatCount="indefinite"/>
    <rect x="93" y="82" width="3" height="12" fill="#3d2a1a"/>
    <polygon points="95,58 85,82 105,82" fill="#2d5a3d"/>
    <polygon points="95,65 88,78 102,78" fill="#3d6a4d"/>
  </g>
  <g opacity="0.35"><animate attributeName="opacity" values="0.25;0.45;0.25" dur="2.5s" repeatCount="indefinite"/>
    <rect x="61" y="55" width="6" height="18" rx="2" fill="#4CAF50"/>
    <rect x="55" y="61" width="18" height="6" rx="2" fill="#4CAF50"/>
  </g>
</svg>
