<svg xmlns="http://www.w3.org/2000/svg" viewBox="0 0 128 128" width="128" height="128">
  <defs>
    <linearGradient id="sky3" x1="0%" y1="0%" x2="0%" y2="100%"><stop offset="0%" style="stop-color:#1e2d3a"/><stop offset="100%" style="stop-color:#2a3d4a"/></linearGradient>
    <linearGradient id="grass3" x1="0%" y1="0%" x2="0%" y2="100%"><stop offset="0%" style="stop-color:#4a7a4a"/><stop offset="100%" style="stop-color:#3a5a3a"/></linearGradient>
  </defs>
  <rect width="128" height="128" fill="url(#sky3)"/>
  <path d="M-10,75 Q30,60 64,68 Q98,76 138,65 L138,85 L-10,85 Z" fill="#2a4a3a" opacity="0.5"/>
  <path d="M-10,128 L-10,88 Q30,82 64,85 Q98,88 138,82 L138,128 Z" fill="url(#grass3)"/>
  <g stroke="#5a8a5a" stroke-width="1.5" fill="none">
    <path d="M20,97 Q25,87 33,85"><animate attributeName="d" values="M20,97 Q25,87 33,85;M20,97 Q27,85 37,83;M20,97 Q25,87 33,85" dur="2s" repeatCount="indefinite"/></path>
    <path d="M80,95 Q85,85 93,83"><animate attributeName="d" values="M80,95 Q85,85 93,83;M80,95 Q87,83 97,81;M80,95 Q85,85 93,83" dur="1.8s" repeatCount="indefinite"/></path>
  </g>
  <circle cx="35" cy="88" r="3" fill="#e8a0c0"><animate attributeName="r" values="3;3.3;3" dur="3s" repeatCount="indefinite"/></circle>
  <circle cx="55" cy="92" r="2.5" fill="#f0d080"><animate attributeName="r" values="2.5;2.8;2.5" dur="2.5s" repeatCount="indefinite" begin="0.5s"/></circle>
  <circle cx="75" cy="89" r="2" fill="#a0c0e8"><animate attributeName="r" values="2;2.3;2" dur="2.8s" repeatCount="indefinite" begin="0.3s"/></circle>
  <circle cx="95" cy="93" r="2.5" fill="#e8a0c0"><animate attributeName="r" values="2.5;2.8;2.5" dur="2.2s" repeatCount="indefinite" begin="0.7s"/></circle>
  <circle cx="45" cy="95" r="2" fill="#c0e8a0"><animate attributeName="r" values="2;2.2;2" dur="3.2s" repeatCount="indefinite"/></circle>
  <line x1="35" y1="88" x2="35" y2="95" stroke="#4a7a4a" stroke-width="1"/>
  <line x1="55" y1="92" x2="55" y2="98" stroke="#4a7a4a" stroke-width="1"/>
  <line x1="75" y1="89" x2="75" y2="96" stroke="#4a7a4a" stroke-width="1"/>
  <g opacity="0.35"><animate attributeName="opacity" values="0.25;0.45;0.25" dur="2.5s" repeatCount="indefinite"/>
    <rect x="61" y="55" width="6" height="18" rx="2" fill="#4CAF50"/>
    <rect x="55" y="61" width="18" height="6" rx="2" fill="#4CAF50"/>
  </g>
</svg>
