<svg xmlns="http://www.w3.org/2000/svg" viewBox="0 0 64 64">
  <!-- Artisan Guild with painting/crafting animation -->
  <defs>
    <linearGradient id="rainbowGrad" x1="0%" y1="0%" x2="100%" y2="0%">
      <stop offset="0%" style="stop-color:#FF6B6B"/>
      <stop offset="25%" style="stop-color:#FFE66D"/>
      <stop offset="50%" style="stop-color:#4ECDC4"/>
      <stop offset="75%" style="stop-color:#A78BFA"/>
      <stop offset="100%" style="stop-color:#FF6B6B"/>
      <animate attributeName="x1" values="0%;100%;0%" dur="3s" repeatCount="indefinite"/>
    </linearGradient>
  </defs>
  
  <!-- Building -->
  <rect x="8" y="24" width="48" height="32" fill="#8D6E63"/>
  <polygon points="8,24 32,8 56,24" fill="#A1887F"/>
  
  <!-- Decorative trim -->
  <rect x="8" y="22" width="48" height="4" fill="#6D4C41"/>
  
  <!-- Windows with colorful curtains -->
  <rect x="14" y="32" width="10" height="12" fill="#E3F2FD"/>
  <rect x="14" y="32" width="5" height="12" fill="#FFCDD2" opacity="0.7"/>
  
  <rect x="40" y="32" width="10" height="12" fill="#E3F2FD"/>
  <rect x="45" y="32" width="5" height="12" fill="#C8E6C9" opacity="0.7"/>
  
  <!-- Door -->
  <rect x="26" y="36" width="12" height="20" fill="#5D4037"/>
  <circle cx="35" cy="48" r="1.5" fill="#FFD700"/>
  
  <!-- Palette sign with animated colors -->
  <ellipse cx="32" cy="18" rx="8" ry="6" fill="#F5F5F5" stroke="#795548" stroke-width="1"/>
  <circle cx="28" cy="16" r="2" fill="#FF6B6B">
    <animate attributeName="fill" values="#FF6B6B;#FFE66D;#4ECDC4;#A78BFA;#FF6B6B" dur="4s" repeatCount="indefinite"/>
  </circle>
  <circle cx="33" cy="15" r="2" fill="#4ECDC4">
    <animate attributeName="fill" values="#4ECDC4;#A78BFA;#FF6B6B;#FFE66D;#4ECDC4" dur="4s" repeatCount="indefinite"/>
  </circle>
  <circle cx="36" cy="18" r="2" fill="#FFE66D">
    <animate attributeName="fill" values="#FFE66D;#FF6B6B;#A78BFA;#4ECDC4;#FFE66D" dur="4s" repeatCount="indefinite"/>
  </circle>
  
  <!-- Paintbrush with stroke animation -->
  <g>
    <animateTransform attributeName="transform" type="rotate" values="0 50 30;10 50 30;0 50 30;-10 50 30;0 50 30" dur="2s" repeatCount="indefinite"/>
    <rect x="48" y="22" width="2" height="14" fill="#795548"/>
    <polygon points="47,22 51,22 49,16" fill="#E0E0E0"/>
    <polygon points="47.5,18 50.5,18 49,14" fill="url(#rainbowGrad)"/>
  </g>
  
  <!-- Floating sparkles -->
  <circle cx="20" cy="28" r="1" fill="#FFD700">
    <animate attributeName="opacity" values="0;1;0" dur="2s" repeatCount="indefinite"/>
  </circle>
  <circle cx="44" cy="26" r="1" fill="#FFD700">
    <animate attributeName="opacity" values="0;1;0" dur="2.3s" repeatCount="indefinite" begin="0.7s"/>
  </circle>
</svg>
