<?xml version="1.0" encoding="UTF-8"?>
<svg xmlns="http://www.w3.org/2000/svg" viewBox="0 0 128 128" width="128" height="128">
  <!-- Artisan Guild Level 2 (Animated) - Industrial Design Studio -->
  <defs>
    <linearGradient id="brickWall" x1="0%" y1="0%" x2="100%" y2="100%">
      <stop offset="0%" style="stop-color:#8D6E63"/>
      <stop offset="50%" style="stop-color:#795548"/>
      <stop offset="100%" style="stop-color:#6D4C41"/>
    </linearGradient>
    <linearGradient id="metalFrame" x1="0%" y1="0%" x2="100%" y2="100%">
      <stop offset="0%" style="stop-color:#78909C"/>
      <stop offset="50%" style="stop-color:#546E7A"/>
      <stop offset="100%" style="stop-color:#455A64"/>
    </linearGradient>
    <linearGradient id="glassWindow" x1="0%" y1="0%" x2="100%" y2="100%">
      <stop offset="0%" style="stop-color:#E3F2FD"/>
      <stop offset="50%" style="stop-color:#BBDEFB"/>
      <stop offset="100%" style="stop-color:#90CAF9"/>
    </linearGradient>
    <linearGradient id="redPaint" x1="0%" y1="0%" x2="100%" y2="100%">
      <stop offset="0%" style="stop-color:#EF5350"/>
      <stop offset="100%" style="stop-color:#C62828"/>
    </linearGradient>
    <linearGradient id="bluePaint" x1="0%" y1="0%" x2="100%" y2="100%">
      <stop offset="0%" style="stop-color:#42A5F5"/>
      <stop offset="100%" style="stop-color:#1565C0"/>
    </linearGradient>
    <linearGradient id="yellowPaint" x1="0%" y1="0%" x2="100%" y2="100%">
      <stop offset="0%" style="stop-color:#FFEE58"/>
      <stop offset="100%" style="stop-color:#F9A825"/>
    </linearGradient>
    <linearGradient id="greenPaint" x1="0%" y1="0%" x2="100%" y2="100%">
      <stop offset="0%" style="stop-color:#66BB6A"/>
      <stop offset="100%" style="stop-color:#2E7D32"/>
    </linearGradient>
    <linearGradient id="sky" x1="0%" y1="0%" x2="0%" y2="100%">
      <stop offset="0%" style="stop-color:#4da6ff"/>
      <stop offset="100%" style="stop-color:#87ceeb"/>
    </linearGradient>
    <linearGradient id="grass" x1="0%" y1="0%" x2="0%" y2="100%">
      <stop offset="0%" style="stop-color:#7cb342"/>
      <stop offset="100%" style="stop-color:#558b2f"/>
    </linearGradient>
    <filter id="dropShadow" x="-20%" y="-20%" width="140%" height="140%">
      <feDropShadow dx="2" dy="3" stdDeviation="2" flood-color="#000000" flood-opacity="0.3"/>
    </filter>
  </defs>
  
  <!-- Background: Blue sky -->
  <rect width="128" height="128" fill="url(#sky)"/>
  
  <!-- Distant hills -->
  <path d="M-10,78 Q30,65 64,72 Q98,79 138,68 L138,88 L-10,88 Z" fill="#8bc34a" opacity="0.6"/>
  
  <!-- Main ground -->
  <path d="M-10,128 L-10,88 Q30,82 64,85 Q98,88 138,82 L138,128 Z" fill="url(#grass)"/>

  <!-- Industrial roof with saw-tooth skylights -->
  <polygon points="4,42 64,14 124,42" fill="#455A64"/>
  <polygon points="4,42 24,42 24,28 4,42" fill="url(#glassWindow)"/>
  <polygon points="44,42 64,42 64,22 44,42" fill="url(#glassWindow)"/>
  <polygon points="84,42 104,42 104,28 84,42" fill="url(#glassWindow)"/>
  
  <!-- Main building -->
  <rect x="8" y="42" width="112" height="78" fill="url(#brickWall)" filter="url(#dropShadow)"/>
  
  <!-- Metal frame structure -->
  <g fill="url(#metalFrame)">
    <rect x="8" y="42" width="4" height="78"/>
    <rect x="116" y="42" width="4" height="78"/>
    <rect x="8" y="42" width="112" height="3"/>
    <rect x="60" y="42" width="8" height="78"/>
  </g>
  
  <!-- Large industrial windows -->
  <rect x="14" y="50" width="38" height="36" fill="url(#glassWindow)" rx="2"/>
  <line x1="33" y1="50" x2="33" y2="86" stroke="#455A64" stroke-width="2"/>
  <line x1="14" y1="68" x2="52" y2="68" stroke="#455A64" stroke-width="2"/>
  <rect x="14" y="50" width="38" height="36" fill="none" stroke="#546E7A" stroke-width="2" rx="2"/>
  
  <rect x="76" y="50" width="38" height="36" fill="url(#glassWindow)" rx="2"/>
  <line x1="95" y1="50" x2="95" y2="86" stroke="#455A64" stroke-width="2"/>
  <line x1="76" y1="68" x2="114" y2="68" stroke="#455A64" stroke-width="2"/>
  <rect x="76" y="50" width="38" height="36" fill="none" stroke="#546E7A" stroke-width="2" rx="2"/>
  
  <!-- Printing press with animated rollers -->
  <rect x="16" y="92" width="36" height="24" fill="#37474F" rx="2"/>
  <rect x="20" y="96" width="10" height="16" fill="#263238"/>
  <rect x="34" y="96" width="14" height="16" fill="url(#glassWindow)"/>
  
  <!-- Animated rollers -->
  <ellipse cx="25" cy="108" rx="4" ry="2" fill="#78909C">
    <animate attributeName="ry" values="2;2.5;2" dur="0.5s" repeatCount="indefinite"/>
  </ellipse>
  <ellipse cx="25" cy="102" rx="4" ry="2" fill="#78909C">
    <animate attributeName="ry" values="2;2.5;2" dur="0.5s" repeatCount="indefinite"/>
  </ellipse>
  
  <!-- Animated paper feed -->
  <rect x="28" y="100" width="8" height="12" fill="#FAFAFA">
    <animate attributeName="x" values="28;34;28" dur="2s" repeatCount="indefinite"/>
  </rect>
  
  <!-- Colored ink containers with drip animation -->
  <rect x="54" y="96" width="6" height="10" fill="url(#redPaint)" rx="1"/>
  <rect x="62" y="96" width="6" height="10" fill="url(#yellowPaint)" rx="1"/>
  <rect x="54" y="108" width="6" height="10" fill="url(#bluePaint)" rx="1"/>
  <rect x="62" y="108" width="6" height="10" fill="url(#greenPaint)" rx="1"/>
  
  <!-- Ink drips animated -->
  <circle cx="57" cy="108" r="1" fill="#EF5350">
    <animate attributeName="cy" values="106;118;106" dur="3s" repeatCount="indefinite"/>
    <animate attributeName="opacity" values="1;0;1" dur="3s" repeatCount="indefinite"/>
  </circle>
  <circle cx="65" cy="106" r="1" fill="#FFEE58">
    <animate attributeName="cy" values="106;118;106" dur="4s" repeatCount="indefinite"/>
    <animate attributeName="opacity" values="0;1;0" dur="4s" repeatCount="indefinite"/>
  </circle>
  
  <!-- CNC machine with animated spindle -->
  <rect x="76" y="92" width="36" height="24" fill="#455A64" rx="2"/>
  <rect x="80" y="96" width="8" height="8" fill="#37474F"/>
  
  <!-- Animated spinning chuck -->
  <ellipse cx="84" cy="100" rx="3" ry="3" fill="#263238">
    <animateTransform attributeName="transform" type="rotate" values="0 84 100;360 84 100" dur="1s" repeatCount="indefinite"/>
  </ellipse>
  
  <rect x="92" y="94" width="16" height="6" fill="#546E7A"/>
  
  <!-- Animated cutting tool -->
  <g>
    <animateTransform attributeName="transform" type="translate" values="0,0;-4,0;0,0" dur="2s" repeatCount="indefinite"/>
    <polygon points="98,94 102,88 106,94" fill="#78909C"/>
  </g>
  
  <rect x="96" y="104" width="12" height="10" fill="#37474F"/>
  
  <!-- Animated turning wheel -->
  <circle cx="102" cy="109" r="4" fill="#263238">
    <animateTransform attributeName="transform" type="rotate" values="0 102 109;360 102 109" dur="2s" repeatCount="indefinite"/>
  </circle>
  <line x1="102" y1="105" x2="102" y2="113" stroke="#455A64" stroke-width="1">
    <animateTransform attributeName="transform" type="rotate" values="0 102 109;360 102 109" dur="2s" repeatCount="indefinite"/>
  </line>
  
  <!-- Control panel with blinking lights -->
  <rect x="80" y="106" width="12" height="10" fill="#263238"/>
  <circle cx="83" cy="110" r="2" fill="#4CAF50">
    <animate attributeName="fill" values="#4CAF50;#8BC34A;#4CAF50" dur="1s" repeatCount="indefinite"/>
  </circle>
  <circle cx="89" cy="110" r="2" fill="#FF5722">
    <animate attributeName="opacity" values="1;0.5;1" dur="0.5s" repeatCount="indefinite"/>
  </circle>
  
  <!-- Sparks from machining -->
  <g fill="#FFAB00">
    <circle cx="92" cy="92" r="1">
      <animate attributeName="cy" values="92;86;92" dur="0.3s" repeatCount="indefinite"/>
      <animate attributeName="opacity" values="1;0;1" dur="0.3s" repeatCount="indefinite"/>
    </circle>
    <circle cx="96" cy="90" r="0.8">
      <animate attributeName="cy" values="90;82;90" dur="0.4s" repeatCount="indefinite"/>
      <animate attributeName="cx" values="96;100;96" dur="0.4s" repeatCount="indefinite"/>
      <animate attributeName="opacity" values="0;1;0" dur="0.4s" repeatCount="indefinite"/>
    </circle>
  </g>
  
  <!-- Animated smoke from chimney -->
  <rect x="96" y="6" width="12" height="20" fill="#455A64"/>
  <rect x="94" y="4" width="16" height="4" fill="#546E7A"/>
  <g fill="#9E9E9E" opacity="0.5">
    <ellipse cx="102" cy="2" rx="4" ry="2">
      <animate attributeName="cy" values="2;-8;2" dur="4s" repeatCount="indefinite"/>
      <animate attributeName="opacity" values="0.5;0.1;0.5" dur="4s" repeatCount="indefinite"/>
    </ellipse>
  </g>
  
  <!-- Guild sign with colorful palette -->
  <rect x="52" y="20" width="24" height="18" fill="#5D4037" rx="2"/>
  <ellipse cx="60" cy="28" rx="5" ry="4" fill="#D7CCC8"/>
  <circle cx="58" cy="26" r="2" fill="#EF5350">
    <animate attributeName="fill" values="#EF5350;#F44336;#EF5350" dur="2s" repeatCount="indefinite"/>
  </circle>
  <circle cx="62" cy="26" r="2" fill="#42A5F5">
    <animate attributeName="fill" values="#42A5F5;#2196F3;#42A5F5" dur="2.5s" repeatCount="indefinite"/>
  </circle>
  <circle cx="60" cy="30" r="2" fill="#FFEE58">
    <animate attributeName="fill" values="#FFEE58;#FFEB3B;#FFEE58" dur="3s" repeatCount="indefinite"/>
  </circle>
  <rect x="66" y="24" width="8" height="2" fill="#795548"/>
  <circle cx="72" cy="30" r="3" fill="#78909C"/>
  
  <!-- Metal rivets -->
  <g fill="#37474F">
    <circle cx="10" cy="50" r="1.5"/>
    <circle cx="10" cy="70" r="1.5"/>
    <circle cx="10" cy="90" r="1.5"/>
    <circle cx="10" cy="110" r="1.5"/>
    <circle cx="118" cy="50" r="1.5"/>
    <circle cx="118" cy="70" r="1.5"/>
    <circle cx="118" cy="90" r="1.5"/>
    <circle cx="118" cy="110" r="1.5"/>
  </g>
</svg>
