<svg xmlns="http://www.w3.org/2000/svg" viewBox="0 0 64 64" width="64" height="64">
  <!-- Goldmine with sparkling gold animation - High Quality Version -->
  <defs>
    <linearGradient id="mountainRock" x1="0%" y1="0%" x2="100%" y2="100%">
      <stop offset="0%" style="stop-color:#8D6E63"/>
      <stop offset="30%" style="stop-color:#6D4C41"/>
      <stop offset="70%" style="stop-color:#5D4037"/>
      <stop offset="100%" style="stop-color:#4E342E"/>
    </linearGradient>
    <linearGradient id="goldNugget" x1="0%" y1="0%" x2="100%" y2="100%">
      <stop offset="0%" style="stop-color:#FFE082"/>
      <stop offset="25%" style="stop-color:#FFD54F"/>
      <stop offset="50%" style="stop-color:#FFC107"/>
      <stop offset="75%" style="stop-color:#FFB300"/>
      <stop offset="100%" style="stop-color:#FF8F00"/>
    </linearGradient>
    <linearGradient id="goldShine" x1="0%" y1="0%" x2="100%" y2="0%">
      <stop offset="0%" style="stop-color:#FFECB3"/>
      <stop offset="100%" style="stop-color:#FFD54F"/>
    </linearGradient>
    <linearGradient id="woodBeam" x1="0%" y1="0%" x2="100%" y2="0%">
      <stop offset="0%" style="stop-color:#8D6E63"/>
      <stop offset="50%" style="stop-color:#6D4C41"/>
      <stop offset="100%" style="stop-color:#5D4037"/>
    </linearGradient>
    <radialGradient id="caveDepth" cx="50%" cy="30%" r="70%">
      <stop offset="0%" style="stop-color:#3E2723"/>
      <stop offset="100%" style="stop-color:#1A1A1A"/>
    </radialGradient>
    <radialGradient id="goldGlow" cx="50%" cy="50%" r="50%">
      <stop offset="0%" style="stop-color:#FFD54F" stop-opacity="0.6"/>
      <stop offset="100%" style="stop-color:#FFD54F" stop-opacity="0"/>
    </radialGradient>
  </defs>
  
  <!-- Mountain base -->
  <polygon points="32,6 60,58 4,58" fill="url(#mountainRock)"/>
  <polygon points="32,6 32,58 4,58" fill="#5D4037"/>
  
  <!-- Snow cap -->
  <polygon points="32,6 38,16 26,16" fill="#ECEFF1"/>
  <polygon points="28,14 36,14 40,22 24,22" fill="#CFD8DC" opacity="0.6"/>
  
  <!-- Rock texture lines -->
  <line x1="20" y1="30" x2="28" y2="26" stroke="#4E342E" stroke-width="0.5" opacity="0.5"/>
  <line x1="36" y1="28" x2="46" y2="34" stroke="#4E342E" stroke-width="0.5" opacity="0.5"/>
  <line x1="14" y1="44" x2="24" y2="40" stroke="#4E342E" stroke-width="0.5" opacity="0.5"/>
  
  <!-- Mine entrance cave -->
  <ellipse cx="32" cy="50" rx="12" ry="10" fill="url(#caveDepth)"/>
  
  <!-- Wooden support beams -->
  <rect x="19" y="38" width="4" height="22" fill="url(#woodBeam)" rx="1"/>
  <rect x="41" y="38" width="4" height="22" fill="url(#woodBeam)" rx="1"/>
  <rect x="17" y="36" width="30" height="4" fill="#5D4037" rx="1"/>
  <line x1="17" y1="37" x2="47" y2="37" stroke="#8D6E63" stroke-width="0.5"/>
  
  <!-- Animated gold pile with glow -->
  <circle cx="32" cy="56" r="10" fill="url(#goldGlow)">
    <animate attributeName="r" values="10;12;10" dur="2s" repeatCount="indefinite"/>
  </circle>
  
  <!-- Gold nuggets with sparkle animation -->
  <ellipse cx="32" cy="56" rx="10" ry="4" fill="url(#goldNugget)">
    <animate attributeName="opacity" values="1;0.85;1" dur="1.5s" repeatCount="indefinite"/>
  </ellipse>
  <ellipse cx="28" cy="54" rx="4" ry="3" fill="url(#goldShine)">
    <animate attributeName="opacity" values="0.9;1;0.9" dur="1.2s" repeatCount="indefinite"/>
  </ellipse>
  <ellipse cx="36" cy="53" rx="3" ry="2.5" fill="url(#goldShine)">
    <animate attributeName="opacity" values="0.8;1;0.8" dur="1.8s" repeatCount="indefinite"/>
  </ellipse>
  <circle cx="32" cy="52" r="2" fill="#FFE082">
    <animate attributeName="opacity" values="0.7;1;0.7" dur="1.3s" repeatCount="indefinite"/>
  </circle>
  
  <!-- Rail tracks -->
  <rect x="26" y="58" width="12" height="2" fill="#424242"/>
  <rect x="27" y="57" width="2" height="1" fill="#616161"/>
  <rect x="31" y="57" width="2" height="1" fill="#616161"/>
  <rect x="35" y="57" width="2" height="1" fill="#616161"/>
  
  <!-- Minecart -->
  <polygon points="48,50 56,50 58,56 46,56" fill="#5D4037"/>
  <polygon points="48,50 56,50 54,54 50,54" fill="#6D4C41"/>
  <circle cx="49" cy="57" r="2" fill="#424242"/>
  <circle cx="55" cy="57" r="2" fill="#424242"/>
  <ellipse cx="52" cy="48" rx="3" ry="2" fill="url(#goldNugget)"/>
  
  <!-- Pickaxe -->
  <line x1="10" y1="24" x2="18" y2="36" stroke="#6D4C41" stroke-width="2.5" stroke-linecap="round"/>
  <polygon points="8,22 12,18 18,24 14,28" fill="#78909C"/>
  <polygon points="8,22 12,18 10,20" fill="#90A4AE"/>
  
  <!-- Lantern -->
  <rect x="22" y="42" width="3" height="4" fill="#FF8F00"/>
  <rect x="21.5" y="41" width="4" height="1.5" fill="#5D4037"/>
  <line x1="23.5" y1="41" x2="23.5" y2="39" stroke="#5D4037" stroke-width="0.5"/>
  <circle cx="23.5" cy="44" r="3" fill="url(#goldGlow)">
    <animate attributeName="opacity" values="0.6;1;0.6" dur="1s" repeatCount="indefinite"/>
  </circle>
  
  <!-- Sparkle stars -->
  <g fill="#FFFFFF">
    <polygon points="30,48 31,50 33,50 31.5,51.5 32,54 30,52.5 28,54 28.5,51.5 27,50 29,50">
      <animate attributeName="opacity" values="0;1;0" dur="2s" repeatCount="indefinite"/>
    </polygon>
    <polygon points="38,50 39,52 41,52 39.5,53.5 40,56 38,54.5 36,56 36.5,53.5 35,52 37,52">
      <animate attributeName="opacity" values="0;1;0" dur="2.5s" repeatCount="indefinite" begin="0.5s"/>
    </polygon>
    <polygon points="26,52 26.5,53 28,53 27,54 27.5,55.5 26,54.5 24.5,55.5 25,54 24,53 25.5,53">
      <animate attributeName="opacity" values="0;1;0" dur="1.8s" repeatCount="indefinite" begin="1s"/>
    </polygon>
  </g>
</svg>
