<?xml version="1.0" encoding="UTF-8"?>
<svg xmlns="http://www.w3.org/2000/svg" viewBox="0 0 128 128" width="128" height="128">
  <!-- Library Level 3 - Futuristic Neural Knowledge Center -->
  <defs>
    <linearGradient id="holoWall" x1="0%" y1="0%" x2="100%" y2="100%">
      <stop offset="0%" style="stop-color:#1A1A2E"/>
      <stop offset="50%" style="stop-color:#16213E"/>
      <stop offset="100%" style="stop-color:#1A1A2E"/>
    </linearGradient>
    <linearGradient id="techFrame" x1="0%" y1="0%" x2="0%" y2="100%">
      <stop offset="0%" style="stop-color:#37474F"/>
      <stop offset="100%" style="stop-color:#263238"/>
    </linearGradient>
    <linearGradient id="sky" x1="0%" y1="0%" x2="0%" y2="100%">
      <stop offset="0%" style="stop-color:#4da6ff"/>
      <stop offset="100%" style="stop-color:#87ceeb"/>
    </linearGradient>
    <linearGradient id="grass" x1="0%" y1="0%" x2="0%" y2="100%">
      <stop offset="0%" style="stop-color:#7cb342"/>
      <stop offset="100%" style="stop-color:#558b2f"/>
    </linearGradient>
    <radialGradient id="dataCore" cx="50%" cy="50%" r="50%">
      <stop offset="0%" style="stop-color:#00E5FF"/>
      <stop offset="100%" style="stop-color:#00E5FF" stop-opacity="0"/>
    </radialGradient>
    <radialGradient id="neuralGlow" cx="50%" cy="50%" r="50%">
      <stop offset="0%" style="stop-color:#E040FB" stop-opacity="0.8"/>
      <stop offset="100%" style="stop-color:#7C4DFF" stop-opacity="0"/>
    </radialGradient>
    <filter id="glow" x="-50%" y="-50%" width="200%" height="200%">
      <feGaussianBlur stdDeviation="2" result="coloredBlur"/>
      <feMerge>
        <feMergeNode in="coloredBlur"/>
        <feMergeNode in="SourceGraphic"/>
      </feMerge>
    </filter>
  </defs>
  
  <!-- Background: Blue sky -->
  <rect width="128" height="128" fill="url(#sky)"/>
  
  <!-- Distant hills -->
  <path d="M-10,78 Q30,65 64,72 Q98,79 138,68 L138,88 L-10,88 Z" fill="#8bc34a" opacity="0.6"/>
  
  <!-- Main ground -->
  <path d="M-10,128 L-10,88 Q30,82 64,85 Q98,88 138,82 L138,128 Z" fill="url(#grass)"/>
  
  <!-- Holographic platform -->
  <ellipse cx="64" cy="100" rx="52" ry="18" fill="#263238"/>
  <ellipse cx="64" cy="100" rx="48" ry="16" fill="none" stroke="#00E5FF" stroke-width="1" opacity="0.5"/>
  
  <!-- Floating building base -->
  <ellipse cx="64" cy="86" rx="42" ry="8" fill="url(#techFrame)"/>
  
  <!-- Main building - hexagonal futuristic shape -->
  <polygon points="64,24 98,38 98,74 64,88 30,74 30,38" fill="url(#holoWall)" stroke="#00E5FF" stroke-width="1" opacity="0.9"/>
  
  <!-- Neural network pattern on building -->
  <g stroke="#00E5FF" stroke-width="0.5" opacity="0.4">
    <line x1="40" y1="45" x2="64" y2="56"/>
    <line x1="88" y1="45" x2="64" y2="56"/>
    <line x1="40" y1="65" x2="64" y2="56"/>
    <line x1="88" y1="65" x2="64" y2="56"/>
    <line x1="64" y1="38" x2="64" y2="56"/>
    <line x1="64" y1="56" x2="64" y2="74"/>
  </g>
  <g fill="#00E5FF">
    <circle cx="40" cy="45" r="2"/>
    <circle cx="88" cy="45" r="2"/>
    <circle cx="40" cy="65" r="2"/>
    <circle cx="88" cy="65" r="2"/>
    <circle cx="64" cy="38" r="2"/>
    <circle cx="64" cy="74" r="2"/>
    <circle cx="64" cy="56" r="4" fill="url(#dataCore)" filter="url(#glow)"/>
  </g>
  
  <!-- Floating data ring -->
  <ellipse cx="64" cy="30" rx="22" ry="6" fill="none" stroke="#E040FB" stroke-width="1.5" opacity="0.7"/>
  <ellipse cx="64" cy="30" rx="16" ry="4" fill="none" stroke="#7C4DFF" stroke-width="1" opacity="0.5"/>
  
  <!-- Central AI knowledge core -->
  <circle cx="64" cy="20" r="6" fill="url(#neuralGlow)" filter="url(#glow)"/>
  <circle cx="64" cy="20" r="3" fill="#E040FB"/>
  
  <!-- Holographic data streams - left -->
  <g stroke="#00E5FF" stroke-width="0.5" opacity="0.6">
    <line x1="30" y1="42" x2="22" y2="48"/>
    <line x1="30" y1="52" x2="18" y2="56"/>
    <line x1="30" y1="62" x2="22" y2="68"/>
  </g>
  <g fill="#00E5FF" opacity="0.6">
    <circle cx="20" cy="48" r="1.5"/>
    <circle cx="16" cy="56" r="1.5"/>
    <circle cx="20" cy="68" r="1.5"/>
  </g>
  
  <!-- Holographic data streams - right -->
  <g stroke="#00E5FF" stroke-width="0.5" opacity="0.6">
    <line x1="98" y1="42" x2="106" y2="48"/>
    <line x1="98" y1="52" x2="110" y2="56"/>
    <line x1="98" y1="62" x2="106" y2="68"/>
  </g>
  <g fill="#00E5FF" opacity="0.6">
    <circle cx="108" cy="48" r="1.5"/>
    <circle cx="112" cy="56" r="1.5"/>
    <circle cx="108" cy="68" r="1.5"/>
  </g>
  
  <!-- Knowledge access terminals -->
  <rect x="34" y="76" width="12" height="8" fill="#1A1A2E" rx="1"/>
  <rect x="36" y="77" width="8" height="5" fill="#00E5FF" opacity="0.3"/>
  <rect x="82" y="76" width="12" height="8" fill="#1A1A2E" rx="1"/>
  <rect x="84" y="77" width="8" height="5" fill="#E040FB" opacity="0.3"/>
  
  <!-- Floating holographic books -->
  <g transform="translate(48, 68)">
    <rect x="0" y="0" width="4" height="8" fill="#00E5FF" opacity="0.4"/>
    <rect x="6" y="0" width="4" height="8" fill="#E040FB" opacity="0.4"/>
    <rect x="12" y="0" width="4" height="8" fill="#7C4DFF" opacity="0.4"/>
    <rect x="18" y="0" width="4" height="8" fill="#00E5FF" opacity="0.4"/>
    <rect x="24" y="0" width="4" height="8" fill="#E040FB" opacity="0.4"/>
  </g>
  
  <!-- Energy pylons -->
  <rect x="12" y="70" width="4" height="20" fill="url(#techFrame)"/>
  <circle cx="14" cy="68" r="3" fill="#E040FB" filter="url(#glow)"/>
  <line x1="14" y1="72" x2="14" y2="88" stroke="#E040FB" stroke-width="1" opacity="0.6"/>
  
  <rect x="112" y="70" width="4" height="20" fill="url(#techFrame)"/>
  <circle cx="114" cy="68" r="3" fill="#E040FB" filter="url(#glow)"/>
  <line x1="114" y1="72" x2="114" y2="88" stroke="#E040FB" stroke-width="1" opacity="0.6"/>
  
  <!-- Floating visitor avatars -->
  <ellipse cx="44" cy="98" rx="3" ry="4" fill="#00E5FF" opacity="0.5"/>
  <circle cx="44" cy="93" r="2" fill="#00E5FF" opacity="0.7"/>
  
  <ellipse cx="84" cy="98" rx="3" ry="4" fill="#E040FB" opacity="0.5"/>
  <circle cx="84" cy="93" r="2" fill="#E040FB" opacity="0.7"/>
  
  <!-- Ground energy lines -->
  <line x1="20" y1="98" x2="40" y2="98" stroke="#00E5FF" stroke-width="0.5" opacity="0.4"/>
  <line x1="88" y1="98" x2="108" y2="98" stroke="#E040FB" stroke-width="0.5" opacity="0.4"/>
  
  <!-- Ambient data particles -->
  <circle cx="28" cy="40" r="1" fill="#00E5FF" opacity="0.6"/>
  <circle cx="100" cy="50" r="1" fill="#E040FB" opacity="0.6"/>
  <circle cx="52" cy="22" r="1" fill="#7C4DFF" opacity="0.6"/>
  <circle cx="76" cy="22" r="1" fill="#00E5FF" opacity="0.6"/>
  
  <!-- Top antenna array -->
  <line x1="64" y1="14" x2="64" y2="8" stroke="#455A64" stroke-width="1.5"/>
  <circle cx="64" cy="6" r="2" fill="#00E5FF"/>
  <line x1="56" y1="14" x2="52" y2="8" stroke="#455A64" stroke-width="1"/>
  <circle cx="50" cy="6" r="1.5" fill="#E040FB"/>
  <line x1="72" y1="14" x2="76" y2="8" stroke="#455A64" stroke-width="1"/>
  <circle cx="78" cy="6" r="1.5" fill="#E040FB"/>
</svg>
