<svg xmlns="http://www.w3.org/2000/svg" viewBox="0 0 128 128" width="128" height="128">
  <!-- Market with bustling crowd animation - High Quality 128x128 Version -->
  <defs>
    <linearGradient id="stoneGround" x1="0%" y1="0%" x2="100%" y2="100%">
      <stop offset="0%" style="stop-color:#BDBDBD"/>
      <stop offset="50%" style="stop-color:#9E9E9E"/>
      <stop offset="100%" style="stop-color:#757575"/>
    </linearGradient>
    <linearGradient id="skyGradient" x1="0%" y1="0%" x2="0%" y2="100%">
      <stop offset="0%" style="stop-color:#87CEEB"/>
      <stop offset="100%" style="stop-color:#E0F7FA"/>
    </linearGradient>
    <linearGradient id="redAwning" x1="0%" y1="0%" x2="0%" y2="100%">
      <stop offset="0%" style="stop-color:#E53935"/>
      <stop offset="50%" style="stop-color:#C62828"/>
      <stop offset="100%" style="stop-color:#B71C1C"/>
    </linearGradient>
    <linearGradient id="blueAwning" x1="0%" y1="0%" x2="0%" y2="100%">
      <stop offset="0%" style="stop-color:#1E88E5"/>
      <stop offset="50%" style="stop-color:#1565C0"/>
      <stop offset="100%" style="stop-color:#0D47A1"/>
    </linearGradient>
    <linearGradient id="greenAwning" x1="0%" y1="0%" x2="0%" y2="100%">
      <stop offset="0%" style="stop-color:#43A047"/>
      <stop offset="50%" style="stop-color:#2E7D32"/>
      <stop offset="100%" style="stop-color:#1B5E20"/>
    </linearGradient>
    <linearGradient id="woodStall" x1="0%" y1="0%" x2="100%" y2="0%">
      <stop offset="0%" style="stop-color:#8D6E63"/>
      <stop offset="50%" style="stop-color:#795548"/>
      <stop offset="100%" style="stop-color:#6D4C41"/>
    </linearGradient>
    <linearGradient id="woodDark" x1="0%" y1="0%" x2="0%" y2="100%">
      <stop offset="0%" style="stop-color:#6D4C41"/>
      <stop offset="100%" style="stop-color:#4E342E"/>
    </linearGradient>
    <linearGradient id="goldCoin" x1="0%" y1="0%" x2="100%" y2="100%">
      <stop offset="0%" style="stop-color:#FFD54F"/>
      <stop offset="50%" style="stop-color:#FFC107"/>
      <stop offset="100%" style="stop-color:#FF8F00"/>
    </linearGradient>
    <linearGradient id="silverCoin" x1="0%" y1="0%" x2="100%" y2="100%">
      <stop offset="0%" style="stop-color:#E0E0E0"/>
      <stop offset="50%" style="stop-color:#BDBDBD"/>
      <stop offset="100%" style="stop-color:#9E9E9E"/>
    </linearGradient>
    <radialGradient id="fruitRed" cx="30%" cy="30%" r="70%">
      <stop offset="0%" style="stop-color:#EF5350"/>
      <stop offset="100%" style="stop-color:#C62828"/>
    </radialGradient>
    <radialGradient id="fruitOrange" cx="30%" cy="30%" r="70%">
      <stop offset="0%" style="stop-color:#FFA726"/>
      <stop offset="100%" style="stop-color:#E65100"/>
    </radialGradient>
    <radialGradient id="fruitGreen" cx="30%" cy="30%" r="70%">
      <stop offset="0%" style="stop-color:#66BB6A"/>
      <stop offset="100%" style="stop-color:#2E7D32"/>
    </radialGradient>
    <radialGradient id="fruitYellow" cx="30%" cy="30%" r="70%">
      <stop offset="0%" style="stop-color:#FFEE58"/>
      <stop offset="100%" style="stop-color:#FBC02D"/>
    </radialGradient>
    <radialGradient id="fruitPurple" cx="30%" cy="30%" r="70%">
      <stop offset="0%" style="stop-color:#BA68C8"/>
      <stop offset="100%" style="stop-color:#7B1FA2"/>
    </radialGradient>
    <radialGradient id="skinTone" cx="30%" cy="30%" r="70%">
      <stop offset="0%" style="stop-color:#FFCC80"/>
      <stop offset="100%" style="stop-color:#E8B866"/>
    </radialGradient>
    <!-- Shadow filters -->
    <filter id="dropShadow" x="-20%" y="-20%" width="140%" height="140%">
      <feDropShadow dx="2" dy="4" stdDeviation="3" flood-opacity="0.3"/>
    </filter>
    <filter id="softShadow" x="-10%" y="-10%" width="120%" height="120%">
      <feDropShadow dx="1" dy="2" stdDeviation="1.5" flood-opacity="0.2"/>
    </filter>
  </defs>
  
  <!-- Sky background -->
  <rect x="0" y="0" width="128" height="96" fill="url(#skyGradient)"/>
  
  <!-- Animated clouds -->
  <ellipse cx="20" cy="16" rx="12" ry="6" fill="#FFFFFF" opacity="0.8">
    <animate attributeName="cx" values="20;35;20" dur="20s" repeatCount="indefinite"/>
  </ellipse>
  <ellipse cx="30" cy="14" rx="8" ry="5" fill="#FFFFFF" opacity="0.8">
    <animate attributeName="cx" values="30;45;30" dur="20s" repeatCount="indefinite"/>
  </ellipse>
  <ellipse cx="100" cy="10" rx="10" ry="5" fill="#FFFFFF" opacity="0.7">
    <animate attributeName="cx" values="100;85;100" dur="25s" repeatCount="indefinite"/>
  </ellipse>
  
  <!-- Ground / Plaza -->
  <rect x="0" y="96" width="128" height="32" fill="url(#stoneGround)"/>
  <line x1="0" y1="104" x2="128" y2="104" stroke="#757575" stroke-width="1"/>
  <line x1="0" y1="112" x2="128" y2="112" stroke="#757575" stroke-width="1"/>
  <line x1="0" y1="120" x2="128" y2="120" stroke="#757575" stroke-width="1"/>
  <line x1="16" y1="96" x2="16" y2="128" stroke="#757575" stroke-width="1"/>
  <line x1="32" y1="96" x2="32" y2="128" stroke="#757575" stroke-width="1"/>
  <line x1="48" y1="96" x2="48" y2="128" stroke="#757575" stroke-width="1"/>
  <line x1="64" y1="96" x2="64" y2="128" stroke="#757575" stroke-width="1"/>
  <line x1="80" y1="96" x2="80" y2="128" stroke="#757575" stroke-width="1"/>
  <line x1="96" y1="96" x2="96" y2="128" stroke="#757575" stroke-width="1"/>
  <line x1="112" y1="96" x2="112" y2="128" stroke="#757575" stroke-width="1"/>
  
  <!-- Stall shadows on ground -->
  <ellipse cx="22" cy="108" rx="20" ry="4" fill="#000000" opacity="0.15"/>
  <ellipse cx="64" cy="108" rx="22" ry="5" fill="#000000" opacity="0.15"/>
  <ellipse cx="106" cy="108" rx="20" ry="4" fill="#000000" opacity="0.15"/>
  
  <!-- Left stall (fruit) -->
  <rect x="4" y="72" width="36" height="36" fill="url(#woodStall)" filter="url(#softShadow)"/>
  <rect x="4" y="72" width="36" height="4" fill="#5D4037"/>
  <line x1="4" y1="80" x2="40" y2="80" stroke="#6D4C41" stroke-width="0.5"/>
  <line x1="4" y1="88" x2="40" y2="88" stroke="#6D4C41" stroke-width="0.5"/>
  
  <!-- Red awning with animated sway -->
  <g>
    <animateTransform attributeName="transform" type="rotate" values="-0.5 22 56;0.5 22 56;-0.5 22 56" dur="4s" repeatCount="indefinite"/>
    <polygon points="0,56 44,56 40,72 4,72" fill="url(#redAwning)" filter="url(#dropShadow)"/>
    <polygon points="0,56 8,56 12,72 4,72" fill="#FFCDD2" opacity="0.3"/>
    <polygon points="16,56 24,56 28,72 20,72" fill="#FFCDD2" opacity="0.3"/>
    <polygon points="32,56 44,56 40,72 36,72" fill="#FFCDD2" opacity="0.3"/>
    <path d="M4 72 Q7 76, 10 72 Q13 76, 16 72 Q19 76, 22 72 Q25 76, 28 72 Q31 76, 34 72 Q37 76, 40 72" fill="url(#redAwning)"/>
  </g>
  <rect x="6" y="56" width="4" height="52" fill="url(#woodDark)"/>
  <rect x="34" y="56" width="4" height="52" fill="url(#woodDark)"/>
  
  <!-- Fruits display with subtle bounce -->
  <circle cx="12" cy="84" r="5" fill="url(#fruitRed)">
    <animate attributeName="r" values="5;5.2;5" dur="2s" repeatCount="indefinite"/>
  </circle>
  <circle cx="22" cy="84" r="5" fill="url(#fruitRed)"/>
  <circle cx="17" cy="80" r="5" fill="url(#fruitRed)"/>
  <circle cx="30" cy="84" r="4" fill="url(#fruitOrange)"/>
  <circle cx="26" cy="80" r="4" fill="url(#fruitOrange)"/>
  <circle cx="12" cy="94" r="4" fill="url(#fruitGreen)"/>
  <circle cx="20" cy="94" r="4" fill="url(#fruitGreen)"/>
  <circle cx="28" cy="94" r="4" fill="url(#fruitGreen)"/>
  <circle cx="16" cy="90" r="3" fill="url(#fruitGreen)"/>
  <circle cx="24" cy="90" r="3" fill="url(#fruitGreen)"/>
  <ellipse cx="34" cy="92" rx="4" ry="3" fill="url(#fruitYellow)"/>
  <ellipse cx="34" cy="86" rx="3" ry="2.5" fill="url(#fruitYellow)"/>
  <!-- Grapes with shimmer -->
  <g>
    <animate attributeName="opacity" values="1;0.9;1" dur="1.5s" repeatCount="indefinite"/>
    <circle cx="10" cy="100" r="2" fill="url(#fruitPurple)"/>
    <circle cx="13" cy="99" r="2" fill="url(#fruitPurple)"/>
    <circle cx="11" cy="97" r="2" fill="url(#fruitPurple)"/>
    <circle cx="14" cy="97" r="2" fill="url(#fruitPurple)"/>
  </g>
  
  <!-- Center stall (goods/cloth) -->
  <rect x="46" y="60" width="36" height="48" fill="url(#woodStall)" filter="url(#softShadow)"/>
  <rect x="46" y="60" width="36" height="4" fill="#5D4037"/>
  <line x1="46" y1="72" x2="82" y2="72" stroke="#6D4C41" stroke-width="0.5"/>
  <line x1="46" y1="84" x2="82" y2="84" stroke="#6D4C41" stroke-width="0.5"/>
  
  <!-- Blue awning with animated sway -->
  <g>
    <animateTransform attributeName="transform" type="rotate" values="0.5 64 44;-0.5 64 44;0.5 64 44" dur="5s" repeatCount="indefinite"/>
    <polygon points="42,44 86,44 82,60 46,60" fill="url(#blueAwning)" filter="url(#dropShadow)"/>
    <polygon points="42,44 50,44 54,60 46,60" fill="#BBDEFB" opacity="0.3"/>
    <polygon points="58,44 66,44 70,60 62,60" fill="#BBDEFB" opacity="0.3"/>
    <polygon points="74,44 86,44 82,60 78,60" fill="#BBDEFB" opacity="0.3"/>
    <path d="M46 60 Q49 64, 52 60 Q55 64, 58 60 Q61 64, 64 60 Q67 64, 70 60 Q73 64, 76 60 Q79 64, 82 60" fill="url(#blueAwning)"/>
  </g>
  <rect x="48" y="44" width="4" height="64" fill="url(#woodDark)"/>
  <rect x="76" y="44" width="4" height="64" fill="url(#woodDark)"/>
  
  <!-- Cloth rolls display with shimmer -->
  <ellipse cx="58" cy="76" rx="8" ry="4" fill="#7B1FA2">
    <animate attributeName="opacity" values="1;0.95;1" dur="3s" repeatCount="indefinite"/>
  </ellipse>
  <ellipse cx="58" cy="72" rx="8" ry="3" fill="#9C27B0"/>
  <ellipse cx="70" cy="76" rx="8" ry="4" fill="#C62828"/>
  <ellipse cx="70" cy="72" rx="8" ry="3" fill="#E53935"/>
  <ellipse cx="64" cy="92" rx="10" ry="4" fill="#1565C0"/>
  <ellipse cx="64" cy="88" rx="10" ry="3" fill="#1E88E5"/>
  <ellipse cx="54" cy="84" rx="6" ry="3" fill="#00897B"/>
  <ellipse cx="54" cy="81" rx="6" ry="2" fill="#26A69A"/>
  <ellipse cx="74" cy="84" rx="6" ry="3" fill="#FF8F00"/>
  <ellipse cx="74" cy="81" rx="6" ry="2" fill="#FFB300"/>
  <rect x="56" y="96" width="16" height="6" rx="1" fill="#E91E63"/>
  <rect x="56" y="100" width="16" height="4" rx="1" fill="#9C27B0"/>
  
  <!-- Right stall (pottery) -->
  <rect x="88" y="68" width="36" height="40" fill="url(#woodStall)" filter="url(#softShadow)"/>
  <rect x="88" y="68" width="36" height="4" fill="#5D4037"/>
  <line x1="88" y1="80" x2="124" y2="80" stroke="#6D4C41" stroke-width="0.5"/>
  
  <!-- Green awning with animated sway -->
  <g>
    <animateTransform attributeName="transform" type="rotate" values="-0.3 106 52;0.3 106 52;-0.3 106 52" dur="4.5s" repeatCount="indefinite"/>
    <polygon points="84,52 128,52 124,68 88,68" fill="url(#greenAwning)" filter="url(#dropShadow)"/>
    <polygon points="84,52 92,52 96,68 88,68" fill="#C8E6C9" opacity="0.3"/>
    <polygon points="100,52 108,52 112,68 104,68" fill="#C8E6C9" opacity="0.3"/>
    <polygon points="116,52 128,52 124,68 120,68" fill="#C8E6C9" opacity="0.3"/>
    <path d="M88 68 Q91 72, 94 68 Q97 72, 100 68 Q103 72, 106 68 Q109 72, 112 68 Q115 72, 118 68 Q121 72, 124 68" fill="url(#greenAwning)"/>
  </g>
  <rect x="90" y="52" width="4" height="56" fill="url(#woodDark)"/>
  <rect x="118" y="52" width="4" height="56" fill="url(#woodDark)"/>
  
  <!-- Pottery display -->
  <ellipse cx="98" cy="100" rx="4" ry="2" fill="#8D6E63"/>
  <ellipse cx="98" cy="88" rx="6" ry="10" fill="#A1887F"/>
  <ellipse cx="98" cy="80" rx="4" ry="2" fill="#795548"/>
  <ellipse cx="98" cy="76" rx="3" ry="1" fill="#8D6E63"/>
  <path d="M92 88 Q98 92, 104 88" fill="none" stroke="#5D4037" stroke-width="1"/>
  <path d="M92 84 Q98 80, 104 84" fill="none" stroke="#5D4037" stroke-width="1"/>
  <ellipse cx="114" cy="100" rx="4" ry="2" fill="#8D6E63"/>
  <ellipse cx="114" cy="92" rx="5" ry="7" fill="#BCAAA4"/>
  <ellipse cx="114" cy="86" rx="3" ry="1.5" fill="#8D6E63"/>
  <path d="M109 92 Q107 88, 109 84" fill="none" stroke="#8D6E63" stroke-width="2"/>
  <path d="M119 92 Q121 88, 119 84" fill="none" stroke="#8D6E63" stroke-width="2"/>
  <ellipse cx="106" cy="100" rx="3" ry="1.5" fill="#6D4C41"/>
  <ellipse cx="106" cy="96" rx="4" ry="4" fill="#8D6E63"/>
  
  <!-- Hanging goods with sway -->
  <g>
    <animateTransform attributeName="transform" type="rotate" values="-5 96 68;5 96 68;-5 96 68" dur="2s" repeatCount="indefinite"/>
    <circle cx="96" cy="76" r="3" fill="#FFEB3B"/>
    <line x1="96" y1="68" x2="96" y2="74" stroke="#5D4037" stroke-width="1"/>
  </g>
  <g>
    <animateTransform attributeName="transform" type="rotate" values="3 104 68;-3 104 68;3 104 68" dur="2.3s" repeatCount="indefinite"/>
    <circle cx="104" cy="74" r="3" fill="#FF7043"/>
    <line x1="104" y1="68" x2="104" y2="72" stroke="#5D4037" stroke-width="1"/>
  </g>
  <g>
    <animateTransform attributeName="transform" type="rotate" values="-4 116 68;4 116 68;-4 116 68" dur="1.8s" repeatCount="indefinite"/>
    <circle cx="116" cy="76" r="2.5" fill="#4CAF50"/>
    <line x1="116" y1="68" x2="116" y2="74" stroke="#5D4037" stroke-width="1"/>
  </g>
  
  <!-- Animated people/crowd -->
  <!-- Person 1 - walking left with arm swing -->
  <g>
    <animateTransform attributeName="transform" type="translate" values="0,0;-20,0;0,0" dur="4s" repeatCount="indefinite"/>
    <circle cx="40" cy="108" r="6" fill="url(#skinTone)"/>
    <ellipse cx="38" cy="106" rx="1.2" ry="0.8" fill="#5D4037"/>
    <ellipse cx="42" cy="106" rx="1.2" ry="0.8" fill="#5D4037"/>
    <path d="M37 110 Q40 111, 43 110" fill="none" stroke="#795548" stroke-width="0.5"/>
    <rect x="36" y="114" width="8" height="10" fill="#1976D2" rx="1"/>
    <rect x="35" y="124" width="4" height="4" fill="#1565C0"/>
    <rect x="41" y="124" width="4" height="4" fill="#1565C0">
      <animate attributeName="x" values="41;39;41" dur="0.5s" repeatCount="indefinite"/>
    </rect>
    <!-- Walking arm -->
    <rect x="33" y="116" width="3" height="8" fill="url(#skinTone)" rx="1">
      <animateTransform attributeName="transform" type="rotate" values="-15 34 116;15 34 116;-15 34 116" dur="0.5s" repeatCount="indefinite"/>
    </rect>
  </g>
  
  <!-- Person 2 - walking right with bag -->
  <g>
    <animateTransform attributeName="transform" type="translate" values="0,0;20,0;0,0" dur="3.5s" repeatCount="indefinite"/>
    <circle cx="88" cy="112" r="6" fill="url(#skinTone)"/>
    <ellipse cx="86" cy="110" rx="1.2" ry="0.8" fill="#5D4037"/>
    <ellipse cx="90" cy="110" rx="1.2" ry="0.8" fill="#5D4037"/>
    <rect x="84" y="118" width="8" height="10" fill="#E91E63" rx="1"/>
    <rect x="83" y="128" width="4" height="3" fill="#C2185B"/>
    <rect x="89" y="128" width="4" height="3" fill="#C2185B"/>
    <!-- Shopping bag -->
    <rect x="93" y="116" width="6" height="8" fill="#8D6E63" rx="1"/>
    <path d="M94 116 Q96 113, 98 116" fill="none" stroke="#6D4C41" stroke-width="1"/>
    <circle cx="96" cy="119" r="1.5" fill="url(#fruitRed)"/>
  </g>
  
  <!-- Person 3 - shopping, nodding and pointing -->
  <g>
    <circle cx="64" cy="112" r="5" fill="url(#skinTone)">
      <animate attributeName="cy" values="112;110;112" dur="1.5s" repeatCount="indefinite"/>
    </circle>
    <ellipse cx="62" cy="110" rx="1" ry="0.6" fill="#5D4037"/>
    <ellipse cx="66" cy="110" rx="1" ry="0.6" fill="#5D4037"/>
    <rect x="60" y="116" width="8" height="10" fill="#4CAF50" rx="1"/>
    <!-- Pointing arm -->
    <rect x="68" y="117" width="8" height="3" fill="url(#skinTone)" rx="1">
      <animate attributeName="width" values="8;10;8" dur="1.5s" repeatCount="indefinite"/>
    </rect>
    <!-- Shopping basket -->
    <ellipse cx="56" cy="122" rx="4" ry="3" fill="#8D6E63"/>
    <path d="M52 122 Q52 116, 56 116 Q60 116, 60 122" fill="none" stroke="#6D4C41" stroke-width="2"/>
    <circle cx="55" cy="119" r="1.5" fill="url(#fruitRed)"/>
    <circle cx="57" cy="118" r="1.5" fill="url(#fruitOrange)"/>
  </g>
  
  <!-- Person 4 - child running -->
  <g>
    <animateTransform attributeName="transform" type="translate" values="-30,0;30,0;-30,0" dur="5s" repeatCount="indefinite"/>
    <circle cx="20" cy="118" r="4" fill="url(#skinTone)"/>
    <ellipse cx="19" cy="117" rx="0.8" ry="0.5" fill="#5D4037"/>
    <ellipse cx="21" cy="117" rx="0.8" ry="0.5" fill="#5D4037"/>
    <rect x="17" y="122" width="6" height="6" fill="#FFEB3B" rx="1"/>
    <rect x="16" y="128" width="3" height="2" fill="#8D6E63">
      <animate attributeName="x" values="16;18;16" dur="0.3s" repeatCount="indefinite"/>
    </rect>
    <rect x="21" y="128" width="3" height="2" fill="#8D6E63">
      <animate attributeName="x" values="21;19;21" dur="0.3s" repeatCount="indefinite"/>
    </rect>
  </g>
  
  <!-- Vendor waving -->
  <g transform="translate(22, 80)">
    <circle cx="0" cy="0" r="4" fill="url(#skinTone)"/>
    <rect x="-3" y="4" width="6" height="8" fill="#795548" rx="1"/>
    <!-- Waving arm -->
    <rect x="3" y="2" width="6" height="2.5" fill="url(#skinTone)" rx="1">
      <animateTransform attributeName="transform" type="rotate" values="-20 3 2;20 3 2;-20 3 2" dur="0.8s" repeatCount="indefinite"/>
    </rect>
  </g>
  
  <!-- Animated floating coins (transaction) -->
  <circle cx="72" cy="100" r="4" fill="url(#goldCoin)">
    <animate attributeName="cx" values="72;56;72" dur="2.5s" repeatCount="indefinite"/>
    <animate attributeName="cy" values="100;96;100" dur="2.5s" repeatCount="indefinite"/>
    <animate attributeName="opacity" values="0;1;1;0" dur="2.5s" repeatCount="indefinite"/>
  </circle>
  <circle cx="104" cy="76" r="3" fill="url(#goldCoin)">
    <animate attributeName="opacity" values="1;0.5;1" dur="1s" repeatCount="indefinite"/>
  </circle>
  <circle cx="66" cy="118" r="3" fill="url(#goldCoin)">
    <animate attributeName="cy" values="118;114;118" dur="1.2s" repeatCount="indefinite"/>
  </circle>
  <circle cx="62" cy="122" r="2.5" fill="url(#silverCoin)">
    <animate attributeName="opacity" values="1;0.7;1" dur="0.8s" repeatCount="indefinite"/>
  </circle>
  
  <!-- Banner/Sign with gentle sway -->
  <g>
    <animateTransform attributeName="transform" type="rotate" values="-1 64 12;1 64 12;-1 64 12" dur="3s" repeatCount="indefinite"/>
    <rect x="56" y="20" width="16" height="20" fill="#FFEB3B" filter="url(#softShadow)"/>
    <polygon points="56,40 64,34 72,40" fill="#FFEB3B"/>
    <rect x="62" y="12" width="4" height="32" fill="url(#woodDark)"/>
    <text x="64" y="32" text-anchor="middle" font-size="8" fill="#5D4037" font-weight="bold">$</text>
    <rect x="58" y="22" width="12" height="16" fill="none" stroke="#D4AC0D" stroke-width="1"/>
  </g>
  
  <!-- Flying birds with wing flap -->
  <path d="M16 28 Q20 24, 24 28 Q20 26, 16 28" fill="none" stroke="#424242" stroke-width="1.5">
    <animate attributeName="d" values="M16 28 Q20 24, 24 28 Q20 26, 16 28;M16 24 Q20 28, 24 24 Q20 26, 16 24;M16 28 Q20 24, 24 28 Q20 26, 16 28" dur="0.5s" repeatCount="indefinite"/>
    <animateTransform attributeName="transform" type="translate" values="0,0;15,-5;0,0" dur="8s" repeatCount="indefinite"/>
  </path>
  <path d="M104 20 Q108 16, 112 20 Q108 18, 104 20" fill="none" stroke="#424242" stroke-width="1.5">
    <animate attributeName="d" values="M104 20 Q108 16, 112 20 Q108 18, 104 20;M104 16 Q108 20, 112 16 Q108 18, 104 16;M104 20 Q108 16, 112 20 Q108 18, 104 20" dur="0.6s" repeatCount="indefinite"/>
    <animateTransform attributeName="transform" type="translate" values="0,0;-20,-3;0,0" dur="10s" repeatCount="indefinite"/>
  </path>
  <path d="M88 12 Q90 10, 92 12 Q90 11, 88 12" fill="none" stroke="#616161" stroke-width="1">
    <animate attributeName="d" values="M88 12 Q90 10, 92 12 Q90 11, 88 12;M88 10 Q90 12, 92 10 Q90 11, 88 10;M88 12 Q90 10, 92 12 Q90 11, 88 12" dur="0.4s" repeatCount="indefinite"/>
  </path>
  
  <!-- Speech bubbles appearing -->
  <ellipse cx="76" cy="104" rx="6" ry="3" fill="#FFFFFF" opacity="0.8">
    <animate attributeName="opacity" values="0;0.9;0.9;0" dur="4s" repeatCount="indefinite"/>
  </ellipse>
  <text x="76" y="105" text-anchor="middle" font-size="4" fill="#424242">
    <animate attributeName="opacity" values="0;1;1;0" dur="4s" repeatCount="indefinite"/>
    !!
  </text>
  
  <ellipse cx="30" cy="100" rx="5" ry="2.5" fill="#FFFFFF" opacity="0.8">
    <animate attributeName="opacity" values="0;0;0.9;0.9;0" dur="5s" repeatCount="indefinite"/>
  </ellipse>
  <text x="30" y="101" text-anchor="middle" font-size="3" fill="#424242">
    <animate attributeName="opacity" values="0;0;1;1;0" dur="5s" repeatCount="indefinite"/>
    ?
  </text>
  
  <!-- Decorative lanterns with glow -->
  <g>
    <rect x="18" y="50" width="6" height="8" rx="1" fill="#FF5722">
      <animate attributeName="opacity" values="1;0.85;1" dur="1.5s" repeatCount="indefinite"/>
    </rect>
    <line x1="21" y1="48" x2="21" y2="50" stroke="#5D4037" stroke-width="1"/>
    <ellipse cx="21" cy="54" rx="4" ry="3" fill="#FF5722" opacity="0.3">
      <animate attributeName="opacity" values="0.3;0.15;0.3" dur="1.5s" repeatCount="indefinite"/>
    </ellipse>
  </g>
  <g>
    <rect x="104" y="46" width="6" height="8" rx="1" fill="#FFEB3B">
      <animate attributeName="opacity" values="1;0.9;1" dur="1.2s" repeatCount="indefinite"/>
    </rect>
    <line x1="107" y1="44" x2="107" y2="46" stroke="#5D4037" stroke-width="1"/>
    <ellipse cx="107" cy="50" rx="4" ry="3" fill="#FFEB3B" opacity="0.3">
      <animate attributeName="opacity" values="0.3;0.2;0.3" dur="1.2s" repeatCount="indefinite"/>
    </ellipse>
  </g>
  
  <!-- Baskets on ground -->
  <ellipse cx="40" cy="112" rx="6" ry="3" fill="#8D6E63"/>
  <path d="M34 112 Q34 104, 40 104 Q46 104, 46 112" fill="none" stroke="#6D4C41" stroke-width="3"/>
  <circle cx="38" cy="108" r="2" fill="url(#fruitRed)"/>
  <circle cx="42" cy="108" r="2" fill="url(#fruitOrange)"/>
  <circle cx="40" cy="106" r="2" fill="url(#fruitGreen)"/>
</svg>
