<?xml version="1.0" encoding="UTF-8"?>
<svg xmlns="http://www.w3.org/2000/svg" viewBox="0 0 128 128" width="128" height="128">
  <!-- Market Level 2 (Animated) - Modern Shopping Mall -->
  <defs>
    <linearGradient id="glassStore" x1="0%" y1="0%" x2="100%" y2="100%">
      <stop offset="0%" style="stop-color:#E3F2FD"/>
      <stop offset="50%" style="stop-color:#BBDEFB"/>
      <stop offset="100%" style="stop-color:#E3F2FD"/>
    </linearGradient>
    <linearGradient id="steelFrame" x1="0%" y1="0%" x2="0%" y2="100%">
      <stop offset="0%" style="stop-color:#78909C"/>
      <stop offset="50%" style="stop-color:#90A4AE"/>
      <stop offset="100%" style="stop-color:#607D8B"/>
    </linearGradient>
    <linearGradient id="mallRoof" x1="0%" y1="0%" x2="0%" y2="100%">
      <stop offset="0%" style="stop-color:#455A64"/>
      <stop offset="100%" style="stop-color:#37474F"/>
    </linearGradient>
    <linearGradient id="sky" x1="0%" y1="0%" x2="0%" y2="100%">
      <stop offset="0%" style="stop-color:#4da6ff"/>
      <stop offset="100%" style="stop-color:#87ceeb"/>
    </linearGradient>
    <linearGradient id="grass" x1="0%" y1="0%" x2="0%" y2="100%">
      <stop offset="0%" style="stop-color:#7cb342"/>
      <stop offset="100%" style="stop-color:#558b2f"/>
    </linearGradient>
    <linearGradient id="escalator" x1="0%" y1="0%" x2="100%" y2="100%">
      <stop offset="0%" style="stop-color:#90A4AE"/>
      <stop offset="100%" style="stop-color:#78909C"/>
    </linearGradient>
    <filter id="glow" x="-50%" y="-50%" width="200%" height="200%">
      <feGaussianBlur stdDeviation="1" result="coloredBlur"/>
      <feMerge>
        <feMergeNode in="coloredBlur"/>
        <feMergeNode in="SourceGraphic"/>
      </feMerge>
    </filter>
    <!-- Additional gradients for depth -->
    <linearGradient id="parkingLot" x1="0%" y1="0%" x2="0%" y2="100%">
      <stop offset="0%" style="stop-color:#607D8B"/>
      <stop offset="50%" style="stop-color:#546E7A"/>
      <stop offset="100%" style="stop-color:#455A64"/>
    </linearGradient>
    <linearGradient id="carRed" x1="0%" y1="0%" x2="0%" y2="100%">
      <stop offset="0%" style="stop-color:#EF5350"/>
      <stop offset="100%" style="stop-color:#C62828"/>
    </linearGradient>
    <linearGradient id="carBlue" x1="0%" y1="0%" x2="0%" y2="100%">
      <stop offset="0%" style="stop-color:#42A5F5"/>
      <stop offset="100%" style="stop-color:#1565C0"/>
    </linearGradient>
    <linearGradient id="carWhite" x1="0%" y1="0%" x2="0%" y2="100%">
      <stop offset="0%" style="stop-color:#FFFFFF"/>
      <stop offset="100%" style="stop-color:#CFD8DC"/>
    </linearGradient>
    <linearGradient id="carGreen" x1="0%" y1="0%" x2="0%" y2="100%">
      <stop offset="0%" style="stop-color:#66BB6A"/>
      <stop offset="100%" style="stop-color:#2E7D32"/>
    </linearGradient>
    <linearGradient id="carYellow" x1="0%" y1="0%" x2="0%" y2="100%">
      <stop offset="0%" style="stop-color:#FFEE58"/>
      <stop offset="100%" style="stop-color:#F9A825"/>
    </linearGradient>
    <linearGradient id="planter" x1="0%" y1="0%" x2="0%" y2="100%">
      <stop offset="0%" style="stop-color:#A1887F"/>
      <stop offset="100%" style="stop-color:#6D4C41"/>
    </linearGradient>
    <linearGradient id="plantLeaves" x1="0%" y1="0%" x2="0%" y2="100%">
      <stop offset="0%" style="stop-color:#81C784"/>
      <stop offset="50%" style="stop-color:#66BB6A"/>
      <stop offset="100%" style="stop-color:#43A047"/>
    </linearGradient>
    <linearGradient id="bench" x1="0%" y1="0%" x2="0%" y2="100%">
      <stop offset="0%" style="stop-color:#8D6E63"/>
      <stop offset="100%" style="stop-color:#5D4037"/>
    </linearGradient>
    <linearGradient id="fountain" x1="0%" y1="0%" x2="0%" y2="100%">
      <stop offset="0%" style="stop-color:#81D4FA"/>
      <stop offset="100%" style="stop-color:#0288D1"/>
    </linearGradient>
    <linearGradient id="person1" x1="0%" y1="0%" x2="0%" y2="100%">
      <stop offset="0%" style="stop-color:#FFCC80"/>
      <stop offset="100%" style="stop-color:#FFB74D"/>
    </linearGradient>
    <linearGradient id="person2" x1="0%" y1="0%" x2="0%" y2="100%">
      <stop offset="0%" style="stop-color:#B0BEC5"/>
      <stop offset="100%" style="stop-color:#78909C"/>
    </linearGradient>
    <linearGradient id="shoppingBag1" x1="0%" y1="0%" x2="0%" y2="100%">
      <stop offset="0%" style="stop-color:#EF5350"/>
      <stop offset="100%" style="stop-color:#B71C1C"/>
    </linearGradient>
    <linearGradient id="shoppingBag2" x1="0%" y1="0%" x2="0%" y2="100%">
      <stop offset="0%" style="stop-color:#42A5F5"/>
      <stop offset="100%" style="stop-color:#1565C0"/>
    </linearGradient>
    <linearGradient id="shoppingBag3" x1="0%" y1="0%" x2="0%" y2="100%">
      <stop offset="0%" style="stop-color:#9CCC65"/>
      <stop offset="100%" style="stop-color:#558B2F"/>
    </linearGradient>
    <linearGradient id="overhang" x1="0%" y1="0%" x2="0%" y2="100%">
      <stop offset="0%" style="stop-color:#546E7A"/>
      <stop offset="100%" style="stop-color:#37474F"/>
    </linearGradient>
    <linearGradient id="hills" x1="0%" y1="0%" x2="0%" y2="100%">
      <stop offset="0%" style="stop-color:#9CCC65"/>
      <stop offset="100%" style="stop-color:#7CB342"/>
    </linearGradient>
  </defs>
  
  <!-- Background: Blue sky -->
  <rect width="128" height="128" fill="url(#sky)"/>
  
  <!-- Animated clouds drifting -->
  <g opacity="0.7">
    <ellipse cx="20" cy="18" rx="12" ry="5" fill="#FFFFFF">
      <animate attributeName="cx" values="20;140" dur="45s" repeatCount="indefinite"/>
    </ellipse>
    <ellipse cx="26" cy="16" rx="8" ry="4" fill="#FFFFFF">
      <animate attributeName="cx" values="26;146" dur="45s" repeatCount="indefinite"/>
    </ellipse>
  </g>
  <g opacity="0.5">
    <ellipse cx="90" cy="14" rx="10" ry="4" fill="#FFFFFF">
      <animate attributeName="cx" values="90;-30" dur="60s" repeatCount="indefinite"/>
    </ellipse>
    <ellipse cx="95" cy="12" rx="7" ry="3" fill="#FFFFFF">
      <animate attributeName="cx" values="95;-25" dur="60s" repeatCount="indefinite"/>
    </ellipse>
  </g>
  
  <!-- Distant hills -->
  <path d="M-10,78 Q30,65 64,72 Q98,79 138,68 L138,88 L-10,88 Z" fill="url(#hills)" opacity="0.6"/>
  
  <!-- Main ground -->
  <path d="M-10,128 L-10,88 Q30,82 64,85 Q98,88 138,82 L138,128 Z" fill="url(#grass)"/>
  
  <!-- Parking lot area -->
  <rect x="8" y="94" width="112" height="18" fill="url(#parkingLot)"/>
  <g stroke="#ECEFF1" stroke-width="0.5" opacity="0.6">
    <line x1="18" y1="94" x2="18" y2="112"/>
    <line x1="28" y1="94" x2="28" y2="112"/>
    <line x1="38" y1="94" x2="38" y2="112"/>
    <line x1="90" y1="94" x2="90" y2="112"/>
    <line x1="100" y1="94" x2="100" y2="112"/>
    <line x1="110" y1="94" x2="110" y2="112"/>
  </g>
  
  <!-- Parked cars with gradients -->
  <rect x="20" y="98" width="6" height="10" rx="1" fill="url(#carRed)"/>
  <rect x="21" y="99" width="4" height="2" rx="0.5" fill="#FFFFFF" opacity="0.3"/>
  <rect x="30" y="98" width="6" height="10" rx="1" fill="url(#carBlue)"/>
  <rect x="31" y="99" width="4" height="2" rx="0.5" fill="#FFFFFF" opacity="0.3"/>
  <rect x="92" y="98" width="6" height="10" rx="1" fill="url(#carWhite)"/>
  <rect x="93" y="99" width="4" height="2" rx="0.5" fill="#FFFFFF" opacity="0.4"/>
  <rect x="102" y="98" width="6" height="10" rx="1" fill="url(#carGreen)"/>
  <rect x="103" y="99" width="4" height="2" rx="0.5" fill="#FFFFFF" opacity="0.3"/>
  
  <!-- Main mall building -->
  <rect x="12" y="38" width="104" height="58" fill="url(#glassStore)" stroke="url(#steelFrame)" stroke-width="2"/>
  
  <!-- Glass curtain wall panels -->
  <g fill="none" stroke="#78909C" stroke-width="1">
    <line x1="32" y1="38" x2="32" y2="96"/>
    <line x1="52" y1="38" x2="52" y2="96"/>
    <line x1="76" y1="38" x2="76" y2="96"/>
    <line x1="96" y1="38" x2="96" y2="96"/>
    <line x1="12" y1="56" x2="116" y2="56"/>
    <line x1="12" y1="74" x2="116" y2="74"/>
  </g>
  
  <!-- Animated glass reflections -->
  <g fill="#FFFFFF">
    <polygon points="16,42 24,42 16,54">
      <animate attributeName="opacity" values="0.2;0.5;0.2" dur="3s" repeatCount="indefinite"/>
    </polygon>
    <polygon points="36,42 44,42 36,54">
      <animate attributeName="opacity" values="0.4;0.2;0.4" dur="3.5s" repeatCount="indefinite"/>
    </polygon>
    <polygon points="80,42 88,42 80,54">
      <animate attributeName="opacity" values="0.3;0.5;0.3" dur="4s" repeatCount="indefinite"/>
    </polygon>
  </g>
  
  <!-- Modern flat roof -->
  <rect x="8" y="32" width="112" height="8" fill="url(#mallRoof)"/>
  
  <!-- Animated rooftop HVAC units -->
  <rect x="24" y="26" width="10" height="8" fill="#90A4AE"/>
  <ellipse cx="29" cy="26" rx="3" ry="1" fill="#78909C">
    <animate attributeName="ry" values="1;1.5;1" dur="2s" repeatCount="indefinite"/>
  </ellipse>
  <!-- Steam/exhaust from HVAC -->
  <g opacity="0.3">
    <circle cx="29" cy="24" r="2" fill="#ECEFF1">
      <animate attributeName="cy" values="24;18;12" dur="3s" repeatCount="indefinite"/>
      <animate attributeName="opacity" values="0.4;0.2;0" dur="3s" repeatCount="indefinite"/>
      <animate attributeName="r" values="2;4;6" dur="3s" repeatCount="indefinite"/>
    </circle>
    <circle cx="29" cy="24" r="1.5" fill="#ECEFF1">
      <animate attributeName="cy" values="24;16;8" dur="4s" repeatCount="indefinite" begin="1s"/>
      <animate attributeName="opacity" values="0.3;0.15;0" dur="4s" repeatCount="indefinite" begin="1s"/>
      <animate attributeName="r" values="1.5;3;5" dur="4s" repeatCount="indefinite" begin="1s"/>
    </circle>
  </g>
  <rect x="94" y="26" width="10" height="8" fill="#90A4AE"/>
  <ellipse cx="99" cy="26" rx="3" ry="1" fill="#78909C">
    <animate attributeName="ry" values="1.5;1;1.5" dur="2s" repeatCount="indefinite"/>
  </ellipse>
  <!-- Steam/exhaust from HVAC -->
  <g opacity="0.3">
    <circle cx="99" cy="24" r="2" fill="#ECEFF1">
      <animate attributeName="cy" values="24;17;10" dur="3.5s" repeatCount="indefinite"/>
      <animate attributeName="opacity" values="0.4;0.2;0" dur="3.5s" repeatCount="indefinite"/>
      <animate attributeName="r" values="2;4;6" dur="3.5s" repeatCount="indefinite"/>
    </circle>
  </g>
  
  <!-- Animated large mall sign -->
  <rect x="44" y="24" width="40" height="10" fill="#37474F" rx="2"/>
  <text x="50" y="32" font-size="6" fill="#FF5722" font-weight="bold">MALL</text>
  <rect x="44" y="24" width="40" height="10" fill="#FF5722" opacity="0.1" rx="2">
    <animate attributeName="opacity" values="0.05;0.15;0.05" dur="2s" repeatCount="indefinite"/>
  </rect>
  
  <!-- Animated main entrance with automatic doors -->
  <rect x="54" y="76" width="20" height="20" fill="#CFD8DC"/>
  <rect x="56" y="78" width="7" height="16" fill="#B3E5FC">
    <animate attributeName="x" values="56;54;56" dur="4s" repeatCount="indefinite"/>
    <animate attributeName="width" values="7;5;7" dur="4s" repeatCount="indefinite"/>
  </rect>
  <rect x="65" y="78" width="7" height="16" fill="#B3E5FC">
    <animate attributeName="x" values="65;69;65" dur="4s" repeatCount="indefinite"/>
    <animate attributeName="width" values="7;5;7" dur="4s" repeatCount="indefinite"/>
  </rect>
  
  <!-- Entrance overhang -->
  <rect x="50" y="72" width="28" height="4" fill="url(#overhang)"/>
  
  <!-- Animated store display windows with mannequins -->
  <rect x="16" y="58" width="14" height="14" fill="#ECEFF1"/>
  <g>
    <animateTransform attributeName="transform" type="rotate" values="0 20 68;2 20 68;0 20 68;-2 20 68;0 20 68" dur="4s" repeatCount="indefinite"/>
    <ellipse cx="20" cy="68" rx="2" ry="4" fill="#FFCC80"/>
    <circle cx="20" cy="63" r="1.5" fill="#FFCC80"/>
  </g>
  <ellipse cx="26" cy="68" rx="2" ry="4" fill="#B39DDB"/>
  <circle cx="26" cy="63" r="1.5" fill="#FFCC80"/>
  
  <!-- Animated store display - electronics with flickering screens -->
  <rect x="98" y="58" width="14" height="14" fill="#1A1A1A"/>
  <rect x="100" y="60" width="6" height="5" fill="#42A5F5">
    <animate attributeName="opacity" values="0.7;1;0.7" dur="1.5s" repeatCount="indefinite"/>
  </rect>
  <rect x="100" y="66" width="4" height="4" fill="#66BB6A">
    <animate attributeName="opacity" values="1;0.7;1" dur="2s" repeatCount="indefinite"/>
  </rect>
  <rect x="106" y="66" width="4" height="4" fill="#EF5350">
    <animate attributeName="opacity" values="0.8;1;0.8" dur="1.8s" repeatCount="indefinite"/>
  </rect>
  
  <!-- Animated escalator with moving person -->
  <polygon points="58,40 70,40 66,54 62,54" fill="url(#escalator)"/>
  <g stroke="#455A64" stroke-width="0.5">
    <line x1="59" y1="42" x2="63" y2="52"/>
    <line x1="61" y1="42" x2="64" y2="52"/>
    <line x1="63" y1="42" x2="65" y2="52"/>
    <line x1="65" y1="42" x2="66" y2="52"/>
    <line x1="67" y1="42" x2="67" y2="52"/>
  </g>
  <!-- Person on escalator -->
  <g>
    <animateTransform attributeName="transform" type="translate" values="0,0;4,8;0,0" dur="4s" repeatCount="indefinite"/>
    <ellipse cx="63" cy="44" rx="1.5" ry="2.5" fill="#FFCC80" opacity="0.8"/>
    <circle cx="63" cy="41" r="1" fill="#FFCC80" opacity="0.8"/>
  </g>
  
  <!-- Animated digital display boards -->
  <rect x="18" y="40" width="10" height="6" fill="#1A1A1A"/>
  <rect x="19" y="41" width="8" height="4" fill="#FF5722">
    <animate attributeName="fill" values="#FF5722;#4CAF50;#2196F3;#FF5722" dur="4s" repeatCount="indefinite"/>
  </rect>
  
  <rect x="100" y="40" width="10" height="6" fill="#1A1A1A"/>
  <rect x="101" y="41" width="8" height="4" fill="#4CAF50">
    <animate attributeName="fill" values="#4CAF50;#2196F3;#FF5722;#4CAF50" dur="4s" repeatCount="indefinite"/>
  </rect>
  
  <!-- Outdoor planters with gradients -->
  <rect x="42" y="90" width="8" height="4" fill="url(#planter)"/>
  <ellipse cx="46" cy="88" rx="5" ry="3" fill="url(#plantLeaves)">
    <animate attributeName="ry" values="3;3.3;3" dur="3s" repeatCount="indefinite"/>
  </ellipse>
  
  <rect x="78" y="90" width="8" height="4" fill="url(#planter)"/>
  <ellipse cx="82" cy="88" rx="5" ry="3" fill="url(#plantLeaves)">
    <animate attributeName="ry" values="3;3.3;3" dur="3.5s" repeatCount="indefinite"/>
  </ellipse>
  
  <!-- Animated fountain with water -->
  <ellipse cx="64" cy="116" rx="8" ry="3" fill="url(#fountain)"/>
  <ellipse cx="64" cy="116" rx="6" ry="2" fill="#81D4FA">
    <animate attributeName="opacity" values="0.6;0.9;0.6" dur="1s" repeatCount="indefinite"/>
  </ellipse>
  <!-- Water jets -->
  <line x1="64" y1="116" x2="64" y2="110" stroke="#81D4FA" stroke-width="1.5">
    <animate attributeName="y2" values="110;108;110" dur="0.8s" repeatCount="indefinite"/>
    <animate attributeName="opacity" values="0.8;1;0.8" dur="0.8s" repeatCount="indefinite"/>
  </line>
  <circle cx="64" cy="109" r="1" fill="#E1F5FE">
    <animate attributeName="cy" values="109;107;109" dur="0.8s" repeatCount="indefinite"/>
    <animate attributeName="r" values="0.5;1.5;0.5" dur="0.8s" repeatCount="indefinite"/>
  </circle>
  <!-- Water droplets falling -->
  <circle cx="61" cy="112" r="0.5" fill="#81D4FA">
    <animate attributeName="cy" values="110;115" dur="0.5s" repeatCount="indefinite"/>
    <animate attributeName="opacity" values="0.8;0" dur="0.5s" repeatCount="indefinite"/>
  </circle>
  <circle cx="67" cy="112" r="0.5" fill="#81D4FA">
    <animate attributeName="cy" values="110;115" dur="0.5s" repeatCount="indefinite" begin="0.25s"/>
    <animate attributeName="opacity" values="0.8;0" dur="0.5s" repeatCount="indefinite" begin="0.25s"/>
  </circle>
  
  <!-- Bench with gradient -->
  <rect x="56" y="92" width="16" height="3" fill="url(#bench)" rx="0.5"/>
  <rect x="57" y="92" width="14" height="1" fill="#A1887F" opacity="0.4" rx="0.3"/>
  
  <!-- Animated shopping person 1 - continuous walk cycle (walks left to right, loops seamlessly) -->
  <g>
    <animateTransform attributeName="transform" type="translate" values="-30,0;50,0" dur="10s" repeatCount="indefinite"/>
    <!-- Body with gradient -->
    <ellipse cx="48" cy="106" rx="3" ry="5" fill="url(#person1)"/>
    <!-- Head -->
    <circle cx="48" cy="99" r="2.5" fill="url(#person1)"/>
    <!-- Hair -->
    <ellipse cx="48" cy="97.5" rx="2.8" ry="1.5" fill="#5D4037"/>
    <!-- Shopping bag left (bouncing) -->
    <rect x="44" y="102" width="3" height="4" fill="url(#shoppingBag1)" rx="0.3">
      <animate attributeName="y" values="102;101;102" dur="0.5s" repeatCount="indefinite"/>
    </rect>
    <!-- Shopping bag right (bouncing) -->
    <rect x="52" y="102" width="3" height="4" fill="url(#shoppingBag2)" rx="0.3">
      <animate attributeName="y" values="101;102;101" dur="0.5s" repeatCount="indefinite"/>
    </rect>
    <!-- Walking legs animation -->
    <line x1="47" y1="110" x2="46" y2="114" stroke="#795548" stroke-width="1.5">
      <animate attributeName="x2" values="46;48;46" dur="0.5s" repeatCount="indefinite"/>
    </line>
    <line x1="49" y1="110" x2="50" y2="114" stroke="#795548" stroke-width="1.5">
      <animate attributeName="x2" values="50;48;50" dur="0.5s" repeatCount="indefinite"/>
    </line>
  </g>
  
  <!-- Second instance for seamless loop (offset) -->
  <g>
    <animateTransform attributeName="transform" type="translate" values="-110,0;-30,0" dur="10s" repeatCount="indefinite"/>
    <ellipse cx="48" cy="106" rx="3" ry="5" fill="url(#person1)"/>
    <circle cx="48" cy="99" r="2.5" fill="url(#person1)"/>
    <ellipse cx="48" cy="97.5" rx="2.8" ry="1.5" fill="#5D4037"/>
    <rect x="44" y="102" width="3" height="4" fill="url(#shoppingBag1)" rx="0.3">
      <animate attributeName="y" values="102;101;102" dur="0.5s" repeatCount="indefinite"/>
    </rect>
    <rect x="52" y="102" width="3" height="4" fill="url(#shoppingBag2)" rx="0.3">
      <animate attributeName="y" values="101;102;101" dur="0.5s" repeatCount="indefinite"/>
    </rect>
    <line x1="47" y1="110" x2="46" y2="114" stroke="#795548" stroke-width="1.5">
      <animate attributeName="x2" values="46;48;46" dur="0.5s" repeatCount="indefinite"/>
    </line>
    <line x1="49" y1="110" x2="50" y2="114" stroke="#795548" stroke-width="1.5">
      <animate attributeName="x2" values="50;48;50" dur="0.5s" repeatCount="indefinite"/>
    </line>
  </g>
  
  <!-- Animated LED accent strips -->
  <line x1="12" y1="38" x2="116" y2="38" stroke="#FF5722" stroke-width="1">
    <animate attributeName="opacity" values="0.4;0.8;0.4" dur="2s" repeatCount="indefinite"/>
  </line>
  <line x1="12" y1="96" x2="116" y2="96" stroke="#2196F3" stroke-width="1">
    <animate attributeName="opacity" values="0.8;0.4;0.8" dur="2s" repeatCount="indefinite"/>
  </line>
  
  <!-- Animated flags -->
  <line x1="10" y1="32" x2="10" y2="18" stroke="#78909C" stroke-width="1"/>
  <polygon points="10,18 10,24 18,21" fill="#E53935">
    <animateTransform attributeName="transform" type="skewX" values="0;3;0;-3;0" dur="2s" repeatCount="indefinite"/>
  </polygon>
  <line x1="118" y1="32" x2="118" y2="18" stroke="#78909C" stroke-width="1"/>
  <polygon points="118,18 118,24 110,21" fill="#1976D2">
    <animateTransform attributeName="transform" type="skewX" values="0;-3;0;3;0" dur="2.5s" repeatCount="indefinite"/>
  </polygon>
  
  <!-- Animated car driving through parking - continuous loop -->
  <g>
    <animateTransform attributeName="transform" type="translate" values="-50,0;80,0" dur="12s" repeatCount="indefinite"/>
    <rect x="50" y="100" width="6" height="8" rx="1" fill="url(#carYellow)"/>
    <rect x="51" y="101" width="4" height="2" rx="0.5" fill="#FFFFFF" opacity="0.4"/>
    <!-- Wheels -->
    <circle cx="51" cy="108" r="1" fill="#37474F"/>
    <circle cx="55" cy="108" r="1" fill="#37474F"/>
  </g>
  <!-- Second car instance for seamless loop -->
  <g>
    <animateTransform attributeName="transform" type="translate" values="-180,0;-50,0" dur="12s" repeatCount="indefinite"/>
    <rect x="50" y="100" width="6" height="8" rx="1" fill="url(#carYellow)"/>
    <rect x="51" y="101" width="4" height="2" rx="0.5" fill="#FFFFFF" opacity="0.4"/>
    <circle cx="51" cy="108" r="1" fill="#37474F"/>
    <circle cx="55" cy="108" r="1" fill="#37474F"/>
  </g>
  
  <!-- Second shopper walking the other way - continuous loop -->
  <g>
    <animateTransform attributeName="transform" type="translate" values="50,0;-50,0" dur="12s" repeatCount="indefinite"/>
    <!-- Body with gradient -->
    <ellipse cx="85" cy="106" rx="2.5" ry="4.5" fill="url(#person2)"/>
    <!-- Head -->
    <circle cx="85" cy="100" r="2" fill="url(#person1)"/>
    <!-- Hat -->
    <ellipse cx="85" cy="98.5" rx="2.5" ry="0.8" fill="#1565C0"/>
    <!-- Shopping bag -->
    <rect x="87" y="103" width="2.5" height="3.5" fill="url(#shoppingBag3)" rx="0.3">
      <animate attributeName="y" values="103;102;103" dur="0.4s" repeatCount="indefinite"/>
    </rect>
    <!-- Walking legs -->
    <line x1="84" y1="110" x2="85" y2="113" stroke="#455A64" stroke-width="1.2">
      <animate attributeName="x2" values="85;83;85" dur="0.4s" repeatCount="indefinite"/>
    </line>
    <line x1="86" y1="110" x2="85" y2="113" stroke="#455A64" stroke-width="1.2">
      <animate attributeName="x2" values="85;87;85" dur="0.4s" repeatCount="indefinite"/>
    </line>
  </g>
  <!-- Second instance of shopper 2 for seamless loop -->
  <g>
    <animateTransform attributeName="transform" type="translate" values="150,0;50,0" dur="12s" repeatCount="indefinite"/>
    <ellipse cx="85" cy="106" rx="2.5" ry="4.5" fill="url(#person2)"/>
    <circle cx="85" cy="100" r="2" fill="url(#person1)"/>
    <ellipse cx="85" cy="98.5" rx="2.5" ry="0.8" fill="#1565C0"/>
    <rect x="87" y="103" width="2.5" height="3.5" fill="url(#shoppingBag3)" rx="0.3">
      <animate attributeName="y" values="103;102;103" dur="0.4s" repeatCount="indefinite"/>
    </rect>
    <line x1="84" y1="110" x2="85" y2="113" stroke="#455A64" stroke-width="1.2">
      <animate attributeName="x2" values="85;83;85" dur="0.4s" repeatCount="indefinite"/>
    </line>
    <line x1="86" y1="110" x2="85" y2="113" stroke="#455A64" stroke-width="1.2">
      <animate attributeName="x2" values="85;87;85" dur="0.4s" repeatCount="indefinite"/>
    </line>
  </g>
  
  <!-- Birds flying in the sky -->
  <g opacity="0.6">
    <path d="M15,28 Q17,26 19,28 Q21,26 23,28" fill="none" stroke="#37474F" stroke-width="0.8">
      <animateTransform attributeName="transform" type="translate" values="0,0;100,10" dur="20s" repeatCount="indefinite"/>
    </path>
    <path d="M25,32 Q27,30 29,32 Q31,30 33,32" fill="none" stroke="#37474F" stroke-width="0.8">
      <animateTransform attributeName="transform" type="translate" values="0,0;95,8" dur="22s" repeatCount="indefinite"/>
    </path>
  </g>
  
  <!-- Subtle window reflections shimmer -->
  <rect x="56" y="58" width="16" height="14" fill="#FFFFFF" opacity="0">
    <animate attributeName="opacity" values="0;0.15;0" dur="5s" repeatCount="indefinite"/>
  </rect>
  <rect x="80" y="76" width="14" height="10" fill="#FFFFFF" opacity="0">
    <animate attributeName="opacity" values="0;0.1;0" dur="7s" repeatCount="indefinite" begin="2s"/>
  </rect>
</svg>
