<svg xmlns="http://www.w3.org/2000/svg" viewBox="0 0 64 64">
  <!-- Market with bustling crowd animation -->
  
  <!-- Stall awning -->
  <polygon points="4,20 32,8 60,20 60,26 4,26" fill="#E53935"/>
  <polygon points="4,20 32,8 60,20" fill="#EF5350"/>
  
  <!-- Awning stripes -->
  <polygon points="12,14 20,18 20,26 12,26" fill="#FFEB3B"/>
  <polygon points="28,10 36,14 36,26 28,26" fill="#FFEB3B"/>
  <polygon points="44,14 52,18 52,26 44,26" fill="#FFEB3B"/>
  
  <!-- Stall counter -->
  <rect x="6" y="26" width="52" height="6" fill="#8D6E63"/>
  <rect x="8" y="32" width="48" height="20" fill="#A1887F"/>
  
  <!-- Goods on display -->
  <circle cx="14" cy="28" r="3" fill="#FF9800"/>
  <circle cx="22" cy="28" r="3" fill="#4CAF50"/>
  <circle cx="30" cy="28" r="3" fill="#F44336"/>
  <circle cx="38" cy="28" r="3" fill="#9C27B0"/>
  <circle cx="46" cy="28" r="3" fill="#2196F3"/>
  
  <!-- Coins/money animation -->
  <circle cx="52" cy="28" r="2" fill="#FFD700">
    <animate attributeName="opacity" values="1;0.5;1" dur="0.8s" repeatCount="indefinite"/>
  </circle>
  
  <!-- Animated people/crowd -->
  <!-- Person 1 - walking left -->
  <g>
    <animateTransform attributeName="transform" type="translate" values="0,0;-8,0;0,0" dur="3s" repeatCount="indefinite"/>
    <circle cx="20" cy="44" r="3" fill="#FFCC80"/>
    <rect x="18" y="47" width="4" height="6" fill="#1976D2"/>
    <rect x="17" y="53" width="2" height="3" fill="#1565C0"/>
    <rect x="21" y="53" width="2" height="3" fill="#1565C0">
      <animate attributeName="x" values="21;20;21" dur="0.4s" repeatCount="indefinite"/>
    </rect>
  </g>
  
  <!-- Person 2 - walking right -->
  <g>
    <animateTransform attributeName="transform" type="translate" values="0,0;8,0;0,0" dur="2.5s" repeatCount="indefinite"/>
    <circle cx="44" cy="44" r="3" fill="#FFCC80"/>
    <rect x="42" y="47" width="4" height="6" fill="#E91E63"/>
    <rect x="41" y="53" width="2" height="3" fill="#C2185B"/>
    <rect x="45" y="53" width="2" height="3" fill="#C2185B">
      <animate attributeName="x" values="45;44;45" dur="0.4s" repeatCount="indefinite"/>
    </rect>
  </g>
  
  <!-- Person 3 - standing, nodding -->
  <g>
    <circle cx="32" cy="46" r="3" fill="#FFCC80">
      <animate attributeName="cy" values="46;45;46" dur="1s" repeatCount="indefinite"/>
    </circle>
    <rect x="30" y="49" width="4" height="7" fill="#4CAF50"/>
  </g>
  
  <!-- Floating coin being exchanged -->
  <circle cx="36" cy="42" r="2" fill="#FFD700">
    <animate attributeName="cx" values="36;28;36" dur="2s" repeatCount="indefinite"/>
    <animate attributeName="cy" values="42;40;42" dur="2s" repeatCount="indefinite"/>
    <animate attributeName="opacity" values="0;1;0" dur="2s" repeatCount="indefinite"/>
  </circle>
  
  <!-- Speech bubbles -->
  <ellipse cx="26" cy="40" rx="4" ry="2" fill="#FFF" opacity="0.8">
    <animate attributeName="opacity" values="0;0.8;0" dur="3s" repeatCount="indefinite"/>
  </ellipse>
</svg>
