<?xml version="1.0" encoding="UTF-8"?>
<svg xmlns="http://www.w3.org/2000/svg" viewBox="0 0 128 128" width="128" height="128">
  <!-- Observatory Level 3 - Deep Space Network Hub -->
  <defs>
    <linearGradient id="sky" x1="0%" y1="0%" x2="0%" y2="100%">
      <stop offset="0%" style="stop-color:#4da6ff"/>
      <stop offset="100%" style="stop-color:#87ceeb"/>
    </linearGradient>
    <linearGradient id="grass" x1="0%" y1="0%" x2="0%" y2="100%">
      <stop offset="0%" style="stop-color:#7cb342"/>
      <stop offset="100%" style="stop-color:#558b2f"/>
    </linearGradient>
    <linearGradient id="futureDome" x1="0%" y1="100%" x2="0%" y2="0%">
      <stop offset="0%" style="stop-color:#00838F"/>
      <stop offset="50%" style="stop-color:#00ACC1"/>
      <stop offset="100%" style="stop-color:#00E5FF"/>
    </linearGradient>
    <linearGradient id="portalRing" x1="0%" y1="0%" x2="100%" y2="100%">
      <stop offset="0%" style="stop-color:#E040FB"/>
      <stop offset="50%" style="stop-color:#7C4DFF"/>
      <stop offset="100%" style="stop-color:#00E5FF"/>
    </linearGradient>
    <radialGradient id="wormhole" cx="50%" cy="50%" r="50%">
      <stop offset="0%" style="stop-color:#00E5FF"/>
      <stop offset="40%" style="stop-color:#7C4DFF"/>
      <stop offset="80%" style="stop-color:#E040FB"/>
      <stop offset="100%" style="stop-color:#0D0D2B"/>
    </radialGradient>
    <radialGradient id="quantum" cx="50%" cy="50%" r="50%">
      <stop offset="0%" style="stop-color:#FFFFFF"/>
      <stop offset="40%" style="stop-color:#00E5FF"/>
      <stop offset="100%" style="stop-color:#006064"/>
    </radialGradient>
    <filter id="glow">
      <feGaussianBlur stdDeviation="2" result="blur"/>
      <feMerge>
        <feMergeNode in="blur"/>
        <feMergeNode in="SourceGraphic"/>
      </feMerge>
    </filter>
    <filter id="starGlow">
      <feGaussianBlur stdDeviation="1"/>
    </filter>
  </defs>
  
  <!-- Background: Blue sky -->
  <rect width="128" height="128" fill="url(#sky)"/>
  
  <!-- Subtle cloud wisps -->
  <g fill="white" opacity="0.25">
    <ellipse cx="30" cy="25" rx="20" ry="6"/>
    <ellipse cx="100" cy="35" rx="18" ry="5"/>
  </g>
  
  <!-- Distant hills -->
  <path d="M-10,78 Q30,65 64,72 Q98,79 138,68 L138,88 L-10,88 Z" fill="#8bc34a" opacity="0.6"/>
  
  <!-- Main ground -->
  <path d="M-10,128 L-10,88 Q30,82 64,85 Q98,88 138,82 L138,128 Z" fill="url(#grass)"/>
  
  <!-- Futuristic landing pad -->
  <ellipse cx="64" cy="102" rx="50" ry="14" fill="#263855" opacity="0.9"/>
  <ellipse cx="64" cy="100" rx="46" ry="12" fill="#1A2744"/>
  
  <!-- Energy ring on pad -->
  <ellipse cx="64" cy="100" rx="40" ry="10" fill="none" stroke="url(#portalRing)" stroke-width="2" opacity="0.5"/>
  
  <!-- Main structure - angular futuristic design -->
  <polygon points="64,25 92,55 92,95 36,95 36,55" fill="#1A2744"/>
  <polygon points="64,28 88,55 88,92 40,92 40,55" fill="#263855"/>
  
  <!-- Holographic viewport windows -->
  <rect x="44" y="60" width="14" height="18" fill="#00838F" opacity="0.8"/>
  <rect x="45" y="61" width="12" height="16" fill="#00E5FF" opacity="0.3"/>
  <rect x="70" y="60" width="14" height="18" fill="#00838F" opacity="0.8"/>
  <rect x="71" y="61" width="12" height="16" fill="#00E5FF" opacity="0.3"/>
  
  <!-- Central wormhole detection array -->
  <ellipse cx="64" cy="45" rx="20" ry="10" fill="url(#futureDome)" opacity="0.9"/>
  <ellipse cx="64" cy="43" rx="16" ry="8" fill="url(#wormhole)"/>
  
  <!-- Orbital ring 1 -->
  <ellipse cx="64" cy="45" rx="26" ry="6" fill="none" stroke="url(#portalRing)" stroke-width="2" opacity="0.7"/>
  
  <!-- Orbital ring 2 - tilted -->
  <ellipse cx="64" cy="45" rx="30" ry="4" fill="none" stroke="#E040FB" stroke-width="1.5" opacity="0.5" transform="rotate(15, 64, 45)"/>
  
  <!-- Orbital ring 3 - tilted opposite -->
  <ellipse cx="64" cy="45" rx="34" ry="3" fill="none" stroke="#00E5FF" stroke-width="1" opacity="0.4" transform="rotate(-15, 64, 45)"/>
  
  <!-- Quantum sensor nodes on rings -->
  <circle cx="38" cy="45" r="3" fill="#E040FB" filter="url(#glow)"/>
  <circle cx="90" cy="45" r="3" fill="#00E5FF" filter="url(#glow)"/>
  <circle cx="64" cy="39" r="2" fill="#FFFFFF" filter="url(#glow)"/>
  
  <!-- Central holographic star map projector -->
  <rect x="56" y="65" width="16" height="26" fill="#0D0D2B"/>
  <ellipse cx="64" cy="70" rx="6" ry="4" fill="url(#quantum)"/>
  
  <!-- Holographic star map projection above -->
  <g filter="url(#glow)" opacity="0.7">
    <circle cx="58" cy="32" r="1.5" fill="#00E5FF"/>
    <circle cx="68" cy="28" r="1" fill="#E040FB"/>
    <circle cx="72" cy="35" r="1.2" fill="#7C4DFF"/>
    <circle cx="54" cy="38" r="0.8" fill="#FFFFFF"/>
    <line x1="58" y1="32" x2="68" y2="28" stroke="#00E5FF" stroke-width="0.5" opacity="0.5"/>
    <line x1="68" y1="28" x2="72" y2="35" stroke="#7C4DFF" stroke-width="0.5" opacity="0.5"/>
    <line x1="58" y1="32" x2="54" y2="38" stroke="#E040FB" stroke-width="0.5" opacity="0.5"/>
  </g>
  
  <!-- Side quantum sensors -->
  <g transform="translate(14, 55)">
    <polygon points="10,0 20,15 0,15" fill="#263855"/>
    <circle cx="10" cy="10" r="4" fill="#00838F"/>
    <circle cx="10" cy="10" r="2" fill="#00E5FF" filter="url(#glow)"/>
  </g>
  <g transform="translate(94, 55)">
    <polygon points="10,0 20,15 0,15" fill="#263855"/>
    <circle cx="10" cy="10" r="4" fill="#00838F"/>
    <circle cx="10" cy="10" r="2" fill="#E040FB" filter="url(#glow)"/>
  </g>
  
  <!-- Energy beam to space -->
  <line x1="64" y1="25" x2="64" y2="0" stroke="#00E5FF" stroke-width="2" opacity="0.4"/>
  <line x1="64" y1="25" x2="64" y2="0" stroke="#FFFFFF" stroke-width="1" opacity="0.3"/>
  
  <!-- Data streams from side sensors -->
  <path d="M24,65 Q34,50 54,38" stroke="#E040FB" stroke-width="1" fill="none" opacity="0.4"/>
  <path d="M104,65 Q94,50 74,38" stroke="#00E5FF" stroke-width="1" fill="none" opacity="0.4"/>
  
  <!-- Floating drone probes -->
  <g transform="translate(20, 75)">
    <ellipse cx="0" cy="0" rx="4" ry="2" fill="#455A64"/>
    <circle cx="0" cy="0" r="1.5" fill="#00E5FF" filter="url(#glow)"/>
  </g>
  <g transform="translate(108, 70)">
    <ellipse cx="0" cy="0" rx="4" ry="2" fill="#455A64"/>
    <circle cx="0" cy="0" r="1.5" fill="#E040FB" filter="url(#glow)"/>
  </g>
  
  <!-- Status indicators on building -->
  <circle cx="46" cy="85" r="2" fill="#00E5FF"/>
  <circle cx="52" cy="85" r="2" fill="#4CAF50"/>
  <circle cx="76" cy="85" r="2" fill="#E040FB"/>
  <circle cx="82" cy="85" r="2" fill="#4CAF50"/>
  
  <!-- Energy conduits on ground -->
  <line x1="22" y1="106" x2="40" y2="95" stroke="#00E5FF" stroke-width="1.5" opacity="0.5"/>
  <line x1="106" y1="106" x2="88" y2="95" stroke="#E040FB" stroke-width="1.5" opacity="0.5"/>
</svg>
