<?xml version="1.0" encoding="UTF-8"?>
<svg xmlns="http://www.w3.org/2000/svg" viewBox="0 0 128 128" width="128" height="128">
  <!-- Royal Mint Level 2 - Modern Central Bank -->
  <defs>
    <linearGradient id="bankWall" x1="0%" y1="0%" x2="100%" y2="100%">
      <stop offset="0%" style="stop-color:#ECEFF1"/>
      <stop offset="50%" style="stop-color:#CFD8DC"/>
      <stop offset="100%" style="stop-color:#B0BEC5"/>
    </linearGradient>
    <linearGradient id="steelFrame" x1="0%" y1="0%" x2="0%" y2="100%">
      <stop offset="0%" style="stop-color:#78909C"/>
      <stop offset="50%" style="stop-color:#90A4AE"/>
      <stop offset="100%" style="stop-color:#607D8B"/>
    </linearGradient>
    <linearGradient id="bankRoof" x1="0%" y1="0%" x2="0%" y2="100%">
      <stop offset="0%" style="stop-color:#546E7A"/>
      <stop offset="100%" style="stop-color:#37474F"/>
    </linearGradient>
    <linearGradient id="sky" x1="0%" y1="0%" x2="0%" y2="100%">
      <stop offset="0%" style="stop-color:#4da6ff"/>
      <stop offset="100%" style="stop-color:#87ceeb"/>
    </linearGradient>
    <linearGradient id="grass" x1="0%" y1="0%" x2="0%" y2="100%">
      <stop offset="0%" style="stop-color:#7cb342"/>
      <stop offset="100%" style="stop-color:#558b2f"/>
    </linearGradient>
    <linearGradient id="vault" x1="0%" y1="0%" x2="0%" y2="100%">
      <stop offset="0%" style="stop-color:#455A64"/>
      <stop offset="100%" style="stop-color:#263238"/>
    </linearGradient>
    <radialGradient id="goldGlow" cx="50%" cy="50%" r="50%">
      <stop offset="0%" style="stop-color:#FFD54F" stop-opacity="0.6"/>
      <stop offset="100%" style="stop-color:#FFD54F" stop-opacity="0"/>
    </radialGradient>
  </defs>
  
  <!-- Background: Blue sky -->
  <rect width="128" height="128" fill="url(#sky)"/>
  
  <!-- Distant hills -->
  <path d="M-10,78 Q30,65 64,72 Q98,79 138,68 L138,88 L-10,88 Z" fill="#8bc34a" opacity="0.6"/>
  
  <!-- Main ground -->
  <path d="M-10,128 L-10,88 Q30,82 64,85 Q98,88 138,82 L138,128 Z" fill="url(#grass)"/>
  
  <!-- Concrete plaza -->
  <rect x="12" y="90" width="104" height="16" fill="#ECEFF1"/>
  
  <!-- Main building -->
  <rect x="16" y="40" width="96" height="52" fill="url(#bankWall)" stroke="url(#steelFrame)" stroke-width="2"/>
  
  <!-- Decorative marble columns -->
  <rect x="20" y="44" width="6" height="44" fill="url(#steelFrame)" rx="1"/>
  <rect x="102" y="44" width="6" height="44" fill="url(#steelFrame)" rx="1"/>
  
  <!-- Glass windows with gold tint -->
  <rect x="30" y="48" width="18" height="20" fill="#B0BEC5"/>
  <rect x="32" y="50" width="14" height="16" fill="#E3F2FD"/>
  <rect x="80" y="48" width="18" height="20" fill="#B0BEC5"/>
  <rect x="82" y="50" width="14" height="16" fill="#E3F2FD"/>
  
  <!-- Classical roof with modern twist -->
  <polygon points="10,40 64,20 118,40" fill="url(#bankRoof)"/>
  <polygon points="16,40 64,24 112,40" fill="#607D8B"/>
  
  <!-- Roof clock/emblem -->
  <circle cx="64" cy="32" r="6" fill="#37474F"/>
  <circle cx="64" cy="32" r="5" fill="#FFD54F"/>
  <text x="62" y="35" font-size="6" fill="#37474F">$</text>
  
  <!-- Vault door (center) -->
  <rect x="50" y="72" width="28" height="18" fill="url(#vault)" rx="2"/>
  <circle cx="64" cy="80" r="6" fill="#78909C"/>
  <circle cx="64" cy="80" r="4" fill="#455A64"/>
  <g fill="#FFD54F">
    <circle cx="64" cy="80" r="2"/>
    <rect x="62" y="76" width="4" height="2"/>
    <rect x="62" y="82" width="4" height="2"/>
    <rect x="60" y="79" width="2" height="2"/>
    <rect x="66" y="79" width="2" height="2"/>
  </g>
  
  <!-- Digital display boards -->
  <rect x="32" y="72" width="14" height="8" fill="#1A1A1A"/>
  <rect x="33" y="73" width="12" height="6" fill="#4CAF50"/>
  <text x="34" y="78" font-size="4" fill="#1A1A1A">$$$</text>
  
  <rect x="82" y="72" width="14" height="8" fill="#1A1A1A"/>
  <rect x="83" y="73" width="12" height="6" fill="#FF5722"/>
  <text x="84" y="78" font-size="3" fill="#1A1A1A">RATE</text>
  
  <!-- Security cameras -->
  <rect x="24" y="46" width="4" height="3" fill="#263238"/>
  <circle cx="26" cy="50" r="1.5" fill="#F44336"/>
  <rect x="100" y="46" width="4" height="3" fill="#263238"/>
  <circle cx="102" cy="50" r="1.5" fill="#F44336"/>
  
  <!-- ATM machines -->
  <rect x="16" y="78" width="10" height="12" fill="#455A64" rx="1"/>
  <rect x="17" y="80" width="8" height="6" fill="#81D4FA"/>
  <rect x="17" y="87" width="8" height="2" fill="#66BB6A"/>
  
  <rect x="102" y="78" width="10" height="12" fill="#455A64" rx="1"/>
  <rect x="103" y="80" width="8" height="6" fill="#81D4FA"/>
  <rect x="103" y="87" width="8" height="2" fill="#66BB6A"/>
  
  <!-- Flagpoles with flags -->
  <line x1="26" y1="20" x2="26" y2="8" stroke="#455A64" stroke-width="1.5"/>
  <rect x="26" y="8" width="10" height="6" fill="#FFD54F"/>
  <text x="28" y="13" font-size="4" fill="#37474F">$</text>
  
  <line x1="102" y1="20" x2="102" y2="8" stroke="#455A64" stroke-width="1.5"/>
  <rect x="92" y="8" width="10" height="6" fill="#FFD54F"/>
  <text x="95" y="13" font-size="4" fill="#37474F">$</text>
  
  <!-- Security barriers -->
  <rect x="38" y="94" width="2" height="8" fill="#78909C"/>
  <rect x="88" y="94" width="2" height="8" fill="#78909C"/>
  
  <!-- Money delivery truck -->
  <rect x="18" y="98" width="16" height="10" rx="2" fill="#37474F"/>
  <rect x="26" y="98" width="8" height="6" fill="#90A4AE"/>
  <text x="20" y="105" font-size="4" fill="#FFD54F">$</text>
  <circle cx="22" cy="108" r="2" fill="#263238"/>
  <circle cx="30" cy="108" r="2" fill="#263238"/>
  
  <!-- LED accent lines -->
  <line x1="16" y1="42" x2="112" y2="42" stroke="#FFD54F" stroke-width="1" opacity="0.5"/>
  <line x1="16" y1="88" x2="112" y2="88" stroke="#FFD54F" stroke-width="1" opacity="0.5"/>
  
  <!-- Guard booth -->
  <rect x="92" y="96" width="10" height="10" fill="#455A64"/>
  <rect x="93" y="97" width="8" height="6" fill="#E1F5FE"/>
</svg>
