<?xml version="1.0" encoding="UTF-8"?>
<svg xmlns="http://www.w3.org/2000/svg" viewBox="0 0 128 128" width="128" height="128">
  <!-- Training Ground Level 2 (Animated) - Modern Athletic Complex -->
  <defs>
    <linearGradient id="turfGround" x1="0%" y1="0%" x2="100%" y2="100%">
      <stop offset="0%" style="stop-color:#66BB6A"/>
      <stop offset="30%" style="stop-color:#4CAF50"/>
      <stop offset="70%" style="stop-color:#43A047"/>
      <stop offset="100%" style="stop-color:#388E3C"/>
    </linearGradient>
    <linearGradient id="trackSurface" x1="0%" y1="0%" x2="100%" y2="100%">
      <stop offset="0%" style="stop-color:#EF5350"/>
      <stop offset="30%" style="stop-color:#F44336"/>
      <stop offset="70%" style="stop-color:#E53935"/>
      <stop offset="100%" style="stop-color:#C62828"/>
    </linearGradient>
    <linearGradient id="metalEquip" x1="0%" y1="0%" x2="100%" y2="100%">
      <stop offset="0%" style="stop-color:#90A4AE"/>
      <stop offset="30%" style="stop-color:#78909C"/>
      <stop offset="70%" style="stop-color:#607D8B"/>
      <stop offset="100%" style="stop-color:#455A64"/>
    </linearGradient>
    <linearGradient id="rubberMat" x1="0%" y1="0%" x2="0%" y2="100%">
      <stop offset="0%" style="stop-color:#546E7A"/>
      <stop offset="50%" style="stop-color:#455A64"/>
      <stop offset="100%" style="stop-color:#37474F"/>
    </linearGradient>
    <linearGradient id="sky" x1="0%" y1="0%" x2="0%" y2="100%">
      <stop offset="0%" style="stop-color:#4da6ff"/>
      <stop offset="100%" style="stop-color:#87ceeb"/>
    </linearGradient>
    <linearGradient id="grass" x1="0%" y1="0%" x2="0%" y2="100%">
      <stop offset="0%" style="stop-color:#7cb342"/>
      <stop offset="50%" style="stop-color:#689f38"/>
      <stop offset="100%" style="stop-color:#558b2f"/>
    </linearGradient>
    <linearGradient id="hills" x1="0%" y1="0%" x2="0%" y2="100%">
      <stop offset="0%" style="stop-color:#9ccc65"/>
      <stop offset="100%" style="stop-color:#8bc34a"/>
    </linearGradient>
    <!-- Athlete colors -->
    <linearGradient id="athleteOrange" x1="0%" y1="0%" x2="0%" y2="100%">
      <stop offset="0%" style="stop-color:#FFB74D"/>
      <stop offset="50%" style="stop-color:#FF9800"/>
      <stop offset="100%" style="stop-color:#F57C00"/>
    </linearGradient>
    <linearGradient id="athleteBlue" x1="0%" y1="0%" x2="0%" y2="100%">
      <stop offset="0%" style="stop-color:#64B5F6"/>
      <stop offset="50%" style="stop-color:#2196F3"/>
      <stop offset="100%" style="stop-color:#1976D2"/>
    </linearGradient>
    <linearGradient id="athleteGreen" x1="0%" y1="0%" x2="0%" y2="100%">
      <stop offset="0%" style="stop-color:#81C784"/>
      <stop offset="50%" style="stop-color:#4CAF50"/>
      <stop offset="100%" style="stop-color:#388E3C"/>
    </linearGradient>
    <linearGradient id="athleteRed" x1="0%" y1="0%" x2="0%" y2="100%">
      <stop offset="0%" style="stop-color:#E57373"/>
      <stop offset="50%" style="stop-color:#F44336"/>
      <stop offset="100%" style="stop-color:#D32F2F"/>
    </linearGradient>
    <linearGradient id="skinTone" x1="0%" y1="0%" x2="100%" y2="100%">
      <stop offset="0%" style="stop-color:#FFE0B2"/>
      <stop offset="50%" style="stop-color:#FFCC80"/>
      <stop offset="100%" style="stop-color:#FFB74D"/>
    </linearGradient>
    <linearGradient id="bleachers" x1="0%" y1="0%" x2="0%" y2="100%">
      <stop offset="0%" style="stop-color:#78909C"/>
      <stop offset="50%" style="stop-color:#607D8B"/>
      <stop offset="100%" style="stop-color:#546E7A"/>
    </linearGradient>
    <linearGradient id="lightPole" x1="0%" y1="0%" x2="100%" y2="0%">
      <stop offset="0%" style="stop-color:#90A4AE"/>
      <stop offset="50%" style="stop-color:#78909C"/>
      <stop offset="100%" style="stop-color:#607D8B"/>
    </linearGradient>
    <linearGradient id="woodBench" x1="0%" y1="0%" x2="0%" y2="100%">
      <stop offset="0%" style="stop-color:#8D6E63"/>
      <stop offset="50%" style="stop-color:#795548"/>
      <stop offset="100%" style="stop-color:#5D4037"/>
    </linearGradient>
    <radialGradient id="lightGlow" cx="50%" cy="50%" r="50%">
      <stop offset="0%" style="stop-color:#FFEB3B" stop-opacity="0.8"/>
      <stop offset="100%" style="stop-color:#FFC107" stop-opacity="0"/>
    </radialGradient>
    <radialGradient id="dustCloud" cx="50%" cy="50%" r="50%">
      <stop offset="0%" style="stop-color:#D7CCC8" stop-opacity="0.5"/>
      <stop offset="100%" style="stop-color:#BCAAA4" stop-opacity="0"/>
    </radialGradient>
    <radialGradient id="sunGlow" cx="50%" cy="50%" r="50%">
      <stop offset="0%" style="stop-color:#FFEB3B" stop-opacity="0.9"/>
      <stop offset="40%" style="stop-color:#FFC107" stop-opacity="0.4"/>
      <stop offset="100%" style="stop-color:#FF9800" stop-opacity="0"/>
    </radialGradient>
    <radialGradient id="cloudWhite" cx="50%" cy="50%" r="50%">
      <stop offset="0%" style="stop-color:#FFFFFF" stop-opacity="0.95"/>
      <stop offset="60%" style="stop-color:#ECEFF1" stop-opacity="0.8"/>
      <stop offset="100%" style="stop-color:#CFD8DC" stop-opacity="0.4"/>
    </radialGradient>
    <linearGradient id="trackLine" x1="0%" y1="0%" x2="100%" y2="0%">
      <stop offset="0%" style="stop-color:#FFFFFF" stop-opacity="0.9"/>
      <stop offset="50%" style="stop-color:#FAFAFA" stop-opacity="1"/>
      <stop offset="100%" style="stop-color:#FFFFFF" stop-opacity="0.9"/>
    </linearGradient>
    <linearGradient id="goalNet" x1="0%" y1="0%" x2="0%" y2="100%">
      <stop offset="0%" style="stop-color:#FAFAFA"/>
      <stop offset="100%" style="stop-color:#E0E0E0"/>
    </linearGradient>
    <filter id="glow" x="-50%" y="-50%" width="200%" height="200%">
      <feGaussianBlur stdDeviation="1.5" result="coloredBlur"/>
      <feMerge>
        <feMergeNode in="coloredBlur"/>
        <feMergeNode in="SourceGraphic"/>
      </feMerge>
    </filter>
  </defs>
  
  <!-- Background: Blue sky -->
  <rect width="128" height="128" fill="url(#sky)"/>
  
  <!-- Clouds with depth -->
  <g>
    <ellipse cx="25" cy="22" rx="12" ry="5" fill="url(#cloudWhite)">
      <animate attributeName="cx" values="25;28;25" dur="20s" repeatCount="indefinite"/>
    </ellipse>
    <ellipse cx="20" cy="20" rx="8" ry="4" fill="url(#cloudWhite)"/>
    <ellipse cx="32" cy="21" rx="7" ry="3.5" fill="url(#cloudWhite)"/>
    <ellipse cx="26" cy="19" rx="5" ry="2.5" fill="#FFFFFF" opacity="0.9"/>
  </g>
  <g>
    <ellipse cx="70" cy="15" rx="10" ry="4" fill="url(#cloudWhite)" opacity="0.8">
      <animate attributeName="cx" values="70;74;70" dur="25s" repeatCount="indefinite"/>
    </ellipse>
    <ellipse cx="65" cy="14" rx="6" ry="3" fill="url(#cloudWhite)" opacity="0.7"/>
    <ellipse cx="76" cy="14" rx="5" ry="2.5" fill="url(#cloudWhite)" opacity="0.75"/>
  </g>
  
  <!-- Distant hills with gradient -->
  <path d="M-10,78 Q30,65 64,72 Q98,79 138,68 L138,88 L-10,88 Z" fill="url(#hills)" opacity="0.7"/>
  
  <!-- Main ground -->
  <path d="M-10,128 L-10,88 Q30,82 64,85 Q98,88 138,82 L138,128 Z" fill="url(#grass)"/>
  
  <!-- Track shadow -->
  <ellipse cx="64" cy="102" rx="59" ry="23" fill="#000000" opacity="0.15"/>
  
  <!-- Running track (oval) with texture -->
  <ellipse cx="64" cy="100" rx="58" ry="22" fill="url(#trackSurface)"/>
  <!-- Track texture granules -->
  <g fill="#B71C1C" opacity="0.15">
    <circle cx="30" cy="95" r="0.3"/><circle cx="45" cy="92" r="0.25"/><circle cx="60" cy="90" r="0.3"/>
    <circle cx="75" cy="91" r="0.25"/><circle cx="90" cy="94" r="0.3"/><circle cx="100" cy="98" r="0.25"/>
    <circle cx="35" cy="108" r="0.3"/><circle cx="55" cy="110" r="0.25"/><circle cx="80" cy="108" r="0.3"/>
  </g>
  <ellipse cx="64" cy="98" rx="56" ry="20" fill="none" stroke="#EF9A9A" stroke-width="0.5" opacity="0.4"/>
  
  <!-- Inner field with grass texture -->
  <ellipse cx="64" cy="100" rx="48" ry="16" fill="url(#turfGround)"/>
  <!-- Grass pattern -->
  <g stroke="#388E3C" stroke-width="0.3" opacity="0.2">
    <line x1="50" y1="98" x2="50" y2="100"/><line x1="55" y1="96" x2="55" y2="98"/>
    <line x1="60" y1="95" x2="60" y2="97"/><line x1="65" y1="95" x2="65" y2="97"/>
    <line x1="70" y1="96" x2="70" y2="98"/><line x1="75" y1="98" x2="75" y2="100"/>
    <line x1="58" y1="102" x2="58" y2="104"/><line x1="68" y1="103" x2="68" y2="105"/>
  </g>
  <ellipse cx="64" cy="98" rx="46" ry="14" fill="none" stroke="#A5D6A7" stroke-width="0.5" opacity="0.4"/>
  
  <!-- Track lanes with better visibility -->
  <ellipse cx="64" cy="100" rx="55" ry="20" fill="none" stroke="url(#trackLine)" stroke-width="1" opacity="0.85"/>
  <ellipse cx="64" cy="100" rx="52" ry="18" fill="none" stroke="url(#trackLine)" stroke-width="0.6" opacity="0.6"/>
  <ellipse cx="64" cy="100" rx="49" ry="16.5" fill="none" stroke="#FFFFFF" stroke-width="0.3" opacity="0.4"/>
  
  <!-- Start/finish line -->
  <rect x="62" y="78" width="4" height="6" fill="#FFFFFF" opacity="0.85"/>
  <rect x="62" y="79" width="4" height="1" fill="#1A1A1A" opacity="0.7"/>
  <rect x="62" y="81" width="4" height="1" fill="#1A1A1A" opacity="0.7"/>
  <rect x="62" y="83" width="4" height="1" fill="#1A1A1A" opacity="0.7"/>
  
  <!-- Track lane numbers with shadows -->
  <text x="18" y="102" font-size="3.5" fill="#000000" opacity="0.2">1</text>
  <text x="17.8" y="101.8" font-size="3.5" fill="#FFFFFF" opacity="0.8">1</text>
  <text x="22" y="97" font-size="3.5" fill="#000000" opacity="0.2">2</text>
  <text x="21.8" y="96.8" font-size="3.5" fill="#FFFFFF" opacity="0.8">2</text>
  <text x="26" y="93" font-size="3" fill="#FFFFFF" opacity="0.6">3</text>
  <text x="102" y="102" font-size="3" fill="#FFFFFF" opacity="0.6">8</text>
  
  <!-- ========== PERSPECTIVE LAYER: FAR BACKGROUND (Y ~24-66) ========== -->
  
  <!-- Enhanced scoreboard with extreme detail (Y ~24-46) -->
  <rect x="44" y="24" width="40" height="22" fill="#1A1A1A" rx="3"/>
  <rect x="45" y="25" width="38" height="20" fill="#263238" rx="2"/>
  <rect x="45" y="25" width="38" height="3" fill="#37474F" rx="1"/>
  <!-- Mounting brackets -->
  <rect x="42" y="28" width="2" height="8" fill="#546E7A"/>
  <rect x="84" y="28" width="2" height="8" fill="#546E7A"/>
  <!-- Brand logo area -->
  <text x="64" y="27" font-size="1.8" fill="#90A4AE" text-anchor="middle" opacity="0.8">STADIUM PRO</text>
  <text x="64" y="29.5" font-size="2.5" fill="#B0BEC5" text-anchor="middle">HOME    AWAY</text>
  <!-- Home score panel with LCD effect -->
  <rect x="47" y="32" width="14" height="12" fill="#0D2818" rx="1"/>
  <rect x="47" y="32" width="14" height="1" fill="#1B5E20" opacity="0.5"/>
  <!-- LCD segments background -->
  <g fill="#0A1F12" opacity="0.3">
    <rect x="49" y="34" width="4" height="8" rx="0.3"/>
    <rect x="55" y="34" width="4" height="8" rx="0.3"/>
  </g>
  <text x="54" y="41" font-size="7" fill="#4CAF50" text-anchor="middle" font-family="monospace">
    <animate attributeName="opacity" values="1;0.85;1" dur="1s" repeatCount="indefinite"/>
    02
  </text>
  <!-- Score glow -->
  <rect x="48" y="35" width="12" height="6" fill="#4CAF50" opacity="0.1" filter="url(#glow)"/>
  <!-- Away score panel with LCD effect -->
  <rect x="67" y="32" width="14" height="12" fill="#2A0A0A" rx="1"/>
  <rect x="67" y="32" width="14" height="1" fill="#B71C1C" opacity="0.5"/>
  <g fill="#1A0505" opacity="0.3">
    <rect x="69" y="34" width="4" height="8" rx="0.3"/>
    <rect x="75" y="34" width="4" height="8" rx="0.3"/>
  </g>
  <text x="74" y="41" font-size="7" fill="#EF5350" text-anchor="middle" font-family="monospace">01</text>
  <rect x="68" y="35" width="12" height="6" fill="#EF5350" opacity="0.1" filter="url(#glow)"/>
  <!-- Colon separator -->
  <circle cx="64" cy="36" r="0.6" fill="#78909C"/>
  <circle cx="64" cy="40" r="0.6" fill="#78909C"/>
  <!-- Time display at bottom -->
  <rect x="56" y="44" width="16" height="3" fill="#1A1A1A" rx="0.5"/>
  <text x="64" y="46.5" font-size="2" fill="#FFC107" text-anchor="middle" font-family="monospace">
    <animate attributeName="opacity" values="0.8;1;0.8" dur="0.5s" repeatCount="indefinite"/>
    45:32
  </text>
  <!-- Status indicators with labels -->
  <circle cx="48" cy="27" r="0.8" fill="#4CAF50">
    <animate attributeName="opacity" values="0.5;1;0.5" dur="0.8s" repeatCount="indefinite"/>
  </circle>
  <text x="48" y="25.5" font-size="1" fill="#4CAF50" text-anchor="middle">PWR</text>
  <circle cx="80" cy="27" r="0.8" fill="#F44336">
    <animate attributeName="opacity" values="1;0.5;1" dur="0.8s" repeatCount="indefinite"/>
  </circle>
  <text x="80" y="25.5" font-size="1" fill="#F44336" text-anchor="middle">REC</text>
  
  <!-- Bleachers/seating with extreme detail (Y ~48-70) -->
  <rect x="20" y="48" width="88" height="18" fill="url(#bleachers)" rx="2"/>
  <rect x="20" y="48" width="88" height="2" fill="#546E7A"/>
  <!-- Structural supports -->
  <rect x="20" y="66" width="2" height="4" fill="#455A64"/>
  <rect x="44" y="66" width="2" height="4" fill="#455A64"/>
  <rect x="66" y="66" width="2" height="4" fill="#455A64"/>
  <rect x="88" y="66" width="2" height="4" fill="#455A64"/>
  <rect x="106" y="66" width="2" height="4" fill="#455A64"/>
  <!-- Bench rows with shadow -->
  <g fill="#78909C">
    <rect x="22" y="51" width="20" height="3" rx="0.5"/>
    <rect x="22" y="51" width="20" height="0.5" fill="#90A4AE"/>
    <rect x="44" y="51" width="20" height="3" rx="0.5"/>
    <rect x="44" y="51" width="20" height="0.5" fill="#90A4AE"/>
    <rect x="66" y="51" width="20" height="3" rx="0.5"/>
    <rect x="66" y="51" width="20" height="0.5" fill="#90A4AE"/>
    <rect x="88" y="51" width="18" height="3" rx="0.5"/>
    <rect x="88" y="51" width="18" height="0.5" fill="#90A4AE"/>
    <rect x="22" y="57" width="20" height="3" rx="0.5"/>
    <rect x="22" y="57" width="20" height="0.5" fill="#90A4AE"/>
    <rect x="44" y="57" width="20" height="3" rx="0.5"/>
    <rect x="44" y="57" width="20" height="0.5" fill="#90A4AE"/>
    <rect x="66" y="57" width="20" height="3" rx="0.5"/>
    <rect x="66" y="57" width="20" height="0.5" fill="#90A4AE"/>
    <rect x="88" y="57" width="18" height="3" rx="0.5"/>
    <rect x="88" y="57" width="18" height="0.5" fill="#90A4AE"/>
    <rect x="22" y="62" width="20" height="3" rx="0.5"/>
    <rect x="22" y="62" width="20" height="0.5" fill="#90A4AE"/>
    <rect x="44" y="62" width="20" height="3" rx="0.5"/>
    <rect x="44" y="62" width="20" height="0.5" fill="#90A4AE"/>
    <rect x="66" y="62" width="20" height="3" rx="0.5"/>
    <rect x="66" y="62" width="20" height="0.5" fill="#90A4AE"/>
    <rect x="88" y="62" width="18" height="3" rx="0.5"/>
    <rect x="88" y="62" width="18" height="0.5" fill="#90A4AE"/>
  </g>
  <!-- Center aisle -->
  <rect x="63" y="50" width="2" height="16" fill="#546E7A" opacity="0.4"/>
  <!-- Safety railings -->
  <line x1="20" y1="49" x2="20" y2="48" stroke="#78909C" stroke-width="0.8"/>
  <line x1="20" y1="48" x2="108" y2="48" stroke="#78909C" stroke-width="0.8"/>
  <line x1="108" y1="49" x2="108" y2="48" stroke="#78909C" stroke-width="0.8"/>
  <!-- Spectators with more detail (heads, bodies, some with accessories) -->
  <!-- Fan 1 - blue shirt, cap -->
  <circle cx="30" cy="50" r="1.5" fill="#FFCC80"/>
  <path d="M28.5,49 L31.5,49 L31.5,48.5 L28.5,48.5 Z" fill="#1565C0"/>
  <ellipse cx="30" cy="52" rx="1.5" ry="2" fill="#2196F3"/>
  <!-- Fan 2 - red shirt -->
  <circle cx="36" cy="50" r="1.5" fill="#FFCC80"/>
  <ellipse cx="36" cy="52" rx="1.5" ry="2" fill="#F44336"/>
  <!-- Fan 3 - green shirt, glasses -->
  <circle cx="52" cy="50" r="1.5" fill="#FFCC80"/>
  <line x1="51" y1="49.8" x2="53" y2="49.8" stroke="#212121" stroke-width="0.3"/>
  <ellipse cx="52" cy="52" rx="1.5" ry="2" fill="#4CAF50"/>
  <!-- Fan 4 - purple shirt with drink -->
  <circle cx="68" cy="56" r="1.5" fill="#FFCC80"/>
  <ellipse cx="68" cy="58" rx="1.5" ry="2" fill="#9C27B0"/>
  <rect x="70" y="56" width="1" height="2" fill="#F44336" rx="0.2"/>
  <!-- Fan 5 - orange shirt -->
  <circle cx="80" cy="56" r="1.5" fill="#FFCC80"/>
  <ellipse cx="80" cy="58" rx="1.5" ry="2" fill="#FF9800"/>
  <!-- Fan 6 - cyan shirt, foam finger -->
  <circle cx="95" cy="50" r="1.5" fill="#FFCC80"/>
  <ellipse cx="95" cy="52" rx="1.5" ry="2" fill="#00BCD4"/>
  <path d="M97,51 L99,48" stroke="#FFEB3B" stroke-width="1.5"/>
  <circle cx="99" cy="48" r="1" fill="#FFEB3B"/>
  <!-- Cheering spectator with detail -->
  <g>
    <circle cx="75" cy="50" r="1.5" fill="#FFCC80"/>
    <!-- Excited expression -->
    <ellipse cx="74.5" cy="49.8" rx="0.3" ry="0.2" fill="#5D4037"/>
    <ellipse cx="75.5" cy="49.8" rx="0.3" ry="0.2" fill="#5D4037"/>
    <ellipse cx="75" cy="50.5" rx="0.5" ry="0.3" fill="#D7CCC8"/>
    <ellipse cx="75" cy="52" rx="1.5" ry="2" fill="#FFEB3B"/>
    <!-- Arms up -->
    <line x1="73.5" y1="51" x2="72" y2="48" stroke="#FFCC80" stroke-width="0.8">
      <animate attributeName="y2" values="48;46;48" dur="0.5s" repeatCount="indefinite"/>
    </line>
    <line x1="76.5" y1="51" x2="78" y2="48" stroke="#FFCC80" stroke-width="0.8">
      <animate attributeName="y2" values="48;46;48" dur="0.5s" repeatCount="indefinite"/>
    </line>
    <!-- Pom poms -->
    <circle cx="72" cy="47" r="1" fill="#FFEB3B">
      <animate attributeName="cy" values="47;45;47" dur="0.5s" repeatCount="indefinite"/>
    </circle>
    <circle cx="78" cy="47" r="1" fill="#FFEB3B">
      <animate attributeName="cy" values="47;45;47" dur="0.5s" repeatCount="indefinite"/>
    </circle>
  </g>
  <!-- Extra spectators in back row -->
  <circle cx="42" cy="61" r="1.2" fill="#FFCC80" opacity="0.8"/>
  <ellipse cx="42" cy="62.5" rx="1.2" ry="1.5" fill="#3F51B5" opacity="0.8"/>
  <circle cx="58" cy="61" r="1.2" fill="#FFCC80" opacity="0.8"/>
  <ellipse cx="58" cy="62.5" rx="1.2" ry="1.5" fill="#E91E63" opacity="0.8"/>
  <circle cx="85" cy="61" r="1.2" fill="#FFCC80" opacity="0.8"/>
  <ellipse cx="85" cy="62.5" rx="1.2" ry="1.5" fill="#009688" opacity="0.8"/>
  
  <!-- ========== PERSPECTIVE LAYER: SIDE ELEMENTS (Stadium Lights) ========== -->
  
  <!-- Stadium lights - left with extreme detail -->
  <!-- Pole with rivet details -->
  <rect x="6" y="40" width="4" height="50" fill="url(#lightPole)"/>
  <rect x="6" y="40" width="1" height="50" fill="#B0BEC5" opacity="0.3"/>
  <circle cx="8" cy="45" r="0.5" fill="#546E7A"/>
  <circle cx="8" cy="55" r="0.5" fill="#546E7A"/>
  <circle cx="8" cy="65" r="0.5" fill="#546E7A"/>
  <circle cx="8" cy="75" r="0.5" fill="#546E7A"/>
  <!-- Light housing with reflectors -->
  <rect x="4" y="36" width="8" height="6" fill="url(#metalEquip)"/>
  <rect x="4" y="36" width="8" height="1" fill="#B0BEC5" opacity="0.4"/>
  <rect x="2" y="36" width="12" height="2" fill="#90A4AE"/>
  <rect x="2" y="36" width="12" height="0.5" fill="#B0BEC5"/>
  <!-- Reflector dishes -->
  <ellipse cx="6" cy="39" rx="2.5" ry="1.5" fill="#CFD8DC" opacity="0.5"/>
  <ellipse cx="12" cy="39" rx="2.5" ry="1.5" fill="#CFD8DC" opacity="0.5"/>
  <!-- Light bulbs with glow and filaments -->
  <circle cx="6" cy="39" r="5" fill="url(#lightGlow)">
    <animate attributeName="r" values="5;6;5" dur="2s" repeatCount="indefinite"/>
  </circle>
  <rect x="4" y="38" width="3" height="2" fill="#FFEB3B" filter="url(#glow)" rx="0.3">
    <animate attributeName="opacity" values="0.8;1;0.8" dur="0.5s" repeatCount="indefinite"/>
  </rect>
  <line x1="5" y1="38.5" x2="6" y2="39.5" stroke="#FFF9C4" stroke-width="0.3" opacity="0.8"/>
  <circle cx="12" cy="39" r="5" fill="url(#lightGlow)">
    <animate attributeName="r" values="6;5;6" dur="2s" repeatCount="indefinite"/>
  </circle>
  <rect x="9" y="38" width="3" height="2" fill="#FFEB3B" filter="url(#glow)" rx="0.3">
    <animate attributeName="opacity" values="1;0.8;1" dur="0.5s" repeatCount="indefinite"/>
  </rect>
  <line x1="10" y1="38.5" x2="11" y2="39.5" stroke="#FFF9C4" stroke-width="0.3" opacity="0.8"/>
  <!-- Light beams (subtle) -->
  <path d="M6,42 L-2,90 L14,90 Z" fill="#FFEB3B" opacity="0.03">
    <animate attributeName="opacity" values="0.02;0.04;0.02" dur="2s" repeatCount="indefinite"/>
  </path>
  
  <!-- Stadium lights - right with extreme detail -->
  <rect x="118" y="40" width="4" height="50" fill="url(#lightPole)"/>
  <rect x="121" y="40" width="1" height="50" fill="#B0BEC5" opacity="0.3"/>
  <circle cx="120" cy="45" r="0.5" fill="#546E7A"/>
  <circle cx="120" cy="55" r="0.5" fill="#546E7A"/>
  <circle cx="120" cy="65" r="0.5" fill="#546E7A"/>
  <circle cx="120" cy="75" r="0.5" fill="#546E7A"/>
  <rect x="116" y="36" width="8" height="6" fill="url(#metalEquip)"/>
  <rect x="116" y="36" width="8" height="1" fill="#B0BEC5" opacity="0.4"/>
  <rect x="114" y="36" width="12" height="2" fill="#90A4AE"/>
  <rect x="114" y="36" width="12" height="0.5" fill="#B0BEC5"/>
  <ellipse cx="116" cy="39" rx="2.5" ry="1.5" fill="#CFD8DC" opacity="0.5"/>
  <ellipse cx="124" cy="39" rx="2.5" ry="1.5" fill="#CFD8DC" opacity="0.5"/>
  <circle cx="116" cy="39" r="5" fill="url(#lightGlow)">
    <animate attributeName="r" values="5;6;5" dur="2s" repeatCount="indefinite"/>
  </circle>
  <rect x="114" y="38" width="3" height="2" fill="#FFEB3B" filter="url(#glow)" rx="0.3">
    <animate attributeName="opacity" values="1;0.8;1" dur="0.5s" repeatCount="indefinite"/>
  </rect>
  <line x1="115" y1="38.5" x2="116" y2="39.5" stroke="#FFF9C4" stroke-width="0.3" opacity="0.8"/>
  <circle cx="124" cy="39" r="5" fill="url(#lightGlow)">
    <animate attributeName="r" values="6;5;6" dur="2s" repeatCount="indefinite"/>
  </circle>
  <rect x="121" y="38" width="3" height="2" fill="#FFEB3B" filter="url(#glow)" rx="0.3">
    <animate attributeName="opacity" values="0.8;1;0.8" dur="0.5s" repeatCount="indefinite"/>
  </rect>
  <line x1="122" y1="38.5" x2="123" y2="39.5" stroke="#FFF9C4" stroke-width="0.3" opacity="0.8"/>
  <path d="M122,42 L114,90 L130,90 Z" fill="#FFEB3B" opacity="0.03">
    <animate attributeName="opacity" values="0.02;0.04;0.02" dur="2s" repeatCount="indefinite"/>
  </path>
  
  <!-- ========== PERSPECTIVE LAYER: MID-GROUND OBJECTS ========== -->
  
  <!-- Enhanced animated soccer ball (behind athletes) -->
  <g>
    <animateTransform attributeName="transform" type="translate" values="0,0;-10,-3;0,0;10,-3;0,0" dur="3s" repeatCount="indefinite"/>
    <!-- Ball base -->
    <circle cx="72" cy="103" r="3.5" fill="#FFFFFF"/>
    <circle cx="72" cy="103" r="3.5" fill="none" stroke="#1A1A1A" stroke-width="0.3"/>
    <!-- Classic soccer ball panels - multiple pentagons distributed -->
    <g>
      <animateTransform attributeName="transform" type="rotate" values="0 72 103;360 72 103" dur="2s" repeatCount="indefinite"/>
      <!-- Center pentagon -->
      <polygon points="72,102 73,102.7 72.6,103.8 71.4,103.8 71,102.7" fill="#1A1A1A"/>
      <!-- Top pentagon -->
      <polygon points="72,99.8 72.6,100.3 72.4,100.9 71.6,100.9 71.4,100.3" fill="#1A1A1A"/>
      <!-- Bottom pentagon -->
      <polygon points="72,105.5 72.5,105.1 72.3,104.6 71.7,104.6 71.5,105.1" fill="#1A1A1A"/>
      <!-- Left pentagon -->
      <polygon points="69.2,103 69.6,102.5 70.2,102.7 70.2,103.3 69.6,103.5" fill="#1A1A1A"/>
      <!-- Right pentagon -->
      <polygon points="74.8,103 74.4,102.5 73.8,102.7 73.8,103.3 74.4,103.5" fill="#1A1A1A"/>
      <!-- Panel seams (white hexagon outlines) -->
      <path d="M71,102.7 L72,102 L73,102.7" fill="none" stroke="#E0E0E0" stroke-width="0.15"/>
      <path d="M71,103.3 L72,104 L73,103.3" fill="none" stroke="#E0E0E0" stroke-width="0.15"/>
    </g>
    <!-- Ball highlight -->
    <circle cx="71" cy="101.8" r="0.8" fill="#FFFFFF" opacity="0.5"/>
    <!-- Ball shadow -->
    <ellipse cx="72" cy="107" rx="2.5" ry="0.8" fill="#000000" opacity="0.2">
      <animate attributeName="ry" values="0.8;0.5;0.8" dur="3s" repeatCount="indefinite"/>
    </ellipse>
  </g>
  
  <!-- ========== COMPLEX RUNNING ATHLETES WITH SEAMLESS LOOPS ========== -->
  
  <!-- ATHLETE A (Orange): Running counterclockwise, dual-instance seamless loop -->
  <!-- Instance 1 -->
  <g>
    <animateTransform attributeName="transform" type="translate" 
      values="0,0; 15,4; 30,6; 50,4; 70,0; 85,-4; 95,-6; 80,-4; 60,0; 40,4; 20,6; 0,0" 
      dur="6s" repeatCount="indefinite"/>
    <!-- Body -->
    <ellipse cx="20" cy="94" rx="3.5" ry="5" fill="url(#athleteOrange)"/>
    <!-- Head with hair -->
    <circle cx="20" cy="88" r="2.5" fill="url(#skinTone)"/>
    <ellipse cx="20" cy="86" rx="2" ry="1" fill="#5D4037"/>
    <!-- Arms swinging -->
    <line x1="17.5" y1="92" x2="15" y2="94" stroke="url(#skinTone)" stroke-width="1.5" stroke-linecap="round">
      <animate attributeName="x2" values="15;18;15" dur="0.4s" repeatCount="indefinite"/>
      <animate attributeName="y2" values="94;90;94" dur="0.4s" repeatCount="indefinite"/>
    </line>
    <line x1="22.5" y1="92" x2="25" y2="90" stroke="url(#skinTone)" stroke-width="1.5" stroke-linecap="round">
      <animate attributeName="x2" values="25;22;25" dur="0.4s" repeatCount="indefinite"/>
      <animate attributeName="y2" values="90;94;90" dur="0.4s" repeatCount="indefinite"/>
    </line>
    <!-- Legs running -->
    <line x1="19" y1="98" x2="17" y2="103" stroke="url(#athleteOrange)" stroke-width="2" stroke-linecap="round">
      <animate attributeName="x2" values="17;21;17" dur="0.4s" repeatCount="indefinite"/>
    </line>
    <line x1="21" y1="98" x2="23" y2="103" stroke="url(#athleteOrange)" stroke-width="2" stroke-linecap="round">
      <animate attributeName="x2" values="23;19;23" dur="0.4s" repeatCount="indefinite"/>
    </line>
    <!-- Jersey number -->
    <text x="20" y="95" font-size="2.5" fill="#FFFFFF" text-anchor="middle">1</text>
  </g>
  <!-- Instance 2 (offset by half cycle) -->
  <g>
    <animateTransform attributeName="transform" type="translate" 
      values="70,0; 85,-4; 95,-6; 80,-4; 60,0; 40,4; 20,6; 0,0; 15,4; 30,6; 50,4; 70,0" 
      dur="6s" repeatCount="indefinite"/>
    <ellipse cx="20" cy="94" rx="3.5" ry="5" fill="url(#athleteOrange)"/>
    <circle cx="20" cy="88" r="2.5" fill="url(#skinTone)"/>
    <ellipse cx="20" cy="86" rx="2" ry="1" fill="#5D4037"/>
    <line x1="17.5" y1="92" x2="15" y2="94" stroke="url(#skinTone)" stroke-width="1.5" stroke-linecap="round">
      <animate attributeName="x2" values="15;18;15" dur="0.4s" repeatCount="indefinite"/>
      <animate attributeName="y2" values="94;90;94" dur="0.4s" repeatCount="indefinite"/>
    </line>
    <line x1="22.5" y1="92" x2="25" y2="90" stroke="url(#skinTone)" stroke-width="1.5" stroke-linecap="round">
      <animate attributeName="x2" values="25;22;25" dur="0.4s" repeatCount="indefinite"/>
      <animate attributeName="y2" values="90;94;90" dur="0.4s" repeatCount="indefinite"/>
    </line>
    <line x1="19" y1="98" x2="17" y2="103" stroke="url(#athleteOrange)" stroke-width="2" stroke-linecap="round">
      <animate attributeName="x2" values="17;21;17" dur="0.4s" repeatCount="indefinite"/>
    </line>
    <line x1="21" y1="98" x2="23" y2="103" stroke="url(#athleteOrange)" stroke-width="2" stroke-linecap="round">
      <animate attributeName="x2" values="23;19;23" dur="0.4s" repeatCount="indefinite"/>
    </line>
    <text x="20" y="95" font-size="2.5" fill="#FFFFFF" text-anchor="middle">1</text>
  </g>
  
  <!-- ATHLETE B (Blue): Faster runner, inner lane -->
  <!-- Instance 1 -->
  <g>
    <animateTransform attributeName="transform" type="translate" 
      values="0,0; 12,3; 24,5; 40,3; 56,0; 68,-3; 76,-5; 64,-3; 48,0; 32,3; 16,5; 0,0" 
      dur="4.5s" repeatCount="indefinite"/>
    <ellipse cx="32" cy="100" rx="3.5" ry="5" fill="url(#athleteBlue)"/>
    <circle cx="32" cy="94" r="2.5" fill="url(#skinTone)"/>
    <ellipse cx="32" cy="92.5" rx="1.8" ry="0.8" fill="#1A1A1A"/>
    <line x1="29.5" y1="98" x2="27" y2="100" stroke="url(#skinTone)" stroke-width="1.5" stroke-linecap="round">
      <animate attributeName="x2" values="27;30;27" dur="0.35s" repeatCount="indefinite"/>
      <animate attributeName="y2" values="100;96;100" dur="0.35s" repeatCount="indefinite"/>
    </line>
    <line x1="34.5" y1="98" x2="37" y2="96" stroke="url(#skinTone)" stroke-width="1.5" stroke-linecap="round">
      <animate attributeName="x2" values="37;34;37" dur="0.35s" repeatCount="indefinite"/>
      <animate attributeName="y2" values="96;100;96" dur="0.35s" repeatCount="indefinite"/>
    </line>
    <line x1="31" y1="104" x2="29" y2="109" stroke="url(#athleteBlue)" stroke-width="2" stroke-linecap="round">
      <animate attributeName="x2" values="29;33;29" dur="0.35s" repeatCount="indefinite"/>
    </line>
    <line x1="33" y1="104" x2="35" y2="109" stroke="url(#athleteBlue)" stroke-width="2" stroke-linecap="round">
      <animate attributeName="x2" values="35;31;35" dur="0.35s" repeatCount="indefinite"/>
    </line>
    <text x="32" y="101" font-size="2.5" fill="#FFFFFF" text-anchor="middle">7</text>
  </g>
  <!-- Instance 2 -->
  <g>
    <animateTransform attributeName="transform" type="translate" 
      values="56,0; 68,-3; 76,-5; 64,-3; 48,0; 32,3; 16,5; 0,0; 12,3; 24,5; 40,3; 56,0" 
      dur="4.5s" repeatCount="indefinite"/>
    <ellipse cx="32" cy="100" rx="3.5" ry="5" fill="url(#athleteBlue)"/>
    <circle cx="32" cy="94" r="2.5" fill="url(#skinTone)"/>
    <ellipse cx="32" cy="92.5" rx="1.8" ry="0.8" fill="#1A1A1A"/>
    <line x1="29.5" y1="98" x2="27" y2="100" stroke="url(#skinTone)" stroke-width="1.5" stroke-linecap="round">
      <animate attributeName="x2" values="27;30;27" dur="0.35s" repeatCount="indefinite"/>
      <animate attributeName="y2" values="100;96;100" dur="0.35s" repeatCount="indefinite"/>
    </line>
    <line x1="34.5" y1="98" x2="37" y2="96" stroke="url(#skinTone)" stroke-width="1.5" stroke-linecap="round">
      <animate attributeName="x2" values="37;34;37" dur="0.35s" repeatCount="indefinite"/>
      <animate attributeName="y2" values="96;100;96" dur="0.35s" repeatCount="indefinite"/>
    </line>
    <line x1="31" y1="104" x2="29" y2="109" stroke="url(#athleteBlue)" stroke-width="2" stroke-linecap="round">
      <animate attributeName="x2" values="29;33;29" dur="0.35s" repeatCount="indefinite"/>
    </line>
    <line x1="33" y1="104" x2="35" y2="109" stroke="url(#athleteBlue)" stroke-width="2" stroke-linecap="round">
      <animate attributeName="x2" values="35;31;35" dur="0.35s" repeatCount="indefinite"/>
    </line>
    <text x="32" y="101" font-size="2.5" fill="#FFFFFF" text-anchor="middle">7</text>
  </g>
  
  <!-- ATHLETE C (Green): Sprint runner on outside -->
  <!-- Instance 1 -->
  <g>
    <animateTransform attributeName="transform" type="translate" 
      values="0,0; 20,5; 45,8; 70,5; 90,0; 70,-5; 45,-8; 20,-5; 0,0" 
      dur="5s" repeatCount="indefinite"/>
    <ellipse cx="8" cy="92" rx="3.5" ry="5" fill="url(#athleteGreen)"/>
    <circle cx="8" cy="86" r="2.5" fill="url(#skinTone)"/>
    <path d="M6,84 Q8,83 10,84" fill="none" stroke="#4E342E" stroke-width="1"/>
    <line x1="5.5" y1="90" x2="3" y2="92" stroke="url(#skinTone)" stroke-width="1.5" stroke-linecap="round">
      <animate attributeName="x2" values="3;6;3" dur="0.38s" repeatCount="indefinite"/>
      <animate attributeName="y2" values="92;88;92" dur="0.38s" repeatCount="indefinite"/>
    </line>
    <line x1="10.5" y1="90" x2="13" y2="88" stroke="url(#skinTone)" stroke-width="1.5" stroke-linecap="round">
      <animate attributeName="x2" values="13;10;13" dur="0.38s" repeatCount="indefinite"/>
      <animate attributeName="y2" values="88;92;88" dur="0.38s" repeatCount="indefinite"/>
    </line>
    <line x1="7" y1="96" x2="5" y2="101" stroke="url(#athleteGreen)" stroke-width="2" stroke-linecap="round">
      <animate attributeName="x2" values="5;9;5" dur="0.38s" repeatCount="indefinite"/>
    </line>
    <line x1="9" y1="96" x2="11" y2="101" stroke="url(#athleteGreen)" stroke-width="2" stroke-linecap="round">
      <animate attributeName="x2" values="11;7;11" dur="0.38s" repeatCount="indefinite"/>
    </line>
    <text x="8" y="93" font-size="2.5" fill="#FFFFFF" text-anchor="middle">23</text>
  </g>
  <!-- Instance 2 -->
  <g>
    <animateTransform attributeName="transform" type="translate" 
      values="90,0; 70,-5; 45,-8; 20,-5; 0,0; 20,5; 45,8; 70,5; 90,0" 
      dur="5s" repeatCount="indefinite"/>
    <ellipse cx="8" cy="92" rx="3.5" ry="5" fill="url(#athleteGreen)"/>
    <circle cx="8" cy="86" r="2.5" fill="url(#skinTone)"/>
    <path d="M6,84 Q8,83 10,84" fill="none" stroke="#4E342E" stroke-width="1"/>
    <line x1="5.5" y1="90" x2="3" y2="92" stroke="url(#skinTone)" stroke-width="1.5" stroke-linecap="round">
      <animate attributeName="x2" values="3;6;3" dur="0.38s" repeatCount="indefinite"/>
      <animate attributeName="y2" values="92;88;92" dur="0.38s" repeatCount="indefinite"/>
    </line>
    <line x1="10.5" y1="90" x2="13" y2="88" stroke="url(#skinTone)" stroke-width="1.5" stroke-linecap="round">
      <animate attributeName="x2" values="13;10;13" dur="0.38s" repeatCount="indefinite"/>
      <animate attributeName="y2" values="88;92;88" dur="0.38s" repeatCount="indefinite"/>
    </line>
    <line x1="7" y1="96" x2="5" y2="101" stroke="url(#athleteGreen)" stroke-width="2" stroke-linecap="round">
      <animate attributeName="x2" values="5;9;5" dur="0.38s" repeatCount="indefinite"/>
    </line>
    <line x1="9" y1="96" x2="11" y2="101" stroke="url(#athleteGreen)" stroke-width="2" stroke-linecap="round">
      <animate attributeName="x2" values="11;7;11" dur="0.38s" repeatCount="indefinite"/>
    </line>
    <text x="8" y="93" font-size="2.5" fill="#FFFFFF" text-anchor="middle">23</text>
  </g>
  
  <!-- Dust clouds from runners -->
  <circle cx="18" cy="104" r="2" fill="url(#dustCloud)" opacity="0.4">
    <animate attributeName="opacity" values="0.4;0.1;0.4" dur="0.5s" repeatCount="indefinite"/>
    <animate attributeName="r" values="2;3;2" dur="0.5s" repeatCount="indefinite"/>
  </circle>
  <circle cx="30" cy="108" r="1.5" fill="url(#dustCloud)" opacity="0.3">
    <animate attributeName="opacity" values="0.3;0.1;0.3" dur="0.4s" repeatCount="indefinite"/>
  </circle>
</svg>
