<?xml version="1.0" encoding="UTF-8"?>
<svg xmlns="http://www.w3.org/2000/svg" viewBox="0 0 128 128" width="128" height="128">
  <!-- University Level 2 (Animated) - Modern Research University -->
  <defs>
    <linearGradient id="concreteWall" x1="0%" y1="0%" x2="100%" y2="100%">
      <stop offset="0%" style="stop-color:#ECEFF1"/>
      <stop offset="50%" style="stop-color:#CFD8DC"/>
      <stop offset="100%" style="stop-color:#B0BEC5"/>
    </linearGradient>
    <linearGradient id="glassPanel" x1="0%" y1="0%" x2="100%" y2="100%">
      <stop offset="0%" style="stop-color:#E3F2FD"/>
      <stop offset="50%" style="stop-color:#BBDEFB"/>
      <stop offset="100%" style="stop-color:#90CAF9"/>
    </linearGradient>
    <linearGradient id="steelFrame" x1="0%" y1="0%" x2="100%" y2="100%">
      <stop offset="0%" style="stop-color:#607D8B"/>
      <stop offset="50%" style="stop-color:#546E7A"/>
      <stop offset="100%" style="stop-color:#455A64"/>
    </linearGradient>
    <linearGradient id="domeModern" x1="0%" y1="100%" x2="0%" y2="0%">
      <stop offset="0%" style="stop-color:#5C6BC0"/>
      <stop offset="50%" style="stop-color:#7986CB"/>
      <stop offset="100%" style="stop-color:#9FA8DA"/>
    </linearGradient>
    <linearGradient id="sky" x1="0%" y1="0%" x2="0%" y2="100%">
      <stop offset="0%" style="stop-color:#4da6ff"/>
      <stop offset="100%" style="stop-color:#87ceeb"/>
    </linearGradient>
    <linearGradient id="grass" x1="0%" y1="0%" x2="0%" y2="100%">
      <stop offset="0%" style="stop-color:#7cb342"/>
      <stop offset="100%" style="stop-color:#558b2f"/>
    </linearGradient>
    <filter id="dropShadow" x="-20%" y="-20%" width="140%" height="140%">
      <feDropShadow dx="2" dy="2" stdDeviation="2" flood-color="#37474F" flood-opacity="0.3"/>
    </filter>
  </defs>
  
  <!-- Background: Blue sky -->
  <rect width="128" height="128" fill="url(#sky)"/>
  
  <!-- Distant hills -->
  <path d="M-10,78 Q30,65 64,72 Q98,79 138,68 L138,88 L-10,88 Z" fill="#8bc34a" opacity="0.6"/>
  
  <!-- Main ground -->
  <path d="M-10,128 L-10,88 Q30,82 64,85 Q98,88 138,82 L138,128 Z" fill="url(#grass)"/>
  
  <!-- Pathway -->
  <path d="M52 128 L56 110 L72 110 L76 128" fill="#BDBDBD"/>
  <path d="M54 128 L57 112 L71 112 L74 128" fill="#E0E0E0"/>
  
  <!-- Left modern wing -->
  <rect x="4" y="54" width="28" height="66" fill="url(#concreteWall)" filter="url(#dropShadow)"/>
  <rect x="6" y="58" width="24" height="14" fill="url(#glassPanel)"/>
  <rect x="6" y="76" width="24" height="14" fill="url(#glassPanel)"/>
  <rect x="6" y="94" width="24" height="14" fill="url(#glassPanel)"/>
  <line x1="18" y1="58" x2="18" y2="108" stroke="#455A64" stroke-width="1"/>
  
  <!-- Right modern wing -->
  <rect x="96" y="54" width="28" height="66" fill="url(#concreteWall)" filter="url(#dropShadow)"/>
  <rect x="98" y="58" width="24" height="14" fill="url(#glassPanel)"/>
  <rect x="98" y="76" width="24" height="14" fill="url(#glassPanel)"/>
  <rect x="98" y="94" width="24" height="14" fill="url(#glassPanel)"/>
  <line x1="110" y1="58" x2="110" y2="108" stroke="#455A64" stroke-width="1"/>
  
  <!-- Main building -->
  <rect x="28" y="40" width="72" height="80" fill="url(#concreteWall)" filter="url(#dropShadow)"/>
  
  <!-- Glass curtain wall -->
  <rect x="32" y="46" width="64" height="30" fill="url(#glassPanel)"/>
  <line x1="48" y1="46" x2="48" y2="76" stroke="#455A64" stroke-width="1"/>
  <line x1="64" y1="46" x2="64" y2="76" stroke="#455A64" stroke-width="1"/>
  <line x1="80" y1="46" x2="80" y2="76" stroke="#455A64" stroke-width="1"/>
  <line x1="32" y1="56" x2="96" y2="56" stroke="#455A64" stroke-width="1"/>
  <line x1="32" y1="66" x2="96" y2="66" stroke="#455A64" stroke-width="1"/>
  
  <!-- Modern dome observatory with rotating slit -->
  <ellipse cx="64" cy="30" rx="24" ry="14" fill="url(#domeModern)"/>
  <ellipse cx="64" cy="30" rx="20" ry="10" fill="#9FA8DA" opacity="0.6"/>
  <rect x="58" y="16" width="12" height="8" fill="#455A64"/>
  <circle cx="64" cy="14" r="4" fill="#7986CB">
    <animate attributeName="fill" values="#7986CB;#9FA8DA;#7986CB" dur="2s" repeatCount="indefinite"/>
  </circle>
  
  <!-- Animated telescope slit -->
  <rect x="62" y="22" width="4" height="10" fill="#455A64">
    <animate attributeName="x" values="62;66;62;58;62" dur="8s" repeatCount="indefinite"/>
  </rect>
  
  <!-- Entrance area -->
  <rect x="48" y="80" width="32" height="40" fill="url(#steelFrame)"/>
  <rect x="52" y="84" width="24" height="32" fill="url(#glassPanel)"/>
  <line x1="64" y1="84" x2="64" y2="116" stroke="#455A64" stroke-width="2"/>
  
  <!-- Modern columns (steel) -->
  <rect x="34" y="76" width="4" height="44" fill="url(#steelFrame)"/>
  <rect x="90" y="76" width="4" height="44" fill="url(#steelFrame)"/>
  
  <!-- Research tower left with blinking lights -->
  <rect x="8" y="30" width="16" height="24" fill="url(#concreteWall)"/>
  <rect x="10" y="34" width="12" height="8" fill="url(#glassPanel)"/>
  <rect x="10" y="44" width="12" height="8" fill="url(#glassPanel)"/>
  <circle cx="16" cy="28" r="3" fill="#7986CB">
    <animate attributeName="opacity" values="0.5;1;0.5" dur="1.5s" repeatCount="indefinite"/>
  </circle>
  
  <!-- Research tower right with blinking lights -->
  <rect x="104" y="30" width="16" height="24" fill="url(#concreteWall)"/>
  <rect x="106" y="34" width="12" height="8" fill="url(#glassPanel)"/>
  <rect x="106" y="44" width="12" height="8" fill="url(#glassPanel)"/>
  <circle cx="112" cy="28" r="3" fill="#7986CB">
    <animate attributeName="opacity" values="1;0.5;1" dur="1.5s" repeatCount="indefinite"/>
  </circle>
  
  <!-- University sign -->
  <rect x="44" y="34" width="40" height="8" fill="#455A64" rx="2"/>
  <text x="64" y="40" font-size="5" fill="#FFFFFF" text-anchor="middle">RESEARCH U</text>
  
  <!-- Animated satellite dishes -->
  <g>
    <animateTransform attributeName="transform" type="rotate" values="-20 24 24;-10 24 24;-20 24 24" dur="6s" repeatCount="indefinite"/>
    <ellipse cx="24" cy="24" rx="6" ry="3" fill="#90A4AE"/>
    <line x1="24" y1="24" x2="24" y2="30" stroke="#607D8B" stroke-width="1"/>
  </g>
  
  <g>
    <animateTransform attributeName="transform" type="rotate" values="20 104 22;30 104 22;20 104 22" dur="7s" repeatCount="indefinite"/>
    <ellipse cx="104" cy="22" rx="5" ry="2.5" fill="#90A4AE"/>
    <line x1="104" y1="22" x2="104" y2="28" stroke="#607D8B" stroke-width="1"/>
  </g>
  
  <!-- Animated lab equipment in windows -->
  <rect x="36" y="60" width="8" height="4" fill="#4CAF50" opacity="0.6">
    <animate attributeName="opacity" values="0.4;0.8;0.4" dur="2s" repeatCount="indefinite"/>
  </rect>
  <circle cx="56" cy="62" r="2" fill="#2196F3" opacity="0.6">
    <animate attributeName="r" values="1.5;2.5;1.5" dur="1.5s" repeatCount="indefinite"/>
  </circle>
  <rect x="72" y="60" width="6" height="4" fill="#FF9800" opacity="0.6">
    <animate attributeName="opacity" values="0.6;1;0.6" dur="1.8s" repeatCount="indefinite"/>
  </rect>
  <circle cx="88" cy="62" r="2" fill="#E91E63" opacity="0.6">
    <animate attributeName="r" values="2;1.5;2" dur="2s" repeatCount="indefinite"/>
  </circle>
  
  <!-- Tree/landscaping with gentle sway -->
  <g>
    <animateTransform attributeName="transform" type="rotate" values="-2 14 118;2 14 118;-2 14 118" dur="4s" repeatCount="indefinite"/>
    <circle cx="14" cy="112" r="6" fill="#43A047"/>
  </g>
  <rect x="12" y="112" width="4" height="8" fill="#5D4037"/>
  
  <g>
    <animateTransform attributeName="transform" type="rotate" values="2 114 118;-2 114 118;2 114 118" dur="4.5s" repeatCount="indefinite"/>
    <circle cx="114" cy="112" r="6" fill="#43A047"/>
  </g>
  <rect x="112" y="112" width="4" height="8" fill="#5D4037"/>
  
  <!-- Animated people entering -->
  <rect x="60" y="112" width="3" height="6" fill="#455A64">
    <animate attributeName="y" values="112;108;112;116;112" dur="4s" repeatCount="indefinite"/>
  </rect>
  <rect x="66" y="110" width="3" height="6" fill="#546E7A">
    <animate attributeName="y" values="110;114;110;106;110" dur="3.5s" repeatCount="indefinite"/>
  </rect>
</svg>
