<svg xmlns="http://www.w3.org/2000/svg" viewBox="0 0 128 128" width="128" height="128">
  <!-- Wonder of the World - 128x128 SPECTACULAR Animated Version -->
  <defs>
    <linearGradient id="wonderWall" x1="0%" y1="0%" x2="100%" y2="0%">
      <stop offset="0%" style="stop-color:#B0BEC5"/>
      <stop offset="20%" style="stop-color:#CFD8DC"/>
      <stop offset="50%" style="stop-color:#ECEFF1"/>
      <stop offset="80%" style="stop-color:#CFD8DC"/>
      <stop offset="100%" style="stop-color:#90A4AE"/>
    </linearGradient>
    <linearGradient id="wonderTower" x1="0%" y1="0%" x2="100%" y2="0%">
      <stop offset="0%" style="stop-color:#90A4AE"/>
      <stop offset="25%" style="stop-color:#B0BEC5"/>
      <stop offset="50%" style="stop-color:#CFD8DC"/>
      <stop offset="75%" style="stop-color:#B0BEC5"/>
      <stop offset="100%" style="stop-color:#78909C"/>
    </linearGradient>
    <linearGradient id="wonderGold" x1="0%" y1="0%" x2="0%" y2="100%">
      <stop offset="0%" style="stop-color:#FFF176"/>
      <stop offset="20%" style="stop-color:#FFEB3B"/>
      <stop offset="50%" style="stop-color:#FFD54F"/>
      <stop offset="80%" style="stop-color:#FFC107"/>
      <stop offset="100%" style="stop-color:#FF8F00"/>
    </linearGradient>
    <linearGradient id="wonderRoof" x1="0%" y1="100%" x2="0%" y2="0%">
      <stop offset="0%" style="stop-color:#4E342E"/>
      <stop offset="30%" style="stop-color:#5D4037"/>
      <stop offset="60%" style="stop-color:#6D4C41"/>
      <stop offset="100%" style="stop-color:#795548"/>
    </linearGradient>
    <linearGradient id="redBanner" x1="0%" y1="0%" x2="100%" y2="100%">
      <stop offset="0%" style="stop-color:#F44336"/>
      <stop offset="50%" style="stop-color:#E53935"/>
      <stop offset="100%" style="stop-color:#C62828"/>
    </linearGradient>
    <linearGradient id="blueBanner" x1="0%" y1="0%" x2="100%" y2="100%">
      <stop offset="0%" style="stop-color:#42A5F5"/>
      <stop offset="50%" style="stop-color:#2196F3"/>
      <stop offset="100%" style="stop-color:#1976D2"/>
    </linearGradient>
    <linearGradient id="greenBanner" x1="0%" y1="0%" x2="100%" y2="100%">
      <stop offset="0%" style="stop-color:#66BB6A"/>
      <stop offset="50%" style="stop-color:#4CAF50"/>
      <stop offset="100%" style="stop-color:#388E3C"/>
    </linearGradient>
    <linearGradient id="purpleBanner" x1="0%" y1="0%" x2="100%" y2="100%">
      <stop offset="0%" style="stop-color:#BA68C8"/>
      <stop offset="50%" style="stop-color:#9C27B0"/>
      <stop offset="100%" style="stop-color:#7B1FA2"/>
    </linearGradient>
    <radialGradient id="magicGlow" cx="50%" cy="50%" r="50%">
      <stop offset="0%" style="stop-color:#E1BEE7" stop-opacity="0.9"/>
      <stop offset="40%" style="stop-color:#CE93D8" stop-opacity="0.5"/>
      <stop offset="70%" style="stop-color:#BA68C8" stop-opacity="0.25"/>
      <stop offset="100%" style="stop-color:#9C27B0" stop-opacity="0"/>
    </radialGradient>
    <radialGradient id="wonderAura" cx="50%" cy="50%" r="50%">
      <stop offset="0%" style="stop-color:#FFD700" stop-opacity="0.7"/>
      <stop offset="40%" style="stop-color:#FFB300" stop-opacity="0.4"/>
      <stop offset="70%" style="stop-color:#FFA000" stop-opacity="0.2"/>
      <stop offset="100%" style="stop-color:#FF8F00" stop-opacity="0"/>
    </radialGradient>
    <radialGradient id="windowGlow" cx="50%" cy="50%" r="50%">
      <stop offset="0%" style="stop-color:#FFFDE7"/>
      <stop offset="50%" style="stop-color:#FFF8E1"/>
      <stop offset="100%" style="stop-color:#FFCC80"/>
    </radialGradient>
    <radialGradient id="orbGlow" cx="50%" cy="50%" r="50%">
      <stop offset="0%" style="stop-color:#FFFFFF"/>
      <stop offset="30%" style="stop-color:#FFF9C4"/>
      <stop offset="60%" style="stop-color:#FFEB3B"/>
      <stop offset="100%" style="stop-color:#FFD54F" stop-opacity="0"/>
    </radialGradient>
    <radialGradient id="fireworkGlow" cx="50%" cy="50%" r="50%">
      <stop offset="0%" style="stop-color:#FFFFFF"/>
      <stop offset="40%" style="stop-color:#FF4081"/>
      <stop offset="100%" style="stop-color:#FF4081" stop-opacity="0"/>
    </radialGradient>
    <linearGradient id="grassGradient" x1="0%" y1="0%" x2="0%" y2="100%">
      <stop offset="0%" style="stop-color:#81C784"/>
      <stop offset="50%" style="stop-color:#66BB6A"/>
      <stop offset="100%" style="stop-color:#4CAF50"/>
    </linearGradient>
    <linearGradient id="pathStone" x1="0%" y1="0%" x2="100%" y2="0%">
      <stop offset="0%" style="stop-color:#8D6E63"/>
      <stop offset="50%" style="stop-color:#A1887F"/>
      <stop offset="100%" style="stop-color:#8D6E63"/>
    </linearGradient>
    <filter id="glow" x="-50%" y="-50%" width="200%" height="200%">
      <feGaussianBlur stdDeviation="4" result="glow"/>
      <feMerge>
        <feMergeNode in="glow"/>
        <feMergeNode in="SourceGraphic"/>
      </feMerge>
    </filter>
    <filter id="softGlow" x="-50%" y="-50%" width="200%" height="200%">
      <feGaussianBlur stdDeviation="2" result="glow"/>
      <feMerge>
        <feMergeNode in="glow"/>
        <feMergeNode in="SourceGraphic"/>
      </feMerge>
    </filter>
    <filter id="dropShadow" x="-20%" y="-20%" width="140%" height="140%">
      <feDropShadow dx="4" dy="6" stdDeviation="5" flood-color="#000000" flood-opacity="0.35"/>
    </filter>
    <filter id="starGlow" x="-100%" y="-100%" width="300%" height="300%">
      <feGaussianBlur stdDeviation="1.5" result="glow"/>
      <feMerge>
        <feMergeNode in="glow"/>
        <feMergeNode in="SourceGraphic"/>
      </feMerge>
    </filter>
  </defs>
  
  <!-- Magical glowing auras - multiple animated layers -->
  <circle cx="64" cy="72" r="70" fill="url(#wonderAura)">
    <animate attributeName="r" values="66;78;66" dur="4s" repeatCount="indefinite"/>
    <animate attributeName="opacity" values="0.4;0.8;0.4" dur="4s" repeatCount="indefinite"/>
  </circle>
  <circle cx="64" cy="72" r="56" fill="url(#magicGlow)">
    <animate attributeName="r" values="52;62;52" dur="3s" repeatCount="indefinite"/>
    <animate attributeName="opacity" values="0.3;0.7;0.3" dur="3s" repeatCount="indefinite"/>
  </circle>
  <circle cx="64" cy="72" r="40" fill="url(#wonderAura)" opacity="0.4">
    <animate attributeName="r" values="36;46;36" dur="2.5s" repeatCount="indefinite"/>
    <animate attributeName="opacity" values="0.2;0.5;0.2" dur="2.5s" repeatCount="indefinite"/>
  </circle>
  
  <!-- Ground/foundation with grass -->
  <ellipse cx="64" cy="118" rx="60" ry="12" fill="url(#grassGradient)"/>
  <rect x="8" y="112" width="112" height="16" fill="#78909C"/>
  <rect x="12" y="108" width="104" height="8" fill="#90A4AE"/>
  
  <!-- Stone pathway -->
  <path d="M56 128 Q58 120 60 116 L68 116 Q70 120 72 128" fill="url(#pathStone)"/>
  <ellipse cx="64" cy="120" rx="8" ry="3" fill="#9E9E9E"/>
  
  <!-- Garden flowers - left side with animation -->
  <g>
    <circle cx="16" cy="110" r="4" fill="#E91E63">
      <animate attributeName="r" values="4;4.5;4" dur="2s" repeatCount="indefinite"/>
    </circle>
    <circle cx="24" cy="112" r="3" fill="#F44336"/>
    <circle cx="10" cy="114" r="2.5" fill="#FF9800"/>
    <circle cx="30" cy="108" r="2.5" fill="#9C27B0"/>
    <circle cx="20" cy="106" r="2" fill="#FFEB3B"/>
  </g>
  
  <!-- Garden flowers - right side -->
  <g>
    <circle cx="112" cy="110" r="4" fill="#2196F3">
      <animate attributeName="r" values="4;4.5;4" dur="2.2s" repeatCount="indefinite"/>
    </circle>
    <circle cx="104" cy="112" r="3" fill="#E91E63"/>
    <circle cx="118" cy="114" r="2.5" fill="#FFEB3B"/>
    <circle cx="98" cy="108" r="2.5" fill="#4CAF50"/>
    <circle cx="108" cy="106" r="2" fill="#FF5722"/>
  </g>
  
  <!-- Castle base wall -->
  <rect x="24" y="68" width="80" height="44" fill="url(#wonderWall)" filter="url(#dropShadow)"/>
  <polygon points="24,68 24,112 16,108 16,72" fill="#90A4AE"/>
  
  <!-- Wall texture - stone blocks -->
  <g stroke="#B0BEC5" stroke-width="1" opacity="0.7">
    <line x1="24" y1="84" x2="104" y2="84"/>
    <line x1="24" y1="100" x2="104" y2="100"/>
    <line x1="44" y1="68" x2="44" y2="84"/>
    <line x1="64" y1="68" x2="64" y2="84"/>
    <line x1="84" y1="68" x2="84" y2="84"/>
    <line x1="34" y1="84" x2="34" y2="100"/>
    <line x1="54" y1="84" x2="54" y2="100"/>
    <line x1="74" y1="84" x2="74" y2="100"/>
    <line x1="94" y1="84" x2="94" y2="100"/>
  </g>
  
  <!-- Main central tower -->
  <rect x="44" y="28" width="40" height="84" fill="url(#wonderTower)" filter="url(#dropShadow)"/>
  <polygon points="44,28 44,112 36,108 36,32" fill="#90A4AE"/>
  
  <!-- Main tower roof - golden spire -->
  <polygon points="44,28 64,4 84,28" fill="url(#wonderGold)"/>
  <polygon points="44,28 64,4 52,28" fill="#FFC107"/>
  
  <!-- Main tower golden orb with pulse -->
  <circle cx="64" cy="4" r="6" fill="url(#wonderGold)" filter="url(#glow)"/>
  <circle cx="64" cy="4" r="10" fill="url(#orbGlow)">
    <animate attributeName="r" values="8;14;8" dur="2s" repeatCount="indefinite"/>
    <animate attributeName="opacity" values="0.5;0.9;0.5" dur="2s" repeatCount="indefinite"/>
  </circle>
  
  <!-- Main tower flag pole and flag -->
  <g>
    <line x1="64" y1="4" x2="64" y2="-10" stroke="#5D4037" stroke-width="2"/>
    <polygon points="64,-10 84,-4 64,2" fill="url(#redBanner)">
      <animate attributeName="points" values="64,-10 84,-4 64,2;64,-10 80,-6 64,2;64,-10 84,-4 64,2" dur="1.2s" repeatCount="indefinite"/>
    </polygon>
    <polygon points="64,-10 84,-4 64,2" fill="none" stroke="#B71C1C" stroke-width="1"/>
  </g>
  
  <!-- Tower windows with animated glow -->
  <rect x="56" y="36" width="16" height="24" rx="8" fill="#1A237E"/>
  <ellipse cx="64" cy="44" rx="6" ry="10" fill="url(#windowGlow)">
    <animate attributeName="opacity" values="0.6;1;0.6" dur="2.5s" repeatCount="indefinite"/>
  </ellipse>
  
  <rect x="56" y="68" width="16" height="20" rx="8" fill="#1A237E"/>
  <ellipse cx="64" cy="76" rx="6" ry="8" fill="url(#windowGlow)">
    <animate attributeName="opacity" values="0.6;1;0.6" dur="2.5s" repeatCount="indefinite" begin="1.2s"/>
  </ellipse>
  
  <!-- Rose window on main tower -->
  <circle cx="64" cy="96" r="8" fill="#1A237E"/>
  <circle cx="64" cy="96" r="8" fill="none" stroke="url(#wonderGold)" stroke-width="2"/>
  <circle cx="64" cy="96" r="5" fill="none" stroke="#455A64" stroke-width="1"/>
  <line x1="64" y1="88" x2="64" y2="104" stroke="#455A64" stroke-width="0.5"/>
  <line x1="56" y1="96" x2="72" y2="96" stroke="#455A64" stroke-width="0.5"/>
  <ellipse cx="64" cy="96" rx="4" ry="4" fill="url(#windowGlow)">
    <animate attributeName="opacity" values="0.4;0.8;0.4" dur="3s" repeatCount="indefinite"/>
  </ellipse>
  
  <!-- Left tower -->
  <rect x="16" y="48" width="24" height="64" fill="url(#wonderTower)" filter="url(#dropShadow)"/>
  <polygon points="16,48 28,24 40,48" fill="url(#wonderGold)"/>
  <polygon points="16,48 28,24 24,48" fill="#FFC107"/>
  
  <!-- Left tower spire orb -->
  <circle cx="28" cy="24" r="4" fill="url(#wonderGold)" filter="url(#softGlow)"/>
  <circle cx="28" cy="24" r="6" fill="url(#orbGlow)" opacity="0.6">
    <animate attributeName="opacity" values="0.4;0.8;0.4" dur="2.5s" repeatCount="indefinite"/>
  </circle>
  
  <!-- Left tower flag -->
  <g>
    <line x1="28" y1="24" x2="28" y2="10" stroke="#5D4037" stroke-width="2"/>
    <polygon points="28,10 44,14 28,18" fill="url(#blueBanner)">
      <animate attributeName="points" values="28,10 44,14 28,18;28,10 40,12 28,18;28,10 44,14 28,18" dur="1.4s" repeatCount="indefinite"/>
    </polygon>
  </g>
  
  <!-- Left tower windows -->
  <rect x="22" y="56" width="12" height="18" rx="6" fill="#1A237E"/>
  <ellipse cx="28" cy="64" rx="4" ry="7" fill="url(#windowGlow)">
    <animate attributeName="opacity" values="0.5;1;0.5" dur="3s" repeatCount="indefinite"/>
  </ellipse>
  
  <rect x="22" y="82" width="12" height="16" rx="6" fill="#1A237E"/>
  <ellipse cx="28" cy="88" rx="4" ry="6" fill="url(#windowGlow)">
    <animate attributeName="opacity" values="0.5;1;0.5" dur="3s" repeatCount="indefinite" begin="1.5s"/>
  </ellipse>
  
  <!-- Right tower -->
  <rect x="88" y="48" width="24" height="64" fill="url(#wonderTower)" filter="url(#dropShadow)"/>
  <polygon points="88,48 100,24 112,48" fill="url(#wonderGold)"/>
  <polygon points="88,48 100,24 96,48" fill="#FFC107"/>
  
  <!-- Right tower spire orb -->
  <circle cx="100" cy="24" r="4" fill="url(#wonderGold)" filter="url(#softGlow)"/>
  <circle cx="100" cy="24" r="6" fill="url(#orbGlow)" opacity="0.6">
    <animate attributeName="opacity" values="0.4;0.8;0.4" dur="2.8s" repeatCount="indefinite"/>
  </circle>
  
  <!-- Right tower flag -->
  <g>
    <line x1="100" y1="24" x2="100" y2="10" stroke="#5D4037" stroke-width="2"/>
    <polygon points="100,10 116,14 100,18" fill="url(#greenBanner)">
      <animate attributeName="points" values="100,10 116,14 100,18;100,10 112,12 100,18;100,10 116,14 100,18" dur="1.1s" repeatCount="indefinite"/>
    </polygon>
  </g>
  
  <!-- Right tower windows -->
  <rect x="94" y="56" width="12" height="18" rx="6" fill="#1A237E"/>
  <ellipse cx="100" cy="64" rx="4" ry="7" fill="url(#windowGlow)">
    <animate attributeName="opacity" values="0.5;1;0.5" dur="3s" repeatCount="indefinite" begin="0.8s"/>
  </ellipse>
  
  <rect x="94" y="82" width="12" height="16" rx="6" fill="#1A237E"/>
  <ellipse cx="100" cy="88" rx="4" ry="6" fill="url(#windowGlow)">
    <animate attributeName="opacity" values="0.5;1;0.5" dur="3s" repeatCount="indefinite" begin="2s"/>
  </ellipse>
  
  <!-- Small corner towers -->
  <rect x="4" y="72" width="16" height="40" fill="url(#wonderTower)"/>
  <polygon points="4,72 12,58 20,72" fill="url(#wonderGold)"/>
  <line x1="12" y1="58" x2="12" y2="48" stroke="#5D4037" stroke-width="1.5"/>
  <polygon points="12,48 20,50 12,52" fill="url(#purpleBanner)">
    <animate attributeName="points" values="12,48 20,50 12,52;12,48 18,49 12,52;12,48 20,50 12,52" dur="1.3s" repeatCount="indefinite"/>
  </polygon>
  
  <rect x="108" y="72" width="16" height="40" fill="url(#wonderTower)"/>
  <polygon points="108,72 116,58 124,72" fill="url(#wonderGold)"/>
  <line x1="116" y1="58" x2="116" y2="48" stroke="#5D4037" stroke-width="1.5"/>
  <polygon points="116,48 124,50 116,52" fill="url(#purpleBanner)">
    <animate attributeName="points" values="116,48 124,50 116,52;116,48 122,49 116,52;116,48 124,50 116,52" dur="1.5s" repeatCount="indefinite"/>
  </polygon>
  
  <!-- Grand entrance door -->
  <rect x="52" y="92" width="24" height="24" rx="12" fill="#3E2723"/>
  <rect x="52" y="92" width="24" height="24" rx="12" fill="none" stroke="#5D4037" stroke-width="2"/>
  <line x1="64" y1="92" x2="64" y2="116" stroke="#5D4037" stroke-width="1"/>
  <circle cx="58" cy="104" r="2" fill="#FFD54F"/>
  <circle cx="70" cy="104" r="2" fill="#FFD54F"/>
  <!-- Door arch glow -->
  <path d="M52 92 Q64 80, 76 92" fill="none" stroke="url(#wonderGold)" stroke-width="3">
    <animate attributeName="opacity" values="0.6;1;0.6" dur="2s" repeatCount="indefinite"/>
  </path>
  
  <!-- Battlements on wall -->
  <g fill="#CFD8DC">
    <rect x="24" y="62" width="6" height="10"/>
    <rect x="34" y="62" width="6" height="10"/>
    <rect x="88" y="62" width="6" height="10"/>
    <rect x="98" y="62" width="6" height="10"/>
  </g>
  
  <!-- Tower battlements -->
  <g fill="#CFD8DC">
    <rect x="16" y="42" width="5" height="8"/>
    <rect x="24" y="42" width="5" height="8"/>
    <rect x="32" y="42" width="5" height="8"/>
    <rect x="88" y="42" width="5" height="8"/>
    <rect x="96" y="42" width="5" height="8"/>
    <rect x="104" y="42" width="5" height="8"/>
  </g>
  
  <!-- Decorative wall banners -->
  <rect x="30" y="70" width="6" height="16" fill="url(#redBanner)" rx="1">
    <animate attributeName="height" values="16;14;16" dur="1.5s" repeatCount="indefinite"/>
  </rect>
  <rect x="92" y="70" width="6" height="16" fill="url(#blueBanner)" rx="1">
    <animate attributeName="height" values="16;14;16" dur="1.7s" repeatCount="indefinite"/>
  </rect>
  
  <!-- Firework bursts - spectacular! -->
  <g>
    <circle cx="12" cy="20" r="0" fill="#FF4081">
      <animate attributeName="r" values="0;12;0" dur="2.5s" repeatCount="indefinite"/>
      <animate attributeName="opacity" values="0;1;0" dur="2.5s" repeatCount="indefinite"/>
    </circle>
    <!-- Firework rays -->
    <g opacity="0">
      <animate attributeName="opacity" values="0;1;0" dur="2.5s" repeatCount="indefinite"/>
      <line x1="12" y1="8" x2="12" y2="2" stroke="#FF4081" stroke-width="1.5"/>
      <line x1="12" y1="32" x2="12" y2="38" stroke="#FF4081" stroke-width="1.5"/>
      <line x1="0" y1="20" x2="-6" y2="20" stroke="#FF4081" stroke-width="1.5"/>
      <line x1="24" y1="20" x2="30" y2="20" stroke="#FF4081" stroke-width="1.5"/>
      <line x1="4" y1="12" x2="0" y2="8" stroke="#FF4081" stroke-width="1"/>
      <line x1="20" y1="12" x2="24" y2="8" stroke="#FF4081" stroke-width="1"/>
      <line x1="4" y1="28" x2="0" y2="32" stroke="#FF4081" stroke-width="1"/>
      <line x1="20" y1="28" x2="24" y2="32" stroke="#FF4081" stroke-width="1"/>
    </g>
    
    <circle cx="116" cy="16" r="0" fill="#FFEB3B">
      <animate attributeName="r" values="0;10;0" dur="3s" repeatCount="indefinite" begin="0.8s"/>
      <animate attributeName="opacity" values="0;1;0" dur="3s" repeatCount="indefinite" begin="0.8s"/>
    </circle>
    <g opacity="0">
      <animate attributeName="opacity" values="0;1;0" dur="3s" repeatCount="indefinite" begin="0.8s"/>
      <line x1="116" y1="6" x2="116" y2="0" stroke="#FFEB3B" stroke-width="1.5"/>
      <line x1="116" y1="26" x2="116" y2="32" stroke="#FFEB3B" stroke-width="1.5"/>
      <line x1="106" y1="16" x2="100" y2="16" stroke="#FFEB3B" stroke-width="1.5"/>
      <line x1="126" y1="16" x2="128" y2="16" stroke="#FFEB3B" stroke-width="1.5"/>
    </g>
    
    <circle cx="8" cy="52" r="0" fill="#4FC3F7">
      <animate attributeName="r" values="0;8;0" dur="2.2s" repeatCount="indefinite" begin="1.5s"/>
      <animate attributeName="opacity" values="0;1;0" dur="2.2s" repeatCount="indefinite" begin="1.5s"/>
    </circle>
    
    <circle cx="120" cy="44" r="0" fill="#AED581">
      <animate attributeName="r" values="0;10;0" dur="2.8s" repeatCount="indefinite" begin="2s"/>
      <animate attributeName="opacity" values="0;1;0" dur="2.8s" repeatCount="indefinite" begin="2s"/>
    </circle>
    
    <circle cx="40" cy="8" r="0" fill="#E040FB">
      <animate attributeName="r" values="0;8;0" dur="2.4s" repeatCount="indefinite" begin="3s"/>
      <animate attributeName="opacity" values="0;1;0" dur="2.4s" repeatCount="indefinite" begin="3s"/>
    </circle>
    
    <circle cx="88" cy="6" r="0" fill="#FF9800">
      <animate attributeName="r" values="0;7;0" dur="2.6s" repeatCount="indefinite" begin="1.2s"/>
      <animate attributeName="opacity" values="0;1;0" dur="2.6s" repeatCount="indefinite" begin="1.2s"/>
    </circle>
  </g>
  
  <!-- Rotating star sparkles around the castle -->
  <g fill="#FFFFFF" filter="url(#starGlow)">
    <polygon points="16,36 18,40 22,40 19,43 20,48 16,45 12,48 13,43 10,40 14,40">
      <animate attributeName="opacity" values="0;1;0" dur="1.8s" repeatCount="indefinite"/>
      <animateTransform attributeName="transform" type="rotate" values="0 16 42;360 16 42" dur="6s" repeatCount="indefinite"/>
    </polygon>
    <polygon points="112,32 114,36 118,36 115,39 116,44 112,41 108,44 109,39 106,36 110,36">
      <animate attributeName="opacity" values="0;1;0" dur="2.2s" repeatCount="indefinite" begin="0.9s"/>
      <animateTransform attributeName="transform" type="rotate" values="0 112 38;-360 112 38" dur="7s" repeatCount="indefinite"/>
    </polygon>
    <polygon points="48,12 49.5,15 52,15 50,17 51,20 48,18 45,20 46,17 44,15 46.5,15">
      <animate attributeName="opacity" values="0;1;0" dur="2.5s" repeatCount="indefinite" begin="0.5s"/>
      <animateTransform attributeName="transform" type="rotate" values="0 48 16;360 48 16" dur="5s" repeatCount="indefinite"/>
    </polygon>
    <polygon points="80,8 81.5,11 84,11 82,13 83,16 80,14 77,16 78,13 76,11 78.5,11">
      <animate attributeName="opacity" values="0;1;0" dur="2s" repeatCount="indefinite" begin="1.3s"/>
      <animateTransform attributeName="transform" type="rotate" values="0 80 12;-360 80 12" dur="5.5s" repeatCount="indefinite"/>
    </polygon>
    <polygon points="6,68 7,71 9,71 7.5,72.5 8,75 6,73.5 4,75 4.5,72.5 3,71 5,71">
      <animate attributeName="opacity" values="0;1;0" dur="1.6s" repeatCount="indefinite" begin="2s"/>
    </polygon>
    <polygon points="122,62 123,65 125,65 123.5,66.5 124,69 122,67.5 120,69 120.5,66.5 119,65 121,65">
      <animate attributeName="opacity" values="0;1;0" dur="1.9s" repeatCount="indefinite" begin="0.3s"/>
    </polygon>
  </g>
  
  <!-- Floating magical particles -->
  <g fill="#E1BEE7">
    <circle cx="36" cy="80" r="2">
      <animate attributeName="cy" values="80;60;80" dur="4s" repeatCount="indefinite"/>
      <animate attributeName="opacity" values="0.3;0.9;0.3" dur="4s" repeatCount="indefinite"/>
    </circle>
    <circle cx="92" cy="76" r="2">
      <animate attributeName="cy" values="76;56;76" dur="4.5s" repeatCount="indefinite" begin="1.5s"/>
      <animate attributeName="opacity" values="0.3;0.9;0.3" dur="4.5s" repeatCount="indefinite" begin="1.5s"/>
    </circle>
    <circle cx="64" cy="52" r="1.5">
      <animate attributeName="cy" values="52;36;52" dur="3s" repeatCount="indefinite" begin="0.7s"/>
      <animate attributeName="opacity" values="0.4;1;0.4" dur="3s" repeatCount="indefinite" begin="0.7s"/>
    </circle>
    <circle cx="20" cy="90" r="1.5">
      <animate attributeName="cy" values="90;70;90" dur="3.5s" repeatCount="indefinite" begin="2s"/>
      <animate attributeName="opacity" values="0.3;0.8;0.3" dur="3.5s" repeatCount="indefinite" begin="2s"/>
    </circle>
    <circle cx="108" cy="88" r="1.5">
      <animate attributeName="cy" values="88;68;88" dur="3.8s" repeatCount="indefinite" begin="0.5s"/>
      <animate attributeName="opacity" values="0.3;0.8;0.3" dur="3.8s" repeatCount="indefinite" begin="0.5s"/>
    </circle>
  </g>
  
  <!-- Golden dust particles rising -->
  <g fill="#FFD54F">
    <circle cx="50" cy="100" r="1">
      <animate attributeName="cy" values="100;70;100" dur="5s" repeatCount="indefinite"/>
      <animate attributeName="cx" values="50;55;50" dur="5s" repeatCount="indefinite"/>
      <animate attributeName="opacity" values="0;0.8;0" dur="5s" repeatCount="indefinite"/>
    </circle>
    <circle cx="78" cy="98" r="1">
      <animate attributeName="cy" values="98;68;98" dur="5.5s" repeatCount="indefinite" begin="1s"/>
      <animate attributeName="cx" values="78;73;78" dur="5.5s" repeatCount="indefinite" begin="1s"/>
      <animate attributeName="opacity" values="0;0.8;0" dur="5.5s" repeatCount="indefinite" begin="1s"/>
    </circle>
    <circle cx="42" cy="95" r="0.8">
      <animate attributeName="cy" values="95;60;95" dur="6s" repeatCount="indefinite" begin="2s"/>
      <animate attributeName="opacity" values="0;0.7;0" dur="6s" repeatCount="indefinite" begin="2s"/>
    </circle>
    <circle cx="86" cy="96" r="0.8">
      <animate attributeName="cy" values="96;62;96" dur="5.8s" repeatCount="indefinite" begin="0.5s"/>
      <animate attributeName="opacity" values="0;0.7;0" dur="5.8s" repeatCount="indefinite" begin="0.5s"/>
    </circle>
  </g>
  
  <!-- Garden bushes with sway -->
  <ellipse cx="22" cy="108" rx="10" ry="6" fill="#2E7D32">
    <animate attributeName="rx" values="10;11;10" dur="3s" repeatCount="indefinite"/>
  </ellipse>
  <ellipse cx="26" cy="106" rx="6" ry="4" fill="#388E3C"/>
  
  <ellipse cx="106" cy="108" rx="10" ry="6" fill="#2E7D32">
    <animate attributeName="rx" values="10;11;10" dur="3.2s" repeatCount="indefinite"/>
  </ellipse>
  <ellipse cx="102" cy="106" rx="6" ry="4" fill="#388E3C"/>
</svg>
