<?xml version="1.0" encoding="UTF-8"?>
<svg xmlns="http://www.w3.org/2000/svg" viewBox="0 0 180 220" width="180" height="220">
  <defs>
    <linearGradient id="shirtShadeCelestial" x1="0" y1="0" x2="0" y2="1">
      <stop offset="0%" stop-color="#7CF3FF"/>
      <stop offset="100%" stop-color="#00B7CB"/>
    </linearGradient>
    <radialGradient id="pulseCelestial" cx="50%" cy="50%" r="50%">
      <stop offset="0%" stop-color="#E6FCFF" stop-opacity="0.95"/>
      <stop offset="100%" stop-color="#4EEFFF" stop-opacity="0"/>
    </radialGradient>
    <filter id="glowCelestial" x="-35%" y="-35%" width="170%" height="170%">
      <feGaussianBlur stdDeviation="0.95" result="g"/>
      <feMerge>
        <feMergeNode in="g"/>
        <feMergeNode in="SourceGraphic"/>
      </feMerge>
    </filter>
    <filter id="shadowCelestial" x="-25%" y="-25%" width="150%" height="150%">
      <feDropShadow dx="0.75" dy="1.1" stdDeviation="0.9" flood-color="#000000" flood-opacity="0.34"/>
    </filter>
  </defs>

  <!-- Underdog celestial tee -->
  <g id="chestplate_celestial" filter="url(#shadowCelestial)">
    <path d="M68 92 Q78 85 90 86 Q102 85 112 92 L118 102 L110 108 L108.5 147 Q90 151 71.5 147 L70 108 L62 102 Z"
          fill="#00E5FF" stroke="#008BA0" stroke-width="1.2"/>
    <path d="M70 94 Q79 88.2 90 89 Q101 88.2 110 94 L115 102 L108 106 L106.7 145.2 Q90 148.8 73.3 145.2 L72 106 L65 102 Z"
          fill="url(#shirtShadeCelestial)" opacity="0.62"/>
    <path d="M72.2 107 L70.8 147 M107.8 107 L109.2 147" stroke="#D9F9FF" stroke-opacity="0.52" stroke-width="0.74"/>
    <path d="M77.2 90.5 Q90 97.2 102.8 90.5" stroke="#B5F5FF" stroke-width="0.9" opacity="0.84"/>
    <path d="M81.8 89.6 Q90 93.5 98.2 89.6" stroke="#006674" stroke-width="3.0" stroke-linecap="round"/>
    <path d="M81.8 89.6 Q90 93.5 98.2 89.6" stroke="#8AFAFF" stroke-width="1.5" stroke-linecap="round"/>

    <rect x="72.4" y="98.4" width="35.2" height="25.8" rx="6.6" fill="#08242A" stroke="#8AFAFF" stroke-width="1.05"/>
    <text x="90" y="111.0" text-anchor="middle" fill="#BFFBFF" font-size="6.0" font-weight="800" font-family="Segoe UI, Arial, sans-serif">Beyond legend</text>

    <circle cx="90" cy="117.8" r="3.1" fill="url(#pulseCelestial)" filter="url(#glowCelestial)">
      <animate attributeName="r" values="2.4;4.1;2.4" dur="1.6s" repeatCount="indefinite"/>
      <animate attributeName="opacity" values="0.35;0.95;0.35" dur="1.6s" repeatCount="indefinite"/>
    </circle>
    <path d="M84.5 117.8 H95.5 M90 112.3 V123.3" stroke="#96F7FF" stroke-width="0.74" stroke-linecap="round" opacity="0.86"/>
  </g>
</svg>
