<?xml version="1.0" encoding="UTF-8"?>
<svg xmlns="http://www.w3.org/2000/svg" viewBox="0 0 180 220" width="180" height="220">
  <defs>
    <linearGradient id="shirtShadeCommon" x1="0" y1="0" x2="0" y2="1">
      <stop offset="0%" stop-color="#BDBDBD"/>
      <stop offset="100%" stop-color="#7E7E7E"/>
    </linearGradient>
    <pattern id="fabricCommon" width="4" height="4" patternUnits="userSpaceOnUse">
      <path d="M0 2 L4 2 M2 0 L2 4" stroke="#FFFFFF" stroke-opacity="0.09" stroke-width="0.45"/>
    </pattern>
    <filter id="shadowCommon" x="-25%" y="-25%" width="150%" height="150%">
      <feDropShadow dx="0.6" dy="1.0" stdDeviation="0.8" flood-color="#000000" flood-opacity="0.28"/>
    </filter>
  </defs>

  <!-- Underdog common tee -->
  <g id="chestplate_common" filter="url(#shadowCommon)">
    <path d="M68 92 Q78 85 90 86 Q102 85 112 92 L118 102 L110 108 L108.5 147 Q90 151 71.5 147 L70 108 L62 102 Z"
          fill="#9E9E9E" stroke="#6E6E6E" stroke-width="1.15"/>
    <path d="M70 94 Q79 88.2 90 89 Q101 88.2 110 94 L115 102 L108 106 L106.7 145.2 Q90 148.8 73.3 145.2 L72 106 L65 102 Z"
          fill="url(#shirtShadeCommon)" opacity="0.55"/>
    <path d="M72.2 107 L70.8 147 M107.8 107 L109.2 147" stroke="#CFCFCF" stroke-opacity="0.45" stroke-width="0.72"/>
    <path d="M77.2 90.5 Q90 97.2 102.8 90.5" stroke="#DCDCDC" stroke-width="0.85" opacity="0.76"/>
    <path d="M81.8 89.6 Q90 93.5 98.2 89.6" stroke="#2D3E50" stroke-width="3.0" stroke-linecap="round"/>
    <path d="M81.8 89.6 Q90 93.5 98.2 89.6" stroke="#7F8A96" stroke-width="1.5" stroke-linecap="round"/>

    <rect x="73.5" y="99.5" width="33.0" height="23.6" rx="5.6" fill="#F3F5F7" stroke="#71808E" stroke-width="0.9"/>
    <rect x="73.5" y="99.5" width="33.0" height="23.6" rx="5.6" fill="url(#fabricCommon)"/>
    <text x="90" y="113" text-anchor="middle" fill="#273443" font-size="6.8" font-weight="700" font-family="Segoe UI, Arial, sans-serif">I'm common</text>

    <!-- Funny "coffee ring" print -->
    <circle cx="101.3" cy="118.8" r="3.2" fill="none" stroke="#8C5A32" stroke-width="0.9" opacity="0.74"/>
    <circle cx="79.0" cy="118.2" r="2.2" fill="#FFD166" stroke="#7A6330" stroke-width="0.55"/>
    <circle cx="78.3" cy="117.7" r="0.35" fill="#2D3E50"/>
    <circle cx="79.7" cy="117.7" r="0.35" fill="#2D3E50"/>
    <path d="M78.3 119.0 Q79.0 119.7 79.7 119.0" stroke="#2D3E50" stroke-width="0.42" fill="none" stroke-linecap="round"/>
  </g>
</svg>
