<?xml version="1.0" encoding="UTF-8"?>
<svg xmlns="http://www.w3.org/2000/svg" viewBox="0 0 180 220" width="180" height="220">
  <defs>
    <linearGradient id="shirtShadeEpic" x1="0" y1="0" x2="0" y2="1">
      <stop offset="0%" stop-color="#BC4CD1"/>
      <stop offset="100%" stop-color="#7D1E90"/>
    </linearGradient>
    <linearGradient id="neonEpic" x1="0" y1="0" x2="1" y2="0">
      <stop offset="0%" stop-color="#7CF6FF"/>
      <stop offset="50%" stop-color="#FF93F4"/>
      <stop offset="100%" stop-color="#9C27B0"/>
    </linearGradient>
    <filter id="glowEpic" x="-35%" y="-35%" width="170%" height="170%">
      <feGaussianBlur stdDeviation="0.9" result="g"/>
      <feMerge>
        <feMergeNode in="g"/>
        <feMergeNode in="SourceGraphic"/>
      </feMerge>
    </filter>
    <filter id="shadowEpic" x="-25%" y="-25%" width="150%" height="150%">
      <feDropShadow dx="0.7" dy="1.1" stdDeviation="0.85" flood-color="#000000" flood-opacity="0.32"/>
    </filter>
  </defs>

  <!-- Underdog epic tee -->
  <g id="chestplate_epic" filter="url(#shadowEpic)" transform="translate(0 -26) translate(90 110) scale(0.72 0.78) translate(-90 -110)">
    <path d="M62 102 L68 92 L81 88 Q90 95.2 99 88 L112 92 L118 102 L110 108 L110 149 L70 149 L70 108 Z" fill="#9C27B0" stroke="#6A1B9A" stroke-width="1.18"/>
    <path d="M65 102 L70 94 L82 90 Q90 96.0 98 90 L110 94 L115 102 L108 106 L106.7 147.2 L73.3 147.2 L72 106 Z" fill="url(#shirtShadeEpic)" opacity="0.6"/>
    <path d="M72.2 107 L70.8 147 M107.8 107 L109.2 147" stroke="#F4C9FF" stroke-opacity="0.48" stroke-width="0.72"/>
    <!-- Cotton fold shading (polygon facets) -->
    <g id="cottonShadingPolygons">
      <polygon points="74.2,113.0 84.6,121.2 80.2,140.8 71.6,132.6" fill="#000000" opacity="0.14"/>
      <polygon points="77.2,138.6 90.8,145.2 104.4,138.8 90.6,141.4" fill="#000000" opacity="0.10"/>
      <polygon points="96.2,109.6 106.0,115.2 103.6,123.2 94.0,118.2" fill="#FFFFFF" opacity="0.14"/>
      <polygon points="100.6,112.2 105.6,126.2 101.8,143.0 95.8,126.2" fill="#000000" opacity="0.12"/>
      <polygon points="79.0,120.6 86.8,126.4 83.6,137.4 76.0,132.4" fill="#FFFFFF" opacity="0.09"/>
    </g>


    <rect x="72.6" y="98.6" width="34.8" height="25.3" rx="6.4" fill="#1F1531" stroke="#E2ABFF" stroke-width="0.95"/>
    <text x="90" y="112.0" text-anchor="middle" fill="#FFB8F8" font-size="7.3" font-weight="800" font-family="Segoe UI, Arial, sans-serif" textLength="17.2" lengthAdjust="spacingAndGlyphs">Epic!</text>
    <path d="M76.4 116.8 L104.0 103.4" stroke="url(#neonEpic)" stroke-width="1.1" opacity="0.85" filter="url(#glowEpic)">
      <animate attributeName="opacity" values="0.55;1;0.55" dur="1.6s" repeatCount="indefinite"/>
    </path>
    <path d="M77.4 104.0 L82.2 106.4 L79.4 110.8 L74.6 108.4 Z" fill="none" stroke="#6CF6FF" stroke-width="0.72" opacity="0.86"/>
    <path d="M100.2 112.4 L104.8 114.8 L102.2 119.2 L97.6 116.8 Z" fill="none" stroke="#FF93F4" stroke-width="0.72" opacity="0.86"/>
    <circle cx="90" cy="121.0" r="1.2" fill="#FFD166" filter="url(#glowEpic)">
      <animate attributeName="r" values="1.0;1.7;1.0" dur="1.0s" repeatCount="indefinite"/>
      <animate attributeName="opacity" values="0.45;1;0.45" dur="1.0s" repeatCount="indefinite"/>
    </circle>
  </g>
</svg>
