<?xml version="1.0" encoding="UTF-8"?>
<svg xmlns="http://www.w3.org/2000/svg" viewBox="0 0 180 220" width="180" height="220">
  <defs>
    <linearGradient id="shirtShadeLegendary" x1="0" y1="0" x2="0" y2="1">
      <stop offset="0%" stop-color="#FFB03A"/>
      <stop offset="100%" stop-color="#D87300"/>
    </linearGradient>
    <linearGradient id="legendaryTrim" x1="0" y1="0" x2="1" y2="0">
      <stop offset="0%" stop-color="#FFD67A"/>
      <stop offset="100%" stop-color="#FFC13F"/>
    </linearGradient>
    <filter id="glowLegendary" x="-35%" y="-35%" width="170%" height="170%">
      <feGaussianBlur stdDeviation="0.95" result="g"/>
      <feMerge>
        <feMergeNode in="g"/>
        <feMergeNode in="SourceGraphic"/>
      </feMerge>
    </filter>
    <filter id="shadowLegendary" x="-25%" y="-25%" width="150%" height="150%">
      <feDropShadow dx="0.75" dy="1.1" stdDeviation="0.9" flood-color="#000000" flood-opacity="0.34"/>
    </filter>
  </defs>

  <!-- Underdog legendary tee -->
  <g id="chestplate_legendary" filter="url(#shadowLegendary)" transform="translate(0 -26) translate(90 110) scale(0.72 0.78) translate(-90 -110)">
    <path d="M62 102 L68 92 L81 88 Q90 95.2 99 88 L112 92 L118 102 L110 108 L110 149 L70 149 L70 108 Z" fill="#FF9800" stroke="#C56A00" stroke-width="1.2"/>
    <path d="M65 102 L70 94 L82 90 Q90 96.0 98 90 L110 94 L115 102 L108 106 L106.7 147.2 L73.3 147.2 L72 106 Z" fill="url(#shirtShadeLegendary)" opacity="0.62"/>
    <path d="M72.2 107 L70.8 147 M107.8 107 L109.2 147" stroke="#FFE2A4" stroke-opacity="0.52" stroke-width="0.74"/>
    <!-- Cotton fold shading (polygon facets) -->
    <g id="cottonShadingPolygons">
      <polygon points="74.2,113.0 84.6,121.2 80.2,140.8 71.6,132.6" fill="#000000" opacity="0.14"/>
      <polygon points="77.2,138.6 90.8,145.2 104.4,138.8 90.6,141.4" fill="#000000" opacity="0.10"/>
      <polygon points="96.2,109.6 106.0,115.2 103.6,123.2 94.0,118.2" fill="#FFFFFF" opacity="0.14"/>
      <polygon points="100.6,112.2 105.6,126.2 101.8,143.0 95.8,126.2" fill="#000000" opacity="0.12"/>
      <polygon points="79.0,120.6 86.8,126.4 83.6,137.4 76.0,132.4" fill="#FFFFFF" opacity="0.09"/>
    </g>


    <rect x="72.4" y="98.4" width="35.2" height="25.8" rx="6.6" fill="#2B1D07" stroke="url(#legendaryTrim)" stroke-width="1.05"/>
    <path d="M72.4 104.0 L107.6 104.0 M72.4 118.5 L107.6 118.5" stroke="url(#legendaryTrim)" stroke-opacity="0.62" stroke-width="0.7"/>
    <text x="90" y="111.2" text-anchor="middle" fill="#FFD777" font-size="5.9" font-weight="800" font-family="Segoe UI, Arial, sans-serif" textLength="27.0" lengthAdjust="spacingAndGlyphs">I'm a legend</text>

    <!-- Crown emblem + animated gleam -->
    <path d="M83.8 115.0 L85.8 111.7 L88.0 114.5 L90 111.2 L92.0 114.5 L94.2 111.7 L96.2 115.0 L96.2 117.0 L83.8 117.0 Z"
          fill="#FFC13F" stroke="#7E4B00" stroke-width="0.62"/>
    <path d="M76 100 L80 100 L102 122 L98 122 Z" fill="#FFFFFF" opacity="0.0" filter="url(#glowLegendary)">
      <animate attributeName="opacity" values="0;0.75;0" dur="1.9s" repeatCount="indefinite"/>
      <animate attributeName="x" values="74;79;74" dur="1.9s" repeatCount="indefinite"/>
    </path>
  </g>
</svg>
