<?xml version="1.0" encoding="UTF-8"?>
<svg xmlns="http://www.w3.org/2000/svg" viewBox="0 0 180 220" width="180" height="220">
  <defs>
    <linearGradient id="shirtShadeUncommon" x1="0" y1="0" x2="0" y2="1">
      <stop offset="0%" stop-color="#67C06B"/>
      <stop offset="100%" stop-color="#2F8F34"/>
    </linearGradient>
    <pattern id="fabricUncommon" width="4" height="4" patternUnits="userSpaceOnUse">
      <path d="M0 2 L4 2 M2 0 L2 4" stroke="#FFFFFF" stroke-opacity="0.09" stroke-width="0.45"/>
    </pattern>
    <filter id="shadowUncommon" x="-25%" y="-25%" width="150%" height="150%">
      <feDropShadow dx="0.6" dy="1.0" stdDeviation="0.8" flood-color="#000000" flood-opacity="0.28"/>
    </filter>
  </defs>

  <!-- Underdog uncommon tee -->
  <g id="chestplate_uncommon" filter="url(#shadowUncommon)">
    <path d="M68 92 Q78 85 90 86 Q102 85 112 92 L118 102 L110 108 L108.5 147 Q90 151 71.5 147 L70 108 L62 102 Z"
          fill="#4CAF50" stroke="#2E7D32" stroke-width="1.15"/>
    <path d="M70 94 Q79 88.2 90 89 Q101 88.2 110 94 L115 102 L108 106 L106.7 145.2 Q90 148.8 73.3 145.2 L72 106 L65 102 Z"
          fill="url(#shirtShadeUncommon)" opacity="0.56"/>
    <path d="M72.2 107 L70.8 147 M107.8 107 L109.2 147" stroke="#D4F3D6" stroke-opacity="0.48" stroke-width="0.72"/>
    <path d="M77.2 90.5 Q90 97.2 102.8 90.5" stroke="#BDECC0" stroke-width="0.85" opacity="0.78"/>
    <path d="M81.8 89.6 Q90 93.5 98.2 89.6" stroke="#23452A" stroke-width="3.0" stroke-linecap="round"/>
    <path d="M81.8 89.6 Q90 93.5 98.2 89.6" stroke="#7ACA80" stroke-width="1.5" stroke-linecap="round"/>

    <rect x="73.5" y="99.2" width="33.0" height="23.8" rx="5.8" fill="#F4FFF4" stroke="#3E7F43" stroke-width="0.9"/>
    <rect x="73.5" y="99.2" width="33.0" height="23.8" rx="5.8" fill="url(#fabricUncommon)"/>
    <text x="90" y="112.9" text-anchor="middle" fill="#1F5524" font-size="7.1" font-weight="700" font-family="Segoe UI, Arial, sans-serif">Uncommon</text>

    <!-- Happy sprout doodle -->
    <path d="M90 118.5 L90 120.8" stroke="#2E7D32" stroke-width="0.8" stroke-linecap="round"/>
    <path d="M90 118.8 Q88.3 118.2 87.5 116.7 Q89.3 116.7 90.2 117.6 Z" fill="#5CCF62"/>
    <path d="M90 118.8 Q91.7 118.2 92.5 116.7 Q90.7 116.7 89.8 117.6 Z" fill="#3FAF45"/>
  </g>
</svg>
