<?xml version="1.0" encoding="UTF-8"?>
<svg xmlns="http://www.w3.org/2000/svg" viewBox="0 0 180 220" width="180" height="220">
  <defs>
    <linearGradient id="shirtShadeRare" x1="0" y1="0" x2="0" y2="1">
      <stop offset="0%" stop-color="#58B5FF"/>
      <stop offset="100%" stop-color="#1775C9"/>
    </linearGradient>
    <pattern id="fabricRare" width="4" height="4" patternUnits="userSpaceOnUse">
      <path d="M0 2 L4 2 M2 0 L2 4" stroke="#FFFFFF" stroke-opacity="0.10" stroke-width="0.45"/>
    </pattern>
    <filter id="shadowRare" x="-25%" y="-25%" width="150%" height="150%">
      <feDropShadow dx="0.6" dy="1.0" stdDeviation="0.8" flood-color="#000000" flood-opacity="0.28"/>
    </filter>
  </defs>

  <!-- Underdog rare tee -->
  <g id="chestplate_rare" filter="url(#shadowRare)" transform="translate(0 -26) translate(90 110) scale(0.72 0.78) translate(-90 -110)">
    <path d="M62 102 L68 92 L81 88 Q90 95.2 99 88 L112 92 L118 102 L110 108 L110 149 L70 149 L70 108 Z" fill="#2196F3" stroke="#1565C0" stroke-width="1.15"/>
    <path d="M65 102 L70 94 L82 90 Q90 96.0 98 90 L110 94 L115 102 L108 106 L106.7 147.2 L73.3 147.2 L72 106 Z" fill="url(#shirtShadeRare)" opacity="0.58"/>
    <path d="M72.2 107 L70.8 147 M107.8 107 L109.2 147" stroke="#CDEAFF" stroke-opacity="0.5" stroke-width="0.72"/>
    <!-- Cotton fold shading (polygon facets) -->
    <g id="cottonShadingPolygons">
      <polygon points="74.2,113.0 84.6,121.2 80.2,140.8 71.6,132.6" fill="#000000" opacity="0.14"/>
      <polygon points="77.2,138.6 90.8,145.2 104.4,138.8 90.6,141.4" fill="#000000" opacity="0.10"/>
      <polygon points="96.2,109.6 106.0,115.2 103.6,123.2 94.0,118.2" fill="#FFFFFF" opacity="0.14"/>
      <polygon points="100.6,112.2 105.6,126.2 101.8,143.0 95.8,126.2" fill="#000000" opacity="0.12"/>
      <polygon points="79.0,120.6 86.8,126.4 83.6,137.4 76.0,132.4" fill="#FFFFFF" opacity="0.09"/>
    </g>


    <rect x="72.8" y="98.8" width="34.4" height="25.0" rx="6.2" fill="#EFF8FF" stroke="#2B6EA6" stroke-width="1.0"/>
    <rect x="72.8" y="98.8" width="34.4" height="25.0" rx="6.2" fill="url(#fabricRare)"/>
    <path d="M76.3 103.1 L104.0 120.1" stroke="#9DD7FF" stroke-opacity="0.52" stroke-width="1.0"/>
    <text x="90" y="112.3" text-anchor="middle" fill="#13518D" font-size="6.5" font-weight="800" font-family="Segoe UI, Arial, sans-serif" textLength="23.6" lengthAdjust="spacingAndGlyphs">Rare find</text>

    <!-- Mini magnifier icon -->
    <circle cx="79.8" cy="117.7" r="2.0" fill="none" stroke="#13518D" stroke-width="0.75"/>
    <path d="M81.2 119.1 L82.8 120.7" stroke="#13518D" stroke-width="0.75" stroke-linecap="round"/>
    <circle cx="98.6" cy="117.7" r="0.95" fill="#FFC857"/>
    <path d="M98.6 116.2 L98.6 119.2 M97.1 117.7 L100.1 117.7" stroke="#8A641A" stroke-width="0.36" stroke-linecap="round"/>
  </g>
</svg>
