<?xml version="1.0" encoding="UTF-8"?>
<svg xmlns="http://www.w3.org/2000/svg" viewBox="0 0 180 220" width="180" height="220">
  <defs>
    <linearGradient id="shirtShadeCommon" x1="0" y1="0" x2="0" y2="1">
      <stop offset="0%" stop-color="#BDBDBD"/>
      <stop offset="100%" stop-color="#7E7E7E"/>
    </linearGradient>
    <pattern id="fabricCommon" width="4" height="4" patternUnits="userSpaceOnUse">
      <path d="M0 2 L4 2 M2 0 L2 4" stroke="#FFFFFF" stroke-opacity="0.09" stroke-width="0.45"/>
    </pattern>
    <filter id="shadowCommon" x="-25%" y="-25%" width="150%" height="150%">
      <feDropShadow dx="0.6" dy="1.0" stdDeviation="0.8" flood-color="#000000" flood-opacity="0.28"/>
    </filter>
  </defs>

  <!-- Underdog common tee -->
  <g id="chestplate_common" filter="url(#shadowCommon)" transform="translate(0 -26) translate(90 110) scale(0.72 0.78) translate(-90 -110)">
    <path d="M62 102 L68 92 L81 88 Q90 95.2 99 88 L112 92 L118 102 L110 108 L110 149 L70 149 L70 108 Z" fill="#9E9E9E" stroke="#6E6E6E" stroke-width="1.15"/>
    <path d="M65 102 L70 94 L82 90 Q90 96.0 98 90 L110 94 L115 102 L108 106 L106.7 147.2 L73.3 147.2 L72 106 Z" fill="url(#shirtShadeCommon)" opacity="0.55"/>
    <path d="M72.2 107 L70.8 147 M107.8 107 L109.2 147" stroke="#CFCFCF" stroke-opacity="0.45" stroke-width="0.72"/>
    <!-- Cotton fold shading (polygon facets) -->
    <g id="cottonShadingPolygons">
      <polygon points="74.2,113.0 84.6,121.2 80.2,140.8 71.6,132.6" fill="#000000" opacity="0.14"/>
      <polygon points="77.2,138.6 90.8,145.2 104.4,138.8 90.6,141.4" fill="#000000" opacity="0.10"/>
      <polygon points="96.2,109.6 106.0,115.2 103.6,123.2 94.0,118.2" fill="#FFFFFF" opacity="0.14"/>
      <polygon points="100.6,112.2 105.6,126.2 101.8,143.0 95.8,126.2" fill="#000000" opacity="0.12"/>
      <polygon points="79.0,120.6 86.8,126.4 83.6,137.4 76.0,132.4" fill="#FFFFFF" opacity="0.09"/>
    </g>


    <rect x="73.5" y="99.5" width="33.0" height="23.6" rx="5.6" fill="#F3F5F7" stroke="#71808E" stroke-width="0.9"/>
    <rect x="73.5" y="99.5" width="33.0" height="23.6" rx="5.6" fill="url(#fabricCommon)"/>
    <text x="90" y="112.8" text-anchor="middle" fill="#273443" font-size="6.2" font-weight="700" font-family="Segoe UI, Arial, sans-serif" textLength="27.4" lengthAdjust="spacingAndGlyphs">I'm common</text>

    <!-- Funny "coffee ring" print -->
    <circle cx="101.3" cy="118.8" r="3.2" fill="none" stroke="#8C5A32" stroke-width="0.9" opacity="0.74"/>
    <circle cx="79.0" cy="118.2" r="2.2" fill="#FFD166" stroke="#7A6330" stroke-width="0.55"/>
    <circle cx="78.3" cy="117.7" r="0.35" fill="#2D3E50"/>
    <circle cx="79.7" cy="117.7" r="0.35" fill="#2D3E50"/>
    <path d="M78.3 119.0 Q79.0 119.7 79.7 119.0" stroke="#2D3E50" stroke-width="0.42" fill="none" stroke-linecap="round"/>
  </g>
</svg>
