<svg xmlns="http://www.w3.org/2000/svg" viewBox="0 0 180 220" width="180" height="220">
  <defs>
    <!-- Epic Colors: Deep Purple, Magenta, Gold -->
    <!-- Replaces Red Shell with Royal Purple -->
    <linearGradient id="epicShell" x1="0%" y1="0%" x2="100%" y2="100%">
      <stop offset="0%" style="stop-color:#9C27B0"/>
      <stop offset="40%" style="stop-color:#7B1FA2"/>
      <stop offset="100%" style="stop-color:#4A148C"/>
    </linearGradient>
    <!-- Richer Gold Accent -->
    <linearGradient id="goldAccent" x1="0%" y1="0%" x2="100%" y2="100%">
      <stop offset="0%" style="stop-color:#FFD700"/>
      <stop offset="50%" style="stop-color:#FFA000"/>
      <stop offset="100%" style="stop-color:#FF6F00"/>
    </linearGradient>
    <!-- Neon Magenta/Pink Accent instead of Blue -->
    <linearGradient id="magentaAccent" x1="0%" y1="0%" x2="0%" y2="100%">
      <stop offset="0%" style="stop-color:#E040FB"/>
      <stop offset="50%" style="stop-color:#D500F9"/>
      <stop offset="100%" style="stop-color:#AA00FF"/>
    </linearGradient>
    <linearGradient id="darkMetal" x1="0%" y1="0%" x2="0%" y2="100%">
      <stop offset="0%" style="stop-color:#3a3a50"/>
      <stop offset="50%" style="stop-color:#2a2a3e"/>
      <stop offset="100%" style="stop-color:#1e1e30"/>
    </linearGradient>
    <linearGradient id="lightMetal" x1="0%" y1="0%" x2="100%" y2="100%">
      <stop offset="0%" style="stop-color:#8a8ea0"/>
      <stop offset="40%" style="stop-color:#6e7288"/>
      <stop offset="100%" style="stop-color:#585c72"/>
    </linearGradient>
    <!-- Holographic Chrome -->
    <linearGradient id="chrome" x1="0%" y1="0%" x2="100%" y2="0%">
      <stop offset="0%" style="stop-color:#E1BEE7"/>
      <stop offset="50%" style="stop-color:#F3E5F5"/>
      <stop offset="100%" style="stop-color:#E1BEE7"/>
    </linearGradient>
    <!-- Dark Void Screen -->
    <linearGradient id="screenGrad" x1="0%" y1="0%" x2="0%" y2="100%">
      <stop offset="0%" style="stop-color:#311B92"/>
      <stop offset="100%" style="stop-color:#000000"/>
    </linearGradient>
    <!-- Arcane Glow (Violet/Cyan) -->
    <radialGradient id="eyeGlow" cx="50%" cy="50%" r="50%">
      <stop offset="0%" style="stop-color:#E040FB;stop-opacity:1"/>
      <stop offset="50%" style="stop-color:#7B1FA2;stop-opacity:0.8"/>
      <stop offset="100%" style="stop-color:#4A148C;stop-opacity:0"/>
    </radialGradient>
    <filter id="glow" x="-25%" y="-25%" width="150%" height="150%">
      <feGaussianBlur stdDeviation="2" result="b"/>
      <feMerge><feMergeNode in="b"/><feMergeNode in="SourceGraphic"/></feMerge>
    </filter>
    <filter id="majorGlow" x="-35%" y="-35%" width="170%" height="170%">
      <feGaussianBlur stdDeviation="3" result="b"/>
      <feMerge><feMergeNode in="b"/><feMergeNode in="SourceGraphic"/></feMerge>
    </filter>
    <filter id="shadow" x="-25%" y="-25%" width="150%" height="150%">
      <feDropShadow dx="1" dy="2" stdDeviation="2.5" flood-color="#000" flood-opacity="0.2"/>
    </filter>
</defs>

  <ellipse cx="40" cy="216" rx="16" ry="2" fill="#000" opacity="0.1"/>

  <g transform="translate(5, 175) scale(0.146)">

      <g id="parrotBotEpic" filter="url(#shadow)">
      
        <!-- ===== LEFT WING (Back) - Symmetrical to Right ===== -->
        <g id="leftWing">
            <!-- Pivot at left shoulder (approx 90, 140) -->
            <!-- Flap animation (mirrored, out of phase or in phase?) Let's make it natural flapping (symmetric motion) 
                 Right wing goes 10 -> -30 -> 10. (Down -> Up -> Down)
                 Left wing should go -10 -> 30 -> -10 (Mirrored Down -> Up -> Down)
            -->
            <animateTransform attributeName="transform" type="rotate" values="-10 90 140; 30 90 140; -10 90 140" dur="0.8s" repeatCount="indefinite" />
            
            <!-- Wing Covert (Mirrored)
                 Right: M170,140 L210,160 L200,200 L160,180 Z
                 Reflected across X~130 axis (center of body) approx.
                 Actually let's just coordinate math.
                 Shoulder: 90,140
                 Tip: 50,160
                 Bottom Tip: 60,200
                 Inner Base: 100,180
            -->
            <path d="M90,140 L50,160 L60,200 L100,180 Z" fill="url(#epicShell)" stroke="#4A148C" stroke-width="1.2" />
            
            <!-- Wing Primary Feathers (Mirrored) -->
            <g transform="translate(100, 180) scale(-1, 1)">
               <!-- Same feather geometry, just flipped via scale -->
               <path d="M0,0 L20,30 L10,60 L-10,40" fill="url(#lightMetal)" stroke="#3a3a50" stroke-width="0.8"/>
               <path d="M15,20 L35,50 L25,80 L5,60" fill="url(#lightMetal)" stroke="#3a3a50" stroke-width="0.8"/>
               <path d="M30,40 L50,70 L40,100 L20,80" fill="url(#chrome)" stroke="#7B1FA2" stroke-width="0.8"/>
            </g>
        </g>

        <!-- ===== LEGS ===== -->
        <g id="legs">
          <!-- Left leg -->
          <g id="leftLeg">
            <animateTransform attributeName="transform" type="translate" values="0 0; 0 -10; 0 0; 0 0" keyTimes="0; 0.2; 0.4; 1" dur="4s" repeatCount="indefinite" />
            <rect x="95" y="248" width="6" height="22" rx="2" fill="url(#lightMetal)" stroke="#4a4e64" stroke-width="0.8"/>
            <!-- Left knee joint -->
            <circle cx="98" cy="250" r="4" fill="url(#darkMetal)" stroke="#4a4e64" stroke-width="0.8"/>
            <circle cx="98" cy="250" r="1.5" fill="#E040FB" opacity="0.5"/>
            <!-- Left foot -->
            <path d="M86,268 L80,275 L78,280 L118,280 L116,275 L110,268" fill="url(#darkMetal)" stroke="#3a3a50" stroke-width="0.8"/>
            <!-- Foot grip pads -->
            <rect x="84" y="276" width="8" height="3" rx="1" fill="#E040FB" opacity="0.4"/>
            <rect x="96" y="276" width="8" height="3" rx="1" fill="#E040FB" opacity="0.4"/>
            <rect x="108" y="276" width="6" height="3" rx="1" fill="#E040FB" opacity="0.3"/>
            <!-- Foot edge -->
            <line x1="80" y1="280" x2="118" y2="280" stroke="#4a4e64" stroke-width="1"/>
          </g>

          <!-- Right leg -->
          <g id="rightLeg">
            <animateTransform attributeName="transform" type="translate" values="0 0; 0 0; 0 -10; 0 0" keyTimes="0; 0.5; 0.7; 1" dur="4s" repeatCount="indefinite" />
            <rect x="157" y="248" width="6" height="22" rx="2" fill="url(#lightMetal)" stroke="#4a4e64" stroke-width="0.8"/>
            <!-- Right knee joint -->
            <circle cx="160" cy="250" r="4" fill="url(#darkMetal)" stroke="#4a4e64" stroke-width="0.8"/>
            <circle cx="160" cy="250" r="1.5" fill="#E040FB" opacity="0.5"/>
            <!-- Right foot -->
            <path d="M148,268 L142,275 L140,280 L180,280 L178,275 L172,268" fill="url(#darkMetal)" stroke="#3a3a50" stroke-width="0.8"/>
            <rect x="146" y="276" width="6" height="3" rx="1" fill="#E040FB" opacity="0.3"/>
            <rect x="154" y="276" width="8" height="3" rx="1" fill="#E040FB" opacity="0.4"/>
            <rect x="166" y="276" width="8" height="3" rx="1" fill="#E040FB" opacity="0.4"/>
            <line x1="142" y1="280" x2="180" y2="280" stroke="#4a4e64" stroke-width="1"/>
          </g>
        </g>

        <!-- ===== LOWER BODY / HIP ===== -->
        <g id="hip">
          <rect x="88" y="232" width="82" height="22" rx="6" fill="url(#darkMetal)" stroke="#4a4e64" stroke-width="1"/>
          <!-- Hip stripe - Magenta glow -->
          <rect x="92" y="238" width="74" height="4" rx="2" fill="url(#magentaAccent)" opacity="0.6"/>
          <!-- Hip vents -->
          <line x1="98" y1="234" x2="98" y2="252" stroke="#222236" stroke-width="1.5" opacity="0.4"/>
          <line x1="160" y1="234" x2="160" y2="252" stroke="#222236" stroke-width="1.5" opacity="0.4"/>
        </g>
        
        <!-- ===== RIGHT WING (Front/Side) ===== -->
        <g id="rightWing">
             <!-- Connects at shoulder. Flaps up and down -->
            <animateTransform attributeName="transform" type="rotate" values="10 170 140; -30 170 140; 10 170 140" dur="0.8s" repeatCount="indefinite" />
            
            <!-- Wing Covert (Shoulder) -->
            <path d="M170,140 L210,160 L200,200 L160,180 Z" fill="url(#epicShell)" stroke="#4A148C" stroke-width="1.2" />
            
            <!-- Wing Primary Feathers (Metal Blades) -->
            <g transform="translate(160, 180)">
               <path d="M0,0 L20,30 L10,60 L-10,40" fill="url(#lightMetal)" stroke="#3a3a50" stroke-width="0.8"/>
               <path d="M15,20 L35,50 L25,80 L5,60" fill="url(#lightMetal)" stroke="#3a3a50" stroke-width="0.8"/>
               <path d="M30,40 L50,70 L40,100 L20,80" fill="url(#chrome)" stroke="#7B1FA2" stroke-width="0.8"/>
            </g>
        </g>

        <!-- ===== TORSO (Purple Shell) ===== -->
        <g id="torso">
          <!-- Main body -->
          <rect x="78" y="130" width="102" height="108" rx="14" fill="url(#epicShell)" stroke="#4A148C" stroke-width="1.2"/>
          
          <!-- Extra Epic Detail: Vertical rune stripe -->
          <path d="M85 135 L85 230" stroke="#E040FB" stroke-width="1" stroke-dasharray="2,4" opacity="0.3"/>
          <path d="M173 135 L173 230" stroke="#E040FB" stroke-width="1" stroke-dasharray="2,4" opacity="0.3"/>

          <!-- Gold chest plate -->
          <rect x="92" y="142" width="74" height="50" rx="8" fill="url(#goldAccent)" stroke="#D84315" stroke-width="0.8"/>
          
          <!-- Chest screen -->
          <rect x="100" y="150" width="58" height="34" rx="5" fill="url(#screenGrad)" stroke="#E040FB" stroke-width="1"/>
          
          <!-- Screen content: TETRIS GAMEPLAY -->
          <g >
             <g transform="translate(100, 150) scale(0.6)">
                <!-- Grid Background -->
                <path d="M0,0 L96,0 M0,10 L96,10 M0,20 L96,20 M0,30 L96,30 M0,40 L96,40 M0,50 L96,50" stroke="#E040FB" stroke-width="0.5" opacity="0.2"/>
                <path d="M0,0 L0,56 M10,0 L10,56 M20,0 L20,56 M30,0 L30,56 M40,0 L40,56 M50,0 L50,56 M60,0 L60,56" stroke="#E040FB" stroke-width="0.5" opacity="0.2"/>

                <!-- Piled blocks (Static rubble) -->
                <!-- Use bright retro colors: Cyan, Orange, Yellow, Green, Purple, Red, Blue -->
                <rect x="0" y="50" width="10" height="10" fill="#00FFFF" stroke="#000" stroke-width="0.5" />
                <rect x="10" y="50" width="10" height="10" fill="#00FFFF" stroke="#000" stroke-width="0.5" />
                <rect x="20" y="50" width="10" height="10" fill="#FFFF00" stroke="#000" stroke-width="0.5" />
                <rect x="30" y="50" width="10" height="10" fill="#FFFF00" stroke="#000" stroke-width="0.5" />
                <rect x="20" y="40" width="10" height="10" fill="#FFFF00" stroke="#000" stroke-width="0.5" />
                <rect x="30" y="40" width="10" height="10" fill="#FFFF00" stroke="#000" stroke-width="0.5" />
                <rect x="40" y="50" width="10" height="10" fill="#800080" stroke="#000" stroke-width="0.5" />
                <rect x="50" y="50" width="10" height="10" fill="#800080" stroke="#000" stroke-width="0.5" />
                <rect x="60" y="50" width="10" height="10" fill="#00FF00" stroke="#000" stroke-width="0.5" />
                <rect x="70" y="50" width="10" height="10" fill="#FF0000" stroke="#000" stroke-width="0.5" />
                <rect x="80" y="50" width="10" height="10" fill="#FF7F00" stroke="#000" stroke-width="0.5" />
                
                <rect x="60" y="40" width="10" height="10" fill="#00FF00" stroke="#000" stroke-width="0.5" />
                <rect x="70" y="40" width="10" height="10" fill="#FF0000" stroke="#000" stroke-width="0.5" />

                <!-- Active Falling Piece (T-Shape, Magenta) -->
                <g>
                  <animateTransform attributeName="transform" type="translate" values="30 -10; 30 0; 30 10; 30 20; 30 30" dur="2s" repeatCount="indefinite" calcMode="discrete"/>
                  <!-- T Shape -->
                  <rect x="10" y="0" width="10" height="10" fill="#E040FB" stroke="#000" stroke-width="0.5"/>
                  <rect x="0" y="10" width="10" height="10" fill="#E040FB" stroke="#000" stroke-width="0.5"/>
                  <rect x="10" y="10" width="10" height="10" fill="#E040FB" stroke="#000" stroke-width="0.5"/>
                  <rect x="20" y="10" width="10" height="10" fill="#E040FB" stroke="#000" stroke-width="0.5"/>
                </g>

             </g>
          </g>

          <!-- Magenta panel below chest -->
          <rect x="92" y="198" width="74" height="18" rx="5" fill="url(#magentaAccent)" stroke="#7B1FA2" stroke-width="0.8"/>
          <!-- Panel details -->
          <circle cx="106" cy="207" r="3" fill="#4A148C" stroke="#7B1FA2" stroke-width="0.6"/>
          <circle cx="106" cy="207" r="1.5" fill="#00E5FF" opacity="0.9" filter="url(#glow)"/>
          <rect x="118" y="204" width="30" height="6" rx="3" fill="#4A148C" stroke="#7B1FA2" stroke-width="0.5"/>
          <rect x="120" y="205.5" width="12" height="3" rx="1.5" fill="#E040FB" opacity="0.8"/>
          <circle cx="152" cy="207" r="3" fill="#4A148C" stroke="#7B1FA2" stroke-width="0.6"/>
          <circle cx="152" cy="207" r="1.5" fill="#FFD700" opacity="0.9" filter="url(#glow)"/>

          <!-- Side rivets -->
          <circle cx="84" cy="150" r="2" fill="#7B1FA2" stroke="#4A148C" stroke-width="0.5"/>
          <circle cx="84" cy="175" r="2" fill="#7B1FA2" stroke="#4A148C" stroke-width="0.5"/>
          <circle cx="84" cy="200" r="2" fill="#7B1FA2" stroke="#4A148C" stroke-width="0.5"/>
          <circle cx="174" cy="150" r="2" fill="#7B1FA2" stroke="#4A148C" stroke-width="0.5"/>
          <circle cx="174" cy="175" r="2" fill="#7B1FA2" stroke="#4A148C" stroke-width="0.5"/>
          <circle cx="174" cy="200" r="2" fill="#7B1FA2" stroke="#4A148C" stroke-width="0.5"/>
        </g>

        <!-- ===== ARMS ===== -->
        <g id="arms">
          <!-- Left arm -->
          <g id="leftArm">
            <!-- Shoulder joint -->
            <circle cx="74" cy="148" r="8" fill="url(#epicShell)" stroke="#4A148C" stroke-width="1"/>
            <circle cx="74" cy="148" r="4" fill="url(#darkMetal)" stroke="#4a4e64" stroke-width="0.8"/>
            <!-- Upper arm -->
            <rect x="66" y="155" width="10" height="28" rx="4" fill="url(#goldAccent)" stroke="#FFA000" stroke-width="0.8"/>
            <!-- Elbow joint -->
            <circle cx="71" cy="186" r="5" fill="url(#darkMetal)" stroke="#4a4e64" stroke-width="0.8"/>
            <circle cx="71" cy="186" r="2" fill="#E040FB" opacity="0.6"/>
            <!-- Forearm -->
            <rect x="64" y="190" width="10" height="24" rx="4" fill="url(#magentaAccent)" stroke="#7B1FA2" stroke-width="0.8"/>
            <!-- Hand / gripper -->
            <path d="M62,214 C58,218 56,224 60,228 C63,231 70,230 73,226 C76,222 77,216 74,214" fill="url(#darkMetal)" stroke="#4a4e64" stroke-width="0.8"/>
            <line x1="64" y1="220" x2="72" y2="220" stroke="#222236" stroke-width="1.2"/>
            <path d="M60,228 C59,230 60,232 62,232 L63,229" fill="url(#darkMetal)" stroke="#4a4e64" stroke-width="0.5"/>
            <path d="M70,228 C72,230 72,232 70,232 L69,229" fill="url(#darkMetal)" stroke="#4a4e64" stroke-width="0.5"/>
          </g>

          <!-- Right arm -->
          <g id="rightArm">
            <circle cx="184" cy="148" r="8" fill="url(#epicShell)" stroke="#4A148C" stroke-width="1"/>
            <circle cx="184" cy="148" r="4" fill="url(#darkMetal)" stroke="#4a4e64" stroke-width="0.8"/>
            <rect x="182" y="155" width="10" height="28" rx="4" fill="url(#goldAccent)" stroke="#FFA000" stroke-width="0.8"/>
            <circle cx="187" cy="186" r="5" fill="url(#darkMetal)" stroke="#4a4e64" stroke-width="0.8"/>
            <circle cx="187" cy="186" r="2" fill="#E040FB" opacity="0.6"/>
            <rect x="184" y="190" width="10" height="24" rx="4" fill="url(#magentaAccent)" stroke="#7B1FA2" stroke-width="0.8"/>
            <path d="M184,214 C180,218 178,224 182,228 C185,231 192,230 195,226 C198,222 199,216 196,214" fill="url(#darkMetal)" stroke="#4a4e64" stroke-width="0.8"/>
            <line x1="186" y1="220" x2="194" y2="220" stroke="#222236" stroke-width="1.2"/>
            <path d="M182,228 C181,230 182,232 184,232 L185,229" fill="url(#darkMetal)" stroke="#4a4e64" stroke-width="0.5"/>
            <path d="M192,228 C194,230 194,232 192,232 L191,229" fill="url(#darkMetal)" stroke="#4a4e64" stroke-width="0.5"/>
          </g>
        </g>

        <!-- ===== NECK ===== -->
        <g id="neck">
          <rect x="120" y="116" width="18" height="18" rx="3" fill="url(#chrome)" stroke="#8a8ea0" stroke-width="0.8"/>
          <!-- Neck rings -->
          <rect x="118" y="120" width="22" height="3" rx="1.5" fill="url(#lightMetal)" stroke="#6e7288" stroke-width="0.5"/>
          <rect x="118" y="126" width="22" height="3" rx="1.5" fill="url(#lightMetal)" stroke="#6e7288" stroke-width="0.5"/>
        </g>

        <!-- ===== HEAD ===== -->
        <g id="head">
          <animateTransform attributeName="transform" type="rotate" values="0 130 118; 15 130 118; 15 130 118; -15 130 118; -15 130 118; 0 130 118; 0 130 118" keyTimes="0; 0.1; 0.3; 0.4; 0.6; 0.7; 1" dur="5s" repeatCount="indefinite" />
          <!-- Main head dome (Purple) -->
          <path d="M90,82 C90,52 108,30 130,30 C152,30 170,52 170,82 L170,105 C170,112 162,118 130,118 C98,118 90,112 90,105 Z" fill="url(#epicShell)" stroke="#4A148C" stroke-width="1.2"/>

          <!-- Face plate (Gold) -->
          <rect x="96" y="66" width="66" height="42" rx="10" fill="url(#goldAccent)" stroke="#FFA000" stroke-width="0.8"/>

          <!-- Eye sockets -->
          <!-- Left eye - Arcane Glow -->
          <rect x="102" y="72" width="24" height="20" rx="6" fill="url(#screenGrad)" stroke="#4A148C" stroke-width="1"/>
          <ellipse cx="114" cy="82" rx="8" ry="6" fill="url(#eyeGlow)" opacity="0.9" filter="url(#glow)"/>
          <ellipse cx="114" cy="82" rx="4" ry="3" fill="#E040FB" opacity="1"/>
          <ellipse cx="116" cy="81" rx="1.5" ry="1" fill="#ffffff" opacity="0.8"/>

          <!-- Right eye -->
          <rect x="132" y="72" width="24" height="20" rx="6" fill="#1A1A2E" stroke="#4A148C" stroke-width="1"/>
          <ellipse cx="144" cy="82" rx="8" ry="6" fill="#D500F9" opacity="0.6" filter="url(#glow)"/>
          <ellipse cx="144" cy="82" rx="4" ry="3" fill="#AA00FF" opacity="0.9"/>
          <ellipse cx="146" cy="81" rx="1.5" ry="1" fill="#ffffff" opacity="0.6"/>
          <!-- Scan cross on right eye -->
          <line x1="137" y1="82" x2="151" y2="82" stroke="#E040FB" stroke-width="0.5" opacity="0.8"/>
          <line x1="144" y1="76" x2="144" y2="88" stroke="#E040FB" stroke-width="0.5" opacity="0.8"/>

          <!-- Mouth / speaker grille -->
          <rect x="110" y="96" width="38" height="10" rx="5" fill="url(#darkMetal)" stroke="#3a3a50" stroke-width="0.8"/>
          <line x1="116" y1="98" x2="116" y2="104" stroke="#222236" stroke-width="1.2"/>
          <line x1="121" y1="98" x2="121" y2="104" stroke="#222236" stroke-width="1.2"/>
          <line x1="126" y1="98" x2="126" y2="104" stroke="#222236" stroke-width="1.2"/>
          <line x1="131" y1="98" x2="131" y2="104" stroke="#222236" stroke-width="1.2"/>
          <line x1="136" y1="98" x2="136" y2="104" stroke="#222236" stroke-width="1.2"/>
          <line x1="141" y1="98" x2="141" y2="104" stroke="#222236" stroke-width="1.2"/>

          <!-- Head top ridge -->
          <path d="M105,46 C115,38 145,38 155,46" fill="none" stroke="#E040FB" stroke-width="1.2" opacity="0.7"/>

          <!-- Crest fin - Holographic / Energy -->
          <path d="M125,34 L130,12 L135,34" fill="url(#magentaAccent)" stroke="#7B1FA2" stroke-width="0.8"/>
          <path d="M128,34 L130,18 L132,34" fill="#ffffff" opacity="0.6"/>

          <!-- Ear sensors -->
          <ellipse cx="88" cy="88" rx="5" ry="8" fill="url(#darkMetal)" stroke="#4a4e64" stroke-width="0.8"/>
          <ellipse cx="88" cy="88" rx="2.5" ry="4" fill="#FFD700" opacity="0.5"/>
          <ellipse cx="170" cy="88" rx="5" ry="8" fill="url(#darkMetal)" stroke="#4a4e64" stroke-width="0.8"/>
          <ellipse cx="170" cy="88" rx="2.5" ry="4" fill="#FFD700" opacity="0.5"/>
        </g>

        <!-- ===== BACK THRUSTER PACK ===== -->
        <g id="thrusterPack">
          <rect x="112" y="220" width="34" height="16" rx="4" fill="url(#darkMetal)" stroke="#4a4e64" stroke-width="0.8"/>
          <!-- Active Thrusters -->
          <circle cx="120" cy="234" r="4" fill="#1a1a2e" stroke="#333350" stroke-width="0.8"/>
          <circle cx="120" cy="234" r="2" fill="#E040FB" opacity="0.6" filter="url(#glow)">
             <animate attributeName="opacity" values="0.4;0.8;0.4" dur="0.2s" repeatCount="indefinite"/>
          </circle>
          <circle cx="138" cy="234" r="4" fill="#1a1a2e" stroke="#333350" stroke-width="0.8"/>
          <circle cx="138" cy="234" r="2" fill="#E040FB" opacity="0.6" filter="url(#glow)">
             <animate attributeName="opacity" values="0.4;0.8;0.4" dur="0.23s" repeatCount="indefinite"/>
          </circle>
        </g>

      </g>

      <!-- ===== EPIC ANIMATIONS ===== -->
      <!-- Right eye pulse -->
      <ellipse cx="144" cy="82" rx="4" ry="3" fill="#E040FB" opacity="0">
        <animate attributeName="opacity" values="0;0.5;0" dur="2s" repeatCount="indefinite"/>
        <animate attributeName="rx" values="4;7;4" dur="2s" repeatCount="indefinite"/>
        <animate attributeName="ry" values="3;5;3" dur="2s" repeatCount="indefinite"/>
      </ellipse>
      
      <!-- Energy Field / Aura Effect around the whole bot -->
      <ellipse cx="130" cy="180" rx="90" ry="110" fill="none" stroke="url(#magentaAccent)" stroke-width="2" opacity="0" filter="url(#majorGlow)">
           <animate attributeName="opacity" values="0;0.15;0" dur="4s" repeatCount="indefinite"/>
           <animate attributeName="rx" values="85;95;85" dur="4s" repeatCount="indefinite"/>
           <animate attributeName="ry" values="105;115;105" dur="4s" repeatCount="indefinite"/>
      </ellipse>

      <!-- Chest status lights -->
      <circle cx="106" cy="207" r="1.2" fill="#00E5FF" opacity="0.9">
        <animate attributeName="opacity" values="0.9;0.3;0.9" dur="1.5s" repeatCount="indefinite"/>
      </circle>
      <circle cx="152" cy="207" r="1.2" fill="#FFD700" opacity="0.9">
        <animate attributeName="opacity" values="0.9;0.3;0.9" dur="1.8s" repeatCount="indefinite"/>
      </circle>
  </g>
</svg>

