<svg xmlns="http://www.w3.org/2000/svg" viewBox="0 0 180 220" width="180" height="220">
  <g id="qt_anim_driver">
    <animateTransform attributeName="transform" type="translate" values="0 0; 0 -0.9; 0 0" dur="2.6s" repeatCount="indefinite"/>


  <g id="shield_celestial">
    <path d="M33 103 L61 98 L65 122 L59 149 L36 147 L33 129 Z" fill="#2e476f" stroke="#13233a" stroke-width="1.2"/>
    <path d="M33 103 L61 98 L65 122 L59 149 L36 147 L33 129 Z" fill="none" stroke="#00E5FF" stroke-width="1" opacity="0.95"/>
    <path d="M37 106 L60 105" stroke="#a6c0e4" stroke-width="0.85" opacity="0.62"/>
    <path d="M38 111 L59 111 M38 120 L59 120 M38 129 L59 129" stroke="#58739b" stroke-width="0.92" opacity="0.72"/><path d="M40 105 L58 102 L61 118 L57 143 L40 141 L38 125 Z" fill="none" stroke="#00E5FF" stroke-width="0.9" opacity="0.8"/><rect x="42" y="115" width="14" height="2.1" rx="1" fill="#00E5FF" opacity="0.85"><animate attributeName="y" values="115;138;115" dur="2.1s" repeatCount="indefinite"/></rect><path d="M47 126 L51 131 L56 122" stroke="#00E5FF" stroke-width="1.1" fill="none"/><circle cx="49.5" cy="111.5" r="2.3" fill="#17243a" stroke="#00E5FF" stroke-width="0.95"/><ellipse cx="49" cy="126" rx="17" ry="8.2" fill="none" stroke="#00E5FF" stroke-width="1" opacity="0.56"/><ellipse cx="49" cy="126" rx="11.5" ry="5.6" fill="none" stroke="#bcf7ff" stroke-width="0.85" opacity="0.58"/>
  </g>

  </g>
</svg>
