<?xml version="1.0" encoding="UTF-8"?>
<svg xmlns="http://www.w3.org/2000/svg" viewBox="0 0 180 220" width="180" height="220">
  <defs>
    <linearGradient id="r_case" x1="0" y1="0" x2="0" y2="1">
      <stop offset="0%" stop-color="#9ac7f2"/>
      <stop offset="100%" stop-color="#5d88bb"/>
    </linearGradient>
    <linearGradient id="r_edge" x1="0" y1="0" x2="1" y2="1">
      <stop offset="0%" stop-color="#cae6ff"/>
      <stop offset="100%" stop-color="#7ba7cf"/>
    </linearGradient>
    <radialGradient id="r_glow" cx="50%" cy="50%" r="50%">
      <stop offset="0%" stop-color="#9fd8ff" stop-opacity="0.72"/>
      <stop offset="100%" stop-color="#9fd8ff" stop-opacity="0"/>
    </radialGradient>
  </defs>

  <!-- Rare suitcase shield -->
  <g id="shield_rare" transform="translate(-25 42) translate(62 149) scale(1.55 1.55) translate(-62 -149) rotate(-6 62 149)">
    <ellipse cx="62.2" cy="160.3" rx="10.5" ry="2.9" fill="#000000" opacity="0.17"/>
    <rect x="52.0" y="138.0" width="20.4" height="16.5" rx="2.5" fill="url(#r_case)" stroke="#3f6792" stroke-width="0.95"/>
    <rect x="53.0" y="139.0" width="18.4" height="3.6" rx="1.0" fill="#d9ecff" opacity="0.6"/>
    <rect x="58.3" y="134.6" width="7.4" height="3.2" rx="1.05" fill="url(#r_edge)" stroke="#4c7aa8" stroke-width="0.76"/>
    <rect x="60.7" y="144.8" width="3.0" height="2.7" rx="0.5" fill="#f1f8ff" stroke="#6091c1" stroke-width="0.48"/>
    <path d="M54.8 141.4 L57.0 141.4 M67.5 141.4 L69.6 141.4" stroke="#8ac0f0" stroke-width="0.6"/>
    <circle cx="55.0" cy="152.8" r="0.84" fill="#84b9ea"/>
    <circle cx="69.6" cy="152.8" r="0.84" fill="#84b9ea"/>
    <circle cx="62.2" cy="146.2" r="2.8" fill="url(#r_glow)" opacity="0.55"/>
  </g>
</svg>
