<svg xmlns="http://www.w3.org/2000/svg" viewBox="0 0 180 220" width="180" height="220">
  <defs>
    <linearGradient id="wBoot4Plate" x1="0" y1="0" x2="0" y2="1">
      <stop offset="0%" stop-color="#d9ab66"/>
      <stop offset="45%" stop-color="#6b5638"/>
      <stop offset="100%" stop-color="#4a3a24"/>
    </linearGradient>
    <linearGradient id="wBoot4Deep" x1="0" y1="0" x2="0" y2="1">
      <stop offset="0%" stop-color="#6b5638"/>
      <stop offset="100%" stop-color="#332715"/>
    </linearGradient>
    <radialGradient id="wBoot4Aura" cx="0.5" cy="0.5" r="0.5">
      <stop offset="0%" stop-color="#FF9800" stop-opacity="0.5"/>
      <stop offset="70%" stop-color="#FF9800" stop-opacity="0.16"/>
      <stop offset="100%" stop-color="#FF9800" stop-opacity="0.0"/>
    </radialGradient>
  </defs>

  <g id="boots_legendary">
    <path d="M44 186 L74 186 L75.5 199 L42.5 199 Z" fill="url(#wBoot4Plate)" stroke="#332715" stroke-width="1"/><path d="M42 198 L77 198 L79 207 L40 207 Z" fill="url(#wBoot4Deep)" stroke="#332715" stroke-width="1"/><path d="M40 206.2 L79 206.2 L79 209 L40 209 Z" fill="#332715"/><path d="M46 190 L72 190" stroke="#d9ab66" stroke-width="0.6" opacity="0.6"/><rect x="49" y="192.6" width="20" height="3" rx="1.4" fill="#7a4a26" stroke="#332715" stroke-width="0.55"/><path d="M71 199 Q76 202.5 74.5 206" stroke="#d9ab66" stroke-width="0.7" fill="none" opacity="0.55"/><path d="M43 197.2 L75 197.2" stroke="#ffb74d" stroke-width="1.05" opacity="0.9"/><circle cx="52.5" cy="194.1" r="0.85" fill="#d9ab66"/><circle cx="52.75" cy="194.4" r="0.3825" fill="#332715" opacity="0.55"/><circle cx="65.5" cy="194.1" r="0.85" fill="#d9ab66"/><circle cx="65.75" cy="194.4" r="0.3825" fill="#332715" opacity="0.55"/><path d="M50.0 201.6 L50.0 203.79999999999998 M50.0 202.7 L51.8 201.6 M54.6 201.6 L56.4 203.79999999999998 M56.4 201.6 L54.6 203.79999999999998 M59.2 203.79999999999998 L59.2 201.6 L61.0 201.6 M63.8 201.6 L65.6 201.6 L63.8 203.79999999999998 L65.6 203.79999999999998" stroke="#FF9800" stroke-width="0.55" fill="none" opacity="0.85" stroke-linecap="round"/><path d="M55 186 L60 181.5 L65 186 Z" fill="url(#wBoot4Deep)" stroke="#FF9800" stroke-width="0.7"/><circle cx="60" cy="188.6" r="1.1" fill="#FF9800"/><path d="M43 207.8 L77 207.8" stroke="#FF9800" stroke-width="1.0" stroke-linecap="round" opacity="0.625"><animate attributeName="opacity" values="0.625;0.95;0.3;0.625" dur="2.5s" repeatCount="indefinite"/></path><circle cx="57" cy="196" r="0.6" fill="#ffcc80" opacity="0.75"><animateTransform attributeName="transform" type="translate" values="0 0;0 -7" dur="3.1s" begin="0s" repeatCount="indefinite"/><animate attributeName="opacity" values="0.75;0.9;0" dur="3.1s" begin="0s" repeatCount="indefinite"/></circle>
    <path d="M104 186 L134 186 L135.5 199 L102.5 199 Z" fill="url(#wBoot4Plate)" stroke="#332715" stroke-width="1"/><path d="M102 198 L137 198 L139 207 L100 207 Z" fill="url(#wBoot4Deep)" stroke="#332715" stroke-width="1"/><path d="M100 206.2 L139 206.2 L139 209 L100 209 Z" fill="#332715"/><path d="M106 190 L132 190" stroke="#d9ab66" stroke-width="0.6" opacity="0.6"/><rect x="109" y="192.6" width="20" height="3" rx="1.4" fill="#7a4a26" stroke="#332715" stroke-width="0.55"/><path d="M131 199 Q136 202.5 134.5 206" stroke="#d9ab66" stroke-width="0.7" fill="none" opacity="0.55"/><path d="M103 197.2 L135 197.2" stroke="#ffb74d" stroke-width="1.05" opacity="0.9"/><circle cx="112.5" cy="194.1" r="0.85" fill="#d9ab66"/><circle cx="112.75" cy="194.4" r="0.3825" fill="#332715" opacity="0.55"/><circle cx="125.5" cy="194.1" r="0.85" fill="#d9ab66"/><circle cx="125.75" cy="194.4" r="0.3825" fill="#332715" opacity="0.55"/><path d="M110.0 201.6 L110.0 203.79999999999998 M110.0 202.7 L111.8 201.6 M114.6 201.6 L116.4 203.79999999999998 M116.4 201.6 L114.6 203.79999999999998 M119.2 203.79999999999998 L119.2 201.6 L121.0 201.6 M123.8 201.6 L125.6 201.6 L123.8 203.79999999999998 L125.6 203.79999999999998" stroke="#FF9800" stroke-width="0.55" fill="none" opacity="0.85" stroke-linecap="round"/><path d="M115 186 L120 181.5 L125 186 Z" fill="url(#wBoot4Deep)" stroke="#FF9800" stroke-width="0.7"/><circle cx="120" cy="188.6" r="1.1" fill="#FF9800"/><path d="M103 207.8 L137 207.8" stroke="#FF9800" stroke-width="1.0" stroke-linecap="round" opacity="0.625"><animate attributeName="opacity" values="0.625;0.95;0.3;0.625" dur="2.5s" repeatCount="indefinite"/></path><circle cx="123" cy="196" r="0.6" fill="#ffcc80" opacity="0.75"><animateTransform attributeName="transform" type="translate" values="0 0;0 -7" dur="3.1s" begin="0.9s" repeatCount="indefinite"/><animate attributeName="opacity" values="0.75;0.9;0" dur="3.1s" begin="0.9s" repeatCount="indefinite"/></circle>
  </g>

</svg>
