<svg xmlns="http://www.w3.org/2000/svg" viewBox="0 0 180 220" width="180" height="220">

  <g id="boots_celestial">
    <path d="M44 188 L74 188 L76 202 L42 202 Z" fill="#324b6f" stroke="#1b2d48" stroke-width="1.2"/>
    <path d="M104 188 L134 188 L136 202 L102 202 Z" fill="#324b6f" stroke="#1b2d48" stroke-width="1.2"/>
    <path d="M42 201 L77 201 L79 209 L40 209 Z" fill="#1f2a3a" stroke="#101722" stroke-width="1"/>
    <path d="M102 201 L137 201 L139 209 L100 209 Z" fill="#1f2a3a" stroke="#101722" stroke-width="1"/>
    <path d="M46 192 L74 192" stroke="#00E5FF" stroke-width="1.3" opacity="0.92"/>
    <path d="M106 192 L134 192" stroke="#00E5FF" stroke-width="1.3" opacity="0.92"/>
    <path d="M45 194 L73 194 M106 194 L134 194" stroke="#5f789e" stroke-width="1" opacity="0.85"/><path d="M48 190 L44 192 L48 196 Z" fill="#00E5FF" opacity="0.85"/><path d="M132 190 L136 192 L132 196 Z" fill="#00E5FF" opacity="0.85"/><rect x="46.5" y="203.2" width="27" height="2.1" rx="1" fill="#00E5FF" opacity="0.88"/><rect x="106.5" y="203.2" width="27" height="2.1" rx="1" fill="#00E5FF" opacity="0.88"/><circle cx="60" cy="191.6" r="1.3" fill="#00E5FF"/><circle cx="120" cy="191.6" r="1.3" fill="#00E5FF"/><path d="M52 188 Q60 182 68 188" stroke="#00E5FF" stroke-width="0.95" fill="none" opacity="0.9"/><path d="M112 188 Q120 182 128 188" stroke="#00E5FF" stroke-width="0.95" fill="none" opacity="0.9"/><ellipse cx="60" cy="207" rx="12" ry="3.4" fill="none" stroke="#00E5FF" stroke-width="0.9" opacity="0.55"/><ellipse cx="120" cy="207" rx="12" ry="3.4" fill="none" stroke="#00E5FF" stroke-width="0.9" opacity="0.55"/>
  </g>

</svg>
