<svg xmlns="http://www.w3.org/2000/svg" viewBox="0 0 180 220" width="180" height="220">
  <defs>
    <linearGradient id="sQuill2Cloth" x1="0" y1="0" x2="0" y2="1">
      <stop offset="0%" stop-color="#88abd8"/>
      <stop offset="45%" stop-color="#3f5a85"/>
      <stop offset="100%" stop-color="#2c4063"/>
    </linearGradient>
    <linearGradient id="sQuill2Deep" x1="0" y1="0" x2="0" y2="1">
      <stop offset="0%" stop-color="#3f5a85"/>
      <stop offset="100%" stop-color="#1e2f4c"/>
    </linearGradient>
  </defs>

  <g id="weapon_rare" transform="rotate(-24 121 131)">
    <rect x="117" y="128" width="6.6" height="34" rx="2.8" fill="url(#sQuill2Deep)" stroke="#1e2f4c" stroke-width="0.95"/>
    <path d="M117.2 134 L123.4 134 M117.2 152 L123.4 152" stroke="#9fc3ef" stroke-width="1.6" opacity="0.95"/>
    <path d="M118.6 162 L121.9 162 L120.3 168.5 Z" fill="#9fc3ef" stroke="#1e2f4c" stroke-width="0.6"/>
    <path d="M120.3 164.5 L120.3 167.6" stroke="#1e2f4c" stroke-width="0.5"/>
    <path d="M121 128 Q126 116 134 107 Q142 99 151 95.5 Q146 104 139 111.5 Q131 119.5 124 124.5 Z"
          fill="url(#sQuill2Cloth)" stroke="#1e2f4c" stroke-width="1"/>
    <path d="M122.5 125 Q132 114 149 97" stroke="#1e2f4c" stroke-width="0.9" fill="none" opacity="0.9"/>
    <path d="M126 119 Q124 115 125.5 111 M131 113 Q129 109 130.5 105 M137 106.5 Q135 103 136.5 99.5"
          stroke="#2c4063" stroke-width="0.7" fill="none" opacity="0.8"/>
    <path d="M127 117 Q136 107 146 101" stroke="#9fc3ef" stroke-width="0.8" fill="none" opacity="0.85"/><path d="M117.4 137.8 L117.4 140.4 M117.4 139.10000000000002 L119.2 137.8" stroke="#2196F3" stroke-width="0.55" fill="none" opacity="0.95" stroke-linecap="round"/><circle cx="120.3" cy="166.8" r="1.5" fill="#2196F3" opacity="0.9"><animate attributeName="opacity" values="0.9;0.4;0.9" dur="2.6s" repeatCount="indefinite"/></circle>
  </g>

</svg>
