<svg xmlns="http://www.w3.org/2000/svg" viewBox="0 0 180 220" width="180" height="220">
  <g id="qt_anim_driver">
    <animateTransform attributeName="transform" type="translate" values="0 0; 0 -0.9; 0 0" dur="2.6s" repeatCount="indefinite"/>


  <g id="weapon_celestial" transform="rotate(-24 121 131)">
    <rect x="115.2" y="126" width="10.2" height="36" rx="3" fill="#1b2b43" stroke="#0e1725" stroke-width="1"/>
    <rect x="116.8" y="134" width="7" height="2.4" rx="1" fill="#00E5FF" opacity="0.92"/>
    <rect x="116.8" y="145" width="7" height="2.4" rx="1" fill="#00E5FF" opacity="0.75"/>
    <rect x="118.8" y="160" width="3.2" height="4.8" rx="1.4" fill="#28405d"/>
    <path d="M114.8 126 L125.6 126 L127 122 L113.6 122 Z" fill="#38537a" stroke="#1a2b45" stroke-width="1"/>
    <path d="M124 102 Q141 92 152 106 Q138 111 126 124 Z" fill="#cadcf2" stroke="#314b6a" stroke-width="1.05"/>
    <path d="M126.3 103.5 L129.6 108.8 L126.3 114.2 L123 108.8 Z" fill="#f2f7ff" opacity="0.9"/>
    <path d="M126 104 Q138 96 146 108" stroke="#00E5FF" stroke-width="0.95" fill="none" opacity="0.85"/><path d="M127 112 Q139 106 147 99" stroke="#00E5FF" stroke-width="0.9" fill="none" opacity="0.75"/><circle cx="142" cy="102.5" r="1.6" fill="#00E5FF" opacity="0.95"/><path d="M124 124 L128 120 L131 126 L127 130 Z" fill="#294260" stroke="#00E5FF" stroke-width="0.9"/><path d="M124 106 Q140 94 151 106" stroke="#00E5FF" stroke-width="1.35" fill="none" opacity="0.92"/><path d="M126 118 Q140 112 149 105" stroke="#00E5FF" stroke-width="0.95" fill="none" opacity="0.8"><animate attributeName="opacity" values="0.45;1;0.45" dur="1.5s" repeatCount="indefinite"/></path><ellipse cx="142" cy="103" rx="10.8" ry="4.3" fill="none" stroke="#00E5FF" stroke-width="0.9" opacity="0.56"/>
  </g>

  </g>
</svg>
