<svg xmlns="http://www.w3.org/2000/svg" viewBox="0 0 180 220" width="180" height="220">

  <g id="chestplate_celestial">
    <path d="M66 80 L114 80 L111 136 L69 136 Z" fill="#334966" stroke="#1d2d48" stroke-width="1.25"/>
    <path d="M72 86 L108 86 L105.5 129 L74.5 129 Z" fill="#445d81" opacity="0.92"/>
    <path d="M71 89 Q90 100 109 89" stroke="#617ba4" stroke-width="0.95" opacity="0.75" fill="none"/>
    <path d="M90 86 L90 131" stroke="#243754" stroke-width="1.05" opacity="0.74"/>
    <path d="M75 128 Q90 133 105 128" stroke="#00E5FF" stroke-width="1.25" opacity="0.78" fill="none"/>
    <path d="M72 86 L72 126 M108 86 L108 126" stroke="#4f668a" stroke-width="1" opacity="0.7"/>
    <path d="M74 93 L106 93 M74 104 L106 104 M74 115 L106 115" stroke="#00E5FF" stroke-width="0.95" opacity="0.6"/>
    <circle cx="90" cy="103" r="8" fill="#1b2b45" stroke="#00E5FF" stroke-width="1.3"/><circle cx="90" cy="103" r="2.4" fill="#00E5FF"><animate attributeName="r" values="2;3.4;2" dur="2.1s" repeatCount="indefinite"/></circle>
    <path d="M67 82 L76 76 L104 76 L113 82 L109 136 L71 136 Z" fill="none" stroke="#00E5FF" stroke-width="1.1" opacity="0.9"/><rect x="83.8" y="95" width="12.4" height="16" rx="2.5" fill="#16263d" stroke="#00E5FF" stroke-width="1"/>
    <ellipse cx="90" cy="104" rx="22" ry="10" fill="none" stroke="#00E5FF" stroke-width="1.1" opacity="0.56"/><ellipse cx="90" cy="104" rx="16" ry="7" fill="none" stroke="#b5f4ff" stroke-width="0.85" opacity="0.55"/>
  </g>

</svg>
