<svg width="512" height="512" viewBox="0 0 512 512" xmlns="http://www.w3.org/2000/svg">
  <!-- Zoo Worker 009: Emberwing Dragon (Deep Jade/Emerald Variant) -->
  <!-- Variant: Exceptional (Tiny, Darker, More Shaded, Structural Changes) -->
  <!-- Style: Clean, Concrete, Chibi-esque, Premium Vector -->

  <defs>
    <!-- Deep Body Gradient (Pitch Black Obsidian) -->
    <linearGradient id="bodyGrad_ex" x1="0%" y1="0%" x2="100%" y2="100%">
      <stop offset="0%" stop-color="#1C1C1C"/> <!-- Very Dark Gray Highlight -->
      <stop offset="40%" stop-color="#050505"/> <!-- Almost Black -->
      <stop offset="100%" stop-color="#000000"/> <!-- Pitch Black -->
    </linearGradient>

    <!-- Belly Gradient (Dark Polished Steel) -->
    <linearGradient id="bellyGrad_ex" x1="0%" y1="0%" x2="0%" y2="100%">
      <stop offset="0%" stop-color="#333333"/> <!-- Dark Steel -->
      <stop offset="100%" stop-color="#0A0A0A"/> <!-- Charcoal -->
    </linearGradient>

    <!-- Horn Gradient (Darker Wood/Bone) -->
    <linearGradient id="hornGrad_ex" x1="0%" y1="0%" x2="100%" y2="100%">
      <stop offset="0%" stop-color="#3E2723"/>
      <stop offset="100%" stop-color="#000000"/>
    </linearGradient>

    <!-- Molten Glass Gradient (Mystical Violet/Blue Fire) -->
    <radialGradient id="glassGrad_ex" cx="30%" cy="30%" r="70%">
      <stop offset="0%" stop-color="#E1BEE7"/> <!-- Hot Pink/White -->
      <stop offset="60%" stop-color="#7B1FA2"/> <!-- Purple -->
      <stop offset="100%" stop-color="#4A148C"/> <!-- Deep Purple -->
    </radialGradient>

    <!-- Eye Iris (Bright Glowing Gold) -->
    <radialGradient id="eyeIris_ex" cx="50%" cy="50%" r="50%">
      <stop offset="30%" stop-color="#FFEB3B"/> <!-- Bright Yellow -->
      <stop offset="100%" stop-color="#F57F17"/> <!-- Dark Gold -->
    </radialGradient>

    <!-- Intense Shading Gradients (High Gloss - Sharp Specular) -->
    <radialGradient id="highlightOverlay_ex" cx="30%" cy="30%" r="45%" fx="30%" fy="30%">
      <stop offset="0%" stop-color="#FFF" stop-opacity="0.9"/> <!-- Sharp Hotspot -->
      <stop offset="30%" stop-color="#FFF" stop-opacity="0.1"/> <!-- Rapid Falloff -->
      <stop offset="100%" stop-color="#FFF" stop-opacity="0"/>
    </radialGradient>

    <radialGradient id="shadowOverlay_ex" cx="80%" cy="80%" r="80%">
      <stop offset="20%" stop-color="#000" stop-opacity="0"/>
      <stop offset="100%" stop-color="#000" stop-opacity="0.95"/> <!-- Deepest Black Shadow -->
    </radialGradient>

    <!-- Scale Pattern (Subtle Texture) -->
    <pattern id="scalePattern_ex" x="0" y="0" width="16" height="16" patternUnits="userSpaceOnUse">
        <path d="M0,8 Q8,16 16,8" fill="none" stroke="#455A64" stroke-width="1.2" opacity="0.15"/>
        <path d="M8,0 Q16,8 24,0" fill="none" stroke="#455A64" stroke-width="1.2" opacity="0.15"/>
    </pattern>
  </defs>

  <!-- Background: Smaller floor shadow for smaller dragon -->
  <ellipse cx="256" cy="460" rx="100" ry="20" fill="#000" opacity="0.2">
      <animate attributeName="rx" values="100;90;100" dur="4s" repeatCount="indefinite"/>
  </ellipse>

  <!-- DRAGON GROUP (Scaled Down to 0.75 and lowered to sit on floor) -->
  <!-- RE-DOING GROUPING: Top level Translate to center, Scale for size, then Animation on Child -->
  <g transform="translate(256, 300) scale(0.75)">
    <g>
        <!-- Bobbing Animation -->
        <animateTransform attributeName="transform" type="translate"
            values="0, 0; 0, -15; 0, 0"
            dur="3s" repeatCount="indefinite" calcMode="easeInOut"/>

      <!-- Tail (Curly/Spiked - Structural Change) -->
      <path d="M-50,100 Q-90,120 -110,60 Q-130,-10 -60,-40" stroke="#000000" stroke-width="30" fill="none" stroke-linecap="round"/>
      <path d="M-50,100 Q-90,120 -110,60 Q-130,-10 -60,-40" stroke="#0A0A0A" stroke-width="20" fill="none" stroke-linecap="round"/>
      <!-- Tail Spikes -->
      <path d="M-110,60 L-130,50 M-90,100 L-110,100" stroke="#757575" stroke-width="6" stroke-linecap="round" fill="none"/>

      <!-- Wings (Dark Membrane) -->
      <g stroke="#111111" stroke-width="3" stroke-linejoin="round">
          <!-- Left Wing (Double Lobe) -->
          <g>
            <animateTransform attributeName="transform" type="rotate" values="20 0 0; -10 0 0; 20 0 0" dur="0.12s" repeatCount="indefinite"/>
            <path d="M-50,-10 Q-120,-90 -150,-40 Q-140,-10 -110,10 Q-130,50 -90,40 Z" fill="#1A1A1A"/>
            <path d="M-50,-10 Q-120,-90 -150,-40 Q-140,-10 -110,10 Q-130,50 -90,40 Z" fill="url(#shadowOverlay_ex)" opacity="0.4"/>
          </g>
          <!-- Right Wing (Double Lobe) -->
          <g>
             <animateTransform attributeName="transform" type="rotate" values="-20 0 0; 10 0 0; -20 0 0" dur="0.12s" repeatCount="indefinite"/>
             <path d="M50,-10 Q120,-90 150,-40 Q140,-10 110,10 Q130,50 90,40 Z" fill="#1A1A1A"/>
             <path d="M50,-10 Q120,-90 150,-40 Q140,-10 110,10 Q130,50 90,40 Z" fill="url(#shadowOverlay_ex)" opacity="0.4"/>
          </g>
      </g>

      <!-- Body / Belly (Rounder, stubbier) -->
      <g>
         <!-- Main Body Shape: Rounder -->
         <ellipse cx="0" cy="50" rx="70" ry="90" fill="url(#bodyGrad_ex)"/>
         <!-- Scales Overlay -->
         <ellipse cx="0" cy="50" rx="70" ry="90" fill="url(#scalePattern_ex)" opacity="0.6"/>
         <ellipse cx="0" cy="50" rx="70" ry="90" fill="url(#shadowOverlay_ex)"/>
         <ellipse cx="0" cy="50" rx="70" ry="90" fill="url(#highlightOverlay_ex)"/>

         <!-- Belly Scales -->
         <path d="M-40,60 Q0,150 40,60 Q40,0 -40,0 Z" fill="url(#bellyGrad_ex)"/>
         <!-- Belly Shadow -->
         <path d="M-40,60 Q0,150 40,60 Q40,0 -40,0 Z" fill="url(#shadowOverlay_ex)" opacity="0.3"/>
      </g>

      <!-- Feet (Redesigned - Small but Detailed) -->
      <g transform="translate(0, 130)">
          <!-- Left Leg -->
          <g transform="translate(-50, 0)">
              <!-- Thigh -->
              <ellipse cx="0" cy="-5" rx="30" ry="25" fill="url(#bodyGrad_ex)"/>
              <ellipse cx="0" cy="-5" rx="30" ry="25" fill="url(#scalePattern_ex)" opacity="0.4"/>
              <!-- Foot -->
              <path d="M-15,10 Q-5,20 15,10 L10,0 Q0,-5 -15,0 Z" fill="#0A0A0A"/>
              <!-- Claws -->
              <path d="M-15,10 L-20,18 L-10,14" fill="#757575"/>
              <path d="M-5,12 L-5,20 L5,14" fill="#757575"/>
              <path d="M10,10 L15,18 L5,14" fill="#757575"/>
          </g>
          <!-- Right Leg -->
          <g transform="translate(50, 0)">
              <!-- Thigh -->
              <ellipse cx="0" cy="-5" rx="30" ry="25" fill="url(#bodyGrad_ex)"/>
              <ellipse cx="0" cy="-5" rx="30" ry="25" fill="url(#scalePattern_ex)" opacity="0.4"/>
              <!-- Foot -->
              <path d="M15,10 Q5,20 -15,10 L-10,0 Q0,-5 15,0 Z" fill="#0A0A0A"/>
               <!-- Claws -->
              <path d="M15,10 L20,18 L10,14" fill="#757575"/>
              <path d="M5,12 L5,20 L-5,14" fill="#757575"/>
              <path d="M-10,10 L-15,18 L-5,14" fill="#757575"/>
          </g>
      </g>

      <!-- Small Arms/Claws holding the belly/chest area -->
      <g transform="translate(0, 10)">
         <!-- Left Arm -->
         <path d="M-60,40 Q-50,60 -20,50" stroke="#424242" stroke-width="12" stroke-linecap="round" fill="none"/>
         <g transform="translate(-20, 50)">
            <circle cx="0" cy="0" r="8" fill="#0A0A0A"/>
            <path d="M-5,0 L5,5 L5,-5 Z" fill="#757575"/>
         </g>
         <!-- Right Arm -->
         <path d="M60,40 Q50,60 20,50" stroke="#424242" stroke-width="12" stroke-linecap="round" fill="none"/>
         <g transform="translate(20, 50)">
             <circle cx="0" cy="0" r="8" fill="#0A0A0A"/>
             <path d="M5,0 L-5,5 L-5,-5 Z" fill="#757575"/>
         </g>
      </g>

      <!-- HEAD GROUP (Larger relative to body for 'Tiny' look) -->
      <g transform="translate(0, -60)">
          <!-- Head Base (Slightly flatter top) -->
          <rect x="-80" y="-70" width="160" height="110" rx="50" fill="url(#bodyGrad_ex)"/>
          <rect x="-80" y="-70" width="160" height="110" rx="50" fill="url(#shadowOverlay_ex)"/>

          <!-- Deep Brow Shadow -->
          <path d="M-80,-20 Q0,0 80,-20 V-70 H-80 Z" fill="#000" opacity="0.1"/>

          <rect x="-80" y="-70" width="160" height="110" rx="50" fill="url(#highlightOverlay_ex)"/>

          <!-- Snout (Darker) -->
          <ellipse cx="0" cy="15" rx="45" ry="30" fill="#0A0A0A" opacity="0.8"/>

          <!-- Nostrils (Breathing Fire) -->
          <circle cx="-20" cy="15" r="4" fill="#000" opacity="0.6"/>
          <circle cx="20" cy="15" r="4" fill="#000" opacity="0.6"/>

          <!-- Mystical Puff (Violet/Pink for distinction, Larger Quantity, Faster) -->
          <g>
             <!-- Center Massive Puff -->
             <circle cx="0" cy="30" r="5" fill="#E040FB" opacity="0">
                <animate attributeName="cy" values="30; -40" dur="1.2s" repeatCount="indefinite" begin="0.2s"/>
                <animate attributeName="r" values="5; 25" dur="1.2s" repeatCount="indefinite" begin="0.2s"/>
                <animate attributeName="opacity" values="0; 0.9; 0" dur="1.2s" keyTimes="0; 0.2; 1" repeatCount="indefinite" begin="0.2s"/>
             </circle>
             <!-- Left Puff Cluster -->
             <circle cx="-15" cy="25" r="4" fill="#AB47BC" opacity="0">
                <animate attributeName="cy" values="25; -20" dur="1.4s" repeatCount="indefinite" begin="0.4s"/>
                <animate attributeName="r" values="4; 15" dur="1.4s" repeatCount="indefinite" begin="0.4s"/>
                <animate attributeName="opacity" values="0; 0.8; 0" dur="1.4s" keyTimes="0; 0.2; 1" repeatCount="indefinite" begin="0.4s"/>
             </circle>
             <!-- Right Puff Cluster -->
             <circle cx="15" cy="25" r="4" fill="#AB47BC" opacity="0">
                <animate attributeName="cy" values="25; -20" dur="1.3s" repeatCount="indefinite" begin="0.5s"/>
                <animate attributeName="r" values="4; 15" dur="1.3s" repeatCount="indefinite" begin="0.5s"/>
                <animate attributeName="opacity" values="0; 0.8; 0" dur="1.3s" keyTimes="0; 0.2; 1" repeatCount="indefinite" begin="0.5s"/>
             </circle>
             <!-- Background Haze -->
             <circle cx="0" cy="15" r="10" fill="#7B1FA2" opacity="0">
                 <animate attributeName="r" values="10; 30" dur="2s" repeatCount="indefinite" begin="0s"/>
                 <animate attributeName="opacity" values="0; 0.3; 0" dur="2s" repeatCount="indefinite" begin="0s"/>
                 <animate attributeName="cy" values="15; -10" dur="2s" repeatCount="indefinite" begin="0s"/>
             </circle>
             <!-- Fast Sparks -->
             <circle cx="-10" cy="30" r="2" fill="#FFF" opacity="0">
                 <animate attributeName="cy" values="30; -30" dur="0.8s" repeatCount="indefinite" begin="0.6s"/>
                  <animate attributeName="opacity" values="0; 1; 0" dur="0.8s" repeatCount="indefinite" begin="0.6s"/>
             </circle>
             <circle cx="10" cy="30" r="2" fill="#FFF" opacity="0">
                 <animate attributeName="cy" values="30; -30" dur="0.9s" repeatCount="indefinite" begin="0.7s"/>
                  <animate attributeName="opacity" values="0; 1; 0" dur="0.9s" repeatCount="indefinite" begin="0.7s"/>
             </circle>
          </g>

          <!-- Horns (Spiral/Ram-like) -->
          <path d="M-40,-60 C-60,-90 -90,-60 -80,-30" stroke="url(#hornGrad_ex)" stroke-width="12" fill="none" stroke-linecap="round"/>
          <path d="M40,-60 C60,-90 90,-60 80,-30" stroke="url(#hornGrad_ex)" stroke-width="12" fill="none" stroke-linecap="round"/>

          <!-- EYES (Larger, more reflective) -->
          <g transform="translate(0, -20)">
              <!-- Left Eye -->
              <g transform="translate(-40, 0)">
                  <circle cx="0" cy="0" r="26" fill="#FFF"/> <!-- Bigger eye white -->
                  <g> <!-- Pupil Group -->
                      <animateTransform attributeName="transform" type="translate"
                          values="0 0; 6 4; -6 -2; 2 -6; 0 8; 0 0"
                          dur="3s" repeatCount="indefinite" calcMode="discrete" keyTimes="0; 0.1; 0.3; 0.5; 0.7; 1"/>
                      <circle cx="0" cy="0" r="14" fill="url(#eyeIris_ex)"/>
                      <circle cx="0" cy="0" r="6" fill="#000"/> <!-- Slit/Vertical Pupil -->
                      <rect x="-2" y="-10" width="4" height="20" rx="2" fill="#000"/> <!-- Cat Eye pupil -->
                      <circle cx="6" cy="-6" r="5" fill="#FFF" opacity="0.8"/>
                  </g>

                   <!-- Heavy Eyelid (Replaced with Opacity Blink) -->
                   <!-- Blink duration ~80ms -->
                   <animate attributeName="opacity" values="1; 1; 0; 0; 1; 1" keyTimes="0; 0.01; 0.012; 0.032; 0.035; 1" dur="4s" repeatCount="indefinite" begin="0.5s"/>
              </g>

              <!-- Right Eye -->
              <g transform="translate(40, 0)">
                  <circle cx="0" cy="0" r="26" fill="#FFF"/>
                  <g> <!-- Pupil Group -->
                      <animateTransform attributeName="transform" type="translate"
                          values="0 0; 6 4; -6 -2; 2 -6; 0 8; 0 0"
                          dur="3s" repeatCount="indefinite" calcMode="discrete" keyTimes="0; 0.1; 0.3; 0.5; 0.7; 1"/>
                      <circle cx="0" cy="0" r="14" fill="url(#eyeIris_ex)"/>
                      <circle cx="0" cy="0" r="6" fill="#000"/>
                      <rect x="-2" y="-10" width="4" height="20" rx="2" fill="#000"/>
                      <circle cx="6" cy="-6" r="5" fill="#FFF" opacity="0.8"/>
                  </g>

                   <!-- Heavy Eyelid (Replaced with Opacity Blink) -->
                   <!-- Blink duration ~80ms -->
                   <animate attributeName="opacity" values="1; 1; 0; 0; 1; 1" keyTimes="0; 0.01; 0.012; 0.032; 0.035; 1" dur="4s" repeatCount="indefinite" begin="0.5s"/>
              </g>
          </g>
      </g>

      <!-- HANDS & BLOWPIPE (Lowered) -->
      <g transform="translate(0, 70)">
          <!-- Arms -->
          <path d="M-50,0 Q-25,25 0,10" fill="none" stroke="#1B5E20" stroke-width="14" stroke-linecap="round"/>
          <path d="M50,0 Q25,25 0,10" fill="none" stroke="#1B5E20" stroke-width="14" stroke-linecap="round"/>

          <!-- Blowpipe (Shorter) -->
          <rect x="-5" y="-5" width="10" height="100" fill="#78909C" rx="2">
              <animateTransform attributeName="transform" type="rotate" values="-2 0 0; 2 0 0; -2 0 0" dur="1s" repeatCount="indefinite"/>
          </rect>

          <!-- Hands -->
          <circle cx="-10" cy="10" r="8" fill="#3E2723"/>
          <circle cx="10" cy="10" r="8" fill="#3E2723"/>

          <!-- MOLTEN GLASS BUBBLE (Violet Swirl) -->
          <g transform="translate(0, 100)">
              <animateTransform attributeName="transform" type="translate" values="0,100; 0,105; 0,100" dur="1s" repeatCount="indefinite"/>

              <circle cx="0" cy="0" r="25" fill="url(#glassGrad_ex)"/>

               <!-- Swirl effect inside glass -->
              <path d="M-10,0 Q0,10 10,0" stroke="#FFF" stroke-width="2" fill="none" opacity="0.5"/>

              <!-- Hot Glow Ring -->
              <circle cx="0" cy="0" r="25" fill="none" stroke="#E040FB" stroke-width="2" opacity="0.6">
                  <animate attributeName="r" values="25;30;25" dur="1s" repeatCount="indefinite"/>
                  <animate attributeName="opacity" values="0.6;0;0.6" dur="1s" repeatCount="indefinite"/>
              </circle>
          </g>
      </g>

    </g> <!-- End Inner Group -->
  </g> <!-- End Outer Scale/Translate Group -->
</svg>
