<svg xmlns="http://www.w3.org/2000/svg" viewBox="0 0 180 220" width="180" height="220">
  <defs>
    <linearGradient id="dWard0Weave" x1="0" y1="0" x2="0" y2="1">
      <stop offset="0%" stop-color="#6f7791"/>
      <stop offset="45%" stop-color="#474e66"/>
      <stop offset="100%" stop-color="#333949"/>
    </linearGradient>
    <linearGradient id="dWard0Deep" x1="0" y1="0" x2="0" y2="1">
      <stop offset="0%" stop-color="#474e66"/>
      <stop offset="100%" stop-color="#23283a"/>
    </linearGradient>
  </defs>

  <g id="shield_common">
    <circle cx="47" cy="119" r="16.5" fill="url(#dWard0Deep)" fill-opacity="0.35" stroke="url(#dWard0Weave)" stroke-width="3.4"/>
    <circle cx="47" cy="119" r="16.5" fill="none" stroke="#23283a" stroke-width="0.8"/>
    <path d="M47 119 L63.5 119.0 M47 119 L58.7 130.7 M47 119 L47.0 135.5 M47 119 L35.3 130.7 M47 119 L30.5 119.0 M47 119 L35.3 107.3 M47 119 L47.0 102.5 M47 119 L58.7 107.3" stroke="#8d96ad" stroke-width="0.5" opacity="0.85"/>
    <path d="M56.5 122.9 L50.9 128.4 L43.1 128.5 L37.6 122.9 L37.5 115.1 L43.1 109.6 L50.9 109.5 L56.4 115.1 Z" fill="none" stroke="#8d96ad" stroke-width="0.5" opacity="0.8"/>
    <path d="M52.0 119.0 L50.5 122.5 L47.0 124.0 L43.5 122.5 L42.0 119.0 L43.5 115.5 L47.0 114.0 L50.5 115.5 Z" fill="none" stroke="#8d96ad" stroke-width="0.5" opacity="0.75"/>
    <circle cx="47" cy="119" r="1.6" fill="#9E9E9E" opacity="0.95"/>
    <path d="M40 101.0 Q47 97.5 54 101.0" stroke="#8d96ad" stroke-width="1" fill="none"/>
    <g><animateTransform attributeName="transform" type="rotate" values="-3 38 132.0;3 38 132.0;-3 38 132.0" dur="4.2s" repeatCount="indefinite"/><path d="M38 132.0 L38 138.0" stroke="#8d96ad" stroke-width="0.7"/><path d="M38 138.0 Q35.6 141.5 38 146.0 Q40.4 141.5 38 138.0 Z" fill="#9E9E9E" opacity="0.9"/><path d="M38 139.5 L38 144.5" stroke="#23283a" stroke-width="0.4" opacity="0.8"/></g>
    <g><animateTransform attributeName="transform" type="rotate" values="-3 47 134.5;3 47 134.5;-3 47 134.5" dur="5s" repeatCount="indefinite"/><path d="M47 134.5 L47 142.5" stroke="#8d96ad" stroke-width="0.7"/><path d="M47 142.5 Q44.6 146.0 47 150.5 Q49.4 146.0 47 142.5 Z" fill="#cfcfcf" opacity="0.9"/><path d="M47 144.0 L47 149.0" stroke="#23283a" stroke-width="0.4" opacity="0.8"/></g>
    <g><animateTransform attributeName="transform" type="rotate" values="-3 56 132.0;3 56 132.0;-3 56 132.0" dur="4.6s" repeatCount="indefinite"/><path d="M56 132.0 L56 138.0" stroke="#8d96ad" stroke-width="0.7"/><path d="M56 138.0 Q53.6 141.5 56 146.0 Q58.4 141.5 56 138.0 Z" fill="#9E9E9E" opacity="0.9"/><path d="M56 139.5 L56 144.5" stroke="#23283a" stroke-width="0.4" opacity="0.8"/></g>
    <circle cx="38" cy="133.0" r="0.8" fill="#8d96ad"/>
    <circle cx="47" cy="135.5" r="0.8" fill="#8d96ad"/>
    <circle cx="56" cy="133.0" r="0.8" fill="#8d96ad"/>
    <path d="M43 122 Q40 127 37 128" stroke="#8d96ad" stroke-width="0.5" fill="none" opacity="0.75"/>
  </g>

</svg>
