<svg xmlns="http://www.w3.org/2000/svg" viewBox="0 0 180 220" width="180" height="220">

  <defs>
    <linearGradient id="coatGrad" x1="0" y1="0" x2="0" y2="1">
      <stop offset="0%" stop-color="#f0f3f8"/>
      <stop offset="100%" stop-color="#d8dde6"/>
    </linearGradient>
    <linearGradient id="innerGrad" x1="0" y1="0" x2="0" y2="1">
      <stop offset="0%" stop-color="#4a5872"/>
      <stop offset="100%" stop-color="#2a364b"/>
    </linearGradient>
    <linearGradient id="pantsGrad" x1="0" y1="0" x2="0" y2="1">
      <stop offset="0%" stop-color="#2a3951"/>
      <stop offset="100%" stop-color="#172334"/>
    </linearGradient>
    <linearGradient id="skinGrad" x1="0" y1="0" x2="1" y2="1">
      <stop offset="0%" stop-color="#f4d7c0"/>
      <stop offset="100%" stop-color="#ddb193"/>
    </linearGradient>
    <linearGradient id="hairGrad" x1="0" y1="0" x2="0" y2="1">
      <stop offset="0%" stop-color="#5c544f"/>
      <stop offset="100%" stop-color="#35302d"/>
    </linearGradient>
    <radialGradient id="shadowGrad" cx="0.5" cy="0.5" r="0.5">
      <stop offset="0%" stop-color="#000" stop-opacity="0.32"/>
      <stop offset="100%" stop-color="#000" stop-opacity="0"/>
    </radialGradient>
  </defs>

  <ellipse cx="90" cy="206" rx="40" ry="7" fill="url(#shadowGrad)"/>

  <g id="hero_body">
    <animateTransform attributeName="transform" type="translate" values="0 0;0 -0.8;0 0" dur="4.5s" repeatCount="indefinite"/>

    <path d="M73 166 Q71 186 74 201 L84.5 201 Q85.5 179 82.5 166 Z" fill="url(#pantsGrad)"/>
    <path d="M98 166 Q96 179 97 201 L107.5 201 Q110.5 184 107.2 166 Z" fill="url(#pantsGrad)"/>
    <path d="M73 193 L85.5 193 L87 201 L71.5 201 Z" fill="#404b5c"/>
    <path d="M96 193 L108.5 193 L110 201 L94.5 201 Z" fill="#404b5c"/>

    <circle cx="69.5" cy="88" r="7" fill="#d8dee8"/>
    <circle cx="110.5" cy="88" r="7" fill="#d8dee8"/>
    <path d="M71 72 Q61 86 63 103 L68 166 L112 166 L117 103 Q119 86 109 72 Z" fill="url(#coatGrad)" stroke="#b6bdc9" stroke-width="0.9"/>
    <path d="M79 78 L102 78 L104 152 L77 152 Z" fill="url(#innerGrad)"/>
    <path d="M80 79 L85.8 92 M100 79 L94.2 92" stroke="#d7deea" stroke-width="1.1"/>
    <path d="M90 79 L90 153" stroke="#1e2e45" stroke-width="1"/>
    <path d="M76 160 L105 160 Q103 166 101 170 L80 170 Q77 166 76 160 Z" fill="#586070"/>
    <rect x="88.5" y="160.4" width="3" height="7" rx="0.8" fill="#95a8bf"/>

    <path d="M63 92 Q57 102 58 116 L59 145 Q59 151 63 151 Q67 151 68 145 L69 116 Q69 103 72 93 Z" fill="url(#coatGrad)" stroke="#b6bdc9" stroke-width="0.8"/>
    <path d="M117 92 Q123 102 122 116 L121 145 Q121 151 117 151 Q113 151 112 145 L111 116 Q111 103 108 93 Z" fill="url(#coatGrad)" stroke="#b6bdc9" stroke-width="0.8"/>
    <ellipse cx="60.5" cy="149" rx="3.5" ry="3.9" fill="url(#skinGrad)"/>
    <ellipse cx="119.5" cy="149" rx="3.5" ry="3.9" fill="url(#skinGrad)"/>

    <rect x="85.2" y="63.5" width="9.6" height="10" rx="3.8" fill="url(#skinGrad)"/>
    <ellipse cx="90" cy="49" rx="13.2" ry="15.2" fill="url(#skinGrad)"/>
    <path d="M77.2 45 Q82 34 90 33 Q99 34 102.8 45 L101.5 47.8 Q90 44 78.5 47.8 Z" fill="url(#hairGrad)"/>

    <rect x="80.8" y="45.8" width="8" height="5.8" rx="1.4" fill="none" stroke="#cfeeff" stroke-width="0.9"/>
    <rect x="91.2" y="45.8" width="8" height="5.8" rx="1.4" fill="none" stroke="#cfeeff" stroke-width="0.9"/>
    <path d="M88.8 48.7 L91.2 48.7" stroke="#cfeeff" stroke-width="0.85"/>
    <path d="M80.8 48.7 L79.3 48.1 M99.2 48.7 L100.7 48.1" stroke="#cfeeff" stroke-width="0.7" opacity="0.75"/>

    <g id="eyes">
      <animateTransform attributeName="transform" type="translate"
        values="0 0; -0.5 0.1; 0.8 -0.2; 0 0; 0.3 0.1; 0 0"
        keyTimes="0;0.13;0.24;0.57;0.75;1" dur="4.1s" repeatCount="indefinite"/>
      <ellipse cx="85.1" cy="49.1" rx="1.8" ry="1.5" fill="#f4fbff">
        <animate attributeName="ry" values="1.5;1.5;0.2;1.5;1.5;0.2;1.5" keyTimes="0;0.2;0.22;0.24;0.68;0.70;1" dur="5.1s" repeatCount="indefinite"/>
      </ellipse>
      <ellipse cx="94.9" cy="49.1" rx="1.8" ry="1.5" fill="#f4fbff">
        <animate attributeName="ry" values="1.5;1.5;0.2;1.5;1.5;0.2;1.5" keyTimes="0;0.2;0.22;0.24;0.68;0.70;1" dur="5.1s" repeatCount="indefinite"/>
      </ellipse>
      <circle cx="85.1" cy="49.1" r="0.65" fill="#25313f"/>
      <circle cx="94.9" cy="49.1" r="0.65" fill="#25313f"/>
    </g>

    <path d="M88.7 52.8 L89.4 56.8 L90.6 56.8 L91.3 52.8" fill="#b68770"/>
    <path d="M86.1 59.2 Q90 60.6 93.9 59.2" stroke="#745345" stroke-width="0.9" fill="none" stroke-linecap="round"/>
  </g>

</svg>
