<svg xmlns="http://www.w3.org/2000/svg" viewBox="0 0 180 220" width="180" height="220">

  <g id="helmet_epic">
    <path d="M66 44 Q90 35 114 44 L110 51 Q90 49 70 51 Z" fill="#223857" stroke="#122038" stroke-width="1"/>
    <path d="M78 42 L102 42 L102 48 L78 48 Z" fill="#324c72" stroke="#1b304d" stroke-width="0.8"/>
    <circle cx="84.8" cy="47.2" r="1.8" fill="#d6e9ff"/>
    <circle cx="95.2" cy="47.2" r="1.8" fill="#d6e9ff"/>
    <circle cx="84.8" cy="47.2" r="0.7" fill="#26303e"/>
    <circle cx="95.2" cy="47.2" r="0.7" fill="#26303e"/>
    <path d="M87.3 47.2 L92.7 47.2" stroke="#adc5eb" stroke-width="0.8"/>
    <path d="M82 37 Q88 30 94 37 Q88.5 38.5 82 37 Z" fill="none" stroke="#9C27B0" stroke-width="1" opacity="0.8"/>
    <path d="M74 43 Q90 34 106 43" stroke="#9C27B0" stroke-width="1" fill="none" opacity="0.9"/>
    <path d="M90 37 L91.2 40 L94.2 40.2 L92 42.2 L92.6 45 L90 43.6 L87.4 45 L88 42.2 L85.8 40.2 L88.8 40 Z" fill="#9C27B0" opacity="0.95"/>
    
    
  </g>

</svg>
