<svg xmlns="http://www.w3.org/2000/svg" viewBox="0 0 180 220" width="180" height="220">
  <defs>
    <linearGradient id="dMoon2Weave" x1="0" y1="0" x2="0" y2="1">
      <stop offset="0%" stop-color="#84a0d8"/>
      <stop offset="45%" stop-color="#3c4f7d"/>
      <stop offset="100%" stop-color="#2a385c"/>
    </linearGradient>
    <linearGradient id="dMoon2Deep" x1="0" y1="0" x2="0" y2="1">
      <stop offset="0%" stop-color="#3c4f7d"/>
      <stop offset="100%" stop-color="#1c2742"/>
    </linearGradient>
  </defs>

  <g id="amulet_rare">
    <path d="M83 88.5 Q90 85 97 88.5" stroke="#aac6f2" stroke-width="1" fill="none" opacity="0.95"/>
    <path d="M86.8 96.8 L90 94.2 L93.2 96.8 L93.2 105 L90 108.4 L86.8 105 Z"
          fill="url(#dMoon2Weave)" stroke="#1c2742" stroke-width="0.95"/>
    <path d="M88 98 L90 96.4 L92 98 L92 104.4 L90 106.5 L88 104.4 Z" fill="#2196F3" opacity="0.9"/>
    <path d="M88.8 98.6 L90 97.6 L90 100 Z" fill="#ffffff" opacity="0.7"/>
    <path d="M90 92.8 L90 90.4" stroke="#aac6f2" stroke-width="0.8"/>
    <path d="M85.2 95.4 L90 92.6 L94.8 95.4" stroke="#aac6f2" stroke-width="0.8" fill="none" opacity="0.9"/><circle cx="90" cy="101.5" r="8.8" fill="none" stroke="#2196F3" stroke-width="0.6" opacity="0.5"><animateTransform attributeName="transform" type="rotate" values="0 90 101.5;360 90 101.5" dur="10s" repeatCount="indefinite"/></circle><path d="M96.2 93.8 L96.592 94.808 L97.60000000000001 95.2 L96.592 95.592 L96.2 96.60000000000001 L95.808 95.592 L94.8 95.2 L95.808 94.808 Z" fill="#90caf9" opacity="0.85"/>
  </g>

</svg>
