<svg xmlns="http://www.w3.org/2000/svg" viewBox="0 0 180 220" width="180" height="220">

  <g id="helmet_legendary">
    <path d="M58 44 Q90 34 122 44 L118 53 Q90 50 62 53 Z" fill="#17253a" stroke="#0e1624" stroke-width="1.2"/>
    <path d="M72 34 Q90 23 108 34 L108 45 L72 45 Z" fill="#2c3f5f" stroke="#152438" stroke-width="1"/>
    <rect x="75" y="44.4" width="30" height="7.4" rx="3.4" fill="#101826" stroke="#273854" stroke-width="0.9"/>
    <circle cx="84.5" cy="48" r="2" fill="#d7e3f5"/>
    <circle cx="95.5" cy="48" r="2" fill="#d7e3f5"/>
    <circle cx="84.5" cy="48" r="0.8" fill="#2a364a"/>
    <circle cx="95.5" cy="48" r="0.8" fill="#2a364a"/>
    <path d="M87.2 48 L92.8 48" stroke="#9cb6d9" stroke-width="0.8"/>
    <path d="M58 45 Q90 38 122 45" stroke="#FF9800" stroke-width="1.2" fill="none" opacity="0.9"/><rect x="77" y="34" width="26" height="2.8" rx="1.3" fill="#FF9800" opacity="0.75"/>
    <path d="M104 30 Q113 22 119 31 Q113 35 106 40 Z" fill="#3f2e44" stroke="#FF9800" stroke-width="0.8"/><path d="M108 33 Q112 30 115 34" stroke="#FF9800" stroke-width="0.8" fill="none" opacity="0.8"/>
    <circle cx="90" cy="36.4" r="2.1" fill="#101521" stroke="#FF9800" stroke-width="0.8"/><circle cx="89.2" cy="36.1" r="0.35" fill="#dbe7ff"/><circle cx="90.8" cy="36.1" r="0.35" fill="#dbe7ff"/><path d="M89.2 37.5 L90.8 37.5" stroke="#dbe7ff" stroke-width="0.45"/>
    <path d="M72 28 L79 24 L86 28 L93 24 L100 28 L107 24 L114 28 L114 33 L72 33 Z" fill="#24364f" stroke="#FF9800" stroke-width="0.95"/><circle cx="93" cy="28.4" r="1.6" fill="#FF9800" opacity="0.95"/>
    
  </g>

</svg>
