<svg xmlns="http://www.w3.org/2000/svg" viewBox="0 0 180 220" width="180" height="220">

  <g id="weapon_epic" transform="rotate(-24 121 131)">
    <rect x="115.2" y="126" width="10.2" height="36" rx="3" fill="#21354f" stroke="#111c2d" stroke-width="1"/>
    <rect x="116.8" y="134" width="7" height="2.4" rx="1" fill="#9C27B0" opacity="0.92"/>
    <rect x="116.8" y="145" width="7" height="2.4" rx="1" fill="#9C27B0" opacity="0.75"/>
    <rect x="118.8" y="160" width="3.2" height="4.8" rx="1.4" fill="#2e4767"/>
    <path d="M114.8 126 L125.6 126 L127 122 L113.6 122 Z" fill="#425f87" stroke="#1d304c" stroke-width="1"/>
    <path d="M124 102 Q141 92 152 106 Q138 111 126 124 Z" fill="#d9e9ff" stroke="#3f5d83" stroke-width="1"/>
    <path d="M126.3 103.5 L129.6 108.8 L126.3 114.2 L123 108.8 Z" fill="#ffffff" opacity="0.92"/>
    <path d="M126 103.5 Q139 96 146 108" stroke="#9C27B0" stroke-width="0.9" fill="none" opacity="0.82"/><path d="M127 111.5 Q139 106 147 99" stroke="#9C27B0" stroke-width="0.82" fill="none" opacity="0.75"/><circle cx="142" cy="102.5" r="1.5" fill="#9C27B0" opacity="0.95"/><path d="M124 124 L128 120 L131 126 L127 130 Z" fill="#2c4564" stroke="#9C27B0" stroke-width="0.84"/>
  </g>

</svg>
