<svg xmlns="http://www.w3.org/2000/svg" viewBox="0 0 180 220" width="180" height="220">
  <defs>
    <radialGradient id="sFxCel" cx="0.5" cy="0.5" r="0.5">
      <stop offset="0%" stop-color="#00E5FF" stop-opacity="0.38"/>
      <stop offset="55%" stop-color="#00E5FF" stop-opacity="0.13"/>
      <stop offset="100%" stop-color="#00E5FF" stop-opacity="0.0"/>
    </radialGradient>
  </defs>

  <g id="fx_celestial">
    <rect x="56" y="0" width="68" height="220" fill="#00E5FF" opacity="0.05"/>
    <ellipse cx="90" cy="116" rx="60" ry="92" fill="url(#sFxCel)"/>
    <ellipse cx="90" cy="203" rx="48" ry="9" fill="#00E5FF" opacity="0.28">
      <animate attributeName="opacity" values="0.28;0.5;0.28" dur="3.8s" repeatCount="indefinite"/>
    </ellipse>
    <ellipse cx="90" cy="120" rx="50" ry="76" fill="none" stroke="#00E5FF" stroke-width="0.85" opacity="0.38">
      <animate attributeName="opacity" values="0.38;0.65;0.38" dur="4.6s" repeatCount="indefinite"/>
    </ellipse>
    <path d="M50 58 L64 40" stroke="#b2f4ff" stroke-width="0.45" opacity="0.5"/><path d="M64 40 L82 32" stroke="#b2f4ff" stroke-width="0.45" opacity="0.5"/><path d="M82 32 L102 33" stroke="#b2f4ff" stroke-width="0.45" opacity="0.5"/><path d="M102 33 L119 43" stroke="#b2f4ff" stroke-width="0.45" opacity="0.5"/><path d="M119 43 L130 60" stroke="#b2f4ff" stroke-width="0.45" opacity="0.5"/><circle cx="50" cy="58" r="0.85" fill="#b2f4ff" opacity="0.85"><animate attributeName="opacity" values="0.85;0.3;0.85" dur="2.2s" repeatCount="indefinite"/></circle><circle cx="64" cy="40" r="0.85" fill="#b2f4ff" opacity="0.7"/><circle cx="82" cy="32" r="0.85" fill="#b2f4ff" opacity="0.85"><animate attributeName="opacity" values="0.85;0.3;0.85" dur="3.0s" repeatCount="indefinite"/></circle><circle cx="102" cy="33" r="0.85" fill="#b2f4ff" opacity="0.7"/><circle cx="119" cy="43" r="0.85" fill="#b2f4ff" opacity="0.85"><animate attributeName="opacity" values="0.85;0.3;0.85" dur="3.8000000000000003s" repeatCount="indefinite"/></circle><circle cx="130" cy="60" r="0.85" fill="#b2f4ff" opacity="0.7"/>
    <path d="M48 148 L58 168" stroke="#b2f4ff" stroke-width="0.45" opacity="0.5"/><path d="M58 168 L74 182" stroke="#b2f4ff" stroke-width="0.45" opacity="0.5"/><circle cx="48" cy="148" r="0.7" fill="#b2f4ff" opacity="0.85"><animate attributeName="opacity" values="0.85;0.3;0.85" dur="2.2s" repeatCount="indefinite"/></circle><circle cx="58" cy="168" r="0.7" fill="#b2f4ff" opacity="0.7"/><circle cx="74" cy="182" r="0.7" fill="#b2f4ff" opacity="0.85"><animate attributeName="opacity" values="0.85;0.3;0.85" dur="3.0s" repeatCount="indefinite"/></circle>
    <path d="M132 148 L122 168" stroke="#b2f4ff" stroke-width="0.45" opacity="0.5"/><path d="M122 168 L106 182" stroke="#b2f4ff" stroke-width="0.45" opacity="0.5"/><circle cx="132" cy="148" r="0.7" fill="#b2f4ff" opacity="0.85"><animate attributeName="opacity" values="0.85;0.3;0.85" dur="2.2s" repeatCount="indefinite"/></circle><circle cx="122" cy="168" r="0.7" fill="#b2f4ff" opacity="0.7"/><circle cx="106" cy="182" r="0.7" fill="#b2f4ff" opacity="0.85"><animate attributeName="opacity" values="0.85;0.3;0.85" dur="3.0s" repeatCount="indefinite"/></circle>
    <g><animateTransform attributeName="transform" type="rotate" values="0 90 118;360 90 118" dur="13s" repeatCount="indefinite"/><circle cx="144" cy="118" r="1.25" fill="#b2f4ff" opacity="0.9"/><circle cx="144" cy="118" r="2.625" fill="#b2f4ff" opacity="0.25"/></g>
    <circle cx="66" cy="152" r="0.75" fill="#b2f4ff" opacity="0.75"><animateTransform attributeName="transform" type="translate" values="0 0;0 -26" dur="4.8s" begin="0s" repeatCount="indefinite"/><animate attributeName="opacity" values="0.75;0.9;0" dur="4.8s" begin="0s" repeatCount="indefinite"/></circle>
    <circle cx="114" cy="158" r="0.75" fill="#b2f4ff" opacity="0.75"><animateTransform attributeName="transform" type="translate" values="0 0;0 -24" dur="5.4s" begin="2.1s" repeatCount="indefinite"/><animate attributeName="opacity" values="0.75;0.9;0" dur="5.4s" begin="2.1s" repeatCount="indefinite"/></circle>
  </g>

</svg>
