<?xml version="1.0" encoding="UTF-8"?>
<svg xmlns="http://www.w3.org/2000/svg" viewBox="0 0 180 220" width="180" height="220">
  <defs>
    <linearGradient id="r_boot_shell" x1="0" y1="0" x2="0" y2="1">
      <stop offset="0%" stop-color="#3c5265"/>
      <stop offset="100%" stop-color="#1b2a36"/>
    </linearGradient>
    <linearGradient id="r_boot_highlight" x1="0" y1="0" x2="1" y2="1">
      <stop offset="0%" stop-color="#9eb6c9" stop-opacity="0.72"/>
      <stop offset="100%" stop-color="#9eb6c9" stop-opacity="0"/>
    </linearGradient>
    <linearGradient id="r_boot_sole" x1="0" y1="0" x2="0" y2="1">
      <stop offset="0%" stop-color="#9fb3c2"/>
      <stop offset="100%" stop-color="#5f7483"/>
    </linearGradient>
    <linearGradient id="r_toe_cap" x1="0" y1="0" x2="0" y2="1">
      <stop offset="0%" stop-color="#40698a"/>
      <stop offset="100%" stop-color="#254961"/>
    </linearGradient>
  </defs>

  <!-- Rare: fitted template + blue laces + modest technical insignia -->
  <g id="boots_rare">
    <!-- Left -->
    <path d="M59 193 L82 193 L80 209 L58 209 Z" fill="url(#r_boot_shell)" stroke="#0f171d" stroke-width="0.9"/>
    <path d="M60 194 L75 194 L74 206 L60 206 Z" fill="url(#r_boot_highlight)" opacity="0.47"/>
    <path d="M58.8 202.3 L80.8 202.3" stroke="#1a2731" stroke-width="0.7" opacity="0.65"/>
    <path d="M60.2 194.0 L81.7 194.0" stroke="#6f8292" stroke-width="0.55" opacity="0.62"/>
    <rect x="60.0" y="205.0" width="18.8" height="2.3" rx="0.8" fill="url(#r_toe_cap)" opacity="0.94"/>
    <path d="M58 207 L80 207 L79 210 L57 210 Z" fill="url(#r_boot_sole)"/>
    <path d="M58 208.6 L79.2 208.6" stroke="#b4c1ca" stroke-width="0.5" opacity="0.55"/>
    <path d="M62.0 196.8 L76.7 196.8 M61.8 199.4 L76.5 199.4 M61.6 202.0 L76.3 202.0" stroke="#2196f3" stroke-width="0.95" stroke-linecap="round"/>
    <circle cx="62.0" cy="196.8" r="0.7" fill="#9bd4ff"/>
    <circle cx="76.8" cy="196.8" r="0.7" fill="#9bd4ff"/>
    <path d="M75.2 199.8 L77.0 201.0 L75.2 202.2 L73.4 201.0 Z" fill="#64b5f6" opacity="0.9"/>
    <path d="M61.5 204.7 L77.8 204.7" stroke="#4aa8f5" stroke-width="0.55" stroke-dasharray="1.2 1.2" opacity="0.75"/>

    <!-- Right -->
    <path d="M88 193 L112 193 L114 209 L88 209 Z" fill="url(#r_boot_shell)" stroke="#0f171d" stroke-width="0.9"/>
    <path d="M89.0 194 L104.5 194 L105.2 206 L89.0 206 Z" fill="url(#r_boot_highlight)" opacity="0.44"/>
    <path d="M89.0 202.3 L113.2 202.3" stroke="#1a2731" stroke-width="0.7" opacity="0.65"/>
    <path d="M89.2 194.0 L112.1 194.0" stroke="#6f8292" stroke-width="0.55" opacity="0.62"/>
    <rect x="89.0" y="205.0" width="22.0" height="2.3" rx="0.8" fill="url(#r_toe_cap)" opacity="0.94"/>
    <path d="M88 207 L114 207 L114 210 L88 210 Z" fill="url(#r_boot_sole)"/>
    <path d="M88.2 208.6 L113.8 208.6" stroke="#b4c1ca" stroke-width="0.5" opacity="0.55"/>
    <path d="M92.2 196.8 L108.8 196.8 M92.0 199.4 L108.6 199.4 M91.8 202.0 L108.4 202.0" stroke="#2196f3" stroke-width="0.95" stroke-linecap="round"/>
    <circle cx="92.2" cy="196.8" r="0.7" fill="#9bd4ff"/>
    <circle cx="108.8" cy="196.8" r="0.7" fill="#9bd4ff"/>
    <path d="M94.8 199.8 L96.6 201.0 L94.8 202.2 L93.0 201.0 Z" fill="#64b5f6" opacity="0.9"/>
    <path d="M92.2 204.7 L110.4 204.7" stroke="#4aa8f5" stroke-width="0.55" stroke-dasharray="1.2 1.2" opacity="0.75"/>
  </g>
</svg>
