<?xml version="1.0" encoding="UTF-8"?>
<svg xmlns="http://www.w3.org/2000/svg" viewBox="0 0 180 220" width="180" height="220">
  <defs>
    <linearGradient id="u_boot_shell" x1="0" y1="0" x2="0" y2="1">
      <stop offset="0%" stop-color="#415666"/>
      <stop offset="100%" stop-color="#1f2d37"/>
    </linearGradient>
    <linearGradient id="u_boot_highlight" x1="0" y1="0" x2="1" y2="1">
      <stop offset="0%" stop-color="#9ab0bf" stop-opacity="0.72"/>
      <stop offset="100%" stop-color="#9ab0bf" stop-opacity="0"/>
    </linearGradient>
    <linearGradient id="u_boot_sole" x1="0" y1="0" x2="0" y2="1">
      <stop offset="0%" stop-color="#9cadb8"/>
      <stop offset="100%" stop-color="#5d6d77"/>
    </linearGradient>
    <linearGradient id="u_toe_cap" x1="0" y1="0" x2="0" y2="1">
      <stop offset="0%" stop-color="#517264"/>
      <stop offset="100%" stop-color="#2f4b40"/>
    </linearGradient>
  </defs>

  <!-- Uncommon: same fitted shape + green laces and small sporty accents -->
  <g id="boots_uncommon">
    <!-- Left -->
    <path d="M59 193 L82 193 L80 209 L58 209 Z" fill="url(#u_boot_shell)" stroke="#0f171d" stroke-width="0.9"/>
    <path d="M60 194 L75 194 L74 206 L60 206 Z" fill="url(#u_boot_highlight)" opacity="0.46"/>
    <path d="M58.8 202.3 L80.8 202.3" stroke="#1a2731" stroke-width="0.7" opacity="0.65"/>
    <path d="M60.2 194.0 L81.7 194.0" stroke="#6f8292" stroke-width="0.55" opacity="0.62"/>
    <rect x="60.0" y="205.0" width="18.8" height="2.3" rx="0.8" fill="url(#u_toe_cap)" opacity="0.92"/>
    <path d="M58 207 L80 207 L79 210 L57 210 Z" fill="url(#u_boot_sole)"/>
    <path d="M58 208.6 L79.2 208.6" stroke="#b4c1ca" stroke-width="0.5" opacity="0.55"/>
    <path d="M62.0 196.8 L76.7 196.8 M61.8 199.4 L76.5 199.4 M61.6 202.0 L76.3 202.0" stroke="#4caf50" stroke-width="0.9" stroke-linecap="round"/>
    <circle cx="62.0" cy="196.8" r="0.65" fill="#95f0a4"/>
    <circle cx="76.8" cy="196.8" r="0.65" fill="#95f0a4"/>
    <rect x="57.5" y="192.0" width="2.0" height="2.6" rx="0.6" fill="#6ed37a"/>

    <!-- Right -->
    <path d="M88 193 L112 193 L114 209 L88 209 Z" fill="url(#u_boot_shell)" stroke="#0f171d" stroke-width="0.9"/>
    <path d="M89.0 194 L104.5 194 L105.2 206 L89.0 206 Z" fill="url(#u_boot_highlight)" opacity="0.43"/>
    <path d="M89.0 202.3 L113.2 202.3" stroke="#1a2731" stroke-width="0.7" opacity="0.65"/>
    <path d="M89.2 194.0 L112.1 194.0" stroke="#6f8292" stroke-width="0.55" opacity="0.62"/>
    <rect x="89.0" y="205.0" width="22.0" height="2.3" rx="0.8" fill="url(#u_toe_cap)" opacity="0.92"/>
    <path d="M88 207 L114 207 L114 210 L88 210 Z" fill="url(#u_boot_sole)"/>
    <path d="M88.2 208.6 L113.8 208.6" stroke="#b4c1ca" stroke-width="0.5" opacity="0.55"/>
    <path d="M92.2 196.8 L108.8 196.8 M92.0 199.4 L108.6 199.4 M91.8 202.0 L108.4 202.0" stroke="#4caf50" stroke-width="0.9" stroke-linecap="round"/>
    <circle cx="92.2" cy="196.8" r="0.65" fill="#95f0a4"/>
    <circle cx="108.8" cy="196.8" r="0.65" fill="#95f0a4"/>
    <rect x="112.0" y="192.0" width="2.0" height="2.6" rx="0.6" fill="#6ed37a"/>
  </g>
</svg>
