<?xml version="1.0" encoding="UTF-8"?>
<svg xmlns="http://www.w3.org/2000/svg" viewBox="0 0 180 220" width="180" height="220">
  <defs>
    <linearGradient id="c_boot_shell" x1="0" y1="0" x2="0" y2="1">
      <stop offset="0%" stop-color="#4f6276"/>
      <stop offset="100%" stop-color="#1e2c3b"/>
    </linearGradient>
    <linearGradient id="c_boot_highlight" x1="0" y1="0" x2="1" y2="1">
      <stop offset="0%" stop-color="#c7deed" stop-opacity="0.78"/>
      <stop offset="100%" stop-color="#c7deed" stop-opacity="0"/>
    </linearGradient>
    <linearGradient id="c_boot_sole" x1="0" y1="0" x2="0" y2="1">
      <stop offset="0%" stop-color="#b9cfdd"/>
      <stop offset="100%" stop-color="#738b9c"/>
    </linearGradient>
    <linearGradient id="c_toe_cap" x1="0" y1="0" x2="0" y2="1">
      <stop offset="0%" stop-color="#18bcd2"/>
      <stop offset="100%" stop-color="#0a7a8b"/>
    </linearGradient>
    <radialGradient id="c_glow" cx="50%" cy="50%" r="50%">
      <stop offset="0%" stop-color="#bff8ff" stop-opacity="0.9"/>
      <stop offset="100%" stop-color="#00e5ff" stop-opacity="0"/>
    </radialGradient>
    <filter id="c_soft_glow" x="-50%" y="-50%" width="200%" height="200%">
      <feGaussianBlur stdDeviation="0.85"/>
    </filter>
  </defs>

  <!-- Celestial: fitted template + cyan laces + restrained cosmic accents -->
  <g id="boots_celestial">
    <!-- Left -->
    <path d="M59 193 L82 193 L80 209 L58 209 Z" fill="url(#c_boot_shell)" stroke="#0f171d" stroke-width="0.9"/>
    <path d="M60 194 L75 194 L74 206 L60 206 Z" fill="url(#c_boot_highlight)" opacity="0.5"/>
    <path d="M58.8 202.3 L80.8 202.3" stroke="#1a2731" stroke-width="0.7" opacity="0.65"/>
    <path d="M60.2 194.0 L81.7 194.0" stroke="#7f96a8" stroke-width="0.55" opacity="0.68"/>
    <rect x="60.0" y="205.0" width="18.8" height="2.3" rx="0.8" fill="url(#c_toe_cap)" opacity="0.97"/>
    <path d="M58 207 L80 207 L79 210 L57 210 Z" fill="url(#c_boot_sole)"/>
    <path d="M58 208.6 L79.2 208.6" stroke="#d0dbe2" stroke-width="0.5" opacity="0.62"/>
    <path d="M62.0 196.8 L76.7 196.8 M61.8 199.4 L76.5 199.4 M61.6 202.0 L76.3 202.0" stroke="#00e5ff" stroke-width="1.05" stroke-linecap="round"/>
    <path d="M61.2 204.6 L77.7 204.6" stroke="#80f2ff" stroke-width="0.85" opacity="0.88"/>
    <circle cx="67.5" cy="198.8" r="1.1" fill="#bff8ff"/>
    <circle cx="74.0" cy="200.6" r="0.9" fill="url(#c_glow)" filter="url(#c_soft_glow)"/>
    <path d="M60.8 193.5 Q69.0 191.8 77.4 193.5" fill="none" stroke="#00cfe6" stroke-width="0.6" opacity="0.75"/>

    <!-- Right -->
    <path d="M88 193 L112 193 L114 209 L88 209 Z" fill="url(#c_boot_shell)" stroke="#0f171d" stroke-width="0.9"/>
    <path d="M89.0 194 L104.5 194 L105.2 206 L89.0 206 Z" fill="url(#c_boot_highlight)" opacity="0.47"/>
    <path d="M89.0 202.3 L113.2 202.3" stroke="#1a2731" stroke-width="0.7" opacity="0.65"/>
    <path d="M89.2 194.0 L112.1 194.0" stroke="#7f96a8" stroke-width="0.55" opacity="0.68"/>
    <rect x="89.0" y="205.0" width="22.0" height="2.3" rx="0.8" fill="url(#c_toe_cap)" opacity="0.97"/>
    <path d="M88 207 L114 207 L114 210 L88 210 Z" fill="url(#c_boot_sole)"/>
    <path d="M88.2 208.6 L113.8 208.6" stroke="#d0dbe2" stroke-width="0.5" opacity="0.62"/>
    <path d="M92.2 196.8 L108.8 196.8 M92.0 199.4 L108.6 199.4 M91.8 202.0 L108.4 202.0" stroke="#00e5ff" stroke-width="1.05" stroke-linecap="round"/>
    <path d="M92.2 204.6 L110.4 204.6" stroke="#80f2ff" stroke-width="0.85" opacity="0.88"/>
    <circle cx="97.4" cy="198.8" r="1.1" fill="#bff8ff"/>
    <circle cx="104.2" cy="200.6" r="0.9" fill="url(#c_glow)" filter="url(#c_soft_glow)"/>
    <path d="M91.6 193.5 Q100.8 191.8 110.8 193.5" fill="none" stroke="#00cfe6" stroke-width="0.6" opacity="0.75"/>
  </g>
</svg>
