<svg xmlns="http://www.w3.org/2000/svg" viewBox="0 0 180 220" width="180" height="220">

  <g id="boots_epic">
    <path d="M43 188 L74 188 L76 202 L41 202 Z" fill="#dce3ed" stroke="#98a4b5" stroke-width="1"/>
    <path d="M104 188 L135 188 L137 202 L102 202 Z" fill="#dce3ed" stroke="#98a4b5" stroke-width="1"/>
    <path d="M41 201 L77 201 L79 209 L39 209 Z" fill="#5a6270" stroke="#2c323b" stroke-width="1"/>
    <path d="M102 201 L138 201 L140 209 L100 209 Z" fill="#5a6270" stroke="#2c323b" stroke-width="1"/>
    <path d="M45 192 L74 192" stroke="#9C27B0" stroke-width="1.12" opacity="0.88"/>
    <path d="M106 192 L135 192" stroke="#9C27B0" stroke-width="1.12" opacity="0.88"/>
    <path d="M44 194 L73 194 M106 194 L135 194" stroke="#8a9cb7" stroke-width="0.88" opacity="0.75"/><rect x="53" y="189.7" width="6" height="2.3" rx="1" fill="#9C27B0" opacity="0.85"/><rect x="120" y="189.7" width="6" height="2.3" rx="1" fill="#9C27B0" opacity="0.85"/><path d="M45 202.5 L74 202.5" stroke="#9C27B0" stroke-width="1.08" opacity="0.84"/><path d="M106 202.5 L135 202.5" stroke="#9C27B0" stroke-width="1.08" opacity="0.84"/>
  </g>

</svg>
