<?xml version="1.0" encoding="UTF-8"?>
<svg xmlns="http://www.w3.org/2000/svg" viewBox="0 0 180 220" width="180" height="220">
  <defs>
    <linearGradient id="h_top_celestial" x1="0" y1="0" x2="0" y2="1">
      <stop offset="0%" stop-color="#7f8b62"/>
      <stop offset="100%" stop-color="#6f7c55"/>
    </linearGradient>
    <linearGradient id="h_brim_celestial" x1="0" y1="0" x2="1" y2="0">
      <stop offset="0%" stop-color="#5a4631"/>
      <stop offset="100%" stop-color="#4a3a2a"/>
    </linearGradient>
  </defs>
  <!-- Zoo Worker helmet (celestial): Storm Brim -->
  <g id="helmet_celestial" transform="translate(90 52) scale(0.34) translate(-90 -52)">
    <path d="M69 70 C69 56 78 48 90 48 C102 48 111 56 111 70 L107 72 L73 72 Z" fill="url(#h_top_celestial)" stroke="#415036" stroke-width="0.9"/>
    <path d="M66 72 L114 72 L112 78 L68 78 Z" fill="url(#h_brim_celestial)" stroke="#33281d" stroke-width="0.9"/>
    <rect x="74" y="58" width="32" height="5.3" rx="2.2" fill="#8a5f3e" stroke="#5f4028" stroke-width="0.7"/>
    <circle cx="90" cy="61" r="3.0" fill="#d6ba8a" stroke="#00E5FF" stroke-width="0.9"/>
    <path d="M84 63.8 L96 63.8" stroke="#00E5FF" stroke-width="1.0" stroke-linecap="round"/>
    <rect x="74" y="68" width="32" height="8" rx="3.2" fill="#2c3f44" stroke="#00E5FF" stroke-width="0.9" opacity="0.85"/>
    <path d="M90 47 L94 57 L90 54 L86 57 Z" fill="#00E5FF" opacity="0.9"/>
    <path d="M72 61 C67 58 66 53 70 50 C74 52 76 56 76 60 Z" fill="#00E5FF" opacity="0.68"/><path d="M108 61 C113 58 114 53 110 50 C106 52 104 56 104 60 Z" fill="#00E5FF" opacity="0.68"/>
    <circle cx="90" cy="64" r="2.8" fill="#00E5FF" opacity="0.55">
      <animate attributeName="r" values="1.8;3.8;1.8" dur="1.7s" repeatCount="indefinite"/>
      <animate attributeName="opacity" values="0.2;0.9;0.2" dur="1.7s" repeatCount="indefinite"/>
    </circle>
  </g>
</svg>
