<?xml version="1.0" encoding="UTF-8"?>
<svg xmlns="http://www.w3.org/2000/svg" viewBox="0 0 180 220" width="180" height="220">
  <defs>
    <linearGradient id="l_shell" x1="0" y1="0" x2="0" y2="1">
      <stop offset="0%" stop-color="#818e9c"/>
      <stop offset="100%" stop-color="#485866"/>
    </linearGradient>
    <linearGradient id="l_plate" x1="0" y1="0" x2="1" y2="1">
      <stop offset="0%" stop-color="#b7c2ca"/>
      <stop offset="100%" stop-color="#8294a2"/>
    </linearGradient>
    <linearGradient id="l_orange" x1="0" y1="0" x2="1" y2="1">
      <stop offset="0%" stop-color="#ffd08c"/>
      <stop offset="100%" stop-color="#ff8f1f"/>
    </linearGradient>
    <filter id="l_glow" x="-60%" y="-60%" width="220%" height="220%">
      <feGaussianBlur stdDeviation="0.7"/>
    </filter>
  </defs>

  <!-- Legendary: magistrate crest guard -->
  <g id="shield_legendary">
    <path d="M33.4 108.4 L47.9 99.4 L61.8 107.8 L62.6 120.0 L58.9 142.6 L48.0 153.2 L37.1 142.5 L33.1 120.0 Z" fill="url(#l_shell)" stroke="#1a252d" stroke-width="1"/>
    <path d="M37.2 111.7 L47.9 105.5 L58.5 111.8 L59.2 119.9 L56.2 139.3 L48.0 146.9 L39.9 139.3 L36.8 120.0 Z" fill="url(#l_plate)" opacity="0.64"/>
    <path d="M39.8 114.2 L56.0 114.2 M39.3 120.1 L55.3 120.1 M38.7 126.0 L54.5 126.0 M38.1 131.9 L53.8 131.9 M37.6 137.8 L53.0 137.8" stroke="#ffac34" stroke-width="0.72" opacity="0.88"/>
    <path d="M40.8 111.1 L55.0 111.1" stroke="#ffe3b0" stroke-width="0.74" opacity="0.92"/>
    <path d="M40.5 141.0 L54.8 141.0" stroke="#ffc067" stroke-width="0.7" opacity="0.9"/>
    <path d="M48.0 116.9 L49.5 120.6 L53.4 120.9 L50.4 123.4 L51.4 127.2 L48.0 125.2 L44.6 127.2 L45.6 123.4 L42.6 120.9 L46.5 120.6 Z" fill="#ffcb73" stroke="#ffdca6" stroke-width="0.35" opacity="0.95"/>
    <circle cx="48.0" cy="125.8" r="1.55" fill="#ffc866"/>
    <circle cx="48.0" cy="125.8" r="3.3" fill="#ff9b2a" opacity="0.0" filter="url(#l_glow)">
      <animate attributeName="opacity" values="0;0.7;0" dur="1.9s" repeatCount="indefinite"/>
    </circle>
    <circle cx="48.0" cy="125.8" r="5.6" fill="none" stroke="url(#l_orange)" stroke-width="0.74" stroke-dasharray="1.1 1.7" opacity="0.82">
      <animate attributeName="stroke-dashoffset" values="0;5" dur="2.2s" repeatCount="indefinite"/>
    </circle>
    <path d="M41.6 106.8 L54.6 145.2" stroke="#ffe3ba" stroke-width="1.2" opacity="0.0">
      <animate attributeName="opacity" values="0.0;0.55;0.0" dur="2.8s" repeatCount="indefinite"/>
    </path>
    <path d="M40.8 109.2 L53.8 147.6" stroke="#ffd7a3" stroke-width="0.7" opacity="0.0">
      <animate attributeName="opacity" values="0.0;0.48;0.0" dur="2.8s" begin="0.2s" repeatCount="indefinite"/>
    </path>
    <circle cx="42.0" cy="118.5" r="0.75" fill="#ffd284" opacity="0">
      <animate attributeName="opacity" values="0;0.9;0" dur="1.3s" repeatCount="indefinite"/>
    </circle>
    <circle cx="54.4" cy="133.9" r="0.75" fill="#ffd284" opacity="0">
      <animate attributeName="opacity" values="0;0.9;0" dur="1.6s" repeatCount="indefinite"/>
    </circle>
    <rect x="57.4" y="120.2" width="4.8" height="21.8" rx="1.6" fill="#25333d"/>
    <rect x="56.8" y="127.4" width="6.0" height="7.4" rx="2.2" fill="#ffb75b" stroke="#2a3944" stroke-width="0.5"/>
    <path d="M58.3 122.4 L60.9 122.4 M58.3 138.9 L60.9 138.9" stroke="#ffd9a7" stroke-width="0.52" opacity="0.88"/>
  </g>
</svg>
