<?xml version="1.0" encoding="UTF-8"?>
<svg xmlns="http://www.w3.org/2000/svg" viewBox="0 0 180 220" width="180" height="220">
  <defs>
    <linearGradient id="c_shell" x1="0" y1="0" x2="0" y2="1">
      <stop offset="0%" stop-color="#6c7983"/>
      <stop offset="100%" stop-color="#394750"/>
    </linearGradient>
    <linearGradient id="c_plate" x1="0" y1="0" x2="1" y2="1">
      <stop offset="0%" stop-color="#95a4ae"/>
      <stop offset="100%" stop-color="#627380"/>
    </linearGradient>
  </defs>

  <!-- Common: flat practice plate -->
  <g id="shield_common">
    <path d="M36.3 104.8 L58.2 104.8 L60.0 142.6 L38.0 148.0 L35.2 142.0 Z" fill="url(#c_shell)" stroke="#1a252d" stroke-width="1"/>
    <path d="M39.3 108.8 L56.0 108.8 L57.4 140.0 L40.3 144.2 L38.2 139.8 Z" fill="url(#c_plate)" opacity="0.64"/>
    <path d="M41.2 114.3 L54.8 114.3 M40.6 121.8 L54.1 121.8 M40.0 129.3 L53.3 129.3 M39.4 136.8 L52.6 136.8" stroke="#bec8cf" stroke-width="0.68" opacity="0.55"/>
    <rect x="57.4" y="120.2" width="4.8" height="21.8" rx="1.6" fill="#25333d"/>
    <rect x="56.8" y="127.4" width="6.0" height="7.4" rx="2.2" fill="#7b8c99" stroke="#2a3944" stroke-width="0.5"/>
    <circle cx="40.6" cy="110.3" r="1.0" fill="#d0d6dc" opacity="0.78"/>
    <circle cx="55.8" cy="110.3" r="1.0" fill="#d0d6dc" opacity="0.78"/>
    <circle cx="40.0" cy="141.3" r="1.0" fill="#d0d6dc" opacity="0.7"/>
    <circle cx="53.8" cy="141.8" r="0.9" fill="#d0d6dc" opacity="0.7"/>
  </g>
</svg>
