<?xml version="1.0" encoding="UTF-8"?>
<svg xmlns="http://www.w3.org/2000/svg" viewBox="0 0 180 220" width="180" height="220">
  <defs>
    <linearGradient id="u_shell" x1="0" y1="0" x2="0" y2="1">
      <stop offset="0%" stop-color="#6e7c86"/>
      <stop offset="100%" stop-color="#3a4851"/>
    </linearGradient>
    <linearGradient id="u_plate" x1="0" y1="0" x2="1" y2="1">
      <stop offset="0%" stop-color="#9ba9b3"/>
      <stop offset="100%" stop-color="#687985"/>
    </linearGradient>
  </defs>

  <!-- Uncommon: notched fingerprint shield -->
  <g id="shield_uncommon">
    <path d="M35.0 105.2 L44.6 101.1 L55.8 101.1 L61.8 110.0 L59.0 145.3 L47.5 151.2 L37.0 145.0 L33.6 135.8 Z" fill="url(#u_shell)" stroke="#1a252d" stroke-width="1"/>
    <path d="M38.2 109.2 L46.1 106.0 L54.4 106.0 L58.3 112.3 L56.0 140.8 L47.5 145.5 L40.0 140.9 L37.4 134.2 Z" fill="url(#u_plate)" opacity="0.64"/>
    <path d="M40.8 113.8 L54.5 113.8 M40.1 121.1 L53.7 121.1 M39.4 128.4 L52.9 128.4 M38.8 135.7 L52.2 135.7" stroke="#c4ced5" stroke-width="0.68" opacity="0.52"/>
    <path d="M42.1 136.2 Q48.0 129.4 53.9 136.2" fill="none" stroke="#4caf50" stroke-width="0.8" opacity="0.88"/>
    <path d="M41.5 137.8 Q48.0 130.2 54.5 137.8" fill="none" stroke="#7adf7e" stroke-width="0.66" opacity="0.78"/>
    <path d="M40.9 139.3 Q48.0 131.0 55.1 139.3" fill="none" stroke="#4caf50" stroke-width="0.56" opacity="0.64"/>
    <rect x="57.4" y="120.2" width="4.8" height="21.8" rx="1.6" fill="#25333d"/>
    <rect x="56.8" y="127.4" width="6.0" height="7.4" rx="2.2" fill="#7c8d9a" stroke="#2a3944" stroke-width="0.5"/>
    <path d="M38.6 107.6 L41.6 109.0 M37.9 112.0 L41.0 113.4 M37.2 116.4 L40.4 117.8" stroke="#52c35a" stroke-width="0.5" opacity="0.75"/>
  </g>
</svg>
