<?xml version="1.0" encoding="UTF-8"?>
<svg xmlns="http://www.w3.org/2000/svg" viewBox="0 0 180 220" width="180" height="220">
  <defs>
    <linearGradient id="e_shell" x1="0" y1="0" x2="0" y2="1">
      <stop offset="0%" stop-color="#798795"/>
      <stop offset="100%" stop-color="#425261"/>
    </linearGradient>
    <linearGradient id="e_plate" x1="0" y1="0" x2="1" y2="1">
      <stop offset="0%" stop-color="#b0bcc6"/>
      <stop offset="100%" stop-color="#798b9a"/>
    </linearGradient>
    <filter id="e_glow" x="-60%" y="-60%" width="220%" height="220%">
      <feGaussianBlur stdDeviation="0.7"/>
    </filter>
  </defs>

  <!-- Epic: hex barrier shield -->
  <g id="shield_epic">
    <path d="M34.7 109.0 L47.9 101.2 L60.8 108.9 L59.8 139.0 L48.1 148.7 L36.2 141.0 Z" fill="url(#e_shell)" stroke="#1a252d" stroke-width="1"/>
    <path d="M38.2 112.0 L48.0 106.4 L57.4 112.0 L56.7 136.7 L48.1 143.6 L39.3 137.1 Z" fill="url(#e_plate)" opacity="0.64"/>
    <path d="M40.8 114.6 L55.3 114.6 M40.2 121.4 L54.8 121.4 M39.8 128.2 L54.2 128.2 M39.3 135.0 L53.7 135.0" stroke="#c78ae7" stroke-width="0.7" opacity="0.8"/>
    <path d="M40.5 111.0 L48.1 107.0 L55.7 111.0" fill="none" stroke="#dfb4f6" stroke-width="0.68" opacity="0.82"/>
    <circle cx="47.8" cy="125.6" r="4.4" fill="none" stroke="#b35cdb" stroke-width="0.75" opacity="0.78">
      <animateTransform attributeName="transform" type="rotate" from="0 47.8 125.6" to="360 47.8 125.6" dur="6.5s" repeatCount="indefinite"/>
    </circle>
    <path d="M44.9 125.6 L50.7 125.6 M47.8 122.7 L47.8 128.5" stroke="#e7c4f7" stroke-width="0.68" opacity="0.88"/>
    <circle cx="47.8" cy="125.6" r="1.1" fill="#dc9bf6"/>
    <circle cx="47.8" cy="125.6" r="2.5" fill="#bf73e3" opacity="0.0" filter="url(#e_glow)">
      <animate attributeName="opacity" values="0;0.65;0" dur="2.1s" repeatCount="indefinite"/>
    </circle>
    <rect x="57.4" y="120.2" width="4.8" height="21.8" rx="1.6" fill="#25333d"/>
    <rect x="56.8" y="127.4" width="6.0" height="7.4" rx="2.2" fill="#bd8ed9" stroke="#2a3944" stroke-width="0.5"/>
  </g>
</svg>
