<?xml version="1.0" encoding="UTF-8"?>
<svg xmlns="http://www.w3.org/2000/svg" viewBox="0 0 180 220" width="180" height="220">
  <defs>
    <linearGradient id="cl_outer_celestial" x1="0" y1="0" x2="0" y2="1">
      <stop offset="0%" stop-color="#8b9a7a"/>
      <stop offset="100%" stop-color="#5f6f56"/>
    </linearGradient>
    <linearGradient id="cl_inner_celestial" x1="0" y1="0" x2="0" y2="1">
      <stop offset="0%" stop-color="#c8d3ba"/>
      <stop offset="100%" stop-color="#8da081"/>
    </linearGradient>
  </defs>
  <!-- Zoo Worker cloak (celestial): Dawn Mantle -->
  <g id="cloak_celestial" transform="translate(90 118) scale(0.92) translate(-90 -118)">
    <path d="M68 84 L112 84 L109 95 L105 149 L102 158 L90 161 L78 158 L75 149 L71 95 Z"
          fill="url(#cl_outer_celestial)" fill-opacity="0.46" stroke="#4f5a47" stroke-width="0.92"/>
    <path d="M72 87 L108 87 L104 156 L76 156 Z" fill="url(#cl_inner_celestial)" opacity="0.32"/>
    <path d="M86.2 92 L79.2 156 L90 156 L90 92 Z" fill="#324232" opacity="0.24"/>
    <path d="M93.8 92 L100.8 156 L90 156 L90 92 Z" fill="#324232" opacity="0.24"/>

    <path d="M74.5 101 C78 99 84 99 88 100 M92 100 C96 99 102 99 105.5 101" stroke="#00E5FF" stroke-width="0.58" stroke-linecap="round" opacity="0.9"/>
    <path d="M77 147 C82 145 98 145 103 147" stroke="#00E5FF" stroke-width="0.58" stroke-linecap="round" opacity="0.85"/>
    <path d="M80 108 L80 120 M100 108 L100 120" stroke="#dbe7d1" stroke-width="0.52"/>
    <path d="M84 114 C87 111 93 111 96 114" fill="none" stroke="#00E5FF" stroke-width="0.7"/>
    <path d="M74 95 C79 90 85 91 90 96 C95 91 101 90 106 95" fill="none" stroke="#00E5FF" stroke-width="0.72"/>

    <circle cx="90" cy="116" r="5.6" fill="#00E5FF" opacity="0.12">
      <animate attributeName="opacity" values="0.08;0.34;0.08" dur="1.8s" repeatCount="indefinite"/>
    </circle>
  </g>
</svg>
