<svg xmlns="http://www.w3.org/2000/svg" viewBox="0 0 180 220" width="180" height="220">
  <defs>
    <linearGradient id="b_gold" x1="0" y1="0" x2="1" y2="1">
      <stop offset="0%" stop-color="#FFECB3"/>
      <stop offset="100%" stop-color="#FF6F00"/>
    </linearGradient>
  </defs>
  <g id="boots_legendary">
    <!-- Divine Greaves -->
    <path d="M40 150 Q55 145 70 150 L65 190 L45 190 Z" fill="url(#b_gold)" stroke="#FF6F00" stroke-width="1.5"/>
    <path d="M110 150 Q125 145 140 150 L135 190 L115 190 Z" fill="url(#b_gold)" stroke="#FF6F00" stroke-width="1.5"/>
    
    <!-- Sun Feet -->
    <path d="M35 190 L75 190 L70 205 L40 205 Z" fill="#FF8F00"/>
    <path d="M105 190 L145 190 L140 205 L110 205 Z" fill="#FF8F00"/>
    
    <!-- Wings of Hermes -->
    <path d="M70 160 L80 150 L75 180 Z" fill="#FFD700" stroke="#FF6F00"/>
    <path d="M110 160 L100 150 L105 180 Z" fill="#FFD700" stroke="#FF6F00"/>
    
    <!-- Golden Trail -->
    <path d="M45 205 L70 205" stroke="#FFE082" stroke-width="2" stroke-dasharray="2,2"/>
    <path d="M115 205 L140 205" stroke="#FFE082" stroke-width="2" stroke-dasharray="2,2"/>
  </g>
</svg>
