<?xml version="1.0" encoding="UTF-8"?>
<svg xmlns="http://www.w3.org/2000/svg" viewBox="0 0 180 220" width="180" height="220">
  <defs>
    <linearGradient id="e_mug" x1="0" y1="0" x2="0" y2="1">
      <stop offset="0%" stop-color="#bda2d8"/>
      <stop offset="100%" stop-color="#7c5ea8"/>
    </linearGradient>
    <linearGradient id="e_coffee" x1="0" y1="0" x2="0" y2="1">
      <stop offset="0%" stop-color="#6a4b38"/>
      <stop offset="100%" stop-color="#3f2b20"/>
    </linearGradient>
    <radialGradient id="e_glow" cx="50%" cy="50%" r="50%">
      <stop offset="0%" stop-color="#e5bcff" stop-opacity="0.93"/>
      <stop offset="100%" stop-color="#e5bcff" stop-opacity="0"/>
    </radialGradient>
    <filter id="e_blur" x="-80%" y="-80%" width="260%" height="260%">
      <feGaussianBlur stdDeviation="1.2"/>
    </filter>
  </defs>

  <!-- Epic: purple mug with animated aura steam -->
  <g id="weapon_epic" transform="translate(-2 31) scale(1.08 1.08)">
    
    <!-- Coffee table staging -->
    M3.5" rx="15.0" ry="2.6" fill="#000000" opacity="0.18"/>
    <rect x="103.2" y="154.1" width="30.0" height="4.0" rx="1.3" fill="#8b6446" stroke="#563b28" stroke-width="0.62"/>
    <rect x="106.5" y="157.8" width="2.4" height="11.0" rx="0.7" fill="#6e4d35" stroke="#4a3222" stroke-width="0.45"/>
    <rect x="127.5" y="157.8" width="2.4" height="11.0" rx="0.7" fill="#6e4d35" stroke="#4a3222" stroke-width="0.45"/>
<ellipse cx="118.2" cy="159.9" rx="8.1" ry="2.6" fill="#000000" opacity="0.16"/>
    <rect x="110.6" y="138.0" width="15.1" height="16.3" rx="2.55" fill="url(#e_mug)" stroke="#66458c" stroke-width="0.95"/>
    <path d="M125.1 141.1 Q130.3 142.2 130.3 146.0 Q130.3 149.8 125.1 150.8" fill="none" stroke="#8f6bc0" stroke-width="1.22"/>
    <path d="M125.1 142.5 Q127.8 143.3 127.8 146.0 Q127.8 148.7 125.1 149.6" fill="none" stroke="#d7b4ff" stroke-width="0.72" opacity="0.84"/>
    <ellipse cx="118.1" cy="139.8" rx="5.4" ry="1.7" fill="url(#e_coffee)"/>
    <circle cx="118.0" cy="146.7" r="1.85" fill="#f0dfff" opacity="0.9"/>
    <path d="M114.8 135.0 Q113.7 131.8 115.7 129.4" fill="none" stroke="#d8b5ff" stroke-width="0.78" opacity="0.38">
      <animate attributeName="opacity" values="0.2;0.75;0.2" dur="1.8s" repeatCount="indefinite"/>
      <animateTransform attributeName="transform" type="translate" values="0 0;0 -1.2;0 0" dur="1.8s" repeatCount="indefinite"/>
    </path>
    <path d="M120.9 135.0 Q121.8 132.1 119.8 129.8" fill="none" stroke="#d8b5ff" stroke-width="0.78" opacity="0.38">
      <animate attributeName="opacity" values="0.2;0.75;0.2" dur="2.0s" repeatCount="indefinite"/>
      <animateTransform attributeName="transform" type="translate" values="0 0;0 -1.4;0 0" dur="2.0s" repeatCount="indefinite"/>
    </path>
    <circle cx="118.0" cy="146.7" r="3.5" fill="url(#e_glow)" opacity="0.5" filter="url(#e_blur)">
      <animate attributeName="r" values="2.4;4.4;2.4" dur="1.8s" repeatCount="indefinite"/>
      <animate attributeName="opacity" values="0.28;0.86;0.28" dur="1.8s" repeatCount="indefinite"/>
    </circle>
    <path d="M112.9 149.2 L123.2 149.2" stroke="#f0d6ff" stroke-width="0.66" opacity="0">
      <animate attributeName="opacity" values="0;0.95;0" dur="1.5s" repeatCount="indefinite"/>
    </path>
  </g>
</svg>
