<?xml version="1.0" encoding="UTF-8"?>
<svg xmlns="http://www.w3.org/2000/svg" viewBox="0 0 180 220" width="180" height="220">
  <defs>
    <linearGradient id="c_mug" x1="0" y1="0" x2="0" y2="1">
      <stop offset="0%" stop-color="#c9d0d8"/>
      <stop offset="100%" stop-color="#8b97a4"/>
    </linearGradient>
    <linearGradient id="c_coffee" x1="0" y1="0" x2="0" y2="1">
      <stop offset="0%" stop-color="#6a4d3d"/>
      <stop offset="100%" stop-color="#3d2a20"/>
    </linearGradient>
  </defs>

  <!-- Common: plain gray mug -->
  <g id="weapon_common" transform="translate(8 23) scale(1.08 1.08)">
    <!-- Coffee table staging (common: simple side table) -->
    M3.8" rx="14.2" ry="2.6" fill="#000000" opacity="0.18"/>
    <rect x="103.4" y="152.2" width="30.2" height="3.7" rx="1.0" fill="#8b6446" stroke="#563b28" stroke-width="0.62"/>
    <rect x="106.7" y="155.7" width="2.4" height="12.8" rx="0.7" fill="#6e4d35" stroke="#4a3222" stroke-width="0.45"/>
    <rect x="127.9" y="155.7" width="2.4" height="12.8" rx="0.7" fill="#6e4d35" stroke="#4a3222" stroke-width="0.45"/>
<ellipse cx="118.2" cy="159.8" rx="7.8" ry="2.4" fill="#000000" opacity="0.14"/>
    <rect x="110.8" y="138.2" width="14.6" height="16.0" rx="2.4" fill="url(#c_mug)" stroke="#5e6b78" stroke-width="0.9"/>
    <path d="M125.0 141.2 Q129.9 142.2 129.9 145.9 Q129.9 149.7 125.0 150.7" fill="none" stroke="#758291" stroke-width="1.15"/>
    <path d="M125.0 142.4 Q127.6 143.2 127.6 145.9 Q127.6 148.6 125.0 149.4" fill="none" stroke="#aab5c1" stroke-width="0.68" opacity="0.82"/>
    <ellipse cx="118.1" cy="139.8" rx="5.2" ry="1.6" fill="url(#c_coffee)"/>
    <path d="M115.2 136.4 Q117.2 133.8 116.4 131.3" fill="none" stroke="#d3dbe2" stroke-width="0.65" opacity="0.42"/>
  </g>
</svg>
