<?xml version="1.0" encoding="UTF-8"?>
<svg xmlns="http://www.w3.org/2000/svg" viewBox="0 0 180 220" width="180" height="220">
  <defs>
    <linearGradient id="r_mug" x1="0" y1="0" x2="0" y2="1">
      <stop offset="0%" stop-color="#9dc2e8"/>
      <stop offset="100%" stop-color="#5d88b3"/>
    </linearGradient>
    <linearGradient id="r_coffee" x1="0" y1="0" x2="0" y2="1">
      <stop offset="0%" stop-color="#6a4a39"/>
      <stop offset="100%" stop-color="#3f2a21"/>
    </linearGradient>
    <radialGradient id="r_glow" cx="50%" cy="50%" r="50%">
      <stop offset="0%" stop-color="#9fd8ff" stop-opacity="0.8"/>
      <stop offset="100%" stop-color="#9fd8ff" stop-opacity="0"/>
    </radialGradient>
  </defs>

  <!-- Rare: blue mug with badge -->
  <g id="weapon_rare" transform="translate(-2 31) scale(1.08 1.08)">
    
    <!-- Coffee table staging -->
    M3.5" rx="15.0" ry="2.6" fill="#000000" opacity="0.18"/>
    <rect x="103.2" y="154.1" width="30.0" height="4.0" rx="1.3" fill="#8b6446" stroke="#563b28" stroke-width="0.62"/>
    <rect x="106.5" y="157.8" width="2.4" height="11.0" rx="0.7" fill="#6e4d35" stroke="#4a3222" stroke-width="0.45"/>
    <rect x="127.5" y="157.8" width="2.4" height="11.0" rx="0.7" fill="#6e4d35" stroke="#4a3222" stroke-width="0.45"/>
<ellipse cx="118.2" cy="159.8" rx="8.0" ry="2.55" fill="#000000" opacity="0.15"/>
    <rect x="110.7" y="138.1" width="14.9" height="16.1" rx="2.5" fill="url(#r_mug)" stroke="#436886" stroke-width="0.92"/>
    <path d="M125.1 141.2 Q130.2 142.3 130.2 146.0 Q130.2 149.8 125.1 150.8" fill="none" stroke="#5c8cb3" stroke-width="1.2"/>
    <path d="M125.0 142.5 Q127.8 143.4 127.8 146.0 Q127.8 148.7 125.0 149.5" fill="none" stroke="#b9ddff" stroke-width="0.72" opacity="0.82"/>
    <ellipse cx="118.1" cy="139.8" rx="5.3" ry="1.7" fill="url(#r_coffee)"/>
    <circle cx="117.9" cy="146.7" r="1.7" fill="#d4e8fb" opacity="0.9"/>
    <path d="M116.9 146.6 L117.7 147.4 L118.9 145.9" fill="none" stroke="#3f6481" stroke-width="0.55" stroke-linecap="round" stroke-linejoin="round"/>
    <path d="M114.8 135.0 Q113.7 132.0 115.7 129.6" fill="none" stroke="#b9ddff" stroke-width="0.72" opacity="0.58"/>
    <path d="M120.9 134.9 Q121.7 132.2 119.8 130.0" fill="none" stroke="#b9ddff" stroke-width="0.72" opacity="0.58"/>
    <circle cx="124.9" cy="146.8" r="2.8" fill="url(#r_glow)" opacity="0.6"/>
  </g>
</svg>
