<?xml version="1.0" encoding="UTF-8"?>
<svg xmlns="http://www.w3.org/2000/svg" viewBox="0 0 180 220" width="180" height="220">
  <defs>
    <linearGradient id="u_mug" x1="0" y1="0" x2="0" y2="1">
      <stop offset="0%" stop-color="#9fb89e"/>
      <stop offset="100%" stop-color="#5f785f"/>
    </linearGradient>
    <linearGradient id="u_coffee" x1="0" y1="0" x2="0" y2="1">
      <stop offset="0%" stop-color="#6c4a34"/>
      <stop offset="100%" stop-color="#3f2a1e"/>
    </linearGradient>
  </defs>

  <!-- Uncommon: green office mug -->
  <g id="weapon_uncommon" transform="translate(-2 31) scale(1.08 1.08)">
    
    <!-- Coffee table staging -->
    M3.5" rx="15.0" ry="2.6" fill="#000000" opacity="0.18"/>
    <rect x="103.2" y="154.1" width="30.0" height="4.0" rx="1.3" fill="#8b6446" stroke="#563b28" stroke-width="0.62"/>
    <rect x="106.5" y="157.8" width="2.4" height="11.0" rx="0.7" fill="#6e4d35" stroke="#4a3222" stroke-width="0.45"/>
    <rect x="127.5" y="157.8" width="2.4" height="11.0" rx="0.7" fill="#6e4d35" stroke="#4a3222" stroke-width="0.45"/>
<ellipse cx="118.2" cy="159.8" rx="7.9" ry="2.45" fill="#000000" opacity="0.14"/>
    <rect x="110.8" y="138.2" width="14.6" height="15.9" rx="2.35" fill="url(#u_mug)" stroke="#3e5542" stroke-width="0.9"/>
    <path d="M124.8 141.1 Q129.8 142.2 129.8 145.9 Q129.8 149.7 124.8 150.7" fill="none" stroke="#5b765d" stroke-width="1.2"/>
    <path d="M124.8 142.4 Q127.6 143.2 127.6 145.9 Q127.6 148.6 124.8 149.4" fill="none" stroke="#9ec4a0" stroke-width="0.7" opacity="0.8"/>
    <ellipse cx="118.0" cy="139.8" rx="5.2" ry="1.7" fill="url(#u_coffee)"/>
    <circle cx="118.0" cy="146.8" r="1.5" fill="#d2e0d0" opacity="0.88"/>
    <path d="M114.4 136.9 Q118.0 135.1 121.6 136.9" fill="none" stroke="#dbe4da" stroke-width="0.6" opacity="0.7"/>
    <path d="M114.8 134.8 Q113.8 131.8 115.6 129.8" fill="none" stroke="#c3d3c2" stroke-width="0.7" opacity="0.55"/>
    <path d="M120.7 134.7 Q121.4 131.8 119.6 129.9" fill="none" stroke="#c3d3c2" stroke-width="0.7" opacity="0.55"/>
  </g>
</svg>
