<svg xmlns="http://www.w3.org/2000/svg" viewBox="0 0 180 220" width="180" height="220">
  <defs>
    <linearGradient id="sGaunt5Cloth" x1="0" y1="0" x2="0" y2="1">
      <stop offset="0%" stop-color="#7fd2e4"/>
      <stop offset="45%" stop-color="#37596c"/>
      <stop offset="100%" stop-color="#264250"/>
    </linearGradient>
    <linearGradient id="sGaunt5Deep" x1="0" y1="0" x2="0" y2="1">
      <stop offset="0%" stop-color="#37596c"/>
      <stop offset="100%" stop-color="#18303d"/>
    </linearGradient>
    <radialGradient id="sGaunt5Aura" cx="0.5" cy="0.5" r="0.5">
      <stop offset="0%" stop-color="#00E5FF" stop-opacity="0.5"/>
      <stop offset="70%" stop-color="#00E5FF" stop-opacity="0.16"/>
      <stop offset="100%" stop-color="#00E5FF" stop-opacity="0.0"/>
    </radialGradient>
  </defs>

  <g id="gauntlets_celestial">
    <path d="M38 134 L62 134 L61 146 L39 146 Z" fill="url(#sGaunt5Cloth)" stroke="#18303d" stroke-width="1"/><path d="M39 146 L61 146 L59.5 157 L40.5 157 Z" fill="url(#sGaunt5Deep)" stroke="#18303d" stroke-width="0.9"/><path d="M38.5 139.5 L61.5 139.5" stroke="#7fd2e4" stroke-width="0.7" opacity="0.6"/><path d="M40 146 L60 146" stroke="#4dd9f0" stroke-width="1.1" opacity="0.9"/><path d="M41.5 150.5 Q50 147.5 58.5 150.5" stroke="#4dd9f0" stroke-width="0.9" fill="none" opacity="0.9"/><rect x="48.6" y="148.4" width="2.8" height="5.4" rx="1.1" fill="none" stroke="#4dd9f0" stroke-width="0.8"/><path d="M50 147.8 L50 144.6" stroke="#b2f4ff" stroke-width="0.9"/><path d="M42.5 141.4 L42.5 143.6 M42.5 142.5 L44.3 141.4 M47.1 141.4 L48.9 143.6 M48.9 141.4 L47.1 143.6 M51.7 143.6 L51.7 141.4 L53.5 141.4" stroke="#00E5FF" stroke-width="0.55" fill="none" opacity="0.85" stroke-linecap="round"/><path d="M50 133.6 L51.8 136.4 L50 139.2 L48.2 136.4 Z" fill="#00E5FF" opacity="0.9"/><path d="M40 155.6 L60 155.6" stroke="#00E5FF" stroke-width="0.9" opacity="0.5"><animate attributeName="opacity" values="0.5;0.95;0.5" dur="2.7s" repeatCount="indefinite"/></path><circle cx="46" cy="137" r="0.6" fill="#b2f4ff" opacity="0.75"><animateTransform attributeName="transform" type="translate" values="0 0;0 -6" dur="3.1s" begin="0s" repeatCount="indefinite"/><animate attributeName="opacity" values="0.75;0.9;0" dur="3.1s" begin="0s" repeatCount="indefinite"/></circle><ellipse cx="50" cy="145" rx="13" ry="10" fill="url(#sGaunt5Aura)" opacity="0.5"><animate attributeName="opacity" values="0.5;0.7;0.3;0.5" dur="4.4s" repeatCount="indefinite"/></ellipse><path d="M42 137.5 L50 135.4" stroke="#b2f4ff" stroke-width="0.45" opacity="0.5"/><path d="M50 135.4 L58 137.5" stroke="#b2f4ff" stroke-width="0.45" opacity="0.5"/><circle cx="42" cy="137.5" r="0.7" fill="#b2f4ff" opacity="0.85"><animate attributeName="opacity" values="0.85;0.3;0.85" dur="2.2s" repeatCount="indefinite"/></circle><circle cx="50" cy="135.4" r="0.7" fill="#b2f4ff" opacity="0.7"/><circle cx="58" cy="137.5" r="0.7" fill="#b2f4ff" opacity="0.85"><animate attributeName="opacity" values="0.85;0.3;0.85" dur="3.0s" repeatCount="indefinite"/></circle>
    <path d="M118 134 L142 134 L141 146 L119 146 Z" fill="url(#sGaunt5Cloth)" stroke="#18303d" stroke-width="1"/><path d="M119 146 L141 146 L139.5 157 L120.5 157 Z" fill="url(#sGaunt5Deep)" stroke="#18303d" stroke-width="0.9"/><path d="M118.5 139.5 L141.5 139.5" stroke="#7fd2e4" stroke-width="0.7" opacity="0.6"/><path d="M120 146 L140 146" stroke="#4dd9f0" stroke-width="1.1" opacity="0.9"/><path d="M121.5 150.5 Q130 147.5 138.5 150.5" stroke="#4dd9f0" stroke-width="0.9" fill="none" opacity="0.9"/><rect x="128.6" y="148.4" width="2.8" height="5.4" rx="1.1" fill="none" stroke="#4dd9f0" stroke-width="0.8"/><path d="M130 147.8 L130 144.6" stroke="#b2f4ff" stroke-width="0.9"/><path d="M122.5 141.4 L122.5 143.6 M122.5 142.5 L124.3 141.4 M127.1 141.4 L128.9 143.6 M128.9 141.4 L127.1 143.6 M131.7 143.6 L131.7 141.4 L133.5 141.4" stroke="#00E5FF" stroke-width="0.55" fill="none" opacity="0.85" stroke-linecap="round"/><path d="M130 133.6 L131.8 136.4 L130 139.2 L128.2 136.4 Z" fill="#00E5FF" opacity="0.9"/><path d="M120 155.6 L140 155.6" stroke="#00E5FF" stroke-width="0.9" opacity="0.5"><animate attributeName="opacity" values="0.5;0.95;0.5" dur="2.7s" repeatCount="indefinite"/></path><circle cx="134" cy="137" r="0.6" fill="#b2f4ff" opacity="0.75"><animateTransform attributeName="transform" type="translate" values="0 0;0 -6" dur="3.1s" begin="0.7s" repeatCount="indefinite"/><animate attributeName="opacity" values="0.75;0.9;0" dur="3.1s" begin="0.7s" repeatCount="indefinite"/></circle><ellipse cx="130" cy="145" rx="13" ry="10" fill="url(#sGaunt5Aura)" opacity="0.5"><animate attributeName="opacity" values="0.5;0.7;0.3;0.5" dur="4.4s" repeatCount="indefinite"/></ellipse><path d="M122 137.5 L130 135.4" stroke="#b2f4ff" stroke-width="0.45" opacity="0.5"/><path d="M130 135.4 L138 137.5" stroke="#b2f4ff" stroke-width="0.45" opacity="0.5"/><circle cx="122" cy="137.5" r="0.7" fill="#b2f4ff" opacity="0.85"><animate attributeName="opacity" values="0.85;0.3;0.85" dur="2.2s" repeatCount="indefinite"/></circle><circle cx="130" cy="135.4" r="0.7" fill="#b2f4ff" opacity="0.7"/><circle cx="138" cy="137.5" r="0.7" fill="#b2f4ff" opacity="0.85"><animate attributeName="opacity" values="0.85;0.3;0.85" dur="3.0s" repeatCount="indefinite"/></circle>
  </g>

</svg>
