<svg xmlns="http://www.w3.org/2000/svg" viewBox="0 0 180 220" width="180" height="220">

  <g id="gauntlets_legendary">
    <path d="M38 134 L62 134 L61 156 L39 156 Z" fill="#3a5377" stroke="#1d304d" stroke-width="1.15"/>
    <path d="M118 134 L142 134 L141 156 L119 156 Z" fill="#3a5377" stroke="#1d304d" stroke-width="1.15"/>
    <rect x="42.8" y="150.2" width="14.3" height="2.8" rx="1.2" fill="#e0ccb2" opacity="0.92"/>
    <rect x="122.8" y="150.2" width="14.3" height="2.8" rx="1.2" fill="#e0ccb2" opacity="0.92"/>
    <path d="M44 138 L56 138 M124 138 L136 138" stroke="#FF9800" stroke-width="1" opacity="0.8"/>
    <path d="M40 143 L60 143 M120 143 L140 143" stroke="#6a84aa" stroke-width="0.9" opacity="0.8"/><path d="M45 150 Q50 145 55 150" stroke="#FF9800" stroke-width="0.95" fill="none"/><path d="M125 150 Q130 145 135 150" stroke="#FF9800" stroke-width="0.95" fill="none"/><path d="M42 136 L58 136" stroke="#FF9800" stroke-width="1.05" opacity="0.85"/><path d="M122 136 L138 136" stroke="#FF9800" stroke-width="1.05" opacity="0.85"/><circle cx="49.5" cy="147.2" r="1.4" fill="#FF9800"/><circle cx="130.5" cy="147.2" r="1.4" fill="#FF9800"/><path d="M39 145.8 L61 145.8" stroke="#FF9800" stroke-width="1.35" opacity="0.82"/><path d="M119 145.8 L141 145.8" stroke="#FF9800" stroke-width="1.35" opacity="0.82"/>
  </g>

</svg>
