<svg xmlns="http://www.w3.org/2000/svg" viewBox="0 0 180 220" width="180" height="220">
  <defs>
    <linearGradient id="sGaunt3Cloth" x1="0" y1="0" x2="0" y2="1">
      <stop offset="0%" stop-color="#9b8fc9"/>
      <stop offset="45%" stop-color="#4b4674"/>
      <stop offset="100%" stop-color="#353055"/>
    </linearGradient>
    <linearGradient id="sGaunt3Deep" x1="0" y1="0" x2="0" y2="1">
      <stop offset="0%" stop-color="#4b4674"/>
      <stop offset="100%" stop-color="#25213d"/>
    </linearGradient>
    <radialGradient id="sGaunt3Aura" cx="0.5" cy="0.5" r="0.5">
      <stop offset="0%" stop-color="#9C27B0" stop-opacity="0.5"/>
      <stop offset="70%" stop-color="#9C27B0" stop-opacity="0.16"/>
      <stop offset="100%" stop-color="#9C27B0" stop-opacity="0.0"/>
    </radialGradient>
  </defs>

  <g id="gauntlets_epic">
    <path d="M38 134 L62 134 L61 146 L39 146 Z" fill="url(#sGaunt3Cloth)" stroke="#25213d" stroke-width="1"/><path d="M39 146 L61 146 L59.5 157 L40.5 157 Z" fill="url(#sGaunt3Deep)" stroke="#25213d" stroke-width="0.9"/><path d="M38.5 139.5 L61.5 139.5" stroke="#9b8fc9" stroke-width="0.7" opacity="0.6"/><path d="M40 146 L60 146" stroke="#b167d6" stroke-width="1.1" opacity="0.9"/><path d="M41.5 150.5 Q50 147.5 58.5 150.5" stroke="#b167d6" stroke-width="0.9" fill="none" opacity="0.9"/><rect x="48.6" y="148.4" width="2.8" height="5.4" rx="1.1" fill="none" stroke="#b167d6" stroke-width="0.8"/><path d="M50 147.8 L50 144.6" stroke="#ce93d8" stroke-width="0.9"/><path d="M42.5 141.4 L42.5 143.6 M42.5 142.5 L44.3 141.4 M47.1 141.4 L48.9 143.6 M48.9 141.4 L47.1 143.6 M51.7 143.6 L51.7 141.4 L53.5 141.4" stroke="#9C27B0" stroke-width="0.55" fill="none" opacity="0.85" stroke-linecap="round"/><path d="M50 133.6 L51.8 136.4 L50 139.2 L48.2 136.4 Z" fill="#9C27B0" opacity="0.9"/>
    <path d="M118 134 L142 134 L141 146 L119 146 Z" fill="url(#sGaunt3Cloth)" stroke="#25213d" stroke-width="1"/><path d="M119 146 L141 146 L139.5 157 L120.5 157 Z" fill="url(#sGaunt3Deep)" stroke="#25213d" stroke-width="0.9"/><path d="M118.5 139.5 L141.5 139.5" stroke="#9b8fc9" stroke-width="0.7" opacity="0.6"/><path d="M120 146 L140 146" stroke="#b167d6" stroke-width="1.1" opacity="0.9"/><path d="M121.5 150.5 Q130 147.5 138.5 150.5" stroke="#b167d6" stroke-width="0.9" fill="none" opacity="0.9"/><rect x="128.6" y="148.4" width="2.8" height="5.4" rx="1.1" fill="none" stroke="#b167d6" stroke-width="0.8"/><path d="M130 147.8 L130 144.6" stroke="#ce93d8" stroke-width="0.9"/><path d="M122.5 141.4 L122.5 143.6 M122.5 142.5 L124.3 141.4 M127.1 141.4 L128.9 143.6 M128.9 141.4 L127.1 143.6 M131.7 143.6 L131.7 141.4 L133.5 141.4" stroke="#9C27B0" stroke-width="0.55" fill="none" opacity="0.85" stroke-linecap="round"/><path d="M130 133.6 L131.8 136.4 L130 139.2 L128.2 136.4 Z" fill="#9C27B0" opacity="0.9"/>
  </g>

</svg>
