<svg xmlns="http://www.w3.org/2000/svg" viewBox="0 0 180 220" width="180" height="220">

  <g id="helmet_celestial">
    <path d="M66 44 Q90 33 114 44 L110 51 Q90 49 70 51 Z" fill="#37495f" stroke="#1a2738" stroke-width="1"/>
    <path d="M77 40 L103 40 L103 49 L77 49 Z" fill="#4a5b73" stroke="#26364b" stroke-width="0.8"/>
    <path d="M79 46 L101 46" stroke="#94a4bc" stroke-width="0.8"/>
    <circle cx="90" cy="46.2" r="1.5" fill="#00E5FF" opacity="0.9"/>
    <path d="M74 44 L106 44" stroke="#00E5FF" stroke-width="0.95" opacity="0.8"/><path d="M76 40 L90 33 L104 40" stroke="#00E5FF" stroke-width="1" fill="none" opacity="0.82"/><rect x="86" y="34" width="8" height="6" rx="1.2" fill="#24354d" stroke="#00E5FF" stroke-width="0.9"/><circle cx="90" cy="37" r="1.3" fill="#00E5FF"/><path d="M72 36 L79 31 L86 36 L93 31 L100 36 L107 31 L114 36 L114 40 L72 40 Z" fill="#2f415b" stroke="#00E5FF" stroke-width="0.9"/><ellipse cx="90" cy="44.5" rx="28.5" ry="9.2" fill="none" stroke="#00E5FF" stroke-width="0.96" opacity="0.55"/><ellipse cx="90" cy="44.5" rx="23" ry="7.2" fill="none" stroke="#bbf8ff" stroke-width="0.8" opacity="0.58"/>
  </g>

</svg>
