<?xml version="1.0" encoding="UTF-8"?>
<svg xmlns="http://www.w3.org/2000/svg" viewBox="0 0 180 220" width="180" height="220">
  <defs>
    <linearGradient id="legendary_sole" x1="0" y1="0" x2="0" y2="1">
      <stop offset="0%" stop-color="#FFF1D8"/>
      <stop offset="100%" stop-color="#DAB482"/>
    </linearGradient>
    <linearGradient id="legendary_arc" x1="0" y1="0" x2="1" y2="0">
      <stop offset="0%" stop-color="#FFD08A"/>
      <stop offset="55%" stop-color="#FF9800"/>
      <stop offset="100%" stop-color="#79ECFF"/>
    </linearGradient>
    <radialGradient id="legendary_glow" cx="50%" cy="50%" r="50%">
      <stop offset="0%" stop-color="#FFD7A2" stop-opacity="0.98"/>
      <stop offset="100%" stop-color="#FFD7A2" stop-opacity="0"/>
    </radialGradient>
    <filter id="legendary_blur" x="-150%" y="-150%" width="400%" height="400%">
      <feGaussianBlur stdDeviation="1.25"/>
    </filter>
  </defs>

  <!-- Legendary: very rounded with premium glow -->
  <g id="boots_legendary" transform="translate(90 198) scale(0.74 0.82) translate(-90 -200)">
    <ellipse cx="76.4" cy="207.7" rx="10.9" ry="1.9" fill="#000000" opacity="0.13"/>
    <ellipse cx="102.6" cy="207.7" rx="11.7" ry="2.0" fill="#000000" opacity="0.13"/>
    <ellipse cx="76.4" cy="205.8" rx="12.5" ry="2.45" fill="none" stroke="url(#legendary_arc)" stroke-width="0.84" stroke-dasharray="1.2 1.7" opacity="0">
      <animate attributeName="opacity" values="0;0.95;0" dur="1.45s" repeatCount="indefinite"/>
      <animate attributeName="stroke-dashoffset" values="0;7" dur="1.45s" repeatCount="indefinite"/>
    </ellipse>
    <ellipse cx="102.6" cy="205.8" rx="13.0" ry="2.55" fill="none" stroke="url(#legendary_arc)" stroke-width="0.84" stroke-dasharray="1.2 1.7" opacity="0">
      <animate attributeName="opacity" values="0;0.95;0" dur="1.6s" repeatCount="indefinite"/>
      <animate attributeName="stroke-dashoffset" values="0;7" dur="1.6s" repeatCount="indefinite"/>
    </ellipse>

    <rect x="66.0" y="194.0" width="21.3" height="12.3" rx="6.4" fill="#FF9800" stroke="#E65100" stroke-width="0.8"/>
    <ellipse cx="85.5" cy="200.1" rx="4.4" ry="4.9" fill="#FF9800" stroke="#E65100" stroke-width="0.72"/>
    <path d="M67.9 195.9 L85.2 195.9" stroke="#FFDDA8" stroke-width="0.68" opacity="0.88"/>
    <path d="M69.8 197.8 L82.7 197.8 M69.5 199.4 L82.4 199.4 M69.2 201.0 L82.1 201.0" stroke="#FFF3E1" stroke-width="0.53" stroke-linecap="round" opacity="0.88"/>
    <path d="M69.5 196.3 L82.2 196.3" stroke="#79ECFF" stroke-width="0.42" opacity="0.9"/>
    <rect x="65.8" y="203.2" width="22.5" height="3.2" rx="2.7" fill="url(#legendary_sole)" stroke="#B88A47" stroke-width="0.46"/>
    <circle cx="83.0" cy="197.0" r="1.7" fill="url(#legendary_glow)" filter="url(#legendary_blur)">
      <animate attributeName="r" values="1.0;2.8;1.0" dur="1.25s" repeatCount="indefinite"/>
      <animate attributeName="opacity" values="0.25;1;0.25" dur="1.25s" repeatCount="indefinite"/>
    </circle>

    <rect x="90.8" y="194.0" width="22.9" height="12.3" rx="6.4" fill="#FF9800" stroke="#E65100" stroke-width="0.8"/>
    <ellipse cx="112.3" cy="200.1" rx="4.6" ry="5.1" fill="#FF9800" stroke="#E65100" stroke-width="0.72"/>
    <path d="M93.0 195.9 L111.7 195.9" stroke="#FFDDA8" stroke-width="0.68" opacity="0.88"/>
    <path d="M95.0 197.8 L108.2 197.8 M95.3 199.4 L108.5 199.4 M95.6 201.0 L108.8 201.0" stroke="#FFF3E1" stroke-width="0.53" stroke-linecap="round" opacity="0.88"/>
    <path d="M95.3 196.3 L108.0 196.3" stroke="#79ECFF" stroke-width="0.42" opacity="0.9"/>
    <rect x="90.5" y="203.2" width="24.3" height="3.2" rx="2.7" fill="url(#legendary_sole)" stroke="#B88A47" stroke-width="0.46"/>
    <circle cx="108.4" cy="197.0" r="1.7" fill="url(#legendary_glow)" filter="url(#legendary_blur)">
      <animate attributeName="r" values="1.0;2.8;1.0" dur="1.25s" repeatCount="indefinite"/>
      <animate attributeName="opacity" values="0.25;1;0.25" dur="1.25s" repeatCount="indefinite"/>
    </circle>
  </g>
</svg>
