<?xml version="1.0" encoding="UTF-8"?>
<svg xmlns="http://www.w3.org/2000/svg" viewBox="0 0 180 220" width="180" height="220">
  <defs>
    <linearGradient id="uncommon_sole" x1="0" y1="0" x2="0" y2="1">
      <stop offset="0%" stop-color="#E9F8EA"/>
      <stop offset="100%" stop-color="#BAD9BC"/>
    </linearGradient>
  </defs>

  <!-- Uncommon: slightly more rounded -->
  <g id="boots_uncommon" transform="translate(90 194) scale(0.68 0.78) translate(-90 -200)">
    <ellipse cx="76.4" cy="207.7" rx="10.9" ry="1.9" fill="#000000" opacity="0.13"/>
    <ellipse cx="102.6" cy="207.7" rx="11.7" ry="2.0" fill="#000000" opacity="0.13"/>

    <rect x="66.3" y="194.3" width="20.8" height="11.7" rx="2.5" fill="#4CAF50" stroke="#2E7D32" stroke-width="0.74"/>
    <ellipse cx="85.3" cy="200.2" rx="2.8" ry="3.7" fill="#4CAF50" stroke="#2E7D32" stroke-width="0.64"/>
    <rect x="65.9" y="203.2" width="22.0" height="3.1" rx="1.8" fill="url(#uncommon_sole)" stroke="#5F9463" stroke-width="0.46"/>
    <path d="M70.1 198.0 L82.4 198.0 M69.8 199.6 L82.1 199.6 M69.5 201.2 L81.8 201.2" stroke="#F4FFF4" stroke-width="0.5" stroke-linecap="round" opacity="0.8"/>

    <rect x="91.1" y="194.3" width="22.6" height="11.7" rx="2.5" fill="#4CAF50" stroke="#2E7D32" stroke-width="0.74"/>
    <ellipse cx="112.2" cy="200.2" rx="3.0" ry="3.8" fill="#4CAF50" stroke="#2E7D32" stroke-width="0.64"/>
    <rect x="90.7" y="203.2" width="24.0" height="3.1" rx="1.8" fill="url(#uncommon_sole)" stroke="#5F9463" stroke-width="0.46"/>
    <path d="M95.1 198.0 L107.9 198.0 M95.4 199.6 L108.2 199.6 M95.8 201.2 L108.6 201.2" stroke="#F4FFF4" stroke-width="0.5" stroke-linecap="round" opacity="0.8"/>
  </g>
</svg>
