<?xml version="1.0" encoding="UTF-8"?>
<svg xmlns="http://www.w3.org/2000/svg" viewBox="0 0 180 220" width="180" height="220">
  <defs>
    <linearGradient id="rare_sole" x1="0" y1="0" x2="0" y2="1">
      <stop offset="0%" stop-color="#E5F4FF"/>
      <stop offset="100%" stop-color="#AECDE6"/>
    </linearGradient>
    <radialGradient id="rare_glow" cx="50%" cy="50%" r="50%">
      <stop offset="0%" stop-color="#92D7FF" stop-opacity="0.68"/>
      <stop offset="100%" stop-color="#92D7FF" stop-opacity="0"/>
    </radialGradient>
  </defs>

  <!-- Rare: clearly rounder and cleaner silhouette -->
  <g id="boots_rare" transform="translate(90 194) scale(0.68 0.78) translate(-90 -200)">
    <ellipse cx="76.4" cy="207.7" rx="10.9" ry="1.9" fill="#000000" opacity="0.13"/>
    <ellipse cx="102.6" cy="207.7" rx="11.7" ry="2.0" fill="#000000" opacity="0.13"/>

    <rect x="66.2" y="194.2" width="20.9" height="11.9" rx="3.6" fill="#2196F3" stroke="#1565C0" stroke-width="0.76"/>
    <ellipse cx="85.3" cy="200.1" rx="3.3" ry="3.9" fill="#2196F3" stroke="#1565C0" stroke-width="0.66"/>
    <path d="M68.0 196.2 L85.0 196.2" stroke="#A9DCFF" stroke-width="0.62" opacity="0.85"/>
    <path d="M69.9 198.0 L82.5 198.0 M69.6 199.6 L82.2 199.6 M69.3 201.1 L81.9 201.1" stroke="#EAF7FF" stroke-width="0.5" stroke-linecap="round" opacity="0.82"/>
    <rect x="65.8" y="203.2" width="22.3" height="3.2" rx="2.2" fill="url(#rare_sole)" stroke="#6BA9D6" stroke-width="0.46"/>
    <circle cx="82.8" cy="197.2" r="1.4" fill="url(#rare_glow)"/>

    <rect x="91.0" y="194.2" width="22.7" height="11.9" rx="3.6" fill="#2196F3" stroke="#1565C0" stroke-width="0.76"/>
    <ellipse cx="112.1" cy="200.1" rx="3.6" ry="4.1" fill="#2196F3" stroke="#1565C0" stroke-width="0.66"/>
    <path d="M93.2 196.2 L111.5 196.2" stroke="#A9DCFF" stroke-width="0.62" opacity="0.85"/>
    <path d="M95.0 198.0 L107.9 198.0 M95.3 199.6 L108.2 199.6 M95.6 201.1 L108.5 201.1" stroke="#EAF7FF" stroke-width="0.5" stroke-linecap="round" opacity="0.82"/>
    <rect x="90.6" y="203.2" width="24.1" height="3.2" rx="2.2" fill="url(#rare_sole)" stroke="#6BA9D6" stroke-width="0.46"/>
    <circle cx="108.2" cy="197.2" r="1.4" fill="url(#rare_glow)"/>
  </g>
</svg>
