<?xml version="1.0" encoding="UTF-8"?>
<svg xmlns="http://www.w3.org/2000/svg" viewBox="0 0 180 220" width="180" height="220">
  <defs>
    <linearGradient id="common_sole" x1="0" y1="0" x2="0" y2="1">
      <stop offset="0%" stop-color="#E8E8E8"/>
      <stop offset="100%" stop-color="#B5B5B5"/>
    </linearGradient>
  </defs>

  <!-- Common: most basic and least rounded -->
  <g id="boots_common">
    <ellipse cx="76.4" cy="207.7" rx="10.9" ry="1.9" fill="#000000" opacity="0.13"/>
    <ellipse cx="102.6" cy="207.7" rx="11.7" ry="2.0" fill="#000000" opacity="0.13"/>

    <rect x="66.3" y="194.4" width="20.8" height="11.5" rx="1.4" fill="#9E9E9E" stroke="#6F6F6F" stroke-width="0.72"/>
    <ellipse cx="85.2" cy="200.2" rx="2.2" ry="3.4" fill="#9E9E9E" stroke="#6F6F6F" stroke-width="0.62"/>
    <rect x="65.9" y="203.2" width="22.0" height="3.1" rx="1.4" fill="url(#common_sole)" stroke="#8B8B8B" stroke-width="0.46"/>
    <path d="M70.2 198.1 L82.4 198.1 M69.8 199.7 L82.0 199.7 M69.5 201.2 L81.7 201.2" stroke="#F3F3F3" stroke-width="0.5" stroke-linecap="round" opacity="0.74"/>

    <rect x="91.1" y="194.4" width="22.6" height="11.5" rx="1.4" fill="#9E9E9E" stroke="#6F6F6F" stroke-width="0.72"/>
    <ellipse cx="112.1" cy="200.2" rx="2.4" ry="3.5" fill="#9E9E9E" stroke="#6F6F6F" stroke-width="0.62"/>
    <rect x="90.7" y="203.2" width="24.0" height="3.1" rx="1.4" fill="url(#common_sole)" stroke="#8B8B8B" stroke-width="0.46"/>
    <path d="M95.1 198.1 L107.8 198.1 M95.4 199.7 L108.1 199.7 M95.8 201.2 L108.5 201.2" stroke="#F3F3F3" stroke-width="0.5" stroke-linecap="round" opacity="0.74"/>
  </g>
</svg>
