<svg xmlns="http://www.w3.org/2000/svg" viewBox="0 0 180 220" width="180" height="220">

  <g id="boots_celestial">
    <path d="M43 188 L74 188 L76 202 L41 202 Z" fill="#3c5276" stroke="#1d2f4a" stroke-width="1.15"/>
    <path d="M104 188 L135 188 L137 202 L102 202 Z" fill="#3c5276" stroke="#1d2f4a" stroke-width="1.15"/>
    <path d="M41 201 L77 201 L79 209 L39 209 Z" fill="#242c3a" stroke="#0f1622" stroke-width="1"/>
    <path d="M102 201 L138 201 L140 209 L100 209 Z" fill="#242c3a" stroke="#0f1622" stroke-width="1"/>
    <path d="M45 192 L74 192" stroke="#00E5FF" stroke-width="1.2" opacity="0.9"/>
    <path d="M106 192 L135 192" stroke="#00E5FF" stroke-width="1.2" opacity="0.9"/>
    <path d="M44 194 L73 194 M106 194 L135 194" stroke="#6b83a8" stroke-width="0.95" opacity="0.8"/><rect x="53" y="189.8" width="6" height="2.4" rx="1" fill="#00E5FF" opacity="0.85"/><rect x="120" y="189.8" width="6" height="2.4" rx="1" fill="#00E5FF" opacity="0.85"/><path d="M45 202.6 L74 202.6" stroke="#00E5FF" stroke-width="1.15" opacity="0.85"/><path d="M106 202.6 L135 202.6" stroke="#00E5FF" stroke-width="1.15" opacity="0.85"/><path d="M48 188 Q60 181 72 188" stroke="#00E5FF" stroke-width="1" fill="none" opacity="0.85"/><path d="M108 188 Q120 181 132 188" stroke="#00E5FF" stroke-width="1" fill="none" opacity="0.85"/><ellipse cx="60" cy="207" rx="12" ry="3.2" fill="none" stroke="#00E5FF" stroke-width="0.9" opacity="0.55"/><ellipse cx="120" cy="207" rx="12" ry="3.2" fill="none" stroke="#00E5FF" stroke-width="0.9" opacity="0.55"/>
  </g>

</svg>
