<?xml version="1.0" encoding="UTF-8"?>
<svg xmlns="http://www.w3.org/2000/svg" viewBox="0 0 180 220" width="180" height="220">
  <defs>
    <linearGradient id="tactical_shell" x1="0" y1="0" x2="0" y2="1">
      <stop offset="0%" stop-color="#6f7d89"/>
      <stop offset="100%" stop-color="#394754"/>
    </linearGradient>
    <linearGradient id="tactical_palm" x1="0" y1="0" x2="0" y2="1">
      <stop offset="0%" stop-color="#9daab6"/>
      <stop offset="100%" stop-color="#617486"/>
    </linearGradient>
    <radialGradient id="tactical_cyan_glow" cx="50%" cy="50%" r="50%">
      <stop offset="0%" stop-color="#dbffff" stop-opacity="0.95"/>
      <stop offset="100%" stop-color="#53edff" stop-opacity="0"/>
    </radialGradient>
  </defs>

  <!-- Celestial: Tactical Hands -->
  <g id="gauntlets_celestial">
    <path d="M56.2 112.0 Q52.8 123.6 57.4 135.8 L67.3 132.7 Q70.0 123.8 66.9 112.0 Z" fill="url(#tactical_shell)" stroke="#162028" stroke-width="0.9"/>
    <rect x="56.6" y="130.7" width="11.4" height="3.8" rx="1.2" fill="#4be9ff" opacity="0.96"/>
    <circle cx="64" cy="138" r="4.9" fill="url(#tactical_palm)" stroke="#162028" stroke-width="0.9"/>
    <path d="M59.8 130.0 L64.0 127.9 L68.2 130.0" fill="none" stroke="#b5f8ff" stroke-width="0.75" opacity="0.92"/>
    <circle cx="64" cy="133.0" r="1.55" fill="#71f4ff"/>
    <circle cx="64" cy="133.0" r="3.3" fill="url(#tactical_cyan_glow)" opacity="0.72">
      <animate attributeName="r" values="2.9;4.2;2.9" dur="1.9s" repeatCount="indefinite"/>
      <animate attributeName="opacity" values="0.30;0.88;0.30" dur="1.9s" repeatCount="indefinite"/>
    </circle>
    <path d="M60.6 140.0 L67.4 140.0" stroke="#8defff" stroke-width="0.68" opacity="0.9"/>

    <path d="M123.8 112.0 Q127.2 123.6 122.6 135.8 L112.7 132.7 Q110.0 123.8 113.1 112.0 Z" fill="url(#tactical_shell)" stroke="#162028" stroke-width="0.9"/>
    <rect x="112.0" y="130.7" width="11.4" height="3.8" rx="1.2" fill="#4be9ff" opacity="0.96"/>
    <circle cx="116" cy="138" r="4.9" fill="url(#tactical_palm)" stroke="#162028" stroke-width="0.9"/>
    <path d="M111.8 130.0 L116.0 127.9 L120.2 130.0" fill="none" stroke="#b5f8ff" stroke-width="0.75" opacity="0.92"/>
    <circle cx="116" cy="133.0" r="1.55" fill="#71f4ff"/>
    <circle cx="116" cy="133.0" r="3.3" fill="url(#tactical_cyan_glow)" opacity="0.72">
      <animate attributeName="r" values="2.9;4.2;2.9" dur="2.2s" repeatCount="indefinite"/>
      <animate attributeName="opacity" values="0.30;0.88;0.30" dur="2.2s" repeatCount="indefinite"/>
    </circle>
    <path d="M112.6 140.0 L119.4 140.0" stroke="#8defff" stroke-width="0.68" opacity="0.9"/>
  </g>
</svg>
