<?xml version="1.0" encoding="UTF-8"?>
<svg xmlns="http://www.w3.org/2000/svg" viewBox="0 0 180 220" width="180" height="220">
  <defs>
    <linearGradient id="rapid_shell" x1="0" y1="0" x2="0" y2="1">
      <stop offset="0%" stop-color="#64717f"/>
      <stop offset="100%" stop-color="#31404c"/>
    </linearGradient>
    <linearGradient id="rapid_palm" x1="0" y1="0" x2="0" y2="1">
      <stop offset="0%" stop-color="#8a98a5"/>
      <stop offset="100%" stop-color="#4e6273"/>
    </linearGradient>
    <filter id="rapid_blur" x="-40%" y="-40%" width="180%" height="180%">
      <feGaussianBlur stdDeviation="0.7"/>
    </filter>
  </defs>

  <!-- Epic: Rapid-Cuff Mitts -->
  <g id="gauntlets_epic">
    <path d="M56.2 112.0 Q52.8 123.6 57.4 135.8 L67.3 132.7 Q70.0 123.8 66.9 112.0 Z" fill="url(#rapid_shell)" stroke="#162028" stroke-width="0.9"/>
    <rect x="56.8" y="130.9" width="11.0" height="3.5" rx="1.2" fill="#a845d6" opacity="0.94"/>
    <circle cx="64" cy="138" r="4.9" fill="url(#rapid_palm)" stroke="#162028" stroke-width="0.9"/>
    <rect x="60.5" y="129.0" width="1.2" height="2.1" rx="0.4" fill="#edbaff"/>
    <rect x="63.4" y="128.5" width="1.2" height="2.5" rx="0.4" fill="#cf88f7"/>
    <rect x="66.3" y="129.1" width="1.2" height="2.0" rx="0.4" fill="#edbaff"/>
    <path d="M60.4 140.0 L67.2 140.0" stroke="#c787ea" stroke-width="0.66" opacity="0.9"/>
    <circle cx="64" cy="133.0" r="1.3" fill="#be69e8">
      <animate attributeName="opacity" values="0.35;1.0;0.35" dur="1.7s" repeatCount="indefinite"/>
    </circle>
    <circle cx="64" cy="133.0" r="2.4" fill="#cc85f2" opacity="0.0" filter="url(#rapid_blur)">
      <animate attributeName="opacity" values="0.0;0.55;0.0" dur="1.7s" repeatCount="indefinite"/>
    </circle>

    <path d="M123.8 112.0 Q127.2 123.6 122.6 135.8 L112.7 132.7 Q110.0 123.8 113.1 112.0 Z" fill="url(#rapid_shell)" stroke="#162028" stroke-width="0.9"/>
    <rect x="112.2" y="130.9" width="11.0" height="3.5" rx="1.2" fill="#a845d6" opacity="0.94"/>
    <circle cx="116" cy="138" r="4.9" fill="url(#rapid_palm)" stroke="#162028" stroke-width="0.9"/>
    <rect x="112.5" y="129.0" width="1.2" height="2.1" rx="0.4" fill="#edbaff"/>
    <rect x="115.4" y="128.5" width="1.2" height="2.5" rx="0.4" fill="#cf88f7"/>
    <rect x="118.3" y="129.1" width="1.2" height="2.0" rx="0.4" fill="#edbaff"/>
    <path d="M112.8 140.0 L119.6 140.0" stroke="#c787ea" stroke-width="0.66" opacity="0.9"/>
    <circle cx="116" cy="133.0" r="1.3" fill="#be69e8">
      <animate attributeName="opacity" values="0.35;1.0;0.35" dur="2.0s" repeatCount="indefinite"/>
    </circle>
    <circle cx="116" cy="133.0" r="2.4" fill="#cc85f2" opacity="0.0" filter="url(#rapid_blur)">
      <animate attributeName="opacity" values="0.0;0.55;0.0" dur="2.0s" repeatCount="indefinite"/>
    </circle>
  </g>
</svg>
