<?xml version="1.0" encoding="UTF-8"?>
<svg xmlns="http://www.w3.org/2000/svg" viewBox="0 0 180 220">
<defs>
    <linearGradient id="vestGrey" x1="0%" y1="0%" x2="0%" y2="100%">
        <stop offset="0%" stop-color="#616161"/>
        <stop offset="100%" stop-color="#424242"/>
    </linearGradient>
    <filter id="fabricTexture">
        <feTurbulence type="fractalNoise" baseFrequency="0.6" numOctaves="3" result="noise"/>
        <feColorMatrix type="matrix" values="1 0 0 0 0  0 1 0 0 0  0 0 1 0 0  0 0 0 0.15 0"/>
        <feBlend in="SourceGraphic" in2="noise" mode="multiply"/>
    </filter>
    <pattern id="stitchPattern" width="40" height="40" patternUnits="userSpaceOnUse" patternTransform="rotate(45)">
        <path d="M0 20 L40 20 M20 0 L20 40" stroke="#212121" stroke-width="0.5" opacity="0.5"/>
    </pattern>
</defs>
<g transform="translate(0, 10)">
    <!-- Base Vest Shape -->
    <path d="M50 40 L130 40 L125 100 L120 160 L60 160 L55 100 Z" fill="url(#vestGrey)" stroke="#212121" stroke-width="1" filter="url(#fabricTexture)"/>
    
    <!-- Quilt Overlay -->
    <path d="M50 40 L130 40 L125 100 L120 160 L60 160 L55 100 Z" fill="url(#stitchPattern)" opacity="0.6"/>
    
    <!-- Heavy Zipper -->
    <rect x="88" y="40" width="4" height="120" fill="#333"/>
    <path d="M90 40 L90 160" stroke="#9E9E9E" stroke-width="2" stroke-dasharray="2,2"/>
    
    <!-- Collar/Neck Guard -->
    <path d="M50 40 Q60 55 70 60 L110 60 Q120 55 130 40" stroke="#212121" stroke-width="2" fill="none"/>
    
    <!-- Breathing Animation -->
    <animateTransform attributeName="transform" type="scale" values="1 1; 1.01 0.99; 1 1" dur="4s" repeatCount="indefinite" additive="sum" transform-origin="90 100"/>
</g>
</svg>
