<svg xmlns="http://www.w3.org/2000/svg" viewBox="0 0 180 220" width="180" height="220">

  <g id="gauntlets_celestial">
    <path d="M38 134 L62 134 L61 156 L39 156 Z" fill="#dbe2ec" stroke="#97a3b4" stroke-width="1"/>
    <path d="M118 134 L142 134 L141 156 L119 156 Z" fill="#dbe2ec" stroke="#97a3b4" stroke-width="1"/>
    <rect x="42.8" y="150.2" width="14.3" height="2.8" rx="1.2" fill="#f6fbff" opacity="0.92"/>
    <rect x="122.8" y="150.2" width="14.3" height="2.8" rx="1.2" fill="#f6fbff" opacity="0.92"/>
    <path d="M44.5 138 L55.5 138 M124.5 138 L135.5 138" stroke="#415370" stroke-width="0.9"/>
    <path d="M40 143 L60 143 M120 143 L140 143" stroke="#7f90ab" stroke-width="0.85" opacity="0.75"/><path d="M44 136 L56 136 M124 136 L136 136" stroke="#00E5FF" stroke-width="0.95" opacity="0.82"/><circle cx="49.5" cy="147.2" r="1.4" fill="#00E5FF"/><circle cx="130.5" cy="147.2" r="1.4" fill="#00E5FF"/><path d="M39 145.8 L61 145.8" stroke="#00E5FF" stroke-width="1.22" opacity="0.82"/><path d="M119 145.8 L141 145.8" stroke="#00E5FF" stroke-width="1.22" opacity="0.82"/><ellipse cx="50" cy="146.4" rx="8.2" ry="3" fill="none" stroke="#00E5FF" stroke-width="0.82" opacity="0.54"/><ellipse cx="130" cy="146.4" rx="8.2" ry="3" fill="none" stroke="#00E5FF" stroke-width="0.82" opacity="0.54"/>
  </g>

</svg>
