<svg xmlns="http://www.w3.org/2000/svg" viewBox="0 0 180 220" width="180" height="220">

  <g id="chestplate_rare">
    <path d="M70 79 L110 79 Q115 86 115 97 L112 145 L68 145 L65 97 Q65 86 70 79 Z" fill="#283d60" stroke="#15243a" stroke-width="1.25"/>
    <path d="M74 85 L106 85 L104 137 L76 137 Z" fill="#36507c" opacity="0.9"/>
    <path d="M72 80 L86 88 L80 133 L72 131 Z" fill="#23334d" opacity="0.8"/><path d="M108 80 L94 88 L100 133 L108 131 Z" fill="#23334d" opacity="0.8"/>
    <path d="M90 84 L90 139" stroke="#17263f" stroke-width="1" opacity="0.74"/>
    <path d="M76 136 Q90 141 104 136" stroke="#2196F3" stroke-width="1.25" opacity="0.78" fill="none"/>
    <path d="M74 92 L106 92 M74 103 L106 103 M74 114 L106 114" stroke="#546e95" stroke-width="0.9" opacity="0.72"/><path d="M70 81 L80 76 L100 76 L110 81" stroke="#2196F3" stroke-width="1" fill="none" opacity="0.8"/><rect x="86" y="95" width="8" height="20" rx="2" fill="#17263d" stroke="#2196F3" stroke-width="0.9"/>
  </g>

</svg>
