<svg xmlns="http://www.w3.org/2000/svg" viewBox="0 0 180 220" width="180" height="220">
  <g id="qt_anim_driver">
    <animateTransform attributeName="transform" type="translate" values="0 0; 0 -0.9; 0 0" dur="2.6s" repeatCount="indefinite"/>


  <g id="shield_celestial">
    <path d="M28 94 L64 90 L67 119.0 L62 156 L30 154 L26 129.6 Z" fill="#365071" stroke="#16253c" stroke-width="1.3"/>
    <path d="M28 94 L64 90 L67 119.0 L62 156 L30 154 L26 129.6 Z" fill="none" stroke="#00E5FF" stroke-width="1" opacity="0.95"/>
    <path d="M31 103 L61 102" stroke="#a3bbdf" stroke-width="0.9" opacity="0.6"/>
    <path d="M33 106 L58 106 M33 116 L58 116" stroke="#5e769d" stroke-width="1.05" opacity="0.8"/><path d="M34 99 L59 99 L59 146 L34 146 Z" fill="none" stroke="#00E5FF" stroke-width="0.85" opacity="0.7"/><rect x="34" y="104" width="25" height="2" fill="#00E5FF" opacity="0.95"><animate attributeName="y" values="104;141;104" dur="2.3s" repeatCount="indefinite"/></rect><circle cx="46.5" cy="127.0" r="5.4" fill="#192d47" stroke="#00E5FF" stroke-width="1.2"/><path d="M43.5 127.0 L49.5 127.0 M46.5 124.0 L46.5 130.0" stroke="#00E5FF" stroke-width="1.1"/><ellipse cx="46.5" cy="125.0" rx="29.5" ry="38.0" fill="none" stroke="#00E5FF" stroke-width="1.1" opacity="0.52"/>
  </g>

  </g>
</svg>
