<?xml version="1.0" encoding="UTF-8"?>
<svg xmlns="http://www.w3.org/2000/svg" viewBox="0 0 180 220" width="180" height="220">
  <defs>
    <linearGradient id="e_frame" x1="0" y1="0" x2="0" y2="1">
      <stop offset="0%" stop-color="#d5b4f3"/>
      <stop offset="100%" stop-color="#8a61b8"/>
    </linearGradient>
    <linearGradient id="e_panel" x1="0" y1="0" x2="0" y2="1">
      <stop offset="0%" stop-color="#f4ecff"/>
      <stop offset="100%" stop-color="#e2d3f7"/>
    </linearGradient>
    <linearGradient id="e_sheen" x1="0" y1="0" x2="1" y2="0">
      <stop offset="0%" stop-color="#ffffff" stop-opacity="0"/>
      <stop offset="50%" stop-color="#f3ddff" stop-opacity="0.52"/>
      <stop offset="100%" stop-color="#ffffff" stop-opacity="0"/>
    </linearGradient>
    <radialGradient id="e_glow" cx="50%" cy="50%" r="50%">
      <stop offset="0%" stop-color="#e5bcff" stop-opacity="0.88"/>
      <stop offset="100%" stop-color="#e5bcff" stop-opacity="0"/>
    </radialGradient>
  </defs>

  <!-- Epic ID badge (rarity accent: purple, plus cyan/gold contrasts) -->
  <g id="amulet_epic" transform="translate(90 111) scale(1.05) translate(-90 -111)">
    <path d="M86.4 98.0 L90.0 102.4 L93.6 98.0" fill="none" stroke="#7d59a8" stroke-width="0.9" stroke-linecap="round" stroke-linejoin="round"/>
    <path d="M87.2 98.8 L90.0 102.1 L92.8 98.8" fill="none" stroke="#58cddd" stroke-width="0.44" opacity="0.66" stroke-linecap="round"/>
    <rect x="88.5" y="101.7" width="3.0" height="2.45" rx="0.5" fill="#b68cde" stroke="#664691" stroke-width="0.47"/>

    <rect x="84.0" y="103.8" width="12.0" height="14.0" rx="1.68" fill="url(#e_frame)" stroke="#62418a" stroke-width="0.92"/>
    <rect x="84.8" y="104.7" width="10.4" height="12.0" rx="1.24" fill="url(#e_panel)" stroke="#aa89ce" stroke-width="0.42"/>
    <rect x="85.2" y="104.8" width="9.6" height="2.8" rx="0.76" fill="#eddcff" opacity="0.8"/>
    <rect x="86.0" y="108.3" width="2.7" height="3.1" rx="0.5" fill="#f8efff" stroke="#7f5aaa" stroke-width="0.41"/>
    <path d="M89.6 108.8 L93.8 108.8 M89.6 110.3 L93.1 110.3 M86.0 112.6 L94.1 112.6 M86.0 114.2 L93.0 114.2" stroke="#7a58a3" stroke-width="0.45" stroke-linecap="round"/>

    <rect x="85.9" y="115.3" width="8.0" height="1.0" rx="0.36" fill="#9c27b0" opacity="0.86"/>
    <path d="M85.8 111.9 L93.9 111.9" stroke="#56cde2" stroke-width="0.46" opacity="0.7"/>
    <circle cx="93.6" cy="116.3" r="1.05" fill="#efd8ff"/>
    <circle cx="93.6" cy="116.3" r="2.55" fill="url(#e_glow)" opacity="0.62"/>
    <rect x="85.7" y="109.1" width="0.95" height="4.7" rx="0.3" fill="#56cde2" opacity="0.82"/>
    <circle cx="86.5" cy="116.3" r="0.76" fill="#f5b45f" opacity="0.94"/>

    <rect x="84.5" y="105.0" width="2.5" height="12.4" rx="0.7" fill="url(#e_sheen)" opacity="0">
      <animate attributeName="x" values="84.5;92.9;84.5" dur="2.2s" repeatCount="indefinite"/>
      <animate attributeName="opacity" values="0;0.88;0" dur="2.2s" repeatCount="indefinite"/>
    </rect>
  </g>
</svg>
