<?xml version="1.0" encoding="UTF-8"?>
<svg xmlns="http://www.w3.org/2000/svg" viewBox="0 0 180 220" width="180" height="220">
  <defs>
    <linearGradient id="r_frame" x1="0" y1="0" x2="0" y2="1">
      <stop offset="0%" stop-color="#abd8ff"/>
      <stop offset="100%" stop-color="#6d9fcf"/>
    </linearGradient>
    <linearGradient id="r_panel" x1="0" y1="0" x2="0" y2="1">
      <stop offset="0%" stop-color="#eef7ff"/>
      <stop offset="100%" stop-color="#d7e9fb"/>
    </linearGradient>
    <radialGradient id="r_glow" cx="50%" cy="50%" r="50%">
      <stop offset="0%" stop-color="#9fd8ff" stop-opacity="0.78"/>
      <stop offset="100%" stop-color="#9fd8ff" stop-opacity="0"/>
    </radialGradient>
  </defs>

  <!-- Rare ID badge (rarity accent: blue) -->
  <g id="amulet_rare" transform="translate(90 111) scale(0.97) translate(-90 -111)">
    <path d="M86.4 98.0 L90.0 102.4 L93.6 98.0" fill="none" stroke="#4f81b0" stroke-width="0.86" stroke-linecap="round" stroke-linejoin="round"/>
    <path d="M87.2 98.8 L90.0 102.1 L92.8 98.8" fill="none" stroke="#7f69c7" stroke-width="0.42" opacity="0.55" stroke-linecap="round"/>
    <rect x="88.5" y="101.8" width="3.0" height="2.4" rx="0.5" fill="#7eabcf" stroke="#436f98" stroke-width="0.46"/>

    <rect x="84.1" y="103.9" width="11.8" height="13.8" rx="1.65" fill="url(#r_frame)" stroke="#4878a5" stroke-width="0.88"/>
    <rect x="84.9" y="104.7" width="10.2" height="11.9" rx="1.22" fill="url(#r_panel)" stroke="#93b7d9" stroke-width="0.4"/>
    <rect x="85.2" y="104.9" width="9.6" height="2.75" rx="0.76" fill="#e2f2ff" opacity="0.8"/>
    <rect x="86.0" y="108.3" width="2.7" height="3.1" rx="0.5" fill="#f0f8ff" stroke="#5b8ab7" stroke-width="0.4"/>
    <path d="M89.6 108.8 L93.7 108.8 M89.6 110.3 L93.0 110.3 M86.0 112.6 L94.0 112.6 M86.0 114.2 L92.9 114.2" stroke="#5988b5" stroke-width="0.44" stroke-linecap="round"/>

    <rect x="85.9" y="115.3" width="7.9" height="0.96" rx="0.36" fill="#2196f3" opacity="0.82"/>
    <circle cx="93.6" cy="116.2" r="1.0" fill="#bde7ff"/>
    <circle cx="93.6" cy="116.2" r="2.35" fill="url(#r_glow)" opacity="0.58"/>
    <rect x="85.6" y="109.1" width="0.9" height="4.6" rx="0.3" fill="#8b6de0" opacity="0.75"/>
    <circle cx="86.4" cy="116.2" r="0.74" fill="#f4b460" opacity="0.9"/>
  </g>
</svg>
