<?xml version="1.0" encoding="UTF-8"?>
<svg xmlns="http://www.w3.org/2000/svg" viewBox="0 0 180 220" width="180" height="220">
  <defs>
    <linearGradient id="l_frame" x1="0" y1="0" x2="0" y2="1">
      <stop offset="0%" stop-color="#ffb74d"/>
      <stop offset="55%" stop-color="#ff9800"/>
      <stop offset="100%" stop-color="#e65100"/>
    </linearGradient>
    <linearGradient id="l_panel" x1="0" y1="0" x2="0" y2="1">
      <stop offset="0%" stop-color="#ffe0b2"/>
      <stop offset="100%" stop-color="#ffb74d"/>
    </linearGradient>
    <radialGradient id="l_glow" cx="50%" cy="50%" r="50%">
      <stop offset="0%" stop-color="#ffd79f" stop-opacity="0.93"/>
      <stop offset="100%" stop-color="#ff9800" stop-opacity="0"/>
    </radialGradient>
    <linearGradient id="l_sheen" x1="0" y1="0" x2="1" y2="0">
      <stop offset="0%" stop-color="#ffffff" stop-opacity="0"/>
      <stop offset="50%" stop-color="#ffe8bf" stop-opacity="0.57"/>
      <stop offset="100%" stop-color="#ffffff" stop-opacity="0"/>
    </linearGradient>
  </defs>

  <g id="qt_anim_driver">
    <animateTransform attributeName="transform" type="translate" values="0 0; 0 -0.9; 0 0" dur="2.6s" repeatCount="indefinite"/>


  <!-- Legendary ID badge (rarity accent: orange, plus cyan/violet contrasts) -->
  <g id="amulet_legendary" transform="translate(90 87) scale(1.13) translate(-90 -111)">
    <path d="M86.3 97.8 L90.0 102.4 L93.7 97.8" fill="none" stroke="#a96b1f" stroke-width="0.92" stroke-linecap="round" stroke-linejoin="round"/>
    <path d="M87.2 98.7 L90.0 102.1 L92.8 98.7" fill="none" stroke="#67d7f2" stroke-width="0.45" opacity="0.72" stroke-linecap="round"/>
    <rect x="88.5" y="101.7" width="3.0" height="2.45" rx="0.5" fill="#e8b062" stroke="#925d1a" stroke-width="0.48"/>

    <rect x="83.9" y="103.7" width="12.2" height="14.1" rx="1.72" fill="url(#l_frame)" stroke="#ff9800" stroke-width="0.94"/>
    <rect x="84.8" y="104.6" width="10.4" height="12.1" rx="1.26" fill="url(#l_panel)" stroke="#d4a568" stroke-width="0.43"/>
    <rect x="85.2" y="104.8" width="9.6" height="2.85" rx="0.78" fill="#ffe8c4" opacity="0.82"/>
    <rect x="86.0" y="108.3" width="2.8" height="3.2" rx="0.5" fill="#fff3de" stroke="#b87a2e" stroke-width="0.42"/>
    <path d="M89.6 108.8 L93.9 108.8 M89.6 110.3 L93.2 110.3 M86.0 112.6 L94.2 112.6 M86.0 114.2 L93.1 114.2" stroke="#9e6621" stroke-width="0.46" stroke-linecap="round"/>

    <rect x="85.9" y="115.3" width="8.1" height="1.02" rx="0.36" fill="#ff9800" opacity="0.98"/>
    <path d="M85.8 111.9 L94.0 111.9" stroke="#6dd8f2" stroke-width="0.48" opacity="0.78"/>
    <rect x="85.8" y="109.0" width="0.98" height="4.9" rx="0.3" fill="#8f70d6" opacity="0.8"/>
    <circle cx="86.6" cy="116.3" r="0.78" fill="#8f70d6" opacity="0.82"/>
    <path d="M91.9 116.0 L92.6 116.8 L93.5 115.6" fill="none" stroke="#8c5513" stroke-width="0.44" stroke-linecap="round" stroke-linejoin="round"/>
    <circle cx="93.7" cy="116.3" r="1.12" fill="#ffe8c6"/>
    <circle cx="93.7" cy="116.3" r="2.75" fill="url(#l_glow)" opacity="0.64">
      <animate attributeName="r" values="1.8;3.5;1.8" dur="1.45s" repeatCount="indefinite"/>
      <animate attributeName="opacity" values="0.28;0.95;0.28" dur="1.45s" repeatCount="indefinite"/>
    </circle>
    <rect x="84.5" y="105.0" width="2.6" height="12.5" rx="0.72" fill="url(#l_sheen)" opacity="0">
      <animate attributeName="x" values="84.5;93.3;84.5" dur="2.0s" repeatCount="indefinite"/>
      <animate attributeName="opacity" values="0;0.9;0" dur="2.0s" repeatCount="indefinite"/>
    </rect>
  </g>
  </g>
</svg>
