<?xml version="1.0" encoding="UTF-8"?>
<svg xmlns="http://www.w3.org/2000/svg" viewBox="0 0 180 220" width="180" height="220">
  <defs>
    <linearGradient id="u_frame" x1="0" y1="0" x2="0" y2="1">
      <stop offset="0%" stop-color="#abd2ae"/>
      <stop offset="100%" stop-color="#6d9a70"/>
    </linearGradient>
    <linearGradient id="u_panel" x1="0" y1="0" x2="0" y2="1">
      <stop offset="0%" stop-color="#f1f8ef"/>
      <stop offset="100%" stop-color="#d8ead7"/>
    </linearGradient>
  </defs>

  <!-- Uncommon ID badge (rarity accent: green) -->
  <g id="amulet_uncommon" transform="translate(90 87) scale(0.90) translate(-90 -111)">
    <path d="M86.5 98.1 L90.0 102.4 L93.5 98.1" fill="none" stroke="#5b8660" stroke-width="0.84" stroke-linecap="round" stroke-linejoin="round"/>
    <path d="M87.3 98.9 L90.0 102.1 L92.7 98.9" fill="none" stroke="#4caed5" stroke-width="0.42" opacity="0.58" stroke-linecap="round"/>
    <rect x="88.5" y="101.8" width="3.0" height="2.4" rx="0.5" fill="#8ab18e" stroke="#496c4d" stroke-width="0.46"/>

    <rect x="84.2" y="104.0" width="11.6" height="13.6" rx="1.62" fill="url(#u_frame)" stroke="#4d7852" stroke-width="0.86"/>
    <rect x="84.9" y="104.8" width="10.2" height="11.8" rx="1.22" fill="url(#u_panel)" stroke="#95b898" stroke-width="0.4"/>
    <rect x="85.2" y="104.9" width="9.6" height="2.7" rx="0.75" fill="#dff2df" opacity="0.8"/>
    <rect x="86.0" y="108.3" width="2.7" height="3.1" rx="0.5" fill="#eefaf0" stroke="#6d9272" stroke-width="0.39"/>
    <path d="M89.5 108.8 L93.6 108.8 M89.5 110.3 L92.9 110.3 M86.0 112.6 L93.9 112.6 M86.0 114.2 L92.8 114.2" stroke="#658f6a" stroke-width="0.43" stroke-linecap="round"/>

    <rect x="85.9" y="115.3" width="7.8" height="0.95" rx="0.36" fill="#4caf50" opacity="0.78"/>
    <circle cx="93.5" cy="116.2" r="0.92" fill="#f4b45f"/>
    <circle cx="86.6" cy="116.2" r="0.72" fill="#59c6c1" opacity="0.8"/>
  </g>
</svg>
